<?xml version="1.0" encoding="UTF-8" standalone="no"?><!DOCTYPE svg PUBLIC "-//W3C//DTD SVG 1.1//EN" "http://www.w3.org/Graphics/SVG/1.1/DTD/svg11.dtd"><svg width="100%" height="100%" viewBox="0 0 176 160" version="1.1" xmlns="http://www.w3.org/2000/svg" xmlns:xlink="http://www.w3.org/1999/xlink" xml:space="preserve" xmlns:serif="http://www.serif.com/" style="fill-rule:evenodd;clip-rule:evenodd;stroke-linejoin:round;stroke-miterlimit:2;"><rect id="Artboard1" x="0" y="0" width="175.604" height="159.125" style="fill:none;"/><g><g><rect x="14.364" y="90.099" width="145.469" height="8.99" style="fill:#fff200;fill-rule:nonzero;"/><path d="M14.375,10.705l41.85,0l0,14.052l-27.731,0l0,11.416l27.731,0l0,13.372l-27.731,0l0,11.416l27.731,0l0,14.054l-41.85,0l0,-64.31Z" style="fill:#074ea2;fill-rule:nonzero;"/><path d="M66.502,57.496c5.603,2.587 10.692,4.442 16.943,4.442c3.749,0 6.437,-0.732 8.148,-1.804c1.712,-1.075 2.548,-2.492 2.548,-4.052c0,-2.342 -1.852,-3.855 -4.63,-5.221c-1.391,-0.634 -2.962,-1.268 -4.724,-1.902c-3.564,-1.17 -7.312,-2.635 -10.83,-4.683c-3.566,-2.051 -6.437,-4.882 -8.103,-8.93c-0.881,-2.001 -1.296,-4.442 -1.296,-7.222c0,-7.219 3.055,-11.809 7.451,-14.588c4.4,-2.782 10.095,-3.806 15.418,-3.806c6.248,0 11.758,1.366 15.462,2.731l0,12.978l-0.14,0.196c-1.064,-0.342 -3.148,-0.878 -5.693,-1.319c-2.593,-0.437 -5.603,-0.78 -8.566,-0.78c-2.592,0 -5.137,0.292 -7.082,1.027c-1.944,0.73 -3.24,1.903 -3.24,3.805c0,2.295 1.899,3.905 4.815,5.269c1.433,0.732 3.1,1.414 4.952,2.048c3.703,1.369 7.639,2.879 11.343,4.882c3.703,1.998 6.714,4.73 8.47,8.44c0.881,1.902 1.297,4.098 1.297,6.587c0,6.588 -3.286,11.66 -8.193,15.126c-4.907,3.464 -11.436,5.271 -17.869,5.271c-6.111,0 -12.037,-1.61 -16.481,-4.929l0,-13.566Z" style="fill:#074ea2;fill-rule:nonzero;"/><path d="M117.378,10.705l41.849,0l0,14.052l-27.731,0l0,11.416l27.731,0l0,13.372l-27.731,0l0,25.47l-14.118,0l0,-64.31Z" style="fill:#074ea2;fill-rule:nonzero;"/><rect x="14.42" y="112.569" width="1.512" height="13.636" style="fill:#074ea2;fill-rule:nonzero;"/><path d="M20.596,115.57l0,10.635l-1.521,0l0,-13.636l1.582,0l6.254,10.542l0,-10.542l1.524,0l0,13.636l-1.524,0l-6.315,-10.635Z" style="fill:#074ea2;fill-rule:nonzero;"/><path d="M30.152,112.569l1.571,0l3.897,11.928l3.897,-11.928l1.571,0l-4.455,13.636l-2.034,0l-4.447,-13.636Z" style="fill:#074ea2;fill-rule:nonzero;"/><path d="M42.906,112.569l7.797,0l0,1.49l-6.276,0l0,4.583l6.276,0l0,1.49l-6.276,0l0,4.583l6.276,0l0,1.49l-7.797,0l0,-13.636Z" style="fill:#074ea2;fill-rule:nonzero;"/><path d="M52.078,124.363l0.031,-0.01c0.685,0.331 1.953,0.568 2.845,0.568c1.493,0 2.968,-0.568 2.968,-2.244c0,-0.911 -0.404,-1.448 -1.139,-1.935c-0.62,-0.414 -3.086,-1.634 -3.613,-2.1c-0.629,-0.527 -1.022,-1.376 -1.022,-2.608c0,-2.566 1.737,-3.673 4.007,-3.673c0.794,0 1.571,0.145 2.278,0.362l0,1.367l-0.031,0.021c-0.589,-0.125 -1.422,-0.281 -2.247,-0.281c-1.437,0 -2.624,0.487 -2.624,2.081c0,0.672 0.205,1.045 0.559,1.376c0.639,0.6 2.654,1.459 3.625,2.193c1.06,0.796 1.621,1.324 1.621,2.845c0,2.711 -2.152,4.086 -4.618,4.086c-0.942,0 -1.854,-0.196 -2.64,-0.599l0,-1.449Z" style="fill:#074ea2;fill-rule:nonzero;"/><path d="M60.661,112.569l9.528,0l0,1.49l-4.007,0l0,12.146l-1.515,0l0,-12.146l-4.006,0l0,-1.49Z" style="fill:#074ea2;fill-rule:nonzero;"/><path d="M72.2,112.569l7.797,0l0,1.49l-6.273,0l0,4.583l6.273,0l0,1.49l-6.273,0l0,4.583l6.273,0l0,1.49l-7.797,0l0,-13.636Z" style="fill:#074ea2;fill-rule:nonzero;"/><path d="M82.06,112.569l7.797,0l0,1.49l-6.274,0l0,4.583l6.274,0l0,1.49l-6.274,0l0,4.583l6.274,0l0,1.49l-7.797,0l0,-13.636Z" style="fill:#074ea2;fill-rule:nonzero;"/><path d="M93.442,114.069l0,6.177l1.305,0c1.414,0 2.561,-0.187 3.37,-0.663c0.802,-0.475 1.245,-1.251 1.245,-2.421c0,-1.241 -0.421,-2.017 -1.189,-2.483c-0.764,-0.454 -1.855,-0.61 -3.182,-0.61l-1.549,0Zm-1.523,12.136l0,-13.636l3.173,0c2.16,0 3.591,0.352 4.495,1.086c0.903,0.745 1.268,1.852 1.268,3.372c0,1.045 -0.196,1.873 -0.578,2.526c-0.384,0.662 -0.935,1.127 -1.611,1.459c0.158,0.423 0.432,0.962 0.786,1.51c0.342,0.548 0.755,1.107 1.195,1.562c0.432,0.465 0.887,0.848 1.319,1.024l-0.836,1.303c-0.511,-0.114 -1.041,-0.527 -1.543,-1.096c-0.511,-0.569 -0.991,-1.262 -1.403,-1.955c-0.413,-0.693 -0.758,-1.355 -0.982,-1.852c-0.836,0.176 -1.787,0.237 -2.817,0.237l-0.943,0l0,4.46l-1.523,0Z" style="fill:#074ea2;fill-rule:nonzero;"/><path d="M102.897,112.569l9.523,0l0,1.49l-4.007,0l0,12.146l-1.509,0l0,-12.146l-4.007,0l0,-1.49Z" style="fill:#074ea2;fill-rule:nonzero;"/><rect x="120.327" y="112.569" width="1.512" height="13.636" style="fill:#074ea2;fill-rule:nonzero;"/><path d="M126.505,115.57l0,10.635l-1.521,0l0,-13.636l1.582,0l6.254,10.542l0,-10.542l1.524,0l0,13.636l-1.524,0l-6.315,-10.635Z" style="fill:#074ea2;fill-rule:nonzero;"/><path d="M14.49,147.916l0.048,0c0.519,0 0.982,-0.186 1.305,-0.621c0.325,-0.433 0.533,-1.095 0.533,-2.079l0,-9.663l1.52,0l0,9.663c0,1.107 -0.207,2.152 -0.734,2.918c-0.534,0.764 -1.387,1.261 -2.672,1.261l0,-1.479Z" style="fill:#074ea2;fill-rule:nonzero;"/><path d="M22.327,142.237c0,1.603 0.412,3.01 1.186,4.024c0.778,1.015 1.925,1.644 3.379,1.644c1.414,0 2.525,-0.578 3.271,-1.54c0.746,-0.962 1.15,-2.318 1.15,-3.88c0,-1.604 -0.393,-3.022 -1.15,-4.035c-0.757,-1.014 -1.866,-1.614 -3.319,-1.614c-1.414,0 -2.545,0.579 -3.319,1.541c-0.786,0.963 -1.198,2.318 -1.198,3.86Zm-1.513,0.124c0,-1.986 0.618,-3.736 1.689,-4.998c1.072,-1.261 2.582,-2.017 4.38,-2.017c1.799,0 3.28,0.756 4.321,2.017c1.041,1.262 1.619,3.012 1.619,4.998c0,1.987 -0.617,3.735 -1.678,4.997c-1.061,1.261 -2.573,2.037 -4.371,2.037c-1.796,0 -3.277,-0.765 -4.321,-2.027c-1.038,-1.263 -1.639,-3.02 -1.639,-5.007Z" style="fill:#074ea2;fill-rule:nonzero;"/><path d="M43.782,135.553l1.512,0l0,8.566c0,1.542 -0.295,2.66 -0.766,3.435c-0.471,0.786 -1.119,1.252 -1.835,1.51c-0.718,0.26 -1.504,0.331 -2.239,0.331c-0.738,0 -1.504,-0.071 -2.211,-0.331c-0.718,-0.258 -1.355,-0.713 -1.826,-1.499c-0.472,-0.786 -0.755,-1.883 -0.755,-3.446l0,-8.566l1.51,0l0,8.048c0,1.357 0.187,2.298 0.502,2.93c0.305,0.631 0.746,0.982 1.226,1.178c0.482,0.196 1.021,0.217 1.543,0.217c0.578,0 1.139,-0.03 1.639,-0.237c0.502,-0.196 0.914,-0.548 1.217,-1.189c0.306,-0.643 0.483,-1.563 0.483,-2.899l0,-8.048Z" style="fill:#074ea2;fill-rule:nonzero;"/><path d="M55.81,138.377l-2.938,10.812l-1.532,0l-3.709,-13.636l1.541,0l2.926,10.822l2.946,-10.822l1.532,0l2.934,10.822l2.938,-10.822l1.54,0l-3.709,13.636l-1.532,0l-2.937,-10.812Z" style="fill:#074ea2;fill-rule:nonzero;"/><path d="M70.57,135.553l9.523,0l0,1.49l-4.007,0l0,12.146l-1.509,0l0,-12.146l-4.007,0l0,-1.49Z" style="fill:#074ea2;fill-rule:nonzero;"/><path d="M82.834,142.237c0,1.603 0.412,3.01 1.187,4.024c0.777,1.015 1.925,1.644 3.378,1.644c1.414,0 2.525,-0.578 3.271,-1.54c0.747,-0.962 1.151,-2.318 1.151,-3.88c0,-1.604 -0.393,-3.022 -1.151,-4.035c-0.757,-1.014 -1.866,-1.614 -3.319,-1.614c-1.414,0 -2.545,0.579 -3.319,1.541c-0.786,0.963 -1.198,2.318 -1.198,3.86Zm-1.512,0.124c0,-1.986 0.617,-3.736 1.689,-4.998c1.071,-1.261 2.581,-2.017 4.379,-2.017c1.799,0 3.28,0.756 4.321,2.017c1.041,1.262 1.619,3.012 1.619,4.998c0,1.987 -0.617,3.735 -1.678,4.997c-1.06,1.261 -2.573,2.037 -4.371,2.037c-1.796,0 -3.277,-0.765 -4.321,-2.027c-1.038,-1.263 -1.638,-3.02 -1.638,-5.007Z" style="fill:#074ea2;fill-rule:nonzero;"/><path d="M95.69,135.553l7.796,0l0,1.49l-6.273,0l0,4.583l6.273,0l0,1.49l-6.273,0l0,4.583l6.273,0l0,1.49l-7.796,0l0,-13.636Z" style="fill:#074ea2;fill-rule:nonzero;"/><path d="M109.084,142.267c1.119,2.018 4.093,4.791 5.373,5.536c-0.208,0.372 -0.581,1.034 -0.876,1.386c-0.011,0 -0.039,-0.01 -0.059,-0.021c-2.073,-1.013 -5.704,-5.184 -6.45,-7.035l0,7.056l-1.523,0l0,-13.636l1.523,0l0,6.393l5.095,-6.393l1.866,0l0,0.093l-5.087,6.363l0.079,0.145l0.078,0.104l-0.019,0.009Z" style="fill:#074ea2;fill-rule:nonzero;"/><path d="M117.086,142.237c0,1.603 0.413,3.01 1.187,4.024c0.777,1.015 1.924,1.644 3.378,1.644c1.414,0 2.525,-0.578 3.271,-1.54c0.747,-0.962 1.151,-2.318 1.151,-3.88c0,-1.604 -0.393,-3.022 -1.151,-4.035c-0.757,-1.014 -1.865,-1.614 -3.319,-1.614c-1.414,0 -2.544,0.579 -3.319,1.541c-0.785,0.963 -1.198,2.318 -1.198,3.86Zm-1.512,0.124c0,-1.986 0.617,-3.736 1.689,-4.998c1.072,-1.261 2.581,-2.017 4.38,-2.017c1.798,0 3.279,0.756 4.32,2.017c1.041,1.262 1.619,3.012 1.619,4.998c0,1.987 -0.617,3.735 -1.678,4.997c-1.06,1.261 -2.572,2.037 -4.371,2.037c-1.795,0 -3.277,-0.765 -4.321,-2.027c-1.038,-1.263 -1.638,-3.02 -1.638,-5.007Z" style="fill:#074ea2;fill-rule:nonzero;"/><path d="M135.393,142.423l3.308,-6.87l2.073,0l0,13.636l-1.571,0l0,-11.411l-3.653,7.479l-0.353,0l-3.732,-7.573l0,11.505l-1.476,0l0,-13.636l2.054,0l3.311,6.87l0.039,0Z" style="fill:#074ea2;fill-rule:nonzero;"/><path d="M143.128,147.347l0.031,-0.01c0.684,0.331 1.953,0.568 2.845,0.568c1.493,0 2.969,-0.568 2.969,-2.244c0,-0.911 -0.404,-1.448 -1.139,-1.935c-0.62,-0.414 -3.088,-1.634 -3.614,-2.1c-0.629,-0.527 -1.021,-1.376 -1.021,-2.608c0,-2.565 1.736,-3.672 4.006,-3.672c0.794,0 1.571,0.144 2.278,0.362l0,1.366l-0.03,0.021c-0.59,-0.125 -1.423,-0.28 -2.248,-0.28c-1.437,0 -2.623,0.486 -2.623,2.08c0,0.672 0.204,1.045 0.558,1.377c0.64,0.6 2.654,1.458 3.625,2.192c1.06,0.796 1.622,1.324 1.622,2.845c0,2.711 -2.152,4.086 -4.619,4.086c-0.942,0 -1.854,-0.196 -2.64,-0.599l0,-1.449Z" style="fill:#074ea2;fill-rule:nonzero;"/><path d="M151.711,135.553l9.528,0l0,1.49l-4.006,0l0,12.146l-1.516,0l0,-12.146l-4.006,0l0,-1.49Z" style="fill:#074ea2;fill-rule:nonzero;"/></g></g></svg>