<svg id="Layer_1" data-name="Layer 1" xmlns="http://www.w3.org/2000/svg" xmlns:xlink="http://www.w3.org/1999/xlink" width="226.3" height="134.04" viewBox="0 0 226.3 134.04">
  <defs>
    <clipPath id="clip-path" transform="translate(-2.63 -3.98)">
      <rect x="42.54" y="3.98" width="194.83" height="124.85" fill="none"/>
    </clipPath>
  </defs>
  <title>gza-logo</title>
  <g>
    <path d="M55.46,118.54c-2,0-3.09-1.56-2.45-4.86s2.5-4.91,4.41-4.91a2.91,2.91,0,0,1,2.38,1.16l-.57.54a2.56,2.56,0,0,0-1.74-.75c-1.47,0-2.74,1.37-3.22,3.87-.57,2.87.13,4,1.51,4a2.83,2.83,0,0,0,1.57-.47l.58-3H56.54l.19-.89h2.53l-.82,4.23a4.68,4.68,0,0,1-3,1.07" transform="translate(-2.63 -3.98)" fill="#4a4a49"/>
    <path d="M67.56,111.53l-1.34,6.9h-1l.28-1.64a3.13,3.13,0,0,1-2.47,1.75c-1.29,0-1.94-1.29-1.64-3.17.41-2.73,1.83-4.07,4.11-4.07a8.69,8.69,0,0,1,2,.23m-4.07,6.12c.87,0,2-1.33,2.4-3.31l.4-2a2.86,2.86,0,0,0-1.06-.18c-1.33,0-2.29,1.25-2.61,3.07-.25,1.43,0,2.45.87,2.45" transform="translate(-2.63 -3.98)" fill="#4a4a49"/>
    <path d="M70.73,118.54a3.77,3.77,0,0,1-1.94-.49l.24-.64a5.5,5.5,0,0,0,1.58.3c1.08,0,1.64-.46,1.76-1s-.07-1-1.18-1.5-1.62-1.16-1.42-2.15a2.29,2.29,0,0,1,2.54-1.75,3.3,3.3,0,0,1,1.64.41l-.25.62a4.23,4.23,0,0,0-1.28-.21c-.87,0-1.38.41-1.48.9s.11,1,1.24,1.46a1.83,1.83,0,0,1,1.37,2.18c-.22,1.17-1.22,1.88-2.82,1.88" transform="translate(-2.63 -3.98)" fill="#4a4a49"/>
    <path d="M77.49,118.54c-1.19,0-1.57-.55-1.3-1.91l.86-4.44H75.92l.14-.78H77.2c.24-.62.47-1.26.68-2h.81l-.39,2h1.89l-.15.78H78.15l-.81,4.19c-.18,1-.11,1.3.57,1.3a3.61,3.61,0,0,0,1.12-.23l.08.68a4.18,4.18,0,0,1-1.62.41" transform="translate(-2.63 -3.98)" fill="#4a4a49"/>
    <path d="M86.56,118.43H85.45c.27-1.33.59-2.87.76-3.74.35-1.83.06-2.47-.75-2.47s-2.08,1.4-2.46,3.41l-.55,2.8H81.33l2-10H84.4l-.67,3.42L83.44,113a3,3,0,0,1,2.42-1.74c1.27,0,2,.82,1.52,3.14-.17.82-.53,2.53-.82,4" transform="translate(-2.63 -3.98)" fill="#4a4a49"/>
    <path d="M90.72,111.41h1.12c-.26,1.28-.58,2.78-.77,3.76-.35,1.81,0,2.47.75,2.47s2.07-1.32,2.45-3.3l.56-2.93H96l-1.35,7h-.95l.28-1.64a3.12,3.12,0,0,1-2.5,1.75c-1.28,0-2-.83-1.53-3.11.18-1,.55-2.62.82-4" transform="translate(-2.63 -3.98)" fill="#4a4a49"/>
    <path d="M97.68,118.43l1.36-7h1.11l-1.36,7Zm2.23-8.4c-.59,0-.69-.12-.59-.64s.2-.63.78-.63.69.11.59.63-.2.64-.78.64" transform="translate(-2.63 -3.98)" fill="#4a4a49"/>
    <path d="M103.32,118.54a3.77,3.77,0,0,1-1.94-.49l.24-.64a5.5,5.5,0,0,0,1.59.3c1.07,0,1.64-.46,1.75-1s-.07-1-1.17-1.5c-1.25-.51-1.63-1.16-1.43-2.15a2.31,2.31,0,0,1,2.54-1.75,3.27,3.27,0,0,1,1.64.41l-.25.62a4.17,4.17,0,0,0-1.27-.21c-.88,0-1.39.41-1.49.9s.11,1,1.25,1.46a1.85,1.85,0,0,1,1.37,2.18c-.23,1.17-1.23,1.88-2.83,1.88" transform="translate(-2.63 -3.98)" fill="#4a4a49"/>
    <polygon points="104.98 114.44 105.13 113.69 110.76 105.85 106.84 105.85 107.03 104.9 112.38 104.9 112.23 105.73 106.67 113.48 110.94 113.48 110.76 114.44 104.98 114.44 104.98 114.44" fill="#4a4a49"/>
    <path d="M117,111.41h1.12c-.26,1.28-.58,2.78-.77,3.76-.35,1.81,0,2.47.76,2.47s2.06-1.32,2.44-3.3l.57-2.93h1.11l-1.35,7h-1l.28-1.64a3.12,3.12,0,0,1-2.5,1.75c-1.27,0-2-.83-1.53-3.11.19-1,.55-2.62.82-4" transform="translate(-2.63 -3.98)" fill="#4a4a49"/>
    <path d="M125.34,118.54a3.77,3.77,0,0,1-1.94-.49l.24-.64a5.5,5.5,0,0,0,1.58.3c1.08,0,1.64-.46,1.76-1s-.07-1-1.18-1.5-1.62-1.16-1.42-2.15a2.29,2.29,0,0,1,2.54-1.75,3.3,3.3,0,0,1,1.64.41l-.25.62a4.23,4.23,0,0,0-1.28-.21c-.87,0-1.38.41-1.48.9s.11,1,1.24,1.46a1.83,1.83,0,0,1,1.37,2.18c-.22,1.17-1.23,1.88-2.82,1.88" transform="translate(-2.63 -3.98)" fill="#4a4a49"/>
    <path d="M132.1,118.54c-1.19,0-1.57-.55-1.3-1.91l.86-4.44h-1.13l.14-.78h1.14c.24-.62.47-1.26.68-2h.81l-.39,2h1.89l-.15.78h-1.89l-.81,4.19c-.18,1-.11,1.3.57,1.3a3.61,3.61,0,0,0,1.12-.23l.08.68a4.18,4.18,0,0,1-1.62.41" transform="translate(-2.63 -3.98)" fill="#4a4a49"/>
    <path d="M137.14,115.23c-.32,1.73.2,2.43,1.43,2.43a4.74,4.74,0,0,0,2-.41l.15.68a5.29,5.29,0,0,1-2.44.61c-1.69,0-2.69-1-2.21-3.51s1.7-3.73,3.55-3.73c1.1,0,2,.51,2,1.56,0,1.25-1,2.2-4.4,2.2l0,.17Zm3.31-2.28c0-.51-.31-.85-1-.85-1.07,0-1.79,1-2.09,2.21,2.64,0,3.12-.59,3.12-1.36" transform="translate(-2.63 -3.98)" fill="#4a4a49"/>
    <path d="M147.79,112.49a1.78,1.78,0,0,0-.54-.1c-.53,0-1.79.85-2.23,3.14l-.57,2.9h-1.11l1.35-7h.92l-.28,1.76c.52-1,1.33-1.86,2.18-1.86a1.14,1.14,0,0,1,.55.15l-.27,1Z" transform="translate(-2.63 -3.98)" fill="#4a4a49"/>
    <path d="M150.41,118.54a3.77,3.77,0,0,1-1.94-.49l.24-.64a5.5,5.5,0,0,0,1.58.3c1.08,0,1.64-.46,1.76-1s-.07-1-1.18-1.5-1.62-1.16-1.42-2.15A2.3,2.3,0,0,1,152,111.3a3.3,3.3,0,0,1,1.64.41l-.25.62a4.23,4.23,0,0,0-1.28-.21c-.87,0-1.38.41-1.48.9s.11,1,1.24,1.46a1.84,1.84,0,0,1,1.38,2.18c-.23,1.17-1.23,1.88-2.83,1.88" transform="translate(-2.63 -3.98)" fill="#4a4a49"/>
    <path d="M164.35,118.43c0-.64-.06-1.39-.11-2.08h-3.65c-.3.65-.61,1.38-.88,2.08h-1.22c1.31-3,3-6.48,4.63-9.55h1.45c.51,3.38.81,6.45,1,9.55Zm-.78-8.42c-.8,1.63-1.8,3.62-2.59,5.43h3.23c-.17-1.76-.38-3.62-.64-5.43" transform="translate(-2.63 -3.98)" fill="#4a4a49"/>
    <path d="M172.93,118.43h-1.12c.26-1.28.58-2.77.77-3.76.35-1.8,0-2.45-.75-2.45s-2.06,1.31-2.43,3.28l-.58,2.93H167.7l1.36-7H170l-.28,1.66a3.15,3.15,0,0,1,2.5-1.77c1.29,0,2,.83,1.53,3.11-.18,1-.55,2.62-.82,4" transform="translate(-2.63 -3.98)" fill="#4a4a49"/>
    <path d="M177.84,118.54c-1.19,0-1.57-.55-1.3-1.91l.86-4.44h-1.13l.14-.78h1.14a20.07,20.07,0,0,0,.68-2H179l-.38,2h1.88l-.14.78h-1.9l-.8,4.19c-.19,1-.12,1.3.56,1.3a3.61,3.61,0,0,0,1.12-.23l.08.68a4.14,4.14,0,0,1-1.62.41" transform="translate(-2.63 -3.98)" fill="#4a4a49"/>
    <path d="M188.3,118.43h-1.2l-.5-5v-.61h0l-.19.57-2.26,5.05h-1.29l-.72-7h1.19l.41,4.47.09,1.23h0l.42-1,2.07-4.67h1.19l.46,4.68.09,1h0a45.34,45.34,0,0,0,2.47-5.69h1.15a45.72,45.72,0,0,1-3.38,7" transform="translate(-2.63 -3.98)" fill="#4a4a49"/>
    <path d="M193.66,115.23c-.32,1.73.2,2.43,1.43,2.43a4.69,4.69,0,0,0,2-.41l.16.68a5.34,5.34,0,0,1-2.45.61c-1.68,0-2.68-1-2.2-3.51s1.69-3.73,3.55-3.73c1.1,0,2,.51,2,1.56,0,1.25-1,2.2-4.4,2.2l0,.17ZM197,113c0-.51-.31-.85-1-.85-1.08,0-1.8,1-2.1,2.21,2.65,0,3.13-.59,3.13-1.36" transform="translate(-2.63 -3.98)" fill="#4a4a49"/>
    <path d="M204.31,112.49a1.78,1.78,0,0,0-.54-.1c-.54,0-1.79.85-2.23,3.14l-.57,2.9h-1.12l1.36-7h.92l-.28,1.76c.52-1,1.33-1.86,2.17-1.86a1.18,1.18,0,0,1,.56.15l-.27,1Z" transform="translate(-2.63 -3.98)" fill="#4a4a49"/>
    <path d="M207.8,111.41l-.28,1.66A3.13,3.13,0,0,1,210,111.3c1.3,0,1.94,1.3,1.64,3.17-.39,2.74-1.84,4.07-4.1,4.07a8.22,8.22,0,0,1-.93-.06l-.47,2.39H205l1.84-9.46Zm-1,6.13a2.69,2.69,0,0,0,1,.17c1.33,0,2.29-1.25,2.6-3.07.26-1.42,0-2.44-.84-2.44s-2,1.33-2.41,3.3l-.39,2Z" transform="translate(-2.63 -3.98)" fill="#4a4a49"/>
    <path d="M214.76,115.23c-.33,1.73.19,2.43,1.43,2.43a4.73,4.73,0,0,0,2-.41l.16.68a5.37,5.37,0,0,1-2.45.61c-1.68,0-2.69-1-2.21-3.51s1.7-3.73,3.55-3.73c1.11,0,2,.51,2,1.56,0,1.25-1,2.2-4.4,2.2l0,.17Zm3.3-2.28c0-.51-.31-.85-1-.85-1.07,0-1.79,1-2.09,2.21,2.64,0,3.12-.59,3.12-1.36" transform="translate(-2.63 -3.98)" fill="#4a4a49"/>
    <path d="M226.18,118.43h-1.12c.26-1.28.58-2.77.77-3.76.35-1.8.06-2.45-.75-2.45s-2.07,1.31-2.43,3.28l-.58,2.93H221l1.36-7h.95l-.29,1.66a3.15,3.15,0,0,1,2.5-1.77c1.29,0,2,.83,1.53,3.11-.18,1-.55,2.62-.82,4" transform="translate(-2.63 -3.98)" fill="#4a4a49"/>
    <path d="M63.33,76.51c-8.61,0-13.22-6.67-10.49-20.85,2.73-14,10.73-21,18.91-21a12.4,12.4,0,0,1,10.18,5l-2.42,2.3a11,11,0,0,0-7.46-3.21c-6.3,0-11.75,5.88-13.82,16.6-2.42,12.3.55,17.1,6.49,17.1a12.14,12.14,0,0,0,6.73-2L73.93,57.6H68l.79-3.82H79.63L76.11,71.9a19.78,19.78,0,0,1-12.78,4.61" transform="translate(-2.63 -3.98)" fill="#1d1d1b"/>
    <polygon points="82.57 72.04 83.24 68.83 107.36 35.19 90.57 35.19 91.36 31.13 114.33 31.13 113.66 34.7 89.84 67.92 108.15 67.92 107.36 72.04 82.57 72.04 82.57 72.04" fill="#1d1d1b"/>
    <path d="M141.38,76c-.06-2.73-.24-5.94-.48-8.91H125.26C124,69.9,122.65,73.05,121.5,76h-5.21c5.58-12.91,12.85-27.76,19.82-40.91h6.24c2.18,14.49,3.46,27.64,4.24,40.91ZM138.05,40c-3.46,7-7.7,15.51-11.09,23.27h13.82c-.73-7.57-1.64-15.51-2.73-23.27" transform="translate(-2.63 -3.98)" fill="#1d1d1b"/>
    <g clip-path="url(#clip-path)">
      <path d="M213.25,50.93a33.86,33.86,0,0,0-6.66-7.16,46.35,46.35,0,0,0-2.87,15.39,52.89,52.89,0,0,0,8.75,27.76s11.54-20,.78-36" transform="translate(-2.63 -3.98)" fill="#5a732e"/>
      <path d="M209.29,17.14A13.16,13.16,0,1,1,196.13,4a13.15,13.15,0,0,1,13.16,13.16" transform="translate(-2.63 -3.98)" fill="#bec10c"/>
    </g>
    <path d="M206.59,43.77C193.66,33.11,173.51,29,173.51,29S162,49,172.74,65s39.73,22,39.73,22a52.89,52.89,0,0,1-8.75-27.76,46.35,46.35,0,0,1,2.87-15.39" transform="translate(-2.63 -3.98)" fill="#bec10c"/>
    <path d="M228.93,50.56a52.89,52.89,0,0,0-8.75-27.76,49.89,49.89,0,0,0-11.73,16.41c4.67,3.21,11.11,9.4,11.11,21.78,0,12.68-6.69,25.28-7.09,25.93,8.93-7.85,16.46-22.89,16.46-36.36" transform="translate(-2.63 -3.98)" fill="#bec10c"/>
    <polygon points="49.87 95.04 50.02 94.3 55.66 86.5 51.73 86.5 51.91 85.56 57.23 85.56 57.07 86.39 51.51 94.08 55.8 94.08 55.62 95.04 49.87 95.04 49.87 95.04" fill="#4a4a49"/>
    <path d="M60,99l1.35-7h1.11l-1.35,7Zm2.18-8.31c-.59,0-.69-.13-.59-.65s.25-.64.84-.64.65.12.55.64-.24.65-.8.65" transform="translate(-2.63 -3.98)" fill="#4a4a49"/>
    <path d="M64.72,95.68l0,.14c-.33,1.74.21,2.44,1.45,2.44a5.81,5.81,0,0,0,2.12-.42l.09.66a6.26,6.26,0,0,1-2.64.63c-1.68,0-2.63-.91-2.15-3.38s1.79-3.81,3.59-3.81c1.64,0,2.43,1.06,1.76,3.74Zm3.26-.8c.26-1.34-.06-2.14-1.06-2.14s-1.75,1-2,2.19H68v-.05Z" transform="translate(-2.63 -3.98)" fill="#4a4a49"/>
    <polygon points="71.36 95.04 69.49 91.36 68.78 95.04 67.67 95.04 69.6 85.08 70.71 85.08 69.58 90.88 72.28 88.07 73.64 88.07 70.58 90.98 72.69 95.04 71.36 95.04 71.36 95.04" fill="#4a4a49"/>
    <path d="M77.71,95.68l0,.14c-.34,1.74.2,2.44,1.45,2.44a5.8,5.8,0,0,0,2.11-.42l.09.66a6.26,6.26,0,0,1-2.64.63c-1.68,0-2.63-.91-2.15-3.38s1.79-3.81,3.59-3.81c1.64,0,2.43,1.06,1.76,3.74Zm3.26-.8c.26-1.34-.06-2.14-1.06-2.14s-1.75,1-2,2.19H81v-.05Z" transform="translate(-2.63 -3.98)" fill="#4a4a49"/>
    <path d="M88.51,99h-1.1c.25-1.26.57-2.75.76-3.73.35-1.8,0-2.45-.86-2.45a3.76,3.76,0,0,0-1.88.83L84.4,99H83.29l1.35-7h.91l-.06.82a4.11,4.11,0,0,1,2.38-.94c1.27,0,1.9.82,1.45,3.09-.18.94-.54,2.6-.81,4" transform="translate(-2.63 -3.98)" fill="#4a4a49"/>
    <path d="M96.09,99H95c.25-1.32.58-2.85.74-3.71.36-1.84,0-2.47-.85-2.47a3.66,3.66,0,0,0-1.87.83L92,99H90.87l1.93-10h1.11l-.73,3.75a4,4,0,0,1,2.26-.87c1.27,0,1.91.8,1.47,3.09-.17.85-.54,2.54-.82,4" transform="translate(-2.63 -3.98)" fill="#4a4a49"/>
    <path d="M102.76,99l.06-.81a4.08,4.08,0,0,1-2.37.92c-1.27,0-1.9-.81-1.46-3.09.18-.94.54-2.59.81-4h1.11c-.24,1.26-.57,2.75-.76,3.73-.36,1.81,0,2.44.86,2.44a3.76,3.76,0,0,0,1.87-.81l1-5.36H105l-1.35,7Z" transform="translate(-2.63 -3.98)" fill="#4a4a49"/>
    <path d="M106,99l1.35-7h1.11l-1.35,7Zm2.18-8.31c-.59,0-.69-.13-.59-.65s.25-.64.84-.64.65.12.55.64-.23.65-.8.65" transform="translate(-2.63 -3.98)" fill="#4a4a49"/>
    <polygon points="110.66 95.04 106.3 95.04 106.43 94.36 110.41 88.93 107.61 88.93 107.82 88.07 111.88 88.07 111.75 88.75 107.76 94.17 110.89 94.17 110.66 95.04 110.66 95.04" fill="#4a4a49"/>
    <path d="M116.16,95.68l0,.14c-.34,1.74.2,2.44,1.45,2.44a5.89,5.89,0,0,0,2.12-.42l.08.66a6.26,6.26,0,0,1-2.64.63c-1.68,0-2.63-.91-2.15-3.38s1.79-3.81,3.59-3.81c1.64,0,2.43,1.06,1.76,3.74Zm3.26-.8c.26-1.34-.06-2.14-1.06-2.14s-1.75,1-2,2.19h3.1v-.05Z" transform="translate(-2.63 -3.98)" fill="#4a4a49"/>
    <path d="M127,99h-1.09c.24-1.26.56-2.75.75-3.73.35-1.8,0-2.45-.86-2.45a3.76,3.76,0,0,0-1.88.83l-1,5.35h-1.11l1.35-7H124l-.06.82a4.12,4.12,0,0,1,2.39-.94c1.26,0,1.89.82,1.45,3.09-.19.94-.55,2.6-.82,4" transform="translate(-2.63 -3.98)" fill="#4a4a49"/>
    <path d="M8.07,133.39c.54-2.75-3.79-2.19-3.35-4.47a1.83,1.83,0,0,1,2-1.44,3.9,3.9,0,0,1,1.69.39l.29-.45a3.19,3.19,0,0,0-1.89-.56A2.83,2.83,0,0,0,3.87,129c-.54,2.77,3.77,2.18,3.33,4.46a2.22,2.22,0,0,1-2.4,1.67A3.54,3.54,0,0,1,3,134.6l-.36.47a3.7,3.7,0,0,0,2.15.74,3.18,3.18,0,0,0,3.29-2.42Zm3.69-6c.08-.4,0-.48-.39-.48s-.52.09-.6.48,0,.48.41.48.5-.09.58-.48ZM10,135.72l1.25-6.41h-.75l-1.25,6.41ZM17.64,132c.41-2.1-.21-2.82-1.31-2.82a3.86,3.86,0,0,0-2.23.88l.08-.79h-.64l-1.24,6.41h.75l1-5a3.74,3.74,0,0,1,1.92-.86c.88,0,1.23.69.9,2.42-.19,1-.49,2.36-.7,3.47h.74c.23-1.22.57-2.78.75-3.68Zm4.51,3.41,0-.47a3.51,3.51,0,0,1-1.11.23c-.7,0-.78-.35-.59-1.32l.79-4h1.85l.11-.56H21.31l.36-1.82h-.53c-.19.67-.38,1.25-.58,1.82H19.43l-.11.56h1.13l-.81,4.2c-.25,1.26,0,1.74,1.07,1.74a3.79,3.79,0,0,0,1.44-.36Zm3.41-3.27.12-.62H23.15l-.12.62Zm5.8,3.54c-.17-2.81-.49-5.63-1-8.77h-.92c-1.51,2.81-3.11,6.07-4.31,8.77H26c.27-.66.56-1.35.85-2h3.56c.05.69.1,1.38.12,2Zm-1-2.62H27.1c.82-1.81,1.78-3.74,2.58-5.32.27,1.78.49,3.59.66,5.32Zm6.87,2.62,1.24-6.41H37.7l-1,5a3.71,3.71,0,0,1-1.91.86c-.9,0-1.25-.68-.91-2.41.19-1,.5-2.38.71-3.47h-.75c-.24,1.21-.58,2.77-.76,3.68-.41,2.11.21,2.82,1.33,2.82a3.83,3.83,0,0,0,2.22-.88l-.07.79Zm6.57-.18L45,129.4a9.24,9.24,0,0,0-1.7-.18,3.75,3.75,0,0,0-3.63,3.35c-.33,1.72.31,3,1.5,3a3.93,3.93,0,0,0,2-.77l-.2,1c-.33,1.71-1.4,1.85-3.68,1.43l-.19.47A5.71,5.71,0,0,0,41,138c1.43,0,2.44-.47,2.83-2.48Zm-.48-1.41a3.68,3.68,0,0,1-1.8.82c-1,0-1.32-1.08-1-2.6A2.78,2.78,0,0,1,43,129.81a3.47,3.47,0,0,1,1.12.19l-.8,4.13Zm7.3,1.59,1.25-6.41H51.1l-1,5a3.68,3.68,0,0,1-1.91.86c-.89,0-1.24-.68-.91-2.41.19-1,.5-2.38.72-3.47h-.76c-.23,1.21-.57,2.77-.75,3.68-.41,2.11.2,2.82,1.32,2.82a3.86,3.86,0,0,0,2.23-.88l-.08.79ZM56.55,134c.17-.87-.18-1.4-1.26-1.83s-1.35-.76-1.24-1.33a1.4,1.4,0,0,1,1.51-1,3.27,3.27,0,0,1,1.12.21l.23-.47a2.82,2.82,0,0,0-1.35-.31A2.26,2.26,0,0,0,53.23,131c-.15.78.16,1.24,1.36,1.74s1.27.76,1.15,1.4S55,135.21,54,135.21a4.43,4.43,0,0,1-1.42-.28l-.22.46a3.18,3.18,0,0,0,1.64.42A2.4,2.4,0,0,0,56.55,134Zm4.3,1.46,0-.47a3.56,3.56,0,0,1-1.11.23c-.7,0-.78-.35-.59-1.32l.78-4h1.86l.11-.56H60l.35-1.82h-.53c-.18.67-.37,1.25-.57,1.82H58.13l-.11.56h1.13l-.82,4.2c-.24,1.26,0,1.74,1.08,1.74a3.84,3.84,0,0,0,1.44-.36Zm3.92-8c.08-.4,0-.48-.38-.48s-.53.09-.6.48,0,.48.41.48.5-.09.57-.48ZM63,135.72l1.25-6.41h-.76l-1.24,6.41ZM70.65,132c.41-2.1-.2-2.82-1.3-2.82a3.81,3.81,0,0,0-2.23.88l.08-.79h-.64l-1.24,6.41h.75l1-5a3.73,3.73,0,0,1,1.93-.86c.88,0,1.23.69.89,2.42-.19,1-.48,2.36-.7,3.47h.74c.24-1.22.58-2.78.75-3.68Zm6.11,3.68L78,129.31h-.76l-1,5a3.68,3.68,0,0,1-1.91.86c-.9,0-1.25-.68-.91-2.41.19-1,.5-2.38.71-3.47h-.75c-.23,1.21-.58,2.77-.75,3.68-.41,2.11.2,2.82,1.32,2.82a3.89,3.89,0,0,0,2.23-.88l-.08.79ZM82.71,134c.17-.87-.18-1.4-1.27-1.83s-1.34-.76-1.23-1.33a1.4,1.4,0,0,1,1.51-1,3.32,3.32,0,0,1,1.12.21l.23-.47a2.84,2.84,0,0,0-1.36-.31A2.26,2.26,0,0,0,79.39,131c-.15.78.16,1.24,1.36,1.74s1.27.76,1.14,1.4-.7,1.09-1.74,1.09a4.53,4.53,0,0,1-1.43-.28l-.22.46a3.19,3.19,0,0,0,1.65.42A2.41,2.41,0,0,0,82.71,134Zm6.78-1.81.13-.62H87.08l-.12.62Zm8.5,1.21c.54-2.75-3.79-2.19-3.35-4.47a1.83,1.83,0,0,1,2-1.44,3.91,3.91,0,0,1,1.7.39l.29-.45a3.19,3.19,0,0,0-1.89-.56A2.85,2.85,0,0,0,93.78,129c-.53,2.77,3.78,2.18,3.34,4.46a2.22,2.22,0,0,1-2.4,1.67,3.54,3.54,0,0,1-1.81-.57l-.36.47a3.7,3.7,0,0,0,2.15.74A3.18,3.18,0,0,0,98,133.39Zm3.69-6c.07-.4,0-.48-.39-.48s-.52.09-.6.48,0,.48.41.48.5-.09.58-.48Zm-1.74,8.32,1.25-6.41h-.75l-1.25,6.41Zm7.62-3.68c.41-2.1-.21-2.82-1.31-2.82a3.81,3.81,0,0,0-2.23.88l.08-.79h-.64l-1.24,6.41H103l1-5a3.71,3.71,0,0,1,1.92-.86c.88,0,1.23.69.9,2.42-.19,1-.49,2.36-.7,3.47h.73c.24-1.22.58-2.78.76-3.68Zm4.51,3.41,0-.47a3.51,3.51,0,0,1-1.11.23c-.7,0-.78-.35-.59-1.32l.78-4H113l.11-.56h-1.86l.36-1.82h-.54c-.18.67-.37,1.25-.57,1.82h-1.13l-.11.56h1.13l-.81,4.2c-.25,1.26,0,1.74,1.07,1.74a3.79,3.79,0,0,0,1.44-.36Zm3.41-3.27.12-.62h-2.53l-.12.62Zm7.23-5.23h-.82a84.65,84.65,0,0,1-3.61,7.9c-.35-2.61-.72-5.26-.86-7.9h-.87a81.89,81.89,0,0,0,1,8.77h.87a78.6,78.6,0,0,0,4.25-8.77Zm2.14.45c.07-.4,0-.48-.39-.48s-.53.09-.6.48,0,.48.41.48.5-.09.58-.48Zm-1.74,8.32,1.25-6.41h-.76l-1.24,6.41Zm7.62-3.68c.41-2.1-.21-2.82-1.31-2.82a3.81,3.81,0,0,0-2.23.88l.08-.79h-.64l-1.24,6.41h.75l1-5a3.71,3.71,0,0,1,1.92-.86c.88,0,1.23.69.89,2.42-.19,1-.48,2.36-.7,3.47H130c.24-1.22.58-2.78.76-3.68Zm5.58,2.82-.23-.39a2.72,2.72,0,0,1-1.72.73c-1.16,0-1.53-1-1.18-2.74.32-1.63,1.12-2.64,2.25-2.64a1.58,1.58,0,0,1,1.25.58l.39-.4a1.73,1.73,0,0,0-1.51-.78c-1.49,0-2.8,1.25-3.22,3.39s.24,3.2,1.75,3.2a3.26,3.26,0,0,0,2.22-.95Zm6.14-2.3c.59-2.35-.08-3.34-1.52-3.34-1.6,0-2.77,1.28-3.2,3.48s.4,3.11,1.89,3.11a5.75,5.75,0,0,0,2.29-.53l-.08-.48a4.81,4.81,0,0,1-1.88.41c-1.24,0-1.77-.71-1.43-2.51l0-.14Zm-.64-.56h-3.15c.29-1.17,1-2.21,2.08-2.21s1.33.84,1.07,2.17v0Zm7.32,0c.41-2.1-.21-2.82-1.31-2.82a3.81,3.81,0,0,0-2.23.88l.08-.79H145l-1.24,6.41h.75l1-5a3.71,3.71,0,0,1,1.92-.86c.88,0,1.23.69.89,2.42-.19,1-.48,2.36-.7,3.47h.74c.24-1.22.58-2.78.76-3.68Zm4.51,3.41,0-.47a3.51,3.51,0,0,1-1.11.23c-.7,0-.78-.35-.59-1.32l.78-4h1.86l.11-.56H152.8l.35-1.82h-.53c-.18.67-.37,1.25-.57,1.82h-1.13l-.11.56h1.13l-.82,4.2c-.24,1.26,0,1.74,1.08,1.74a3.84,3.84,0,0,0,1.44-.36Zm3.92-8c.08-.4,0-.48-.38-.48s-.53.09-.6.48,0,.48.41.48.5-.09.57-.48Zm-1.73,8.32,1.25-6.41h-.76l-1.24,6.41Zm6.86,0,1.25-6.41h-.76l-1,5a3.68,3.68,0,0,1-1.91.86c-.9,0-1.25-.68-.91-2.41.19-1,.5-2.38.71-3.47h-.75c-.23,1.21-.58,2.77-.75,3.68-.41,2.11.2,2.82,1.32,2.82a3.83,3.83,0,0,0,2.22-.88l-.07.79Zm5.95-1.73c.17-.87-.18-1.4-1.27-1.83s-1.35-.76-1.23-1.33a1.4,1.4,0,0,1,1.51-1,3.32,3.32,0,0,1,1.12.21l.23-.47a2.84,2.84,0,0,0-1.36-.31,2.26,2.26,0,0,0-2.32,1.76c-.15.78.16,1.24,1.36,1.74s1.27.76,1.14,1.4-.7,1.09-1.74,1.09a4.53,4.53,0,0,1-1.43-.28l-.22.46a3.19,3.19,0,0,0,1.65.42,2.41,2.41,0,0,0,2.56-1.82Zm6.78-1.81.13-.62H173l-.12.62Zm8.5,1.21c.54-2.75-3.8-2.19-3.35-4.47a1.83,1.83,0,0,1,2-1.44,3.91,3.91,0,0,1,1.7.39l.29-.45a3.19,3.19,0,0,0-1.89-.56,2.85,2.85,0,0,0-2.91,2.18c-.53,2.77,3.78,2.18,3.33,4.46a2.21,2.21,0,0,1-2.39,1.67,3.54,3.54,0,0,1-1.81-.57l-.36.47a3.7,3.7,0,0,0,2.15.74,3.18,3.18,0,0,0,3.29-2.42Zm3.69-6c.07-.4,0-.48-.39-.48s-.52.09-.6.48,0,.48.41.48.5-.09.58-.48Zm-1.74,8.32,1.25-6.41h-.75l-1.25,6.41Zm7.62-3.68c.41-2.1-.21-2.82-1.31-2.82a3.81,3.81,0,0,0-2.23.88l.08-.79h-.64l-1.24,6.41h.75l1-5a3.71,3.71,0,0,1,1.92-.86c.88,0,1.23.69.9,2.42-.19,1-.49,2.36-.71,3.47h.74c.24-1.22.58-2.78.76-3.68Zm4.51,3.41,0-.47a3.51,3.51,0,0,1-1.11.23c-.7,0-.78-.35-.59-1.32l.78-4h1.86l.11-.56h-1.86l.36-1.82H197c-.18.67-.37,1.25-.57,1.82h-1.13l-.11.56h1.13l-.81,4.2c-.25,1.26,0,1.74,1.07,1.74a3.79,3.79,0,0,0,1.44-.36Zm3.41-3.27.12-.62H199l-.12.62Zm1.58,2.66,1.53-7.89h-.79l-1.54,7.93a4.82,4.82,0,0,1-1.22,2.75l.33.34a4.57,4.57,0,0,0,1.69-3.13Zm7.55-2.49c.44-2.27-.42-3.13-1.86-3.13-1.64,0-3,1.09-3.42,3.43s.4,3.16,1.84,3.16c1.65,0,3-1.09,3.44-3.46Zm-.86.3c-.34,1.72-1.15,2.56-2.28,2.56-1.29,0-1.69-.83-1.29-2.86.33-1.69,1.15-2.53,2.27-2.53,1.3,0,1.69.83,1.3,2.83Zm5.28,2.46H211.9l3.93-5.36.08-.44H212.3l-.17.6h2.76l-3.9,5.37-.09.44h3.87l.19-.61Zm6.1-2.55c.59-2.35-.07-3.34-1.52-3.34s-2.76,1.28-3.19,3.48.39,3.11,1.89,3.11a5.7,5.7,0,0,0,2.28-.53l-.07-.48a4.89,4.89,0,0,1-1.89.41c-1.23,0-1.77-.71-1.42-2.51l0-.14Zm-.64-.56h-3.15c.3-1.17,1-2.21,2.08-2.21s1.34.84,1.08,2.17v0Zm6.64-5.22a2.27,2.27,0,0,0-1.23-.36,1.93,1.93,0,0,0-1.91,1.8l-.21,1.09h-1.13l-.11.56h1.13l-1.13,5.85h.75l1.13-5.85h1.54l.11-.56h-1.54l.22-1.14c.16-.78.52-1.17,1.22-1.17a1.79,1.79,0,0,1,.87.25l.29-.47Z" transform="translate(-2.63 -3.98)" fill="#4a4a49"/>
  </g>
</svg>
