<svg viewBox="0 0 800 1200" xmlns="http://www.w3.org/2000/svg" fill-rule="evenodd" clip-rule="evenodd" stroke-linejoin="round" stroke-miterlimit="2"><g fill-rule="nonzero"><path d="M897.1 83.9L870.6-21c-10.7-42.6-14-104.4-56-130-39.6-24-88.2-30.6-135.7-29.7-4.8 0-9.5.2-14.2.4-9 .5-18 1.2-26.5 3.5-18.8 3.8-37 10.5-53.6 20.6-42.1 25.5-45.4 87.3-56.2 129.9L501.9 78.6l57.8-.8-.2 1.2 337.6 4.9z" fill="#a0d9d5"/><path d="M465.1-79.9c-34.4-.7-70.8 1.4-103.3 17.9-8.6 4.3-17 10-23.5 18.7-13.9 18.5-16.9 46.5-19.1 72.4-1.2 14-13 167.3-6.1 167.7 3.1 0 32.1 2.2 32.4.4l-.2 1.2a2500037.2 2500037.2 0 01194.5 3.7c13 .3 54.3 9.6 58.8-5.7.3-1 .4-2 .4-3.2-1-48-8-95.2-15.4-142-5.2-33.3-4.6-88-29.6-106.7-27.3-20.4-58.2-23.7-88.9-24.4z" fill="#1383a3"/><path d="M45.1-34.9C10.7-35.6-25.7-33.5-58.2-17c-8.6 4.3-17 10-23.5 18.7-13.9 18.5-16.8 46.5-19.1 72.4-1.2 14-13 167.3-6.1 167.7 3.1 0 32.1 2.2 32.4.4l-.2 1.2a2548245.5 2548245.5 0 01194.5 3.7c13 .3 54.3 9.6 58.8-5.7.3-1 .4-2 .4-3.2-1-48-8-95.2-15.4-142-5.2-33.3-4.6-88-29.6-106.7C106.7-30.9 75.8-34.2 45-34.9z" fill="#bae3e7"/><path d="M316.9-5.3c6.8 21.4 12.2 43.1 12.9 66 .8 28-8.8 58-31.4 74.6-17.4 12.9-39.8 16.3-61.3 18-19.7 1.7-39.8 2.3-58.7-3.4-18.9-5.7-36.5-18.6-43.5-37a95.4 95.4 0 01-3.6-38c1.8-41 2.4-83 6.4-123.3 2.7-27.9 11.3-70.2 42.3-80.1 37-32.4 87.6-15.5 108 35.9 1.6 4.1 3 8.5 4.3 13 6.7 25 16.6 49.4 24.6 74.3z" fill="#004855"/><path d="M233.8 50.4c-41.9-.7-86.2 1.2-125.8 16.2a80 80 0 00-28.7 17.1c-16.8 16.8-20.5 42.3-23.2 66-1.5 12.6-16 152.4-7.5 152.8 3.8 0 39.1 2 39.4.4l-.2 1.1c43.8.8 87.6 1.3 131.4 2l105.4 1.4c16 .3 66.2 8.8 71.7-5.1.3-1 .5-1.9.4-3-1.2-43.7-9.8-86.7-18.7-129.5-6.3-30.3-5.6-80-36-97.2C308.7 54 271 51 233.8 50.4z" fill="#fff"/><path d="M215-14.3c6 3.6 11.8 7.5 17.3 11.8a28 28 0 018.6 9.4c1.7 3.7 2 8 2.1 12 .5 11.5 4.3 26.8 17.3 30.5 1.9.5 4 .7 5.8 1.4 1.9.8 3.6 2.5 3.5 4.5-.1 5.8-14 14-18.4 16.3-9.2 4.6-17.3 5-27.3 3.3l-23.6-4c-9.6-1.7-20-3.8-25.9-11.5-1.5-2.1-2.7-5-1.6-7.3.7-1.4 2.2-2.4 3.5-3.3 17.6-11.4 21.8-17.1 28-35.8A273 273 0 01215-14.3z" fill="#fbd4bf"/><path d="M274.6-86.8c0-23.3-28-34.8-56-34.7-27.9-.2-56 11.4-56 34.6 0 0-6.6 68.8 30.9 106.3 7 7 16 10.7 25.1 11 9.1-.3 18.1-4 25.1-11 37.6-37.4 31-106.2 31-106.2z" fill="#fbd4bf"/><path d="M270.3-31.3c-1.5 14.7-3.6 37-5.6 37-8.7 3-13.3 10-20.5 16.4a38.4 38.4 0 01-51.2 0c-7.1-6.5-11.8-13.4-20.4-16.4-2.1 0-4.2-22.3-5.7-37 2.5-1.6 19.7-11.7 38.2-17.2a47.6 47.6 0 0127 0 179 179 0 0138.2 17.2z" fill="#fff"/><path d="M598 36.1C647.2 28 722.3 23.4 764 58c36.7 30.4 47.4 94.2 56 138.2l23.3 118.5c3.1 15.8 6.1 32.7-.2 47.5-16 37.9-166 15.6-201.4 15l-158.4-3c4.5 0 10-83.8 10.6-90.4 5.9-64.3 4-133 17.5-195.7 1.5-7 3-14.1 6.9-20.1 7.7-12.4 22.9-17.5 36.9-21.7 13.8-4.2 28.2-7.7 42.8-10z" fill="#17bcc5"/><path d="M628.7 11.7c-.2 1.3-.5 2.4-.8 3.3-.8 3-1.7 6-3.6 8.4-4.4 5.4-12.5 5.5-18.3 9.3-.8.6-1.7 1.4-1.9 2.4-.3 1.6 1.2 3 2.5 3.9 25.6 18.8 68.5 27.9 86.9-4.8-7.8-4.5-17.5-6.6-19.9-16.6-1.8-8 2.9-19.5 1.5-28.4-2-12.8-17.2-40.6-32.7-29.5-11 7.9-11 39.9-13.7 52z" fill="#e8b095"/><path d="M706.7-105.8c0-24-29-35.8-57.7-35.7-28.8-.1-57.8 11.8-57.8 35.7 0 0-6.9 70.9 31.8 109.5a39 39 0 0026 11.4 39 39 0 0025.8-11.4c38.7-38.6 31.9-109.5 31.9-109.5z" fill="#e8b095"/><path d="M702.2-48.6c-1.6 15.2-3.7 38.2-5.8 38.2-9 3-13.7 10.3-21 16.9a39.6 39.6 0 01-53 0c-7.2-6.7-12-13.9-21-16.9-2 0-4.2-23-5.7-38.2 2.5-1.6 20.2-12 39.3-17.6a49.1 49.1 0 0127.9 0c19 5.6 36.8 16 39.3 17.6z" fill="#fff"/><path d="M-33.4 19.2a92.7 92.7 0 00-18.3 27.3 225.5 225.5 0 00-16.5 71c-1 14.2-3 28.3-2.4 42.5 1 20.5 4 24.3 23.3 17 37.1-13.7 74-29 109.5-46.6 15-7.5 30.8-16.6 37.2-32C113.6 64 94.5 9 59.4-5.2 26.2-18.6-9-6.3-33.3 19.2z" fill="#004855"/><path d="M-149 645c8.5-33.8 17.1-278.2 25.7-312 10.4-41.2 13.6-101 54.3-125.6 38.2-23.2 85.3-29.6 131.2-28.7 4.6 0 9.2.2 13.8.4 8.6.5 17.3 1.1 25.6 3.4a160 160 0 0151.8 20c40.7 24.7 43.9 84.4 54.3 125.6 8.5 33.8 17 278.2 25.5 312 0 0-22.6-2.1-55.9-2.6-.8 8 .1 2.6.2 3l-326.6 4.5z" fill="#a0d9d5"/><path d="M38.8 119c6 3.6 11.8 7.5 17.3 11.8 3.3 2.6 6.6 5.5 8.5 9.3 1.8 3.7 2 8 2.1 12 .7 15.4.2 20.5 15 25.2 1.1.4 2.3.8 3 1.7 1 1 1 2.5 1 3.9a27.7 27.7 0 01-24.2 25.9c-4.6.4-9.2-.3-13.8-1.1l-23.5-4c-9.5-1.6-19.8-3.8-25.7-11.4-1.5-2.1-2.7-4.9-1.6-7.2.7-1.5 2.2-2.5 3.5-3.3 17.5-11.3 21.7-17 27.9-35.6.6-1.9 9.7-27.6 10.5-27.2z" fill="#e8b095"/><path d="M2.3 175v.1c3.4 2.9 7.6 4.3 12 4.3 6.5-.1 13-1.7 19.7-5A67.1 67.1 0 0067.6 137c15-40.6.9-85.5.9-85.5C48.3-.6-35.7 8.2-36.3 59.3c0 0-6.3 77.5 38.6 115.8z" fill="#e8b095"/><path d="M93 98c-5-17.6-21.3-5.4-21.3-5.4l-3.9 41.6c11.5 1.7 31-15 25.2-36.1z" fill="#e8b095"/><path d="M-9.1 170.5h.1a36.8 36.8 0 0038.2 9.2c6-2 11.7-5.5 16.5-10.3 4.5-4.6 8-9.4 12.2-13.3A75.5 75.5 0 0146 103.5l.4-2.4c-6.5-1.7-13.7-3.5-21-5a78.3 78.3 0 00-59.9 12 105.3 105.3 0 0025.4 62.4z" fill="#fff"/><path d="M37.2 107.7v-1c.3 0 32-.3 36.7-16l1 .2c-2 6.9-9.3 12-20.9 14.7-8.6 2-16.7 2.1-16.8 2.1zM45.5 155.1l-.4-.9c16.8-7.6 22.9-20 23-20.2l.9.4c-.1.2-6.4 13-23.5 20.7z" fill="#fff"/><path d="M-15.8 23.7c10.4 38 77.4 91.6 109 65.2 6.5-5.4 6.4-15.3 4.6-23.4-8-37.2-41-67.7-78.6-73-10-1.4-21-.9-28.9 5.4-7.6 6.1-9 15.4-6.1 25.8z" fill="#004855"/><path d="M426 152.3c27.5-3.2 55.2-6 83-6.3a133 133 0 0150.6 7.2c27.5 11 46.7 37 56.4 65 6 17.3 27.7 260 30.4 260.1L300 473.6c.8 0 11-147.4 12.7-164 3.7-38.9 4.3-115.7 41.5-140 15.8-10.3 35.3-12.8 54-15.1l17.7-2.2z" fill="#cdeaec"/><path d="M521.5 10.4a52 52 0 003.5-26.7c-3.5-15-19.3-23.7-34.4-26.8-10-2-19.8-3.8-29.6-.3-7.4 2.6-14 7-20.4 11.4l-18 12.2c-6.6 4.4-13.3 9-18.3 15.3-12.9 16.1-7.9 39.4-.3 56.6 10.2 23.2 27.6 42.4 44.7 61L492 74a120 120 0 0024-26.5c6.2-10.3 9.7-25.9 5.4-37z" fill="#004855"/><path d="M482.2 123.6c33.1-13.6 58-45.6 63-81a49.2 49.2 0 00-3.6-30.3c-4.9-9-15.4-15.7-25.5-13.4a169 169 0 00-33.9 124.7z" fill="#004855"/><path d="M505.4 133c1 2 2.2 3.9 3.6 6 7 10.3 9.7 19-2 29.6-5.7 5-13 8-20.4 9.1a38.2 38.2 0 01-38-14.2c-11.8-13.5-2.8-21.4 8-31 14.2-12.4 11.4-23.2 15-41.5 2-9.6 4.6-22.7 15-15.1 6.4 4.7 8 21.1 9.5 28.1 2.6 12 4.2 19.8 9.3 29z" fill="#fdd6c1"/><path d="M410.7 32.1c-1.5-22.4 24.9-35.4 51.9-37 26.9-2 54.8 7.3 56.3 29.8 0 0 10.9 66-23 104.6a36.6 36.6 0 01-23.5 12.3c-8.8.2-17.8-2.8-25-9C408.7 99 410.7 32 410.7 32z" fill="#fdd6c1"/><path d="M534.6 59.6c-4.8-15.2-18.7-4.1-18.7-4.1l-2.2 36c10 1.2 26.6-13.8 20.9-32z" fill="#fdd6c1"/><path d="M437.4 129.2l.1.2a38.9 38.9 0 0038.4 9.6c6.3-1.8 12.1-5 17.2-9.4 4.7-4.3 8.4-8.7 12.8-12.3-10-15-13.6-33-10.4-50.4l.5-2.3a387 387 0 00-21.1-5.3c-21-4.6-43.2-1-61.3 9.9a96.5 96.5 0 0023.8 60z" fill="#fff"/><path d="M486.3 75.5L523 50l-.1 1.1C515 58 513 60 501 67c-7.8 4.5-12.1 8-12.2 8l-2.5.5zM516.6 89.1c-1.3 2.2-3 4.1-4.8 6a50.3 50.3 0 01-12.3 9l-3.6 1.4-3.6 1.1c1-.7 2.2-1.2 3.4-1.7l3.3-1.8a49.6 49.6 0 0017.5-14z" fill="#fff"/><path d="M901.5-88C864-119 810.9-102.4 792.3-59.4A216.9 216.9 0 01758.8-5C729 30 734 95.7 816.7 91.8a424 424 0 0149.6.5c31.6 2.2 71.6.3 76.2-49 1.7-18-4-34.8-2.8-51.5 2.1-30.8-1.5-70.9-38.2-79.8z" fill="#004855"/><path d="M884.6 86.8c-42-.7-86.3 1.2-125.9 16.2-23.3 8.8-37.9 27-43.7 51.4-8.2 34.2-21.4 67.2-28.8 101.9a1051.4 1051.4 0 00-20.9 196.1c-.4 20.6-.5 41.5 5.3 61.3-2.2-7.6 64.9-3.6 65.1-5.2l-.1 1.2 131.3 1.9 105.5 1.5c15.8.2 66.1 8.7 71.6-5.2.3-.9.5-1.8.4-2.9-1.2-43.7-6.7-256-15.6-298.8-6.4-30.3-5.6-80-36.1-97.2-33.2-18.6-70.8-21.6-108.1-22.2z" fill="#1383a3"/><path d="M801-8.5c3.8-15.6 18.4-5.4 18.4-5.4l4.7 36.1c-10 1.8-27.6-12.1-23-30.7z" fill="#fbd4bf"/><path d="M288.8 140.4c-16.2-4-24.9-15.4-42.3-14.1-25.2 1.8-38 14.5-52 33.8-9.7 13.7-30.8 22.8-37.4 37.6-5 11.1 3 23.4 5.2 35.4 1.9 10.5-1 21.7-7.7 30-3.3 4.2-7.6 7.7-10.5 12.2-4 6-5.4 13.5-6.6 20.8l-8.3 49.6c29.4-4.1 59.4-3.8 88.6 1-7.4-1.2 4.5-25.8 7.6-28.5 7.5-6.8 20.4-9.6 28.8-17.2a350 350 0 0063.5-76.6c17.7-29 6.6-75.1-28.9-84z" fill="#004855"/><path d="M263.3 314.7c-42-.7-86.3 1.2-125.9 16.2a80 80 0 00-28.6 17.1c-16.9 16.8-20.5 42.4-23.3 66-1.5 12.7-19 321.7-10.5 322 3.8.1 39.2 2.1 39.4.4 0 .4 0 .8-.2 1.2l131.4 1.9 105.5 1.5c15.8.2 66.1 8.7 71.6-5.2.3-.8.5-1.8.4-2.9-1.2-43.7-6.7-256-15.6-298.8-6.4-30.3-5.6-80-36.1-97.1-33.2-18.7-70.9-21.7-108.1-22.3z" fill="#17bcc5"/><path d="M275 283.8c-.2 2.8-.2 5.5.3 8.2 2.3 12.4 12.3 13.7 16.3 23.9 1 2.3.2 4.8-.7 7.1-6.6 16-25.2 27-43.7 26a44 44 0 01-39.4-31.2c26.1-10.2 14.2-41.7 13-60.5-.2-1.5-.3-3 .4-4.4 1.4-2.7 5.1-3.4 8.3-3.6 12.7-1 39.7-5.4 45.7 9.4 3.3 8.2.6 16.8-.2 25z" fill="#fbd4bf"/><path d="M308.6 183.6c0-45-108-45-108 0 0 0-6.5 67 30 103.4a37 37 0 0052.3 0c36.5-36.5 25.7-103.4 25.7-103.4z" fill="#fbd4bf"/><path d="M187.7 219.4c3.7-15.6 18.4-5.4 18.4-5.4l4.6 36.1c-10 1.9-27.5-12-23-30.7z" fill="#fbd4bf"/><path d="M308.8 237.5a75.5 75.5 0 01-26 52 40.4 40.4 0 01-51.4 0c-7.1-6.3-11.8-13-20.4-16-2 0-4.1-21.7-5.6-36 2.1-1.4 20.2-9 38.7-14.5a67.6 67.6 0 0157.7 9.3c3.6 2.6 6 4.6 7 5.2z" fill="#fff"/><path d="M207.4 241s-1.2-15.8-6.7-29.6l6.7 29.5z" fill="#fff"/><path d="M278.2 141.4s-12.9 66.6-77.5 70c-37.1-41 40.3-111.1 77.5-70z" fill="#004855"/><path d="M310 203.5c-28.9-18.8-40.1-59.4-40.1-59.4 35.5-6.7 56.6 27.6 40.2 59.4z" fill="#004855"/><path d="M350.6 274.9c-.1-3-.5-5.9-1.8-8.6-3.8-8.2-13.9-11.8-18.6-19.5-5.3-8.6-2.6-19.6-2.9-29.7a50.6 50.6 0 00-31.4-44.8c5.2 16.5 14.7 35.5 13 54.4-1.6 17.1-1.4 34.7-10.7 49.8-4.7 7.7-17 12.3-20.7 20-13.3 28.2-8.5 57.6-13 87.2 36.5-2.4 73.1-3.1 109.7-2.2a83 83 0 01-8.5-42c.5-8.4 2.2-17.5-1.8-25-3.2-6.1-9.6-10-12.4-16.3-3.1-7.2-.7-15.5-1-23.3zM617.1 218.3c2.4-13.8 10.3-26 30.7-36a85 85 0 0152.3-6.3c92.8 16.1 70.7 150.3 65.8 218.2-1 13.7-2.6 28.8-12.3 37.8-12 11.3-30.8 7.9-46.7 3.7-12.4-3.2-25-6.4-36.6-12.2-24.1-12-43.3-34.8-51.5-61.5-8.5-27.4.8-47.2 2-73.7 1.3-26-7.2-49.8-3.7-70z" fill="#004855"/><path d="M858.5 765.7c-8.6-33.8-17.1-208.6-25.6-242.4-10.4-41.2-13.6-101-54.3-125.6-38.2-23.2-85.3-29.7-131.2-28.8-4.6 0-9.2.2-13.8.4-8.6.5-17.3 1.1-25.6 3.4a160 160 0 00-51.8 20c-40.7 24.6-44 84.4-54.4 125.5-8.5 33.8-17 208.6-25.6 242.4l55.9-.7-.2 1.1 326.6 4.7z" fill="#a0d9d5"/><path d="M633 348.4l-.8 3.3c-.8 3-1.7 6-3.7 8.2-4.3 5.3-12.3 5.4-18 9.1-.9.6-1.7 1.3-2 2.3-.2 1.6 1.2 2.9 2.4 3.9 25.2 18.7 67.4 28 85.9-4-7.7-4.5-17.3-6.7-19.5-16.6-1.8-8 3-19.2 1.7-28-1.8-12.7-16.7-40.2-32.1-29.3-10.8 7.6-11.2 39.2-13.9 51.1z" fill="#fdd6c1"/><path d="M660.4 338.2c-7.1 15.8-20.2 34.7-37 40.6-7.3 2.5-15 3-22.7 4.4-14.8 2.4-34.7 3.2-47.7 10.8 2.4-24.7 19.1-40.7 25.8-63.8 7.1-24.7 9.2-51.5 13.3-76.8 1.6-9.6 3.2-19.3 7-27.7 18.4-40 39.1-9.6 50.3 20.8 11.4 31 24.1 62.5 11 91.7z" fill="#004855"/><path d="M735 250c.6-22.1-25.8-33.9-52.4-34.5-26.5-.9-53.6 9.3-54.2 31.5 0 0-8.2 65.3 26.5 102a36 36 0 0023.6 11.2 36 36 0 0024.2-9.8C739.5 315.7 735 250 735 250z" fill="#fdd6c1"/><path d="M614.3 281.7c4.1-15.1 18.2-4.7 18.2-4.7l3.5 35.4c-9.8 1.5-26.6-12.6-21.7-30.7z" fill="#fdd6c1"/><path d="M709 350.3v.2a37.2 37.2 0 01-37 9 42 42 0 01-16.3-9.1c-4.5-4.2-8-8.4-12.2-12a65.2 65.2 0 0010.2-48.1l-.4-2.2a370 370 0 0120.3-5A80.6 80.6 0 01732 293a92.4 92.4 0 01-23 57.3z" fill="#fff"/><path d="M660.1 298s-7.8-1.7-15.6-5.4c-10.6-5-16.3-10.8-17-17.5h1c1.6 15 31.6 21.9 31.9 22l-.3 1zM660.2 333.7L655 331l-21.4-17-1.2-2.1 27.8 21.8z" fill="#fff"/><path d="M784.9 375.7a92.7 92.7 0 00-18.3 27.4 225.5 225.5 0 00-16.5 71c-1 14-3.1 28.3-2.4 42.4 1 20.5 3.9 24.3 23.3 17.1 37.1-13.8 74-29 109.5-46.7 15-7.4 30.8-16.6 37.2-32 14.2-34.4-4.9-89.4-40-103.5-33.3-13.5-68.6-1.2-92.8 24.3z" fill="#004855"/><path d="M669.2 1001.5c8.6-33.8 17.2-278.2 25.7-312 10.5-41.1 13.7-101 54.4-125.6 38.2-23.2 85.3-29.6 131.2-28.7 4.6 0 9.2.2 13.8.5 8.6.4 17.3 1 25.5 3.4a160 160 0 0151.9 19.9c40.7 24.7 43.9 84.5 54.3 125.7 8.5 33.8 17 278.2 25.5 312 0 0-22.6-2.2-56-2.7-.8 8 .2 2.6.3 3l-326.6 4.5z" fill="#fff"/><path d="M820.6 531.6c3.4 2.9 7.6 4.4 12 4.3 6.5 0 12.9-1.7 19.6-5a67.1 67.1 0 0033.6-37.5c15-40.6 1-85.5 1-85.5-20.2-51.9-104.3-43.2-104.8 7.9 0 0-6.3 77.5 38.6 115.8z" fill="#e8b095"/><path d="M809.2 527v.1a36.8 36.8 0 0038.2 9.1c6.1-2 11.8-5.5 16.6-10.3 4.5-4.6 8-9.3 12.2-13.3a75.5 75.5 0 01-11.9-52.5l.4-2.4a363 363 0 00-21-5 78.3 78.3 0 00-60 12 105.3 105.3 0 0025.5 62.3z" fill="#fff"/><path d="M498.1 390c-37.3-31.1-90.5-14.4-109.1 28.6a217 217 0 01-33.5 54.3c-29.8 35.1-24.8 100.8 57.8 96.9a424 424 0 0149.7.5c31.6 2.2 71.6.3 76.2-49 1.6-18-4-34.8-2.8-51.5 2-30.8-1.6-70.9-38.3-79.7z" fill="#004855"/><path d="M481.2 564.8C439.4 564 395 566 355.4 581a80 80 0 00-28.6 17.1c-16.9 16.8-20.5 42.3-23.3 66-1.5 12.7-19 321.7-10.6 322 3.9.1 39.2 2.1 39.5.4l-.2 1.2 131.4 1.9L569 991c16 .2 66.2 8.7 71.6-5.2.4-.9.6-1.8.5-2.9-1.2-43.7-6.8-256-15.7-298.8-6.3-30.3-5.5-80-36-97.2-33.2-18.6-70.9-21.6-108.2-22.2z" fill="#1383a3"/><path d="M488.2 533.8c-.2 2.8-.3 5.6.2 8.3 2.2 12.4 11.4 13.7 15.2 23.9.9 2.3.2 4.8-.7 7.1-6.1 16-23.4 27-40.5 26a41.6 41.6 0 01-36.7-31.3c24.3-10 13.3-41.6 12-60.4 0-1.5-.1-3.1.5-4.5 1.3-2.6 4.8-3.3 7.7-3.5 11.8-1 36.9-5.4 42.4 9.4 3.1 8.2.6 16.8-.1 25z" fill="#fbd4bf"/><path d="M518.6 433.6c0-45-108-45-108 0 0 0-6.5 67 30 103.5a37 37 0 0052.3 0c36.5-36.5 25.7-103.5 25.7-103.5z" fill="#fbd4bf"/><path d="M397.7 469.5c3.8-15.6 18.4-5.4 18.4-5.4l4.7 36.1c-10 1.8-27.6-12.1-23.1-30.7z" fill="#fbd4bf"/><path d="M518.8 487.6a75.5 75.5 0 01-26 52 40.4 40.4 0 01-51.4 0c-7-6.3-11.7-13.1-20.4-16-2 0-4.1-21.7-5.6-36 2.1-1.4 20.2-9 38.7-14.5a67.6 67.6 0 0157.7 9.3c3.6 2.5 6 4.5 7 5.2z" fill="#fff"/><path d="M417.5 491s-1.3-15.7-6.8-29.5l6.8 29.5z" fill="#fff"/><path d="M488.2 391.5s-12.9 66.6-77.5 70c-37.1-41.1 40.3-111.1 77.5-70z" fill="#004855"/><path d="M520.1 453.6c-29-18.8-40.2-59.4-40.2-59.4 35.5-6.7 56.6 27.6 40.2 59.4z" fill="#004855"/><path d="M258 1030.7c-8.6-33.8-17-245.8-25.6-279.6-10.4-41.2-13.6-101-54.3-125.7C140 602.3 93 595.8 47 596.7c-4.6 0-9.2.2-13.8.4-8.6.4-17.4 1.1-25.6 3.4a160 160 0 00-51.8 19.9c-40.8 24.7-44 84.5-54.4 125.6-8.6 33.8-17.2 245.8-25.7 279.6l56-.7-.3 1.1 326.6 4.7z" fill="#fff"/><path d="M42 576.7l-.5 3.3c-.6 3-1.3 6-3 8.5-4 5.6-12 6.3-17.3 10.5-.8.6-1.6 1.4-1.7 2.4-.2 1.6 1.3 2.8 2.7 3.7 26.5 16.6 70 29.4 85.8-4.1-8-3.8-18.3-12.2-21.4-21.8-2.4-7.8 1.4-19.4-.6-28.1-2.8-12.5-19.9-38.7-34.3-26.6-10.2 8.5-8 40-9.7 52.2z" fill="#fdd6c1"/><path d="M115.2 509c-3.8-14.8 2.4-30.2 1.4-45.4-.3-4.9-1.4-9.8-3.3-14.4-1-2.4-1.9-5.5.1-7.2 1.8-1.5 4.7-.2 6.3 1.5 3.1 3.5 4.1 8.4 4.2 13 .1 8.8.2 18.6-2.4 27-2.5 8.3-7 16.5-6.3 25.5z" fill="#1383a3"/><path d="M11 438.1a53.7 53.7 0 01.3-27.9c5.6-14.8 23-21.6 38.8-22.7 4.9-.3 9.8-.2 14.5.8 10.7 2.2 19.9 9 30.2 12.6 10.3 3.7 23.8 3.2 29.8-6 3.7 9 1.7 20.4-4.4 28 4.7 1.3 9.9 1 14.4-.8 10.8 23.8 4.8 52.6-8.8 75-13.7 22.3-34.1 39.6-54.2 56.4l-39.2-46.2a124 124 0 01-21-30.4c-4.8-11.4-6.2-27.9-.3-38.8z" fill="#004855"/><path d="M35.8 559.6c-32-18.6-53.1-54.8-53.4-91.8a51 51 0 017.8-30.5c6.3-8.7 18-14 28-10.2 23.5 40 29.1 87.5 17.6 132.5z" fill="#004855"/><path d="M117.7 466.2c0-22-26.7-33-53.1-32.8-26.5-.2-53.2 10.8-53.2 32.8 0 0-6.3 65.3 29.3 100.8a35.9 35.9 0 0023.8 10.5c8.7-.4 17.2-3.9 23.8-10.5 35.7-35.5 29.4-100.8 29.4-100.8z" fill="#fbd4bf"/><path d="M-1.6 501.2c3.7-15.2 18-5.3 18-5.3l4.5 35.2C11 532.9-6 519.3-1.6 501zM130.7 501.2c-3.7-15.2-18-5.3-18-5.3l-4.5 35.2c9.7 1.8 26.9-11.8 22.5-29.9z" fill="#fbd4bf"/><path d="M14 509c3.7-14.8-2.4-30.2-1.4-45.4.3-5 1.4-9.8 3.3-14.4 1-2.4 1.9-5.6-.1-7.2-1.8-1.5-4.6-.2-6.3 1.5a19.5 19.5 0 00-4.2 13c-.1 8.8-.2 18.5 2.4 27 2.5 8.2 7 16.5 6.3 25.4z" fill="#004855"/><path d="M113.6 518.9c-1.5 14-3.4 35.1-5.4 35.1-8.2 2.8-12.6 9.4-19.4 15.5a36.4 36.4 0 01-48.6 0c-6.8-6-11.2-12.7-19.3-15.5-2 0-4-21.2-5.4-35.2 2.3-1.4 18.6-11 36.2-16.2a45.2 45.2 0 0125.7 0 169.8 169.8 0 0136.2 16.3z" fill="#fff"/><path d="M11 493.5l6.5 28.7S16.3 507 11 493.5zM111.5 522.3l6.6-28.8c-5.3 13.5-6.6 28.8-6.6 28.8z" fill="#fff"/><path d="M363.9 687.7c6.8 21.4 12.2 43.1 12.9 66 .8 28-8.8 58-31.4 74.6-17.4 12.9-39.8 16.3-61.3 18-19.7 1.7-39.8 2.3-58.7-3.4-18.9-5.7-36.5-18.6-43.5-37a95.4 95.4 0 01-3.6-38c1.8-41 2.4-83 6.4-123.3 2.7-27.9 11.3-70.2 42.3-80.1 37-32.4 87.6-15.5 108 35.9 1.6 4.1 3 8.5 4.3 13 6.7 25 16.6 49.4 24.6 74.3z" fill="#004855"/><path d="M280.8 743.4c-41.9-.7-86.2 1.2-125.8 16.2a80 80 0 00-28.7 17.1c-16.8 16.8-20.5 42.3-23.2 66-1.5 12.6-16 259.4-7.5 259.8 3.8 0 39.1 2 39.4.4l-.2 1.1c43.8.8 87.6 1.3 131.4 2 35.2.4 70.3 1 105.4 1.5 16 .2 71.7.5 71.7-112.2 0-1 .5-1.9.4-3 1.8 63.3 12 17.4-18.7-129.5-6.3-30.3-5.6-80-36-97.2C355.7 747 318 744 280.8 743.4z" fill="#a0d9d5"/><path d="M262 678.7c6 3.6 11.8 7.5 17.3 11.8a28 28 0 018.6 9.4c1.7 3.7 2 8 2.1 12.1.5 11.4 4.3 26.7 17.3 30.4 1.9.5 4 .7 5.8 1.4 1.9.8 3.6 2.5 3.5 4.5-.1 5.8-14 14-18.4 16.3-9.2 4.6-17.3 5-27.3 3.3l-23.6-4c-9.6-1.7-20-3.8-25.9-11.5-1.5-2.1-2.7-5-1.6-7.3.7-1.4 2.2-2.4 3.5-3.3 17.6-11.4 21.8-17.1 28-35.8.7-1.8 9.8-27.7 10.6-27.3z" fill="#fbd4bf"/><path d="M321.6 606.2c0-23.3-28-34.8-56-34.7-27.9-.2-56 11.4-56 34.6 0 0-6.6 68.8 30.9 106.3 7 7 16 10.7 25.1 11 9.1-.3 18.1-4 25.1-11 37.6-37.4 31-106.2 31-106.2z" fill="#fbd4bf"/><path d="M195.9 643c3.9-16 19-5.5 19-5.5l4.7 37c-10.3 2-28.3-12.4-23.7-31.5zM335.4 643c-3.9-16-19-5.5-19-5.5l-4.7 37c10.2 2 28.3-12.4 23.7-31.5z" fill="#fbd4bf"/><path d="M215.6 665.2c0-.1-.7-16.2-6.2-30.1l1-.4c5.5 14.1 6.2 30.3 6.2 30.5h-1zM315.7 665.2h-1c0-.2.6-16.3 6.2-30.4l1 .4c-5.6 14-6.2 29.9-6.2 30z" fill="#fff"/><path d="M317.3 661.7c-1.5 14.7-3.6 37-5.6 37-8.7 3-13.3 10-20.5 16.4a38.4 38.4 0 01-51.2 0c-7.1-6.5-11.8-13.4-20.4-16.4-2.1 0-4.2-22.3-5.7-37 2.5-1.6 19.7-11.7 38.2-17.2a47.7 47.7 0 0127 0 179 179 0 0138.2 17.2z" fill="#fff"/><path d="M321.4 635c-23.2-47.1-70.1-35.3-76-66.9 43-29.3 104.1 17.1 76 67z" fill="#004855"/><path d="M209.9 635c16.2-14.9 13.7-45.6 48-58.5-36.9-21.7-71.2 30.8-48 58.5z" fill="#004855"/><path d="M470.3 1249.8c8.9-34.9 18-250 26.8-285 10.8-42.5 14.2-104.3 56.4-129.8 39.5-23.9 88.2-30.5 135.6-29.5 4.8 0 9.5.2 14.3.5 8.9.4 17.9 1.1 26.4 3.5 18.8 3.8 37 10.6 53.6 20.7 42 25.5 45.3 87.4 56 130 8.8 34.9 17.3 250 26.1 285l-57.8-.9c0 .4.2 5.2.2-2.8-59.9 11.9-337.6 8.3-337.6 8.3z" fill="#17bcc5"/><path d="M705.6 785l.6 3.5c.6 3 1.2 6.2 3 8.7 4 5.8 12.3 6.6 17.9 11 .8.6 1.6 1.4 1.7 2.5.2 1.6-1.4 2.9-2.8 3.7-27.4 17.2-71.8 23.2-88-11.5 8.2-4 18.3-5.4 21.5-15.4 2.5-8-1.5-20 .6-29 3-12.9 20.7-40 35.6-27.4 10.5 8.8 8.1 41.4 9.9 54z" fill="#fdd6c1"/><path d="M703.8 671.8c2.7-8.7 5.4-18 3.3-26.9-3.5-15-19.4-23.7-34.5-26.7-10-2-19.8-3.8-29.7-.3-7.4 2.7-14 7.1-20.4 11.5l-18 12.2a79.5 79.5 0 00-18.4 15.5c-12.9 16.2-7.8 39.5-.2 56.8 10.3 23.2 27.8 42.4 45 61.2l43.5-39.5c8.9-8 18-16.3 24-26.6 6.2-10.3 9.6-26 5.4-37.2z" fill="#004855"/><path d="M664.5 785.5a106 106 0 0063-81.5 49.4 49.4 0 00-3.6-30.3c-4.9-9.2-15.5-15.8-25.6-13.4a169.5 169.5 0 00-33.8 125.2z" fill="#004855"/><path d="M592.6 693.8c-1.6-22.5 24.9-35.6 52-37.3 27-2 55 7.3 56.5 29.8 0 0 11.1 66.2-22.8 105a36.8 36.8 0 01-23.6 12.5c-8.8.2-17.8-2.8-25-9-39-33.9-37.1-101-37.1-101z" fill="#fdd6c1"/><path d="M717 721c-4.9-15.2-18.8-4-18.8-4l-2.1 36.2c10 1.2 26.6-14 20.8-32.1z" fill="#fdd6c1"/><path d="M636 688.7c-5.4-2.1-10.7-4.4-16-6.8-27.1-12.6-26.6-23.4 5.4-31.6 22.2-5.7 52.5-20 70.4 3 4.6 6 6.6 13.5 8.4 20.8 2.8 11.2 5.6 23 2.5 34.1-24-4-48-10.5-70.8-19.5z" fill="#004855"/><path d="M623.3 795a38 38 0 0038 7.7c6-2 11.6-5.3 16.3-10 4.4-4.3 7.8-8.8 12-12.6a66.5 66.5 0 01-12.5-48.7l.3-2.2a377 377 0 00-20.8-4.2 82.2 82.2 0 00-59.3 12.5 94.2 94.2 0 0026 57.4z" fill="#fff"/><path d="M670.9 739.6l-.3-1c.3 0 30.6-8.3 31.6-23.8l1 .1c-.5 6.8-6 13-16.6 18.5-7.9 4-15.6 6.2-15.7 6.2zM676.4 771.4l-.4-.9a47.5 47.5 0 0022.6-19.2l.9.4c0 .1-6.2 12.1-23 19.7z" fill="#fff"/><path d="M-61.4 908.2c48.5-8 122.6-12.6 163.8 21.5 36.2 30 46.7 93 55.3 136.3l23 117c3 15.6 6 32.3-.2 46.9-15.9 37.3-164 15.4-198.8 14.8l-156.3-3c4.4 0 9.8-82.7 10.4-89.1 5.8-63.6 4-131.4 17.3-193.3 1.5-6.8 3-13.8 6.8-19.8 7.6-12.2 22.6-17.2 36.4-21.4 13.6-4.1 27.8-7.5 42.3-9.9z" fill="#1383a3"/><path d="M-31.1 884.1l-.8 3.3c-.8 3-1.7 6-3.6 8.3-4.3 5.2-12.3 5.4-18 9.2-.9.5-1.7 1.3-1.9 2.3-.3 1.5 1.1 2.9 2.4 3.8 25.3 18.6 67.6 27.6 85.8-4.7-7.7-4.4-17.3-6.5-19.6-16.4-1.9-7.9 2.8-19.2 1.5-28-2-12.7-17-40-32.3-29-10.8 7.7-11 39.2-13.5 51.2z" fill="#fdd6c1"/><path d="M-71.6 726.1c5.3 8.7 16.7 5.2 24.3 2.9 10-3 20-7.2 30.6-7 14.7.3 31 8.3 40.8 19 11.4 12.6 10.8 32.9 2.4 47.5l-82.7 8-2.2 3.3C-94.1 774.3-71.6 726-71.6 726z" fill="#004855"/><path d="M12.2 877.4C50.2 861 75.8 828 77 793.5a40 40 0 00-8.5-28.5A41.6 41.6 0 0032 754C3.5 790.5-.4 835.2 12.2 877.4z" fill="#004855"/><path d="M-45.4 894v.1c2.7 2.7 6.3 4.2 10 4.5a40 40 0 0017.3-2.9 57.7 57.7 0 0031.5-29.8C29 832 20 792.6 20 792.6c-13.9-45.8-86.7-44.2-90.6-.4 0 0-10.8 66 25.2 101.9z" fill="#fbd4bf"/><path d="M37.9 834.3c-3-15.5-18-6-18-6l-6.1 35.2c9.7 2.3 27.6-10.7 24-29.2z" fill="#fbd4bf"/><path d="M22.6 825.3S-.4 801 4.3 769.7c12.8 7.3 27 24.7 23 38.8l-4.7 16.8z" fill="#004855"/><path d="M-54.9 889.3l.1.1A31.8 31.8 0 00-22.6 900a36.4 36.4 0 0015-7.7c4.2-3.6 7.5-7.5 11.4-10.6A64.7 64.7 0 01-3 835.8l.5-2c-5.5-2-11.6-4-17.7-5.8a67.8 67.8 0 00-52.4 6.2c-.4 23.8 9.3 45 17.6 55.1z" fill="#fff"/><path d="M-6.8 839c-2.4 0-4-.2-4-.2v-1c.4 0 27.5 2 32.7-11.2l1 .4c-2.3 5.7-8.9 9.6-19 11.2-4 .6-8 .7-10.8.7zM-6.9 880l-.3-1c15-5.3 21-15.5 21.1-15.6l.9.5S8.4 874.5-7 880zM477.3 962.7c-42-.7-86.3 1.2-125.9 16.2a80 80 0 00-28.6 17.1c-16.9 16.8-20.5 42.3-23.3 66-1.5 12.7-19 321.7-10.5 322 3.8.1 39.2 2.1 39.4.4 0 .4 0 .8-.2 1.2l131.4 1.9 105.5 1.5c15.8.2 66.1 8.7 71.6-5.2.3-.8.5-1.8.4-2.9-1.2-43.7-6.7-256-15.6-298.8-6.4-30.3-5.6-80-36.1-97.1-33.2-18.7-70.9-21.7-108.1-22.3z" fill="#fff"/><path d="M489 931.8c-.2 2.8-.2 5.5.3 8.2 2.3 12.4 12.3 13.7 16.3 23.9 1 2.3.2 4.8-.7 7.1-6.6 16-25.2 27-43.7 26a44 44 0 01-39.4-31.2c26.1-10.2 14.2-41.7 13-60.5-.2-1.5-.3-3 .4-4.4 1.4-2.7 5.1-3.4 8.3-3.6 12.7-1 39.7-5.4 45.7 9.4 3.3 8.2.6 16.8-.2 25z" fill="#fbd4bf"/><path d="M522.6 831.6c0-45-108-45-108 0 0 0-6.5 67 30 103.4a37 37 0 0052.3 0c36.5-36.5 25.7-103.4 25.7-103.4z" fill="#fbd4bf"/><path d="M401.7 867.4c3.7-15.6 18.4-5.4 18.4-5.4l4.6 36.1c-10 1.9-27.5-12-23-30.7z" fill="#fbd4bf"/><path d="M522.8 885.5a75.5 75.5 0 01-26 52 40.4 40.4 0 01-51.4 0c-7.1-6.3-11.8-13-20.4-16-2 0-4.1-21.7-5.6-36 2.1-1.4 20.2-9 38.7-14.5a67.6 67.6 0 0157.7 9.3c3.6 2.6 6 4.6 7 5.2z" fill="#fff"/><path d="M414.7 859.4l6.7 29.5s-1.2-15.7-6.7-29.5z" fill="#fff"/><path d="M525 848.5c-19.4-6.7-38-27-58.2-33-8.8-2.7-18.4-4.8-27.1-1.9-4.8 1.7-9 4.8-14 6-4.8 1.2-11.1-.5-12.6-5.3a98.8 98.8 0 0122.3-31.2 45.2 45.2 0 0135.5-11.9c6.3 1 12.1 3.6 18.2 5.4 12 3.5 24.8 3.6 37 6.9 12 3.2 24.2 10.8 27.6 22.8.8 3 1 6.3 3 8.8 1.7 2 4.3 3.1 6.2 5 6.7 6.6 1.2 18.4-6.5 23.9-10.9 7.8-21.2 8-31.4 4.5zM250.7 925.5c-36-28.1-85.4-10.8-101.7 30.2-7.3 18.5-17 36-29.7 52-27 33.9-20.3 95.4 57.2 89.2 15.5-1.3 31.1-1.6 46.7-1 29.7 1 67.2-1.9 70-48.3 1-17-4.8-32.6-4.2-48.4 1-29-3.6-66.5-38.3-73.7z" fill="#004855"/><path d="M240.1 1090.1c-39.3.6-80.9 3.8-117.6 19a65.2 65.2 0 00-39.6 49.7c-6.6 32.3-18 63.7-24 96.5a988 988 0 00-13.5 184.9c.1 19.3.7 39 6.7 57.3-2.3-7 60.9-5.3 61-6.8v1.1c41-.6 82.2-1.5 123.4-2.2l99-1.8c15-.2 62.4 6.2 67.1-7 .3-.8.4-1.8.4-2.7-2.5-41.1-14.2-240.3-23.8-280.2-6.9-28.3-7.7-75-36.8-90.1-31.8-16.6-67.2-18.2-102.3-17.7z" fill="#17bcc5"/><path d="M245.7 1060.9a30 30 0 00.5 7.7c2.4 11.6 11.1 12.5 15 22 .8 2.1.3 4.5-.5 6.7a39 39 0 01-37.2 25.5 39 39 0 01-35.4-28.1c22.5-10.3 11.2-39.5 9.5-57.2-.2-1.4-.3-2.9.3-4.1 1.1-2.6 4.3-3.3 7.1-3.6 11-1.3 34.4-6.2 40 7.5 3.2 7.6 1.1 15.8.7 23.6z" fill="#fbd4bf"/><path d="M271.2 965.8c-1.3-42.2-102.7-39-101.4 3.3 0 0-4 63 31.4 96.2 14 13.1 35.9 12.4 49-1.5 33.3-35.4 21-98 21-98z" fill="#fbd4bf"/><path d="M158.8 1003.2c3-14.8 17.1-5.6 17.1-5.6l5.5 33.7c-9.4 2-26.3-10.5-22.6-28.1z" fill="#fbd4bf"/><path d="M273.1 1016.5a71 71 0 01-23 49.6c-14 11.5-34 13-48.1 1.5-6.9-5.6-11.5-11.9-19.7-14.3-2 0-4.5-20.3-6.4-33.7 2-1.3 18.8-9 36-14.7 18.2-6 38.3-3.5 54.4 7 3.5 2.2 5.8 4 6.8 4.6z" fill="#fff"/><path d="M170.8 995.3l7.2 27.5s-1.6-14.7-7.2-27.5z" fill="#fff"/><path d="M241.4 927.1s-10 63-70.6 68.2c-36.2-37.5 34.5-105.6 70.6-68.2z" fill="#004855"/><path d="M273.3 984.5c-27.8-16.8-39.6-54.5-39.6-54.5 33.2-7.4 54 24.2 39.6 54.5zM684.3 967.3c19.2-9.3 26-26.7 50.9-28.4 21.8-1.5 41.5 8.5 56.7 23.5 40 39 61.3 95.2 81.2 146.5 15.2 39.3 28.7 85.4 7 121.5a73.3 73.3 0 01-60.8 35c-26.2.2-50.9-14-68.7-33.2-17.8-19.2-29.7-43-40.7-66.7-9.9-21-30.2-26.3-35-51.7-3.5-17.8-6.5-35.7-11.4-53.2-9-32-14.5-76.4 20.8-93.3z" fill="#004855"/><path d="M940.2 1392.8l-25.7-101.3c-10.4-41.2-13.6-101-54.3-125.7-38.3-23.1-85.3-29.6-131.2-28.7l-13.8.5c-8.6.4-17.4 1-25.6 3.4a160.3 160.3 0 00-51.8 20c-40.7 24.6-44 84.4-54.3 125.6L557.9 1388l56-.8-.3 1.1 326.6 4.5z" fill="#1383a3"/><path d="M752.4 1077.5c-6 3.5-11.8 7.5-17.3 11.8a27.8 27.8 0 00-8.5 9.3c-1.8 3.7-2 7.9-2.2 12-.6 15.4-.1 20.4-14.9 25.2-1.1.3-2.3.7-3.1 1.7-.9 1-1 2.5-1 3.8.4 13 11.4 24.7 24.3 26 4.6.4 9.2-.4 13.8-1.2l23.5-4c9.4-1.6 19.8-3.7 25.6-11.4 1.6-2 2.8-4.8 1.7-7.2-.7-1.5-2.2-2.4-3.6-3.3-17.4-11.3-21.6-17-27.8-35.5-.6-2-9.7-27.7-10.5-27.2z" fill="#fbd4bf"/><path d="M709.4 1128.6c3.5 2.5 7.8 3.5 12 3 6.4-.6 12.5-2.8 18.7-6.6a65.7 65.7 0 0029.3-39.7c10.8-41-7-83.3-7-83.3-24.6-48.7-105.6-32.4-101.4 17.4 0 0 1.1 76 48.4 109.2z" fill="#fbd4bf"/><path d="M790.5 1045.2c-6.4-16.8-21.2-3.4-21.2-3.4l.1 40.8c11.3.6 28.8-17.4 21.1-37.4z" fill="#fbd4bf"/><path d="M697.8 1125.2h.2a36 36 0 0038 5.4c5.7-2.6 10.9-6.4 15.1-11.6 4-4.9 7-9.8 10.7-14a73.8 73.8 0 01-16.5-50.2l.1-2.3c-6.5-1.1-13.6-2.2-20.9-3a76.7 76.7 0 00-57.2 17.3 103 103 0 0030.5 58.4z" fill="#fff"/><path d="M737 1059.8v-1c.3 0 31-3.3 34.3-19.1l1 .2c-1.4 6.8-8 12.5-19 16.2-8.2 2.8-16.1 3.7-16.2 3.7zM768.2 1085.4l-15.9 17c9-6.1 13.8-13.2 15.9-17zm-21.5 21.4l24.7-26.3-.9 2.3c0 .2-5 13.2-21 22.4l-2.8 1.6z" fill="#fff"/><path d="M680 982s25.2 66 91.8 57.8c30.6-49-61.3-106.8-91.8-57.9z" fill="#004855"/></g></svg>