<svg viewBox="0 0 501 255" xmlns="http://www.w3.org/2000/svg" fill-rule="evenodd" clip-rule="evenodd" stroke-linejoin="round" stroke-miterlimit="2"><path fill="none" d="M0 0h500.657v254.16H0z"/><clipPath id="a"><path d="M0 0h500.657v254.16H0z"/></clipPath><g clip-path="url(#a)"><g fill="#1a7eb7" fill-rule="nonzero"><path d="M229.412 133.514l-13.094-19.52a33.197 33.197 0 006.138-19.243c0-18.346-14.926-33.272-33.272-33.272h-30.477V209.3h30.286c26.838 0 48.672-21.834 48.672-48.672a48.51 48.51 0 00-8.253-27.114zm-40.228-51.34c6.935 0 12.577 5.642 12.577 12.577a12.55 12.55 0 01-4.449 9.598l-17.91 15.167V82.174h9.782zm-.192 106.431h-9.591v-41.97l21.614-18.303 11.211 16.711a27.891 27.891 0 014.743 15.586c0 15.426-12.55 27.976-27.977 27.976zM291.946 211.412c22.379 0 36.524-12.668 38.002-48.559v-29.135h-42.225v19.001h20.901v10.134c-.844 21.957-8.656 29.558-16.678 29.558-10.345 0-20.479-12.246-20.479-54.893 0-43.28 10.134-54.892 20.479-54.892 7.6 0 15.412 6.756 16.678 29.558l21.324-.212c-2.534-37.157-16.679-48.347-38.002-48.347-26.391 0-41.592 17.101-41.592 73.893 0 56.37 15.412 73.894 41.592 73.894zM363.728 209.3h21.112v-65.448l33.78-78.116h-21.113l-23.223 55.737-23.224-55.737h-21.112l33.78 78.116V209.3zM427.065 209.3h21.112v-86.138l31.669 86.138h21.112V65.736h-21.112v89.728l-31.669-89.728h-21.112V209.3z"/></g><g fill="#1a7eb7" fill-rule="nonzero"><path d="M83.994 37.83c5.924 0 9.396-3.968 9.652-13.07 0-2.117-.051-4.287-.051-6.456h-10.52v5.292h4.698c-.051.793-.051 1.64-.102 2.434-.255 4.498-1.89 6.244-3.677 6.244-2.502 0-4.596-3.069-4.596-12.965 0-10.054 2.094-12.965 4.596-12.965 1.838 0 3.371 1.958 3.677 6.827l5.873-.053c-.613-9.049-4.239-12.33-9.55-12.33-6.383 0-10.469 4.286-10.469 18.521 0 14.129 4.137 18.521 10.469 18.521zM102.838 37.301h5.873V20.897l8.17-19.58h-5.872L105.8 14.441l-5.26-13.124h-5.873l8.171 19.421v16.563zM119.945 37.301h5.873v-20.32l7.303 20.32h5.719V1.317h-5.872v21.167l-7.252-21.167h-5.771v35.984zM143.436 37.301h5.873l1.021-5.979h7.405l1.021 5.979h5.873l-6.128-35.984h-8.937l-6.128 35.984zm7.814-11.536l2.808-17.145 2.758 17.145h-5.566zM169.225 37.301h15.218v-5.556h-9.345v-9.949h7.303V16.24h-7.303V6.873h9.345V1.317h-15.218v35.984zM198.742 37.83c5.311 0 9.243-3.386 9.601-12.647h-5.924c-.204 4.657-1.736 7.091-3.677 7.091-2.502 0-4.596-3.069-4.596-12.965 0-10.054 2.094-12.965 4.596-12.965 1.839 0 3.422 2.064 3.677 6.562l5.873-.053c-.613-9.049-4.494-12.065-9.55-12.065-6.383 0-10.469 4.286-10.469 18.521 0 14.129 4.137 18.521 10.469 18.521zM222.386 37.83c6.333 0 10.367-4.339 10.367-18.521 0-14.235-4.034-18.521-10.367-18.521-6.383 0-10.469 4.286-10.469 18.521 0 14.129 4.137 18.521 10.469 18.521zm0-5.556c-2.502 0-4.596-3.069-4.596-12.965 0-10.054 2.094-12.965 4.596-12.965 2.451 0 4.494 2.964 4.494 12.965 0 9.949-2.043 12.965-4.494 12.965zM237.604 37.301h15.218v-5.556h-9.345V1.317h-5.873v35.984zM264.823 37.83c6.332 0 10.367-4.339 10.367-18.521 0-14.235-4.035-18.521-10.367-18.521-6.383 0-10.469 4.286-10.469 18.521 0 14.129 4.137 18.521 10.469 18.521zm0-5.556c-2.502 0-4.596-3.069-4.596-12.965 0-10.054 2.094-12.965 4.596-12.965 2.451 0 4.494 2.964 4.494 12.965 0 9.949-2.043 12.965-4.494 12.965zM289.744 37.83c5.924 0 9.396-3.968 9.652-13.07 0-2.117-.051-4.287-.051-6.456h-10.52v5.292h4.698c-.051.793-.051 1.64-.102 2.434-.256 4.498-1.89 6.244-3.677 6.244-2.502 0-4.596-3.069-4.596-12.965 0-10.054 2.094-12.965 4.596-12.965 1.838 0 3.37 1.958 3.677 6.827l5.873-.053c-.613-9.049-4.239-12.33-9.55-12.33-6.383 0-10.469 4.286-10.469 18.521 0 14.129 4.137 18.521 10.469 18.521zM305.013 1.317h5.873v35.984h-5.873zM317.32 37.301h15.218v-5.556h-9.345v-9.949h7.303V16.24h-7.303V6.873h9.345V1.317H317.32v35.984zM338.156 37.301h5.872v-12.33c7.099-2.593 12.257-8.943 12.257-14.975 0-5.133-2.554-8.679-9.295-8.679h-8.834v35.984zm5.872-18.362V6.873h2.962c2.656 0 3.473 1.535 3.473 3.387 0 3.546-2.553 6.827-6.435 8.679zM360.37 37.301h5.873V24.389c1.021-.37 1.94-.793 2.859-1.323l3.524 14.235h5.873l-4.392-17.833c2.758-2.699 4.392-6.086 4.392-9.472 0-5.133-2.554-8.679-9.294-8.679h-8.835v35.984zm5.873-18.891V6.873h2.962c2.655 0 3.472 1.535 3.472 3.387 0 3.546-2.553 6.456-6.434 8.15zM382.073 37.301h5.873l1.022-5.979h7.404l1.022 5.979h5.872l-6.128-35.984h-8.936l-6.129 35.984zm7.814-11.536l2.808-17.145 2.758 17.145h-5.566zM407.862 37.301h5.873v-9.155l1.634-3.704 4.801 12.859h5.975l-7.558-19.103 7.558-16.881h-5.975l-6.435 14.87V1.317h-5.873v35.984zM434.468 37.301h5.873V6.873h5.72V1.317h-17.363v5.556h5.77v30.428zM450.401 1.317h5.873v35.984h-5.873zM468.735 37.83c6.332 0 8.324-4.392 8.324-11.112V1.317h-5.873v25.401c0 2.857-.307 5.556-2.451 5.556-2.145 0-2.503-2.699-2.503-5.556h-5.872c0 6.72 2.042 11.112 8.375 11.112zM482.676 37.301h5.873v-9.155l1.634-3.704 4.8 12.859h5.975L493.4 18.198l7.558-16.881h-5.975l-6.434 14.87V1.317h-5.873v35.984z"/></g><g fill="#1a7eb7" fill-rule="nonzero"><path d="M158.873 250.298h4.111l-9.109-21.146h-5.353l-9.138 21.146h4.14l2.248-5.412h10.854l2.247 5.412zm-12.007-8.074l4.318-10.499 4.347 10.499h-8.665zM200.78 229.152v9.316l.444 4.555-.207 1.951-13.782-15.822h-3.845v21.146h3.638v-9.494l-.325-4.554.177-1.922 14.077 15.97h3.461v-21.146h-3.638zM245.94 229.152h-20.436v2.987h8.133v18.159h4.17v-18.159h8.133v-2.987zM293.406 229.152l-5.412 16.029-4.584-16.029h-4.022l-4.554 16.177-5.442-16.177h-4.199l7.6 21.146h4.022l4.584-16.207 4.703 16.207h3.874l7.6-21.146h-4.17zM336.437 232.139v-2.987h-17.774v21.146h17.774v-2.987h-13.575v-6.654h9.848v-2.662h-9.848v-5.856h13.575zM379.556 250.298l-8.606-7.216c3.312-.681 6.24-2.425 6.24-6.862 0-7.068-6.684-7.068-11.475-7.068h-7.748v21.146h4.199v-6.773h4.377l7.867 6.773h5.146zm-6.595-13.9c0 3.963-3.638 4.288-7.601 4.288h-3.194v-8.547h3.49c4.14 0 7.305.444 7.305 4.259zM407.799 229.152h-7.896v21.146h4.2v-6.329h3.696c4.2 0 11.357-.148 11.357-7.305 0-7.186-6.773-7.512-11.357-7.512zm.089 11.919h-3.756v-8.991h3.963c4.821 0 6.802 1.213 6.802 4.643 0 3.49-2.307 4.348-7.009 4.348zM458.401 232.139v-2.987h-17.774v21.146h17.774v-2.987h-13.575v-6.654h9.848v-2.662h-9.848v-5.856h13.575zM497.32 229.152v9.316l.444 4.555-.207 1.951-13.782-15.822h-3.844v21.146h3.637v-9.494l-.325-4.554.178-1.922 14.077 15.97h3.46v-21.146h-3.638z"/></g><path d="M72.658 211.412c-12.68 0-24.544-3.007-35.59-9.02-11.046-6.014-19.936-14.74-26.668-26.178C3.668 164.775.301 151.474.301 136.309c0-15.425 3.367-28.825 10.099-40.198 6.732-11.373 15.622-20.066 26.668-26.08 11.046-6.013 22.91-9.02 35.59-9.02 12.681 0 24.61 3.007 35.787 9.02 11.177 6.014 20.164 14.707 26.962 26.08 6.798 11.373 10.197 24.773 10.197 40.198 0 15.165-3.399 28.466-10.197 39.905-6.798 11.438-15.785 20.164-26.962 26.178-11.177 6.013-23.106 9.02-35.787 9.02zm0-21.374c8.89 0 17.158-2.124 24.806-6.373 7.647-4.249 13.791-10.425 18.432-18.53 4.641-8.105 6.961-17.714 6.961-28.826 0-11.242-2.32-20.948-6.961-29.119-4.641-8.17-10.785-14.38-18.432-18.628-7.648-4.249-15.916-6.373-24.806-6.373-8.889 0-17.125 2.124-24.707 6.373-7.582 4.248-13.628 10.458-18.138 18.628-4.51 8.171-6.765 17.877-6.765 29.119 0 11.112 2.255 20.721 6.765 28.826s10.556 14.281 18.138 18.53c7.582 4.249 15.818 6.373 24.707 6.373z" fill="#1a7eb7" fill-rule="nonzero"/><circle cx="72.952" cy="159.766" r="6.411" fill="#1a7eb7"/><path d="M580.515 264.289c0-7.722-6.27-13.991-13.992-13.991h-51.574c-7.722 0-13.991 6.269-13.991 13.991v27.983c0 7.722 6.269 13.991 13.991 13.991h51.574c7.722 0 13.992-6.269 13.992-13.991v-27.983z" fill="#ebebeb"/></g></svg>