<?xml version="1.0" encoding="UTF-8"?>
<svg xmlns="http://www.w3.org/2000/svg" xmlns:xlink="http://www.w3.org/1999/xlink" version="1.2" >
<font id="Supera Roman Variable Variable">
<font-face  font-family="Supera Roman Variable" units-per-em="1000" ascent="800" descent="-200" font-style="normal" font-weight="400" font-stretch="normal" cap-height="700" x-height="566" underline-position="-75" underline-thickness="50" />
<missing-glyph  horiz-adv-x="519" d="M419 501 L419 530 L380 530 L380 501 L419 501 Z M103 525 L103 413 L126 413 L126 453 L233 453 L233 485 L126 485 L126 525 L103 525 Z M312 488 L289 488 L289 398 L419 398 L419 431 L371 431 L371 475 L349 475 L349 431 L312 431 L312 488 Z M167 276 Q198 276 216.5 293.5 Q235 311 235 340 Q235 369 216.5 387 Q198 405 167 405 Q137 405 118.5 387 Q100 369 100 340 Q100 311 118.5 293.5 Q137 276 167 276 Z M179 371 Q193 371 202 362.5 Q211 354 211 340 Q211 327 202 318.5 Q193 310 179 310 L156 310 Q142 310 133 318.5 Q124 327 124 340 Q124 354 133 362.5 Q142 371 156 371 L179 371 Z M396 308 L365 308 L365 356 L343 356 L343 308 L312 308 L312 370 L289 370 L289 275 L419 275 L419 371 L396 371 L396 308 Z M103 216 L187 216 L199 217 L103 171 L103 128 L233 128 L233 160 L140 160 L233 205 L233 249 L103 249 L103 216 Z M353 246 Q324 246 306.5 231.5 Q289 217 289 193 L289 128 L419 128 L419 191 Q419 216 400.5 231 Q382 246 353 246 Z M362 213 Q378 213 387 205 Q396 197 396 183 L396 161 L312 161 L312 185 Q312 198 321 205.5 Q330 213 346 213 L362 213 Z M382 -180 L285 -180 L274 -120 L266 -70 L261 -70 L254 -120 L242 -180 L144 -180 L108 5 L108 9 L180 9 L195 -122 L200 -122 L228 9 L299 9 L327 -122 L333 -122 L348 9 L419 9 L419 5 L382 -180 Z " />
<glyph glyph-name="space" unicode="&#x20;" horiz-adv-x="300" d="" />
<glyph glyph-name="A" unicode="A" horiz-adv-x="654" d="M21 0 L325 710 L329 710 L633 0 L611 0 L512 231 L142 231 L43 0 L21 0 Z M150 249 L504 249 L327 662 L150 249 Z " />
<glyph glyph-name="Aacute" unicode="&#xc1;" horiz-adv-x="654" d="M21 0 L325 710 L329 710 L633 0 L611 0 L512 231 L142 231 L43 0 L21 0 Z M150 249 L504 249 L327 662 L150 249 Z M306 770 L386 890 L407 890 L407 886 L323 770 L306 770 Z " />
<glyph glyph-name="Abreve" unicode="&#x102;" horiz-adv-x="654" d="M21 0 L325 710 L329 710 L633 0 L611 0 L512 231 L142 231 L43 0 L21 0 Z M150 249 L504 249 L327 662 L150 249 Z M327 772 Q275 772 241 801.5 Q207 831 207 877 L225 877 Q225 838 254 813 Q283 788 327 788 Q371 788 400 813 Q429 838 429 877 L447 877 Q447 831 413 801.5 Q379 772 327 772 Z " />
<glyph glyph-name="Acircumflex" unicode="&#xc2;" horiz-adv-x="654" d="M21 0 L325 710 L329 710 L633 0 L611 0 L512 231 L142 231 L43 0 L21 0 Z M150 249 L504 249 L327 662 L150 249 Z M207 770 L316 890 L338 890 L447 770 L425 770 L327 878 L229 770 L207 770 Z " />
<glyph glyph-name="Adieresis" unicode="&#xc4;" horiz-adv-x="654" d="M21 0 L325 710 L329 710 L633 0 L611 0 L512 231 L142 231 L43 0 L21 0 Z M150 249 L504 249 L327 662 L150 249 Z M404 780 Q396 780 390 786 Q384 792 384 800 Q384 808 390 814 Q396 820 404 820 Q412 820 418 814 Q424 808 424 800 Q424 792 418 786 Q412 780 404 780 Z M249 780 Q241 780 235 786 Q229 792 229 800 Q229 808 235 814 Q241 820 249 820 Q257 820 263 814 Q269 808 269 800 Q269 792 263 786 Q257 780 249 780 Z " />
<glyph glyph-name="uni1EA0" unicode="&#x1ea0;" horiz-adv-x="654" d="M21 0 L325 710 L329 710 L633 0 L611 0 L512 231 L142 231 L43 0 L21 0 Z M150 249 L504 249 L327 662 L150 249 Z M327 -130 Q314 -130 305.5 -121.5 Q297 -113 297 -100 Q297 -87 305.5 -78.5 Q314 -70 327 -70 Q340 -70 348.5 -78.5 Q357 -87 357 -100 Q357 -113 348.5 -121.5 Q340 -130 327 -130 Z " />
<glyph glyph-name="Agrave" unicode="&#xc0;" horiz-adv-x="654" d="M21 0 L325 710 L329 710 L633 0 L611 0 L512 231 L142 231 L43 0 L21 0 Z M150 249 L504 249 L327 662 L150 249 Z M347 770 L330 770 L246 886 L246 890 L267 890 L347 770 Z " />
<glyph glyph-name="Amacron" unicode="&#x100;" horiz-adv-x="654" d="M21 0 L325 710 L329 710 L633 0 L611 0 L512 231 L142 231 L43 0 L21 0 Z M150 249 L504 249 L327 662 L150 249 Z M207 801 L207 817 L447 817 L447 801 L207 801 Z " />
<glyph glyph-name="Aogonek" unicode="&#x104;" horiz-adv-x="654" d="M21 0 L325 710 L329 710 L633 0 L611 0 L512 231 L142 231 L43 0 L21 0 Z M150 249 L504 249 L327 662 L150 249 Z M590 -200 Q557 -200 537.5 -183 Q518 -166 518 -137 Q518 -73 613 0 L633 0 Q584 -39 560 -73.5 Q536 -108 536 -137 Q536 -159 551 -171.5 Q566 -184 590 -184 Q614 -184 635 -176 L635 -192 Q617 -200 590 -200 Z " />
<glyph glyph-name="Aring" unicode="&#xc5;" horiz-adv-x="654" d="M21 0 L325 710 L329 710 L633 0 L611 0 L512 231 L142 231 L43 0 L21 0 Z M150 249 L504 249 L327 662 L150 249 Z M327 694 Q289 694 263 720.5 Q237 747 237 784 Q237 821 263.5 847 Q290 873 327 873 Q364 873 390 847 Q416 821 416 784 Q416 747 390 720.5 Q364 694 327 694 Z M327 710 Q357 710 377.5 731.5 Q398 753 398 784 Q398 814 377.5 835.5 Q357 857 327 857 Q297 857 276 835.5 Q255 814 255 784 Q255 753 275.5 731.5 Q296 710 327 710 Z " />
<glyph glyph-name="Aringacute" unicode="&#x1fa;" horiz-adv-x="654" d="M21 0 L325 710 L329 710 L633 0 L611 0 L512 231 L142 231 L43 0 L21 0 Z M150 249 L504 249 L327 662 L150 249 Z M327 694 Q289 694 263 720.5 Q237 747 237 784 Q237 821 263.5 847 Q290 873 327 873 Q364 873 390 847 Q416 821 416 784 Q416 747 390 720.5 Q364 694 327 694 Z M327 710 Q357 710 377.5 731.5 Q398 753 398 784 Q398 814 377.5 835.5 Q357 857 327 857 Q297 857 276 835.5 Q255 814 255 784 Q255 753 275.5 731.5 Q296 710 327 710 Z M367 852 L447 972 L468 972 L468 968 L384 852 L367 852 Z " />
<glyph glyph-name="Atilde" unicode="&#xc3;" horiz-adv-x="654" d="M21 0 L325 710 L329 710 L633 0 L611 0 L512 231 L142 231 L43 0 L21 0 Z M150 249 L504 249 L327 662 L150 249 Z M410 785 Q388 785 368 790.5 Q348 796 317 808 Q290 818 274 823 Q258 828 241 828 Q220 828 202 819.5 Q184 811 161 788 L156 803 Q177 826 197.5 835.5 Q218 845 243 845 Q263 845 280.5 839.5 Q298 834 323 824 L326 823 Q354 812 373.5 806.5 Q393 801 414 801 Q461 801 492 842 L497 827 Q483 808 460.5 796.5 Q438 785 410 785 Z " />
<glyph glyph-name="AE" unicode="&#xc6;" horiz-adv-x="887" d="M22 0 L313 700 L577 700 L584 682 L324 682 L458 362 L717 362 L725 344 L465 344 L601 18 L861 18 L868 0 L586 0 L519 161 L111 161 L44 0 L22 0 Z M119 179 L511 179 L315 649 L119 179 Z " />
<glyph glyph-name="AEacute" unicode="&#x1fc;" horiz-adv-x="887" d="M22 0 L313 700 L577 700 L584 682 L324 682 L458 362 L717 362 L725 344 L465 344 L601 18 L861 18 L868 0 L586 0 L519 161 L111 161 L44 0 L22 0 Z M119 179 L511 179 L315 649 L119 179 Z M424 770 L504 890 L525 890 L525 886 L441 770 L424 770 Z " />
<glyph glyph-name="B" unicode="B" horiz-adv-x="618" d="M106 0 L106 700 L350 700 Q398 700 438.5 676 Q479 652 502.5 611.5 Q526 571 526 524 Q526 468 494 423 Q462 378 410 360 Q473 346 514.5 296.5 Q556 247 556 183 Q556 133 531.5 91 Q507 49 465.5 24.5 Q424 0 373 0 L106 0 Z M373 18 Q417 18 454.5 40 Q492 62 514 99.5 Q536 137 536 183 Q536 228 514 266 Q492 304 454.5 326 Q417 348 373 348 L126 348 L126 18 L373 18 Z M350 366 Q393 366 428.5 387 Q464 408 485 444.5 Q506 481 506 524 Q506 568 484.5 604 Q463 640 427 661 Q391 682 350 682 L126 682 L126 366 L350 366 Z " />
<glyph glyph-name="C" unicode="C" horiz-adv-x="637" d="M416 -10 Q317 -10 234.5 38 Q152 86 104 168.5 Q56 251 56 350 Q56 448 104 531 Q152 614 235 662 Q318 710 416 710 Q517 710 602 658 L602 637 Q562 664 514.5 678 Q467 692 416 692 Q322 692 244.5 646.5 Q167 601 121.5 522.5 Q76 444 76 350 Q76 256 121.5 177.5 Q167 99 244.5 53.5 Q322 8 416 8 Q467 8 514.5 22 Q562 36 602 63 L602 41 Q516 -10 416 -10 Z " />
<glyph glyph-name="Cacute" unicode="&#x106;" horiz-adv-x="637" d="M416 -10 Q317 -10 234.5 38 Q152 86 104 168.5 Q56 251 56 350 Q56 448 104 531 Q152 614 235 662 Q318 710 416 710 Q517 710 602 658 L602 637 Q562 664 514.5 678 Q467 692 416 692 Q322 692 244.5 646.5 Q167 601 121.5 522.5 Q76 444 76 350 Q76 256 121.5 177.5 Q167 99 244.5 53.5 Q322 8 416 8 Q467 8 514.5 22 Q562 36 602 63 L602 41 Q516 -10 416 -10 Z M375 770 L455 890 L476 890 L476 886 L392 770 L375 770 Z " />
<glyph glyph-name="Ccaron" unicode="&#x10c;" horiz-adv-x="637" d="M416 -10 Q317 -10 234.5 38 Q152 86 104 168.5 Q56 251 56 350 Q56 448 104 531 Q152 614 235 662 Q318 710 416 710 Q517 710 602 658 L602 637 Q562 664 514.5 678 Q467 692 416 692 Q322 692 244.5 646.5 Q167 601 121.5 522.5 Q76 444 76 350 Q76 256 121.5 177.5 Q167 99 244.5 53.5 Q322 8 416 8 Q467 8 514.5 22 Q562 36 602 63 L602 41 Q516 -10 416 -10 Z M385 770 L276 890 L298 890 L396 782 L494 890 L516 890 L407 770 L385 770 Z " />
<glyph glyph-name="Ccedilla" unicode="&#xc7;" horiz-adv-x="637" d="M416 -10 Q317 -10 234.5 38 Q152 86 104 168.5 Q56 251 56 350 Q56 448 104 531 Q152 614 235 662 Q318 710 416 710 Q517 710 602 658 L602 637 Q562 664 514.5 678 Q467 692 416 692 Q322 692 244.5 646.5 Q167 601 121.5 522.5 Q76 444 76 350 Q76 256 121.5 177.5 Q167 99 244.5 53.5 Q322 8 416 8 Q467 8 514.5 22 Q562 36 602 63 L602 41 Q516 -10 416 -10 Z M302 -187 Q377 -196 415.5 -184 Q454 -172 454 -140 Q454 -88 366 -95 L392 0 L408 0 L386 -79 Q420 -77 446 -93.5 Q472 -110 472 -140 Q472 -179 427 -196 Q382 -213 298 -202 L302 -187 Z " />
<glyph glyph-name="Ccircumflex" unicode="&#x108;" horiz-adv-x="637" d="M416 -10 Q317 -10 234.5 38 Q152 86 104 168.5 Q56 251 56 350 Q56 448 104 531 Q152 614 235 662 Q318 710 416 710 Q517 710 602 658 L602 637 Q562 664 514.5 678 Q467 692 416 692 Q322 692 244.5 646.5 Q167 601 121.5 522.5 Q76 444 76 350 Q76 256 121.5 177.5 Q167 99 244.5 53.5 Q322 8 416 8 Q467 8 514.5 22 Q562 36 602 63 L602 41 Q516 -10 416 -10 Z M276 770 L385 890 L407 890 L516 770 L494 770 L396 878 L298 770 L276 770 Z " />
<glyph glyph-name="Cdotaccent" unicode="&#x10a;" horiz-adv-x="637" d="M416 -10 Q317 -10 234.5 38 Q152 86 104 168.5 Q56 251 56 350 Q56 448 104 531 Q152 614 235 662 Q318 710 416 710 Q517 710 602 658 L602 637 Q562 664 514.5 678 Q467 692 416 692 Q322 692 244.5 646.5 Q167 601 121.5 522.5 Q76 444 76 350 Q76 256 121.5 177.5 Q167 99 244.5 53.5 Q322 8 416 8 Q467 8 514.5 22 Q562 36 602 63 L602 41 Q516 -10 416 -10 Z M396 780 Q383 780 374.5 788.5 Q366 797 366 810 Q366 823 374.5 831.5 Q383 840 396 840 Q409 840 417.5 831.5 Q426 823 426 810 Q426 797 417.5 788.5 Q409 780 396 780 Z " />
<glyph glyph-name="D" unicode="D" horiz-adv-x="713" d="M106 0 L106 700 L326 700 Q421 700 496.5 653 Q572 606 614 526 Q656 446 656 350 Q656 253 614 173 Q572 93 496.5 46.5 Q421 0 326 0 L106 0 Z M326 18 Q417 18 487.5 62.5 Q558 107 597 183 Q636 259 636 350 Q636 442 596.5 518 Q557 594 486.5 638 Q416 682 326 682 L126 682 L126 18 L326 18 Z " />
<glyph glyph-name="Eth" unicode="&#xd0;" horiz-adv-x="722" d="M49 359 L409 359 L409 341 L49 341 L49 359 Z M115 0 L115 700 L335 700 Q430 700 505.5 653 Q581 606 623 526 Q665 446 665 350 Q665 253 623 173 Q581 93 505.5 46.5 Q430 0 335 0 L115 0 Z M135 18 L335 18 Q426 18 496.5 62.5 Q567 107 606 183 Q645 259 645 350 Q645 442 605.5 518 Q566 594 495.5 638 Q425 682 335 682 L135 682 L135 18 Z " />
<glyph glyph-name="Dcaron" unicode="&#x10e;" horiz-adv-x="713" d="M106 0 L106 700 L326 700 Q421 700 496.5 653 Q572 606 614 526 Q656 446 656 350 Q656 253 614 173 Q572 93 496.5 46.5 Q421 0 326 0 L106 0 Z M326 18 Q417 18 487.5 62.5 Q558 107 597 183 Q636 259 636 350 Q636 442 596.5 518 Q557 594 486.5 638 Q416 682 326 682 L126 682 L126 18 L326 18 Z M338 770 L229 890 L251 890 L349 782 L447 890 L469 890 L360 770 L338 770 Z " />
<glyph glyph-name="Dcroat" unicode="&#x110;" horiz-adv-x="722" d="M49 359 L409 359 L409 341 L49 341 L49 359 Z M115 0 L115 700 L335 700 Q430 700 505.5 653 Q581 606 623 526 Q665 446 665 350 Q665 253 623 173 Q581 93 505.5 46.5 Q430 0 335 0 L115 0 Z M135 18 L335 18 Q426 18 496.5 62.5 Q567 107 606 183 Q645 259 645 350 Q645 442 605.5 518 Q566 594 495.5 638 Q425 682 335 682 L135 682 L135 18 Z " />
<glyph glyph-name="E" unicode="E" horiz-adv-x="525" d="M126 18 L476 18 L476 0 L106 0 L106 700 L471 700 L471 682 L126 682 L126 362 L444 362 L444 344 L126 344 L126 18 Z " />
<glyph glyph-name="Eacute" unicode="&#xc9;" horiz-adv-x="525" d="M126 18 L476 18 L476 0 L106 0 L106 700 L471 700 L471 682 L126 682 L126 362 L444 362 L444 344 L126 344 L126 18 Z M267 770 L347 890 L368 890 L368 886 L284 770 L267 770 Z " />
<glyph glyph-name="Ebreve" unicode="&#x114;" horiz-adv-x="525" d="M126 18 L476 18 L476 0 L106 0 L106 700 L471 700 L471 682 L126 682 L126 362 L444 362 L444 344 L126 344 L126 18 Z M288 772 Q236 772 202 801.5 Q168 831 168 877 L186 877 Q186 838 215 813 Q244 788 288 788 Q332 788 361 813 Q390 838 390 877 L408 877 Q408 831 374 801.5 Q340 772 288 772 Z " />
<glyph glyph-name="Ecaron" unicode="&#x11a;" horiz-adv-x="525" d="M126 18 L476 18 L476 0 L106 0 L106 700 L471 700 L471 682 L126 682 L126 362 L444 362 L444 344 L126 344 L126 18 Z M277 770 L168 890 L190 890 L288 782 L386 890 L408 890 L299 770 L277 770 Z " />
<glyph glyph-name="Ecircumflex" unicode="&#xca;" horiz-adv-x="525" d="M126 18 L476 18 L476 0 L106 0 L106 700 L471 700 L471 682 L126 682 L126 362 L444 362 L444 344 L126 344 L126 18 Z M168 770 L277 890 L299 890 L408 770 L386 770 L288 878 L190 770 L168 770 Z " />
<glyph glyph-name="Edieresis" unicode="&#xcb;" horiz-adv-x="525" d="M126 18 L476 18 L476 0 L106 0 L106 700 L471 700 L471 682 L126 682 L126 362 L444 362 L444 344 L126 344 L126 18 Z M365 780 Q357 780 351 786 Q345 792 345 800 Q345 808 351 814 Q357 820 365 820 Q373 820 379 814 Q385 808 385 800 Q385 792 379 786 Q373 780 365 780 Z M210 780 Q202 780 196 786 Q190 792 190 800 Q190 808 196 814 Q202 820 210 820 Q218 820 224 814 Q230 808 230 800 Q230 792 224 786 Q218 780 210 780 Z " />
<glyph glyph-name="Edotaccent" unicode="&#x116;" horiz-adv-x="525" d="M126 18 L476 18 L476 0 L106 0 L106 700 L471 700 L471 682 L126 682 L126 362 L444 362 L444 344 L126 344 L126 18 Z M288 780 Q275 780 266.5 788.5 Q258 797 258 810 Q258 823 266.5 831.5 Q275 840 288 840 Q301 840 309.5 831.5 Q318 823 318 810 Q318 797 309.5 788.5 Q301 780 288 780 Z " />
<glyph glyph-name="uni1EB8" unicode="&#x1eb8;" horiz-adv-x="525" d="M126 18 L476 18 L476 0 L106 0 L106 700 L471 700 L471 682 L126 682 L126 362 L444 362 L444 344 L126 344 L126 18 Z M308 -130 Q295 -130 286.5 -121.5 Q278 -113 278 -100 Q278 -87 286.5 -78.5 Q295 -70 308 -70 Q321 -70 329.5 -78.5 Q338 -87 338 -100 Q338 -113 329.5 -121.5 Q321 -130 308 -130 Z " />
<glyph glyph-name="Egrave" unicode="&#xc8;" horiz-adv-x="525" d="M126 18 L476 18 L476 0 L106 0 L106 700 L471 700 L471 682 L126 682 L126 362 L444 362 L444 344 L126 344 L126 18 Z M308 770 L291 770 L207 886 L207 890 L228 890 L308 770 Z " />
<glyph glyph-name="Emacron" unicode="&#x112;" horiz-adv-x="525" d="M126 18 L476 18 L476 0 L106 0 L106 700 L471 700 L471 682 L126 682 L126 362 L444 362 L444 344 L126 344 L126 18 Z M168 801 L168 817 L408 817 L408 801 L168 801 Z " />
<glyph glyph-name="Eogonek" unicode="&#x118;" horiz-adv-x="525" d="M126 18 L476 18 L476 0 L106 0 L106 700 L471 700 L471 682 L126 682 L126 362 L444 362 L444 344 L126 344 L126 18 Z M433 -200 Q400 -200 380.5 -183 Q361 -166 361 -137 Q361 -73 456 0 L476 0 Q427 -39 403 -73.5 Q379 -108 379 -137 Q379 -159 394 -171.5 Q409 -184 433 -184 Q457 -184 478 -176 L478 -192 Q460 -200 433 -200 Z " />
<glyph glyph-name="uni1EBC" unicode="&#x1ebc;" horiz-adv-x="525" d="M126 18 L476 18 L476 0 L106 0 L106 700 L471 700 L471 682 L126 682 L126 362 L444 362 L444 344 L126 344 L126 18 Z M371 785 Q349 785 329 790.5 Q309 796 278 808 Q251 818 235 823 Q219 828 202 828 Q181 828 163 819.5 Q145 811 122 788 L117 803 Q138 826 158.5 835.5 Q179 845 204 845 Q224 845 241.5 839.5 Q259 834 284 824 L287 823 Q315 812 334.5 806.5 Q354 801 375 801 Q422 801 453 842 L458 827 Q444 808 421.5 796.5 Q399 785 371 785 Z " />
<glyph glyph-name="F" unicode="F" horiz-adv-x="507" d="M461 682 L126 682 L126 358 L454 358 L454 340 L126 340 L126 0 L106 0 L106 700 L461 700 L461 682 Z " />
<glyph glyph-name="G" unicode="G" horiz-adv-x="802" d="M393 313 L757 313 L757 303 Q757 213 714.5 141.5 Q672 70 596.5 30 Q521 -10 427 -10 Q321 -10 236.5 37 Q152 84 104.5 166.5 Q57 249 57 350 Q57 451 104 533 Q151 615 233 662.5 Q315 710 417 710 Q506 710 582.5 670 Q659 630 708 552 L696 535 Q655 608 579.5 650 Q504 692 417 692 Q319 692 241.5 647 Q164 602 120.5 523.5 Q77 445 77 350 Q77 253 122.5 175 Q168 97 247.5 52.5 Q327 8 427 8 Q515 8 585.5 44.5 Q656 81 696 146.5 Q736 212 738 295 L393 295 L393 313 Z " />
<glyph glyph-name="Gbreve" unicode="&#x11e;" horiz-adv-x="802" d="M393 313 L757 313 L757 303 Q757 213 714.5 141.5 Q672 70 596.5 30 Q521 -10 427 -10 Q321 -10 236.5 37 Q152 84 104.5 166.5 Q57 249 57 350 Q57 451 104 533 Q151 615 233 662.5 Q315 710 417 710 Q506 710 582.5 670 Q659 630 708 552 L696 535 Q655 608 579.5 650 Q504 692 417 692 Q319 692 241.5 647 Q164 602 120.5 523.5 Q77 445 77 350 Q77 253 122.5 175 Q168 97 247.5 52.5 Q327 8 427 8 Q515 8 585.5 44.5 Q656 81 696 146.5 Q736 212 738 295 L393 295 L393 313 Z M417 772 Q365 772 331 801.5 Q297 831 297 877 L315 877 Q315 838 344 813 Q373 788 417 788 Q461 788 490 813 Q519 838 519 877 L537 877 Q537 831 503 801.5 Q469 772 417 772 Z " />
<glyph glyph-name="Gcaron" unicode="&#x1e6;" horiz-adv-x="802" d="M393 313 L757 313 L757 303 Q757 213 714.5 141.5 Q672 70 596.5 30 Q521 -10 427 -10 Q321 -10 236.5 37 Q152 84 104.5 166.5 Q57 249 57 350 Q57 451 104 533 Q151 615 233 662.5 Q315 710 417 710 Q506 710 582.5 670 Q659 630 708 552 L696 535 Q655 608 579.5 650 Q504 692 417 692 Q319 692 241.5 647 Q164 602 120.5 523.5 Q77 445 77 350 Q77 253 122.5 175 Q168 97 247.5 52.5 Q327 8 427 8 Q515 8 585.5 44.5 Q656 81 696 146.5 Q736 212 738 295 L393 295 L393 313 Z M406 770 L297 890 L319 890 L417 782 L515 890 L537 890 L428 770 L406 770 Z " />
<glyph glyph-name="Gcircumflex" unicode="&#x11c;" horiz-adv-x="802" d="M393 313 L757 313 L757 303 Q757 213 714.5 141.5 Q672 70 596.5 30 Q521 -10 427 -10 Q321 -10 236.5 37 Q152 84 104.5 166.5 Q57 249 57 350 Q57 451 104 533 Q151 615 233 662.5 Q315 710 417 710 Q506 710 582.5 670 Q659 630 708 552 L696 535 Q655 608 579.5 650 Q504 692 417 692 Q319 692 241.5 647 Q164 602 120.5 523.5 Q77 445 77 350 Q77 253 122.5 175 Q168 97 247.5 52.5 Q327 8 427 8 Q515 8 585.5 44.5 Q656 81 696 146.5 Q736 212 738 295 L393 295 L393 313 Z M297 770 L406 890 L428 890 L537 770 L515 770 L417 878 L319 770 L297 770 Z " />
<glyph glyph-name="uni0122" unicode="&#x122;" horiz-adv-x="802" d="M393 313 L757 313 L757 303 Q757 213 714.5 141.5 Q672 70 596.5 30 Q521 -10 427 -10 Q321 -10 236.5 37 Q152 84 104.5 166.5 Q57 249 57 350 Q57 451 104 533 Q151 615 233 662.5 Q315 710 417 710 Q506 710 582.5 670 Q659 630 708 552 L696 535 Q655 608 579.5 650 Q504 692 417 692 Q319 692 241.5 647 Q164 602 120.5 523.5 Q77 445 77 350 Q77 253 122.5 175 Q168 97 247.5 52.5 Q327 8 427 8 Q515 8 585.5 44.5 Q656 81 696 146.5 Q736 212 738 295 L393 295 L393 313 Z M402 -233 L416 -70 L438 -70 L421 -233 L402 -233 Z " />
<glyph glyph-name="Gdotaccent" unicode="&#x120;" horiz-adv-x="802" d="M393 313 L757 313 L757 303 Q757 213 714.5 141.5 Q672 70 596.5 30 Q521 -10 427 -10 Q321 -10 236.5 37 Q152 84 104.5 166.5 Q57 249 57 350 Q57 451 104 533 Q151 615 233 662.5 Q315 710 417 710 Q506 710 582.5 670 Q659 630 708 552 L696 535 Q655 608 579.5 650 Q504 692 417 692 Q319 692 241.5 647 Q164 602 120.5 523.5 Q77 445 77 350 Q77 253 122.5 175 Q168 97 247.5 52.5 Q327 8 427 8 Q515 8 585.5 44.5 Q656 81 696 146.5 Q736 212 738 295 L393 295 L393 313 Z M417 780 Q404 780 395.5 788.5 Q387 797 387 810 Q387 823 395.5 831.5 Q404 840 417 840 Q430 840 438.5 831.5 Q447 823 447 810 Q447 797 438.5 788.5 Q430 780 417 780 Z " />
<glyph glyph-name="H" unicode="H" horiz-adv-x="702" d="M106 0 L106 700 L126 700 L126 389 L576 389 L576 700 L596 700 L596 0 L576 0 L576 371 L126 371 L126 0 L106 0 Z " />
<glyph glyph-name="Hbar" unicode="&#x126;" horiz-adv-x="702" d="M106 0 L106 531 L36 531 L36 549 L106 549 L106 700 L126 700 L126 549 L576 549 L576 700 L596 700 L596 549 L666 549 L666 531 L596 531 L596 0 L576 0 L576 371 L126 371 L126 0 L106 0 Z M126 389 L576 389 L576 531 L126 531 L126 389 Z " />
<glyph glyph-name="Hcircumflex" unicode="&#x124;" horiz-adv-x="702" d="M106 0 L106 700 L126 700 L126 389 L576 389 L576 700 L596 700 L596 0 L576 0 L576 371 L126 371 L126 0 L106 0 Z M231 770 L340 890 L362 890 L471 770 L449 770 L351 878 L253 770 L231 770 Z " />
<glyph glyph-name="I" unicode="I" horiz-adv-x="232" d="M106 0 L106 700 L126 700 L126 0 L106 0 Z " />
<glyph glyph-name="IJ" unicode="&#x132;" horiz-adv-x="684" d="M106 0 L106 700 L126 700 L126 0 L106 0 Z M565 700 L585 700 L585 180 Q585 87 532 38.5 Q479 -10 391 -10 Q357 -10 321.5 -1 Q286 8 255 26 L260 44 L270 38 Q298 23 329.5 15.5 Q361 8 391 8 Q472 8 518.5 52 Q565 96 565 180 L565 700 Z " />
<glyph glyph-name="Iacute" unicode="&#xcd;" horiz-adv-x="232" d="M106 0 L106 700 L126 700 L126 0 L106 0 Z M95 770 L175 890 L196 890 L196 886 L112 770 L95 770 Z " />
<glyph glyph-name="Ibreve" unicode="&#x12c;" horiz-adv-x="232" d="M106 0 L106 700 L126 700 L126 0 L106 0 Z M116 772 Q64 772 30 801.5 Q-4 831 -4 877 L14 877 Q14 838 43 813 Q72 788 116 788 Q160 788 189 813 Q218 838 218 877 L236 877 Q236 831 202 801.5 Q168 772 116 772 Z " />
<glyph glyph-name="uni01CF" unicode="&#x1cf;" horiz-adv-x="232" d="M106 0 L106 700 L126 700 L126 0 L106 0 Z M105 770 L-4 890 L18 890 L116 782 L214 890 L236 890 L127 770 L105 770 Z " />
<glyph glyph-name="Icircumflex" unicode="&#xce;" horiz-adv-x="232" d="M106 0 L106 700 L126 700 L126 0 L106 0 Z M-4 770 L105 890 L127 890 L236 770 L214 770 L116 878 L18 770 L-4 770 Z " />
<glyph glyph-name="Idieresis" unicode="&#xcf;" horiz-adv-x="232" d="M106 0 L106 700 L126 700 L126 0 L106 0 Z M193 780 Q185 780 179 786 Q173 792 173 800 Q173 808 179 814 Q185 820 193 820 Q201 820 207 814 Q213 808 213 800 Q213 792 207 786 Q201 780 193 780 Z M38 780 Q30 780 24 786 Q18 792 18 800 Q18 808 24 814 Q30 820 38 820 Q46 820 52 814 Q58 808 58 800 Q58 792 52 786 Q46 780 38 780 Z " />
<glyph glyph-name="Idot" unicode="&#x130;" horiz-adv-x="232" d="M106 0 L106 700 L126 700 L126 0 L106 0 Z M116 780 Q103 780 94.5 788.5 Q86 797 86 810 Q86 823 94.5 831.5 Q103 840 116 840 Q129 840 137.5 831.5 Q146 823 146 810 Q146 797 137.5 788.5 Q129 780 116 780 Z " />
<glyph glyph-name="uni1ECA" unicode="&#x1eca;" horiz-adv-x="232" d="M106 0 L106 700 L126 700 L126 0 L106 0 Z M116 -130 Q103 -130 94.5 -121.5 Q86 -113 86 -100 Q86 -87 94.5 -78.5 Q103 -70 116 -70 Q129 -70 137.5 -78.5 Q146 -87 146 -100 Q146 -113 137.5 -121.5 Q129 -130 116 -130 Z " />
<glyph glyph-name="Igrave" unicode="&#xcc;" horiz-adv-x="232" d="M106 0 L106 700 L126 700 L126 0 L106 0 Z M136 770 L119 770 L35 886 L35 890 L56 890 L136 770 Z " />
<glyph glyph-name="Imacron" unicode="&#x12a;" horiz-adv-x="232" d="M106 0 L106 700 L126 700 L126 0 L106 0 Z M-4 801 L-4 817 L236 817 L236 801 L-4 801 Z " />
<glyph glyph-name="Iogonek" unicode="&#x12e;" horiz-adv-x="232" d="M106 0 L106 700 L126 700 L126 0 L106 0 Z M83 -200 Q50 -200 30.5 -183 Q11 -166 11 -137 Q11 -73 106 0 L126 0 Q77 -39 53 -73.5 Q29 -108 29 -137 Q29 -159 44 -171.5 Q59 -184 83 -184 Q107 -184 128 -176 L128 -192 Q110 -200 83 -200 Z " />
<glyph glyph-name="Itilde" unicode="&#x128;" horiz-adv-x="232" d="M106 0 L106 700 L126 700 L126 0 L106 0 Z M199 785 Q177 785 157 790.5 Q137 796 106 808 Q79 818 63 823 Q47 828 30 828 Q9 828 -9 819.5 Q-27 811 -50 788 L-55 803 Q-34 826 -13.5 835.5 Q7 845 32 845 Q52 845 69.5 839.5 Q87 834 112 824 L115 823 Q143 812 162.5 806.5 Q182 801 203 801 Q250 801 281 842 L286 827 Q272 808 249.5 796.5 Q227 785 199 785 Z " />
<glyph glyph-name="J" unicode="J" horiz-adv-x="452" d="M333 700 L353 700 L353 180 Q353 87 300 38.5 Q247 -10 159 -10 Q125 -10 89.5 -1 Q54 8 23 26 L28 44 L38 38 Q66 23 97.5 15.5 Q129 8 159 8 Q240 8 286.5 52 Q333 96 333 180 L333 700 Z " />
<glyph glyph-name="Jcircumflex" unicode="&#x134;" horiz-adv-x="452" d="M333 700 L353 700 L353 180 Q353 87 300 38.5 Q247 -10 159 -10 Q125 -10 89.5 -1 Q54 8 23 26 L28 44 L38 38 Q66 23 97.5 15.5 Q129 8 159 8 Q240 8 286.5 52 Q333 96 333 180 L333 700 Z M223 770 L332 890 L354 890 L463 770 L441 770 L343 878 L245 770 L223 770 Z " />
<glyph glyph-name="K" unicode="K" horiz-adv-x="560" d="M524 0 L126 360 L514 700 L542 700 L154 360 L554 0 L524 0 Z M106 0 L106 700 L126 700 L126 0 L106 0 Z " />
<glyph glyph-name="uni0136" unicode="&#x136;" horiz-adv-x="560" d="M524 0 L126 360 L514 700 L542 700 L154 360 L554 0 L524 0 Z M106 0 L106 700 L126 700 L126 0 L106 0 Z M269 -233 L283 -70 L305 -70 L288 -233 L269 -233 Z " />
<glyph glyph-name="L" unicode="L" horiz-adv-x="478" d="M106 0 L106 700 L126 700 L126 18 L456 18 L456 0 L106 0 Z " />
<glyph glyph-name="Lacute" unicode="&#x139;" horiz-adv-x="478" d="M106 0 L106 700 L126 700 L126 18 L456 18 L456 0 L106 0 Z M95 770 L175 890 L196 890 L196 886 L112 770 L95 770 Z " />
<glyph glyph-name="Lcaron" unicode="&#x13d;" horiz-adv-x="478" d="M106 0 L106 700 L126 700 L126 18 L456 18 L456 0 L106 0 Z M302 530 L312 700 L332 700 L318 530 L302 530 Z " />
<glyph glyph-name="uni013B" unicode="&#x13b;" horiz-adv-x="478" d="M106 0 L106 700 L126 700 L126 18 L456 18 L456 0 L106 0 Z M261 -233 L275 -70 L297 -70 L280 -233 L261 -233 Z " />
<glyph glyph-name="Ldot" unicode="&#x13f;" horiz-adv-x="479" d="M106 0 L106 700 L126 700 L126 18 L456 18 L456 0 L106 0 Z M334 334 Q321 334 312.5 342.5 Q304 351 304 364 Q304 377 312.5 385.5 Q321 394 334 394 Q347 394 355.5 385.5 Q364 377 364 364 Q364 351 355.5 342.5 Q347 334 334 334 Z " />
<glyph glyph-name="Lslash" unicode="&#x141;" horiz-adv-x="488" d="M53 225 L53 245 L343 416 L343 396 L53 225 Z M115 0 L115 700 L135 700 L135 18 L465 18 L465 0 L115 0 Z " />
<glyph glyph-name="M" unicode="M" horiz-adv-x="880" d="M438 -10 L190 672 L209 676 L66 0 L45 0 L195 710 L199 710 L448 16 L432 16 L681 710 L685 710 L835 0 L814 0 L671 677 L688 666 L442 -10 L438 -10 Z " />
<glyph glyph-name="N" unicode="N" horiz-adv-x="812" d="M106 0 L106 710 L110 710 L686 39 L686 700 L706 700 L706 -10 L702 -10 L126 661 L126 0 L106 0 Z " />
<glyph glyph-name="Nacute" unicode="&#x143;" horiz-adv-x="812" d="M106 0 L106 710 L110 710 L686 39 L686 700 L706 700 L706 -10 L702 -10 L126 661 L126 0 L106 0 Z M385 770 L465 890 L486 890 L486 886 L402 770 L385 770 Z " />
<glyph glyph-name="Ncaron" unicode="&#x147;" horiz-adv-x="812" d="M106 0 L106 710 L110 710 L686 39 L686 700 L706 700 L706 -10 L702 -10 L126 661 L126 0 L106 0 Z M395 770 L286 890 L308 890 L406 782 L504 890 L526 890 L417 770 L395 770 Z " />
<glyph glyph-name="uni0145" unicode="&#x145;" horiz-adv-x="812" d="M106 0 L106 710 L110 710 L686 39 L686 700 L706 700 L706 -10 L702 -10 L126 661 L126 0 L106 0 Z M381 -233 L395 -70 L417 -70 L400 -233 L381 -233 Z " />
<glyph glyph-name="Eng" unicode="&#x14a;" horiz-adv-x="812" d="M520 -210 Q516 -210 513 -210 Q510 -210 506 -210 L511 -192 Q592 -192 639 -154 Q686 -116 686 -6 L686 10 L126 661 L126 0 L106 0 L106 710 L110 710 L686 39 L686 700 L706 700 L706 -10 Q706 -76 686 -120.5 Q666 -165 624.5 -187.5 Q583 -210 520 -210 Z " />
<glyph glyph-name="uni019D" unicode="&#x19d;" horiz-adv-x="806" d="M-66 -210 Q-70 -210 -73 -210 Q-76 -210 -80 -210 L-75 -192 Q6 -192 53 -154 Q100 -116 100 -6 L100 710 L104 710 L680 39 L680 700 L700 700 L700 -10 L696 -10 L120 661 L120 -10 Q120 -76 100 -120.5 Q80 -165 38.5 -187.5 Q-3 -210 -66 -210 Z " />
<glyph glyph-name="Ntilde" unicode="&#xd1;" horiz-adv-x="812" d="M106 0 L106 710 L110 710 L686 39 L686 700 L706 700 L706 -10 L702 -10 L126 661 L126 0 L106 0 Z M489 785 Q467 785 447 790.5 Q427 796 396 808 Q369 818 353 823 Q337 828 320 828 Q299 828 281 819.5 Q263 811 240 788 L235 803 Q256 826 276.5 835.5 Q297 845 322 845 Q342 845 359.5 839.5 Q377 834 402 824 L405 823 Q433 812 452.5 806.5 Q472 801 493 801 Q540 801 571 842 L576 827 Q562 808 539.5 796.5 Q517 785 489 785 Z " />
<glyph glyph-name="O" unicode="O" horiz-adv-x="832" d="M416 -10 Q317 -10 234.5 38 Q152 86 104 168.5 Q56 251 56 350 Q56 448 104 531 Q152 614 235 662 Q318 710 416 710 Q514 710 596.5 661.5 Q679 613 727.5 530.5 Q776 448 776 350 Q776 252 728 169.5 Q680 87 597.5 38.5 Q515 -10 416 -10 Z M416 8 Q509 8 587 54 Q665 100 710.5 178 Q756 256 756 350 Q756 443 710.5 521.5 Q665 600 587 646 Q509 692 416 692 Q322 692 244.5 646.5 Q167 601 121.5 522.5 Q76 444 76 350 Q76 256 121.5 177.5 Q167 99 244.5 53.5 Q322 8 416 8 Z " />
<glyph glyph-name="Oacute" unicode="&#xd3;" horiz-adv-x="832" d="M416 -10 Q317 -10 234.5 38 Q152 86 104 168.5 Q56 251 56 350 Q56 448 104 531 Q152 614 235 662 Q318 710 416 710 Q514 710 596.5 661.5 Q679 613 727.5 530.5 Q776 448 776 350 Q776 252 728 169.5 Q680 87 597.5 38.5 Q515 -10 416 -10 Z M416 8 Q509 8 587 54 Q665 100 710.5 178 Q756 256 756 350 Q756 443 710.5 521.5 Q665 600 587 646 Q509 692 416 692 Q322 692 244.5 646.5 Q167 601 121.5 522.5 Q76 444 76 350 Q76 256 121.5 177.5 Q167 99 244.5 53.5 Q322 8 416 8 Z M395 770 L475 890 L496 890 L496 886 L412 770 L395 770 Z " />
<glyph glyph-name="Obreve" unicode="&#x14e;" horiz-adv-x="832" d="M416 -10 Q317 -10 234.5 38 Q152 86 104 168.5 Q56 251 56 350 Q56 448 104 531 Q152 614 235 662 Q318 710 416 710 Q514 710 596.5 661.5 Q679 613 727.5 530.5 Q776 448 776 350 Q776 252 728 169.5 Q680 87 597.5 38.5 Q515 -10 416 -10 Z M416 8 Q509 8 587 54 Q665 100 710.5 178 Q756 256 756 350 Q756 443 710.5 521.5 Q665 600 587 646 Q509 692 416 692 Q322 692 244.5 646.5 Q167 601 121.5 522.5 Q76 444 76 350 Q76 256 121.5 177.5 Q167 99 244.5 53.5 Q322 8 416 8 Z M416 772 Q364 772 330 801.5 Q296 831 296 877 L314 877 Q314 838 343 813 Q372 788 416 788 Q460 788 489 813 Q518 838 518 877 L536 877 Q536 831 502 801.5 Q468 772 416 772 Z " />
<glyph glyph-name="Ocircumflex" unicode="&#xd4;" horiz-adv-x="832" d="M416 -10 Q317 -10 234.5 38 Q152 86 104 168.5 Q56 251 56 350 Q56 448 104 531 Q152 614 235 662 Q318 710 416 710 Q514 710 596.5 661.5 Q679 613 727.5 530.5 Q776 448 776 350 Q776 252 728 169.5 Q680 87 597.5 38.5 Q515 -10 416 -10 Z M416 8 Q509 8 587 54 Q665 100 710.5 178 Q756 256 756 350 Q756 443 710.5 521.5 Q665 600 587 646 Q509 692 416 692 Q322 692 244.5 646.5 Q167 601 121.5 522.5 Q76 444 76 350 Q76 256 121.5 177.5 Q167 99 244.5 53.5 Q322 8 416 8 Z M296 770 L405 890 L427 890 L536 770 L514 770 L416 878 L318 770 L296 770 Z " />
<glyph glyph-name="Odieresis" unicode="&#xd6;" horiz-adv-x="832" d="M416 -10 Q317 -10 234.5 38 Q152 86 104 168.5 Q56 251 56 350 Q56 448 104 531 Q152 614 235 662 Q318 710 416 710 Q514 710 596.5 661.5 Q679 613 727.5 530.5 Q776 448 776 350 Q776 252 728 169.5 Q680 87 597.5 38.5 Q515 -10 416 -10 Z M416 8 Q509 8 587 54 Q665 100 710.5 178 Q756 256 756 350 Q756 443 710.5 521.5 Q665 600 587 646 Q509 692 416 692 Q322 692 244.5 646.5 Q167 601 121.5 522.5 Q76 444 76 350 Q76 256 121.5 177.5 Q167 99 244.5 53.5 Q322 8 416 8 Z M493 780 Q485 780 479 786 Q473 792 473 800 Q473 808 479 814 Q485 820 493 820 Q501 820 507 814 Q513 808 513 800 Q513 792 507 786 Q501 780 493 780 Z M338 780 Q330 780 324 786 Q318 792 318 800 Q318 808 324 814 Q330 820 338 820 Q346 820 352 814 Q358 808 358 800 Q358 792 352 786 Q346 780 338 780 Z " />
<glyph glyph-name="uni1ECC" unicode="&#x1ecc;" horiz-adv-x="832" d="M416 -10 Q317 -10 234.5 38 Q152 86 104 168.5 Q56 251 56 350 Q56 448 104 531 Q152 614 235 662 Q318 710 416 710 Q514 710 596.5 661.5 Q679 613 727.5 530.5 Q776 448 776 350 Q776 252 728 169.5 Q680 87 597.5 38.5 Q515 -10 416 -10 Z M416 8 Q509 8 587 54 Q665 100 710.5 178 Q756 256 756 350 Q756 443 710.5 521.5 Q665 600 587 646 Q509 692 416 692 Q322 692 244.5 646.5 Q167 601 121.5 522.5 Q76 444 76 350 Q76 256 121.5 177.5 Q167 99 244.5 53.5 Q322 8 416 8 Z M416 -130 Q403 -130 394.5 -121.5 Q386 -113 386 -100 Q386 -87 394.5 -78.5 Q403 -70 416 -70 Q429 -70 437.5 -78.5 Q446 -87 446 -100 Q446 -113 437.5 -121.5 Q429 -130 416 -130 Z " />
<glyph glyph-name="Ograve" unicode="&#xd2;" horiz-adv-x="832" d="M416 -10 Q317 -10 234.5 38 Q152 86 104 168.5 Q56 251 56 350 Q56 448 104 531 Q152 614 235 662 Q318 710 416 710 Q514 710 596.5 661.5 Q679 613 727.5 530.5 Q776 448 776 350 Q776 252 728 169.5 Q680 87 597.5 38.5 Q515 -10 416 -10 Z M416 8 Q509 8 587 54 Q665 100 710.5 178 Q756 256 756 350 Q756 443 710.5 521.5 Q665 600 587 646 Q509 692 416 692 Q322 692 244.5 646.5 Q167 601 121.5 522.5 Q76 444 76 350 Q76 256 121.5 177.5 Q167 99 244.5 53.5 Q322 8 416 8 Z M436 770 L419 770 L335 886 L335 890 L356 890 L436 770 Z " />
<glyph glyph-name="Ohungarumlaut" unicode="&#x150;" horiz-adv-x="832" d="M416 -10 Q317 -10 234.5 38 Q152 86 104 168.5 Q56 251 56 350 Q56 448 104 531 Q152 614 235 662 Q318 710 416 710 Q514 710 596.5 661.5 Q679 613 727.5 530.5 Q776 448 776 350 Q776 252 728 169.5 Q680 87 597.5 38.5 Q515 -10 416 -10 Z M416 8 Q509 8 587 54 Q665 100 710.5 178 Q756 256 756 350 Q756 443 710.5 521.5 Q665 600 587 646 Q509 692 416 692 Q322 692 244.5 646.5 Q167 601 121.5 522.5 Q76 444 76 350 Q76 256 121.5 177.5 Q167 99 244.5 53.5 Q322 8 416 8 Z M479 770 L550 900 L571 900 L571 896 L497 770 L479 770 Z M335 770 L406 900 L427 900 L427 896 L353 770 L335 770 Z " />
<glyph glyph-name="Omacron" unicode="&#x14c;" horiz-adv-x="832" d="M416 -10 Q317 -10 234.5 38 Q152 86 104 168.5 Q56 251 56 350 Q56 448 104 531 Q152 614 235 662 Q318 710 416 710 Q514 710 596.5 661.5 Q679 613 727.5 530.5 Q776 448 776 350 Q776 252 728 169.5 Q680 87 597.5 38.5 Q515 -10 416 -10 Z M416 8 Q509 8 587 54 Q665 100 710.5 178 Q756 256 756 350 Q756 443 710.5 521.5 Q665 600 587 646 Q509 692 416 692 Q322 692 244.5 646.5 Q167 601 121.5 522.5 Q76 444 76 350 Q76 256 121.5 177.5 Q167 99 244.5 53.5 Q322 8 416 8 Z M296 801 L296 817 L536 817 L536 801 L296 801 Z " />
<glyph glyph-name="uni01EA" unicode="&#x1ea;" horiz-adv-x="832" d="M498 -210 Q465 -210 445.5 -193 Q426 -176 426 -147 Q426 -116 453.5 -76 Q481 -36 543 12 Q482 -10 416 -10 Q317 -10 234.5 38 Q152 86 104 168.5 Q56 251 56 350 Q56 448 104 531 Q152 614 235 662 Q318 710 416 710 Q514 710 596.5 661.5 Q679 613 727.5 530.5 Q776 448 776 350 Q776 260 735.5 183 Q695 106 624 56 Q605 42 587.5 29 Q570 16 555 3 Q496 -45 470 -82.5 Q444 -120 444 -147 Q444 -169 459 -181.5 Q474 -194 498 -194 Q522 -194 543 -186 L543 -202 Q525 -210 498 -210 Z M416 8 Q509 8 587 54 Q665 100 710.5 178 Q756 256 756 350 Q756 443 710.5 521.5 Q665 600 587 646 Q509 692 416 692 Q322 692 244.5 646.5 Q167 601 121.5 522.5 Q76 444 76 350 Q76 256 121.5 177.5 Q167 99 244.5 53.5 Q322 8 416 8 Z " />
<glyph glyph-name="Oslash" unicode="&#xd8;" horiz-adv-x="832" d="M416 -10 Q317 -10 234.5 38 Q152 86 104 168.5 Q56 251 56 350 Q56 448 104 531 Q152 614 235 662 Q318 710 416 710 Q514 710 596.5 661.5 Q679 613 727.5 530.5 Q776 448 776 350 Q776 252 728 169.5 Q680 87 597.5 38.5 Q515 -10 416 -10 Z M416 8 Q509 8 587 54 Q665 100 710.5 178 Q756 256 756 350 Q756 443 710.5 521.5 Q665 600 587 646 Q509 692 416 692 Q322 692 244.5 646.5 Q167 601 121.5 522.5 Q76 444 76 350 Q76 256 121.5 177.5 Q167 99 244.5 53.5 Q322 8 416 8 Z M705 700 L718 689 L127 0 L114 11 L705 700 Z " />
<glyph glyph-name="Oslashacute" unicode="&#x1fe;" horiz-adv-x="832" d="M416 -10 Q317 -10 234.5 38 Q152 86 104 168.5 Q56 251 56 350 Q56 448 104 531 Q152 614 235 662 Q318 710 416 710 Q514 710 596.5 661.5 Q679 613 727.5 530.5 Q776 448 776 350 Q776 252 728 169.5 Q680 87 597.5 38.5 Q515 -10 416 -10 Z M416 8 Q509 8 587 54 Q665 100 710.5 178 Q756 256 756 350 Q756 443 710.5 521.5 Q665 600 587 646 Q509 692 416 692 Q322 692 244.5 646.5 Q167 601 121.5 522.5 Q76 444 76 350 Q76 256 121.5 177.5 Q167 99 244.5 53.5 Q322 8 416 8 Z M705 700 L718 689 L127 0 L114 11 L705 700 Z M395 770 L475 890 L496 890 L496 886 L412 770 L395 770 Z " />
<glyph glyph-name="Otilde" unicode="&#xd5;" horiz-adv-x="832" d="M416 -10 Q317 -10 234.5 38 Q152 86 104 168.5 Q56 251 56 350 Q56 448 104 531 Q152 614 235 662 Q318 710 416 710 Q514 710 596.5 661.5 Q679 613 727.5 530.5 Q776 448 776 350 Q776 252 728 169.5 Q680 87 597.5 38.5 Q515 -10 416 -10 Z M416 8 Q509 8 587 54 Q665 100 710.5 178 Q756 256 756 350 Q756 443 710.5 521.5 Q665 600 587 646 Q509 692 416 692 Q322 692 244.5 646.5 Q167 601 121.5 522.5 Q76 444 76 350 Q76 256 121.5 177.5 Q167 99 244.5 53.5 Q322 8 416 8 Z M499 785 Q477 785 457 790.5 Q437 796 406 808 Q379 818 363 823 Q347 828 330 828 Q309 828 291 819.5 Q273 811 250 788 L245 803 Q266 826 286.5 835.5 Q307 845 332 845 Q352 845 369.5 839.5 Q387 834 412 824 L415 823 Q443 812 462.5 806.5 Q482 801 503 801 Q550 801 581 842 L586 827 Q572 808 549.5 796.5 Q527 785 499 785 Z " />
<glyph glyph-name="OE" unicode="&#x152;" horiz-adv-x="986" d="M387 0 Q292 0 216.5 46.5 Q141 93 99 173 Q57 253 57 350 Q57 446 99 526 Q141 606 216.5 653 Q292 700 387 700 L932 700 L932 682 L567 682 L567 362 L905 362 L905 344 L567 344 L567 18 L937 18 L937 0 L387 0 Z M387 18 L547 18 L547 682 L387 682 Q297 682 226.5 638 Q156 594 116.5 518 Q77 442 77 350 Q77 259 116 183 Q155 107 225.5 62.5 Q296 18 387 18 Z " />
<glyph glyph-name="P" unicode="P" horiz-adv-x="512" d="M106 0 L106 700 L261 700 Q326 700 374 679.5 Q422 659 449 618 Q476 577 476 517 Q476 457 449.5 416 Q423 375 374.5 354.5 Q326 334 261 334 L126 334 L126 0 L106 0 Z M261 352 Q351 352 403.5 394 Q456 436 456 517 Q456 598 403 640 Q350 682 261 682 L126 682 L126 352 L261 352 Z " />
<glyph glyph-name="Thorn" unicode="&#xde;" horiz-adv-x="546" d="M106 0 L106 700 L126 700 L126 533 L281 533 Q346 533 394 512.5 Q442 492 469 451 Q496 410 496 350 Q496 290 469.5 249 Q443 208 394.5 187.5 Q346 167 281 167 L126 167 L126 0 L106 0 Z M281 185 Q371 185 423.5 227 Q476 269 476 350 Q476 431 423 473 Q370 515 281 515 L126 515 L126 185 L281 185 Z " />
<glyph glyph-name="Q" unicode="Q" horiz-adv-x="833" d="M417 -10 Q318 -10 235.5 38 Q153 86 105 168.5 Q57 251 57 350 Q57 449 105 531.5 Q153 614 235.5 662 Q318 710 417 710 Q516 710 598.5 662 Q681 614 729 531.5 Q777 449 777 350 Q777 268 744 197.5 Q711 127 653 76 L723 7 L710 -6 L639 65 Q592 29 535.5 9.5 Q479 -10 417 -10 Z M417 8 Q475 8 528 26 Q581 44 625 78 L420 282 L433 294 L640 90 Q695 137 726 205 Q757 273 757 350 Q757 444 711.5 522.5 Q666 601 588.5 646.5 Q511 692 417 692 Q323 692 245.5 646.5 Q168 601 122.5 522.5 Q77 444 77 350 Q77 256 122.5 177.5 Q168 99 245.5 53.5 Q323 8 417 8 Z " />
<glyph glyph-name="R" unicode="R" horiz-adv-x="570" d="M106 0 L106 700 L276 700 Q335 700 380.5 677 Q426 654 451 612.5 Q476 571 476 517 Q476 463 451 421.5 Q426 380 380.5 357 Q335 334 276 334 L112 334 L141 347 L576 0 L543 0 L126 334 L126 0 L106 0 Z M276 352 Q356 352 406 397.5 Q456 443 456 517 Q456 591 406 636.5 Q356 682 276 682 L126 682 L126 352 L276 352 Z " />
<glyph glyph-name="Racute" unicode="&#x154;" horiz-adv-x="570" d="M106 0 L106 700 L276 700 Q335 700 380.5 677 Q426 654 451 612.5 Q476 571 476 517 Q476 463 451 421.5 Q426 380 380.5 357 Q335 334 276 334 L112 334 L141 347 L576 0 L543 0 L126 334 L126 0 L106 0 Z M276 352 Q356 352 406 397.5 Q456 443 456 517 Q456 591 406 636.5 Q356 682 276 682 L126 682 L126 352 L276 352 Z M245 770 L325 890 L346 890 L346 886 L262 770 L245 770 Z " />
<glyph glyph-name="Rcaron" unicode="&#x158;" horiz-adv-x="570" d="M106 0 L106 700 L276 700 Q335 700 380.5 677 Q426 654 451 612.5 Q476 571 476 517 Q476 463 451 421.5 Q426 380 380.5 357 Q335 334 276 334 L112 334 L141 347 L576 0 L543 0 L126 334 L126 0 L106 0 Z M276 352 Q356 352 406 397.5 Q456 443 456 517 Q456 591 406 636.5 Q356 682 276 682 L126 682 L126 352 L276 352 Z M255 770 L146 890 L168 890 L266 782 L364 890 L386 890 L277 770 L255 770 Z " />
<glyph glyph-name="uni0156" unicode="&#x156;" horiz-adv-x="570" d="M106 0 L106 700 L276 700 Q335 700 380.5 677 Q426 654 451 612.5 Q476 571 476 517 Q476 463 451 421.5 Q426 380 380.5 357 Q335 334 276 334 L112 334 L141 347 L576 0 L543 0 L126 334 L126 0 L106 0 Z M276 352 Q356 352 406 397.5 Q456 443 456 517 Q456 591 406 636.5 Q356 682 276 682 L126 682 L126 352 L276 352 Z M291 -233 L305 -70 L327 -70 L310 -233 L291 -233 Z " />
<glyph glyph-name="S" unicode="S" horiz-adv-x="499" d="M250 -10 Q197 -10 153 12 Q109 34 83 70.5 Q57 107 54 150 L74 157 Q77 116 100 82 Q123 48 162.5 28 Q202 8 250 8 Q299 8 340 29 Q381 50 405 85.5 Q429 121 429 164 Q429 217 396 255.5 Q363 294 306 323 Q298 327 289 330.5 Q280 334 272 338 L246 349 Q162 385 116.5 429.5 Q71 474 71 547 Q71 592 94 629.5 Q117 667 156.5 688.5 Q196 710 243 710 Q292 710 331 690 Q370 670 391.5 635.5 Q413 601 413 559 L394 553 Q394 614 352.5 653 Q311 692 243 692 Q201 692 166 672.5 Q131 653 111 620 Q91 587 91 547 Q91 482 129.5 443.5 Q168 405 245 370 L256 365 L283 353 Q365 317 407 273 Q449 229 449 164 Q449 115 423 75.5 Q397 36 351.5 13 Q306 -10 250 -10 Z " />
<glyph glyph-name="Sacute" unicode="&#x15a;" horiz-adv-x="499" d="M250 -10 Q197 -10 153 12 Q109 34 83 70.5 Q57 107 54 150 L74 157 Q77 116 100 82 Q123 48 162.5 28 Q202 8 250 8 Q299 8 340 29 Q381 50 405 85.5 Q429 121 429 164 Q429 217 396 255.5 Q363 294 306 323 Q298 327 289 330.5 Q280 334 272 338 L246 349 Q162 385 116.5 429.5 Q71 474 71 547 Q71 592 94 629.5 Q117 667 156.5 688.5 Q196 710 243 710 Q292 710 331 690 Q370 670 391.5 635.5 Q413 601 413 559 L394 553 Q394 614 352.5 653 Q311 692 243 692 Q201 692 166 672.5 Q131 653 111 620 Q91 587 91 547 Q91 482 129.5 443.5 Q168 405 245 370 L256 365 L283 353 Q365 317 407 273 Q449 229 449 164 Q449 115 423 75.5 Q397 36 351.5 13 Q306 -10 250 -10 Z M228 770 L308 890 L329 890 L329 886 L245 770 L228 770 Z " />
<glyph glyph-name="Scaron" unicode="&#x160;" horiz-adv-x="499" d="M250 -10 Q197 -10 153 12 Q109 34 83 70.5 Q57 107 54 150 L74 157 Q77 116 100 82 Q123 48 162.5 28 Q202 8 250 8 Q299 8 340 29 Q381 50 405 85.5 Q429 121 429 164 Q429 217 396 255.5 Q363 294 306 323 Q298 327 289 330.5 Q280 334 272 338 L246 349 Q162 385 116.5 429.5 Q71 474 71 547 Q71 592 94 629.5 Q117 667 156.5 688.5 Q196 710 243 710 Q292 710 331 690 Q370 670 391.5 635.5 Q413 601 413 559 L394 553 Q394 614 352.5 653 Q311 692 243 692 Q201 692 166 672.5 Q131 653 111 620 Q91 587 91 547 Q91 482 129.5 443.5 Q168 405 245 370 L256 365 L283 353 Q365 317 407 273 Q449 229 449 164 Q449 115 423 75.5 Q397 36 351.5 13 Q306 -10 250 -10 Z M238 770 L129 890 L151 890 L249 782 L347 890 L369 890 L260 770 L238 770 Z " />
<glyph glyph-name="Scedilla" unicode="&#x15e;" horiz-adv-x="499" d="M250 -10 Q197 -10 153 12 Q109 34 83 70.5 Q57 107 54 150 L74 157 Q77 116 100 82 Q123 48 162.5 28 Q202 8 250 8 Q299 8 340 29 Q381 50 405 85.5 Q429 121 429 164 Q429 217 396 255.5 Q363 294 306 323 Q298 327 289 330.5 Q280 334 272 338 L246 349 Q162 385 116.5 429.5 Q71 474 71 547 Q71 592 94 629.5 Q117 667 156.5 688.5 Q196 710 243 710 Q292 710 331 690 Q370 670 391.5 635.5 Q413 601 413 559 L394 553 Q394 614 352.5 653 Q311 692 243 692 Q201 692 166 672.5 Q131 653 111 620 Q91 587 91 547 Q91 482 129.5 443.5 Q168 405 245 370 L256 365 L283 353 Q365 317 407 273 Q449 229 449 164 Q449 115 423 75.5 Q397 36 351.5 13 Q306 -10 250 -10 Z M151 -187 Q226 -196 264.5 -184 Q303 -172 303 -140 Q303 -88 215 -95 L241 0 L257 0 L235 -79 Q269 -77 295 -93.5 Q321 -110 321 -140 Q321 -179 276 -196 Q231 -213 147 -202 L151 -187 Z " />
<glyph glyph-name="Scircumflex" unicode="&#x15c;" horiz-adv-x="499" d="M250 -10 Q197 -10 153 12 Q109 34 83 70.5 Q57 107 54 150 L74 157 Q77 116 100 82 Q123 48 162.5 28 Q202 8 250 8 Q299 8 340 29 Q381 50 405 85.5 Q429 121 429 164 Q429 217 396 255.5 Q363 294 306 323 Q298 327 289 330.5 Q280 334 272 338 L246 349 Q162 385 116.5 429.5 Q71 474 71 547 Q71 592 94 629.5 Q117 667 156.5 688.5 Q196 710 243 710 Q292 710 331 690 Q370 670 391.5 635.5 Q413 601 413 559 L394 553 Q394 614 352.5 653 Q311 692 243 692 Q201 692 166 672.5 Q131 653 111 620 Q91 587 91 547 Q91 482 129.5 443.5 Q168 405 245 370 L256 365 L283 353 Q365 317 407 273 Q449 229 449 164 Q449 115 423 75.5 Q397 36 351.5 13 Q306 -10 250 -10 Z M129 770 L238 890 L260 890 L369 770 L347 770 L249 878 L151 770 L129 770 Z " />
<glyph glyph-name="uni0218" unicode="&#x218;" horiz-adv-x="499" d="M250 -10 Q197 -10 153 12 Q109 34 83 70.5 Q57 107 54 150 L74 157 Q77 116 100 82 Q123 48 162.5 28 Q202 8 250 8 Q299 8 340 29 Q381 50 405 85.5 Q429 121 429 164 Q429 217 396 255.5 Q363 294 306 323 Q298 327 289 330.5 Q280 334 272 338 L246 349 Q162 385 116.5 429.5 Q71 474 71 547 Q71 592 94 629.5 Q117 667 156.5 688.5 Q196 710 243 710 Q292 710 331 690 Q370 670 391.5 635.5 Q413 601 413 559 L394 553 Q394 614 352.5 653 Q311 692 243 692 Q201 692 166 672.5 Q131 653 111 620 Q91 587 91 547 Q91 482 129.5 443.5 Q168 405 245 370 L256 365 L283 353 Q365 317 407 273 Q449 229 449 164 Q449 115 423 75.5 Q397 36 351.5 13 Q306 -10 250 -10 Z M224 -233 L238 -70 L260 -70 L243 -233 L224 -233 Z " />
<glyph glyph-name="uni1E9E" unicode="&#x1e9e;" horiz-adv-x="686" d="M239 56 Q274 34 316 21 Q358 8 406 8 Q464 8 512 36 Q560 64 588 112.5 Q616 161 616 220 Q616 279 588 327.5 Q560 376 512 404 Q464 432 406 432 Q376 432 351 426.5 Q326 421 299 409 L296 413 L584 682 L120 682 L120 0 L100 0 L100 700 L625 700 L625 696 L352 440 L353 445 Q364 448 376.5 449 Q389 450 401 450 Q465 450 518.5 420.5 Q572 391 604 338.5 Q636 286 636 220 Q636 156 605.5 103.5 Q575 51 522.5 20.5 Q470 -10 406 -10 Q318 -10 239 35 L239 56 Z " />
<glyph glyph-name="uni018F" unicode="&#x18f;" horiz-adv-x="820" d="M410 710 Q507 710 587 662 Q667 614 713.5 531.5 Q760 449 760 350 Q760 251 713.5 168.5 Q667 86 587 38 Q507 -10 410 -10 Q315 -10 236 36 Q157 82 110 161.5 Q63 241 60 338 Q60 343 60 347.5 Q60 352 60 356 L740 356 Q739 449 694.5 526 Q650 603 575 647.5 Q500 692 410 692 Q328 692 258 655 Q188 618 143 553 L119 553 Q167 626 243.5 668 Q320 710 410 710 Z M410 8 Q499 8 573.5 51.5 Q648 95 692.5 170.5 Q737 246 740 338 L80 338 Q83 246 127.5 170.5 Q172 95 246.5 51.5 Q321 8 410 8 Z " />
<glyph glyph-name="T" unicode="T" horiz-adv-x="470" d="M450 700 L450 682 L245 682 L245 0 L225 0 L225 682 L20 682 L20 700 L450 700 Z " />
<glyph glyph-name="Tbar" unicode="&#x166;" horiz-adv-x="504" d="M77 399 L437 399 L437 381 L77 381 L77 399 Z M462 700 L462 682 L257 682 L257 0 L237 0 L237 682 L32 682 L32 700 L462 700 Z " />
<glyph glyph-name="Tcaron" unicode="&#x164;" horiz-adv-x="470" d="M450 700 L450 682 L245 682 L245 0 L225 0 L225 682 L20 682 L20 700 L450 700 Z M224 770 L115 890 L137 890 L235 782 L333 890 L355 890 L246 770 L224 770 Z " />
<glyph glyph-name="uni0162" unicode="&#x162;" horiz-adv-x="470" d="M450 700 L450 682 L245 682 L245 0 L225 0 L225 682 L20 682 L20 700 L450 700 Z M137 -187 Q212 -196 250.5 -184 Q289 -172 289 -140 Q289 -88 201 -95 L227 0 L243 0 L221 -79 Q255 -77 281 -93.5 Q307 -110 307 -140 Q307 -179 262 -196 Q217 -213 133 -202 L137 -187 Z " />
<glyph glyph-name="uni021A" unicode="&#x21a;" horiz-adv-x="470" d="M450 700 L450 682 L245 682 L245 0 L225 0 L225 682 L20 682 L20 700 L450 700 Z M210 -233 L224 -70 L246 -70 L229 -233 L210 -233 Z " />
<glyph glyph-name="U" unicode="U" horiz-adv-x="686" d="M343 -10 Q269 -10 213.5 19 Q158 48 128 101 Q98 154 98 225 L98 700 L118 700 L118 225 Q118 127 178.5 67.5 Q239 8 343 8 Q447 8 507.5 67.5 Q568 127 568 225 L568 700 L588 700 L588 225 Q588 154 558 101 Q528 48 472.5 19 Q417 -10 343 -10 Z " />
<glyph glyph-name="Uacute" unicode="&#xda;" horiz-adv-x="686" d="M343 -10 Q269 -10 213.5 19 Q158 48 128 101 Q98 154 98 225 L98 700 L118 700 L118 225 Q118 127 178.5 67.5 Q239 8 343 8 Q447 8 507.5 67.5 Q568 127 568 225 L568 700 L588 700 L588 225 Q588 154 558 101 Q528 48 472.5 19 Q417 -10 343 -10 Z M322 770 L402 890 L423 890 L423 886 L339 770 L322 770 Z " />
<glyph glyph-name="Ubreve" unicode="&#x16c;" horiz-adv-x="686" d="M343 -10 Q269 -10 213.5 19 Q158 48 128 101 Q98 154 98 225 L98 700 L118 700 L118 225 Q118 127 178.5 67.5 Q239 8 343 8 Q447 8 507.5 67.5 Q568 127 568 225 L568 700 L588 700 L588 225 Q588 154 558 101 Q528 48 472.5 19 Q417 -10 343 -10 Z M343 772 Q291 772 257 801.5 Q223 831 223 877 L241 877 Q241 838 270 813 Q299 788 343 788 Q387 788 416 813 Q445 838 445 877 L463 877 Q463 831 429 801.5 Q395 772 343 772 Z " />
<glyph glyph-name="Ucircumflex" unicode="&#xdb;" horiz-adv-x="686" d="M343 -10 Q269 -10 213.5 19 Q158 48 128 101 Q98 154 98 225 L98 700 L118 700 L118 225 Q118 127 178.5 67.5 Q239 8 343 8 Q447 8 507.5 67.5 Q568 127 568 225 L568 700 L588 700 L588 225 Q588 154 558 101 Q528 48 472.5 19 Q417 -10 343 -10 Z M223 770 L332 890 L354 890 L463 770 L441 770 L343 878 L245 770 L223 770 Z " />
<glyph glyph-name="Udieresis" unicode="&#xdc;" horiz-adv-x="686" d="M343 -10 Q269 -10 213.5 19 Q158 48 128 101 Q98 154 98 225 L98 700 L118 700 L118 225 Q118 127 178.5 67.5 Q239 8 343 8 Q447 8 507.5 67.5 Q568 127 568 225 L568 700 L588 700 L588 225 Q588 154 558 101 Q528 48 472.5 19 Q417 -10 343 -10 Z M420 780 Q412 780 406 786 Q400 792 400 800 Q400 808 406 814 Q412 820 420 820 Q428 820 434 814 Q440 808 440 800 Q440 792 434 786 Q428 780 420 780 Z M265 780 Q257 780 251 786 Q245 792 245 800 Q245 808 251 814 Q257 820 265 820 Q273 820 279 814 Q285 808 285 800 Q285 792 279 786 Q273 780 265 780 Z " />
<glyph glyph-name="uni1EE4" unicode="&#x1ee4;" horiz-adv-x="686" d="M343 -10 Q269 -10 213.5 19 Q158 48 128 101 Q98 154 98 225 L98 700 L118 700 L118 225 Q118 127 178.5 67.5 Q239 8 343 8 Q447 8 507.5 67.5 Q568 127 568 225 L568 700 L588 700 L588 225 Q588 154 558 101 Q528 48 472.5 19 Q417 -10 343 -10 Z M343 -130 Q330 -130 321.5 -121.5 Q313 -113 313 -100 Q313 -87 321.5 -78.5 Q330 -70 343 -70 Q356 -70 364.5 -78.5 Q373 -87 373 -100 Q373 -113 364.5 -121.5 Q356 -130 343 -130 Z " />
<glyph glyph-name="Ugrave" unicode="&#xd9;" horiz-adv-x="686" d="M343 -10 Q269 -10 213.5 19 Q158 48 128 101 Q98 154 98 225 L98 700 L118 700 L118 225 Q118 127 178.5 67.5 Q239 8 343 8 Q447 8 507.5 67.5 Q568 127 568 225 L568 700 L588 700 L588 225 Q588 154 558 101 Q528 48 472.5 19 Q417 -10 343 -10 Z M363 770 L346 770 L262 886 L262 890 L283 890 L363 770 Z " />
<glyph glyph-name="Uhungarumlaut" unicode="&#x170;" horiz-adv-x="686" d="M343 -10 Q269 -10 213.5 19 Q158 48 128 101 Q98 154 98 225 L98 700 L118 700 L118 225 Q118 127 178.5 67.5 Q239 8 343 8 Q447 8 507.5 67.5 Q568 127 568 225 L568 700 L588 700 L588 225 Q588 154 558 101 Q528 48 472.5 19 Q417 -10 343 -10 Z M391 770 L462 900 L483 900 L483 896 L409 770 L391 770 Z M247 770 L318 900 L339 900 L339 896 L265 770 L247 770 Z " />
<glyph glyph-name="Umacron" unicode="&#x16a;" horiz-adv-x="686" d="M343 -10 Q269 -10 213.5 19 Q158 48 128 101 Q98 154 98 225 L98 700 L118 700 L118 225 Q118 127 178.5 67.5 Q239 8 343 8 Q447 8 507.5 67.5 Q568 127 568 225 L568 700 L588 700 L588 225 Q588 154 558 101 Q528 48 472.5 19 Q417 -10 343 -10 Z M223 801 L223 817 L463 817 L463 801 L223 801 Z " />
<glyph glyph-name="Uogonek" unicode="&#x172;" horiz-adv-x="686" d="M414 -210 Q381 -210 361.5 -193 Q342 -176 342 -147 Q342 -110 373.5 -64.5 Q405 -19 485 40 L466 18 Q441 3 410.5 -3.5 Q380 -10 343 -10 Q269 -10 213.5 19 Q158 48 128 101 Q98 154 98 225 L98 700 L118 700 L118 225 Q118 127 178.5 67.5 Q239 8 343 8 Q447 8 507.5 67.5 Q568 127 568 225 L568 700 L588 700 L588 225 Q588 169 569 123.5 Q550 78 514 47 Q507 42 501 36 Q495 30 488 25 Q425 -27 392.5 -65 Q360 -103 360 -147 Q360 -169 375 -181.5 Q390 -194 414 -194 Q438 -194 459 -186 L459 -202 Q441 -210 414 -210 Z " />
<glyph glyph-name="Uring" unicode="&#x16e;" horiz-adv-x="686" d="M343 -10 Q269 -10 213.5 19 Q158 48 128 101 Q98 154 98 225 L98 700 L118 700 L118 225 Q118 127 178.5 67.5 Q239 8 343 8 Q447 8 507.5 67.5 Q568 127 568 225 L568 700 L588 700 L588 225 Q588 154 558 101 Q528 48 472.5 19 Q417 -10 343 -10 Z M343 721 Q305 721 279 747.5 Q253 774 253 811 Q253 848 279.5 874 Q306 900 343 900 Q380 900 406 874 Q432 848 432 811 Q432 774 406 747.5 Q380 721 343 721 Z M343 737 Q373 737 393.5 758.5 Q414 780 414 811 Q414 841 393.5 862.5 Q373 884 343 884 Q313 884 292 862.5 Q271 841 271 811 Q271 780 291.5 758.5 Q312 737 343 737 Z " />
<glyph glyph-name="Utilde" unicode="&#x168;" horiz-adv-x="686" d="M343 -10 Q269 -10 213.5 19 Q158 48 128 101 Q98 154 98 225 L98 700 L118 700 L118 225 Q118 127 178.5 67.5 Q239 8 343 8 Q447 8 507.5 67.5 Q568 127 568 225 L568 700 L588 700 L588 225 Q588 154 558 101 Q528 48 472.5 19 Q417 -10 343 -10 Z M426 785 Q404 785 384 790.5 Q364 796 333 808 Q306 818 290 823 Q274 828 257 828 Q236 828 218 819.5 Q200 811 177 788 L172 803 Q193 826 213.5 835.5 Q234 845 259 845 Q279 845 296.5 839.5 Q314 834 339 824 L342 823 Q370 812 389.5 806.5 Q409 801 430 801 Q477 801 508 842 L513 827 Q499 808 476.5 796.5 Q454 785 426 785 Z " />
<glyph glyph-name="V" unicode="V" horiz-adv-x="654" d="M325 -10 L21 700 L43 700 L327 38 L611 700 L633 700 L329 -10 L325 -10 Z " />
<glyph glyph-name="W" unicode="W" horiz-adv-x="964" d="M272 -10 L28 700 L49 700 L272 48 L480 710 L484 710 L692 48 L915 700 L936 700 L692 -10 L688 -10 L482 646 L276 -10 L272 -10 Z " />
<glyph glyph-name="Wacute" unicode="&#x1e82;" horiz-adv-x="964" d="M272 -10 L28 700 L49 700 L272 48 L480 710 L484 710 L692 48 L915 700 L936 700 L692 -10 L688 -10 L482 646 L276 -10 L272 -10 Z M461 770 L541 890 L562 890 L562 886 L478 770 L461 770 Z " />
<glyph glyph-name="Wcircumflex" unicode="&#x174;" horiz-adv-x="964" d="M272 -10 L28 700 L49 700 L272 48 L480 710 L484 710 L692 48 L915 700 L936 700 L692 -10 L688 -10 L482 646 L276 -10 L272 -10 Z M362 770 L471 890 L493 890 L602 770 L580 770 L482 878 L384 770 L362 770 Z " />
<glyph glyph-name="Wdieresis" unicode="&#x1e84;" horiz-adv-x="964" d="M272 -10 L28 700 L49 700 L272 48 L480 710 L484 710 L692 48 L915 700 L936 700 L692 -10 L688 -10 L482 646 L276 -10 L272 -10 Z M559 780 Q551 780 545 786 Q539 792 539 800 Q539 808 545 814 Q551 820 559 820 Q567 820 573 814 Q579 808 579 800 Q579 792 573 786 Q567 780 559 780 Z M404 780 Q396 780 390 786 Q384 792 384 800 Q384 808 390 814 Q396 820 404 820 Q412 820 418 814 Q424 808 424 800 Q424 792 418 786 Q412 780 404 780 Z " />
<glyph glyph-name="Wgrave" unicode="&#x1e80;" horiz-adv-x="964" d="M272 -10 L28 700 L49 700 L272 48 L480 710 L484 710 L692 48 L915 700 L936 700 L692 -10 L688 -10 L482 646 L276 -10 L272 -10 Z M502 770 L485 770 L401 886 L401 890 L422 890 L502 770 Z " />
<glyph glyph-name="X" unicode="X" horiz-adv-x="527" d="M275 357 L503 0 L480 0 L264 339 L47 0 L24 0 L252 357 L33 700 L56 700 L264 375 L471 700 L494 700 L275 357 Z " />
<glyph glyph-name="Y" unicode="Y" horiz-adv-x="580" d="M290 391 L518 700 L543 700 L300 371 L300 0 L280 0 L280 371 L37 700 L62 700 L290 391 Z " />
<glyph glyph-name="Yacute" unicode="&#xdd;" horiz-adv-x="580" d="M290 391 L518 700 L543 700 L300 371 L300 0 L280 0 L280 371 L37 700 L62 700 L290 391 Z M269 770 L349 890 L370 890 L370 886 L286 770 L269 770 Z " />
<glyph glyph-name="Ycircumflex" unicode="&#x176;" horiz-adv-x="580" d="M290 391 L518 700 L543 700 L300 371 L300 0 L280 0 L280 371 L37 700 L62 700 L290 391 Z M170 770 L279 890 L301 890 L410 770 L388 770 L290 878 L192 770 L170 770 Z " />
<glyph glyph-name="Ydieresis" unicode="&#x178;" horiz-adv-x="580" d="M290 391 L518 700 L543 700 L300 371 L300 0 L280 0 L280 371 L37 700 L62 700 L290 391 Z M367 780 Q359 780 353 786 Q347 792 347 800 Q347 808 353 814 Q359 820 367 820 Q375 820 381 814 Q387 808 387 800 Q387 792 381 786 Q375 780 367 780 Z M212 780 Q204 780 198 786 Q192 792 192 800 Q192 808 198 814 Q204 820 212 820 Q220 820 226 814 Q232 808 232 800 Q232 792 226 786 Q220 780 212 780 Z " />
<glyph glyph-name="Ygrave" unicode="&#x1ef2;" horiz-adv-x="580" d="M290 391 L518 700 L543 700 L300 371 L300 0 L280 0 L280 371 L37 700 L62 700 L290 391 Z M310 770 L293 770 L209 886 L209 890 L230 890 L310 770 Z " />
<glyph glyph-name="uni0232" unicode="&#x232;" horiz-adv-x="580" d="M290 391 L518 700 L543 700 L300 371 L300 0 L280 0 L280 371 L37 700 L62 700 L290 391 Z M170 801 L170 817 L410 817 L410 801 L170 801 Z " />
<glyph glyph-name="uni1EF8" unicode="&#x1ef8;" horiz-adv-x="580" d="M290 391 L518 700 L543 700 L300 371 L300 0 L280 0 L280 371 L37 700 L62 700 L290 391 Z M373 785 Q351 785 331 790.5 Q311 796 280 808 Q253 818 237 823 Q221 828 204 828 Q183 828 165 819.5 Q147 811 124 788 L119 803 Q140 826 160.5 835.5 Q181 845 206 845 Q226 845 243.5 839.5 Q261 834 286 824 L289 823 Q317 812 336.5 806.5 Q356 801 377 801 Q424 801 455 842 L460 827 Q446 808 423.5 796.5 Q401 785 373 785 Z " />
<glyph glyph-name="Z" unicode="Z" horiz-adv-x="488" d="M25 0 L25 4 L426 682 L38 682 L38 700 L455 700 L455 696 L55 18 L465 18 L465 0 L25 0 Z " />
<glyph glyph-name="Zacute" unicode="&#x179;" horiz-adv-x="488" d="M25 0 L25 4 L426 682 L38 682 L38 700 L455 700 L455 696 L55 18 L465 18 L465 0 L25 0 Z M221 770 L301 890 L322 890 L322 886 L238 770 L221 770 Z " />
<glyph glyph-name="Zcaron" unicode="&#x17d;" horiz-adv-x="488" d="M25 0 L25 4 L426 682 L38 682 L38 700 L455 700 L455 696 L55 18 L465 18 L465 0 L25 0 Z M231 770 L122 890 L144 890 L242 782 L340 890 L362 890 L253 770 L231 770 Z " />
<glyph glyph-name="Zdotaccent" unicode="&#x17b;" horiz-adv-x="488" d="M25 0 L25 4 L426 682 L38 682 L38 700 L455 700 L455 696 L55 18 L465 18 L465 0 L25 0 Z M242 780 Q229 780 220.5 788.5 Q212 797 212 810 Q212 823 220.5 831.5 Q229 840 242 840 Q255 840 263.5 831.5 Q272 823 272 810 Q272 797 263.5 788.5 Q255 780 242 780 Z " />
<glyph glyph-name="a" unicode="a" horiz-adv-x="730" d="M344 -10 Q263 -10 195.5 28.5 Q128 67 89 134 Q50 201 50 282 Q50 363 89 430.5 Q128 498 195.5 537 Q263 576 344 576 Q438 576 512 523.5 Q586 471 616 386 L616 566 L636 566 L636 0 L616 0 L616 178 Q586 94 512 42 Q438 -10 344 -10 Z M344 8 Q419 8 481.5 44.5 Q544 81 580 144 Q616 207 616 282 Q616 358 580 421.5 Q544 485 481.5 521.5 Q419 558 344 558 Q269 558 206 521.5 Q143 485 106.5 421.5 Q70 358 70 282 Q70 207 106.5 144 Q143 81 206 44.5 Q269 8 344 8 Z " />
<glyph glyph-name="aacute" unicode="&#xe1;" horiz-adv-x="730" d="M344 -10 Q263 -10 195.5 28.5 Q128 67 89 134 Q50 201 50 282 Q50 363 89 430.5 Q128 498 195.5 537 Q263 576 344 576 Q438 576 512 523.5 Q586 471 616 386 L616 566 L636 566 L636 0 L616 0 L616 178 Q586 94 512 42 Q438 -10 344 -10 Z M344 8 Q419 8 481.5 44.5 Q544 81 580 144 Q616 207 616 282 Q616 358 580 421.5 Q544 485 481.5 521.5 Q419 558 344 558 Q269 558 206 521.5 Q143 485 106.5 421.5 Q70 358 70 282 Q70 207 106.5 144 Q143 81 206 44.5 Q269 8 344 8 Z M323 636 L403 756 L424 756 L424 752 L340 636 L323 636 Z " />
<glyph glyph-name="abreve" unicode="&#x103;" horiz-adv-x="730" d="M344 -10 Q263 -10 195.5 28.5 Q128 67 89 134 Q50 201 50 282 Q50 363 89 430.5 Q128 498 195.5 537 Q263 576 344 576 Q438 576 512 523.5 Q586 471 616 386 L616 566 L636 566 L636 0 L616 0 L616 178 Q586 94 512 42 Q438 -10 344 -10 Z M344 8 Q419 8 481.5 44.5 Q544 81 580 144 Q616 207 616 282 Q616 358 580 421.5 Q544 485 481.5 521.5 Q419 558 344 558 Q269 558 206 521.5 Q143 485 106.5 421.5 Q70 358 70 282 Q70 207 106.5 144 Q143 81 206 44.5 Q269 8 344 8 Z M344 638 Q292 638 258 667.5 Q224 697 224 743 L242 743 Q242 704 271 679 Q300 654 344 654 Q388 654 417 679 Q446 704 446 743 L464 743 Q464 697 430 667.5 Q396 638 344 638 Z " />
<glyph glyph-name="acircumflex" unicode="&#xe2;" horiz-adv-x="730" d="M344 -10 Q263 -10 195.5 28.5 Q128 67 89 134 Q50 201 50 282 Q50 363 89 430.5 Q128 498 195.5 537 Q263 576 344 576 Q438 576 512 523.5 Q586 471 616 386 L616 566 L636 566 L636 0 L616 0 L616 178 Q586 94 512 42 Q438 -10 344 -10 Z M344 8 Q419 8 481.5 44.5 Q544 81 580 144 Q616 207 616 282 Q616 358 580 421.5 Q544 485 481.5 521.5 Q419 558 344 558 Q269 558 206 521.5 Q143 485 106.5 421.5 Q70 358 70 282 Q70 207 106.5 144 Q143 81 206 44.5 Q269 8 344 8 Z M224 636 L333 756 L355 756 L464 636 L442 636 L344 744 L246 636 L224 636 Z " />
<glyph glyph-name="adieresis" unicode="&#xe4;" horiz-adv-x="730" d="M344 -10 Q263 -10 195.5 28.5 Q128 67 89 134 Q50 201 50 282 Q50 363 89 430.5 Q128 498 195.5 537 Q263 576 344 576 Q438 576 512 523.5 Q586 471 616 386 L616 566 L636 566 L636 0 L616 0 L616 178 Q586 94 512 42 Q438 -10 344 -10 Z M344 8 Q419 8 481.5 44.5 Q544 81 580 144 Q616 207 616 282 Q616 358 580 421.5 Q544 485 481.5 521.5 Q419 558 344 558 Q269 558 206 521.5 Q143 485 106.5 421.5 Q70 358 70 282 Q70 207 106.5 144 Q143 81 206 44.5 Q269 8 344 8 Z M421 646 Q413 646 407 652 Q401 658 401 666 Q401 674 407 680 Q413 686 421 686 Q429 686 435 680 Q441 674 441 666 Q441 658 435 652 Q429 646 421 646 Z M266 646 Q258 646 252 652 Q246 658 246 666 Q246 674 252 680 Q258 686 266 686 Q274 686 280 680 Q286 674 286 666 Q286 658 280 652 Q274 646 266 646 Z " />
<glyph glyph-name="uni1EA1" unicode="&#x1ea1;" horiz-adv-x="730" d="M344 -10 Q263 -10 195.5 28.5 Q128 67 89 134 Q50 201 50 282 Q50 363 89 430.5 Q128 498 195.5 537 Q263 576 344 576 Q438 576 512 523.5 Q586 471 616 386 L616 566 L636 566 L636 0 L616 0 L616 178 Q586 94 512 42 Q438 -10 344 -10 Z M344 8 Q419 8 481.5 44.5 Q544 81 580 144 Q616 207 616 282 Q616 358 580 421.5 Q544 485 481.5 521.5 Q419 558 344 558 Q269 558 206 521.5 Q143 485 106.5 421.5 Q70 358 70 282 Q70 207 106.5 144 Q143 81 206 44.5 Q269 8 344 8 Z M344 -130 Q331 -130 322.5 -121.5 Q314 -113 314 -100 Q314 -87 322.5 -78.5 Q331 -70 344 -70 Q357 -70 365.5 -78.5 Q374 -87 374 -100 Q374 -113 365.5 -121.5 Q357 -130 344 -130 Z " />
<glyph glyph-name="agrave" unicode="&#xe0;" horiz-adv-x="730" d="M344 -10 Q263 -10 195.5 28.5 Q128 67 89 134 Q50 201 50 282 Q50 363 89 430.5 Q128 498 195.5 537 Q263 576 344 576 Q438 576 512 523.5 Q586 471 616 386 L616 566 L636 566 L636 0 L616 0 L616 178 Q586 94 512 42 Q438 -10 344 -10 Z M344 8 Q419 8 481.5 44.5 Q544 81 580 144 Q616 207 616 282 Q616 358 580 421.5 Q544 485 481.5 521.5 Q419 558 344 558 Q269 558 206 521.5 Q143 485 106.5 421.5 Q70 358 70 282 Q70 207 106.5 144 Q143 81 206 44.5 Q269 8 344 8 Z M364 636 L347 636 L263 752 L263 756 L284 756 L364 636 Z " />
<glyph glyph-name="amacron" unicode="&#x101;" horiz-adv-x="730" d="M344 -10 Q263 -10 195.5 28.5 Q128 67 89 134 Q50 201 50 282 Q50 363 89 430.5 Q128 498 195.5 537 Q263 576 344 576 Q438 576 512 523.5 Q586 471 616 386 L616 566 L636 566 L636 0 L616 0 L616 178 Q586 94 512 42 Q438 -10 344 -10 Z M344 8 Q419 8 481.5 44.5 Q544 81 580 144 Q616 207 616 282 Q616 358 580 421.5 Q544 485 481.5 521.5 Q419 558 344 558 Q269 558 206 521.5 Q143 485 106.5 421.5 Q70 358 70 282 Q70 207 106.5 144 Q143 81 206 44.5 Q269 8 344 8 Z M224 667 L224 683 L464 683 L464 667 L224 667 Z " />
<glyph glyph-name="aogonek" unicode="&#x105;" horiz-adv-x="730" d="M344 -10 Q263 -10 195.5 28.5 Q128 67 89 134 Q50 201 50 282 Q50 363 89 430.5 Q128 498 195.5 537 Q263 576 344 576 Q438 576 512 523.5 Q586 471 616 386 L616 566 L636 566 L636 0 L616 0 L616 178 Q586 94 512 42 Q438 -10 344 -10 Z M344 8 Q419 8 481.5 44.5 Q544 81 580 144 Q616 207 616 282 Q616 358 580 421.5 Q544 485 481.5 521.5 Q419 558 344 558 Q269 558 206 521.5 Q143 485 106.5 421.5 Q70 358 70 282 Q70 207 106.5 144 Q143 81 206 44.5 Q269 8 344 8 Z M593 -200 Q560 -200 540.5 -183 Q521 -166 521 -137 Q521 -73 616 0 L636 0 Q587 -39 563 -73.5 Q539 -108 539 -137 Q539 -159 554 -171.5 Q569 -184 593 -184 Q617 -184 638 -176 L638 -192 Q620 -200 593 -200 Z " />
<glyph glyph-name="aring" unicode="&#xe5;" horiz-adv-x="730" d="M344 -10 Q263 -10 195.5 28.5 Q128 67 89 134 Q50 201 50 282 Q50 363 89 430.5 Q128 498 195.5 537 Q263 576 344 576 Q438 576 512 523.5 Q586 471 616 386 L616 566 L636 566 L636 0 L616 0 L616 178 Q586 94 512 42 Q438 -10 344 -10 Z M344 8 Q419 8 481.5 44.5 Q544 81 580 144 Q616 207 616 282 Q616 358 580 421.5 Q544 485 481.5 521.5 Q419 558 344 558 Q269 558 206 521.5 Q143 485 106.5 421.5 Q70 358 70 282 Q70 207 106.5 144 Q143 81 206 44.5 Q269 8 344 8 Z M344 587 Q306 587 280 613.5 Q254 640 254 677 Q254 714 280.5 740 Q307 766 344 766 Q381 766 407 740 Q433 714 433 677 Q433 640 407 613.5 Q381 587 344 587 Z M344 603 Q374 603 394.5 624.5 Q415 646 415 677 Q415 707 394.5 728.5 Q374 750 344 750 Q314 750 293 728.5 Q272 707 272 677 Q272 646 292.5 624.5 Q313 603 344 603 Z " />
<glyph glyph-name="aringacute" unicode="&#x1fb;" horiz-adv-x="730" d="M344 -10 Q263 -10 195.5 28.5 Q128 67 89 134 Q50 201 50 282 Q50 363 89 430.5 Q128 498 195.5 537 Q263 576 344 576 Q438 576 512 523.5 Q586 471 616 386 L616 566 L636 566 L636 0 L616 0 L616 178 Q586 94 512 42 Q438 -10 344 -10 Z M344 8 Q419 8 481.5 44.5 Q544 81 580 144 Q616 207 616 282 Q616 358 580 421.5 Q544 485 481.5 521.5 Q419 558 344 558 Q269 558 206 521.5 Q143 485 106.5 421.5 Q70 358 70 282 Q70 207 106.5 144 Q143 81 206 44.5 Q269 8 344 8 Z M344 587 Q306 587 280 613.5 Q254 640 254 677 Q254 714 280.5 740 Q307 766 344 766 Q381 766 407 740 Q433 714 433 677 Q433 640 407 613.5 Q381 587 344 587 Z M344 603 Q374 603 394.5 624.5 Q415 646 415 677 Q415 707 394.5 728.5 Q374 750 344 750 Q314 750 293 728.5 Q272 707 272 677 Q272 646 292.5 624.5 Q313 603 344 603 Z M384 745 L464 865 L485 865 L485 861 L401 745 L384 745 Z " />
<glyph glyph-name="atilde" unicode="&#xe3;" horiz-adv-x="730" d="M344 -10 Q263 -10 195.5 28.5 Q128 67 89 134 Q50 201 50 282 Q50 363 89 430.5 Q128 498 195.5 537 Q263 576 344 576 Q438 576 512 523.5 Q586 471 616 386 L616 566 L636 566 L636 0 L616 0 L616 178 Q586 94 512 42 Q438 -10 344 -10 Z M344 8 Q419 8 481.5 44.5 Q544 81 580 144 Q616 207 616 282 Q616 358 580 421.5 Q544 485 481.5 521.5 Q419 558 344 558 Q269 558 206 521.5 Q143 485 106.5 421.5 Q70 358 70 282 Q70 207 106.5 144 Q143 81 206 44.5 Q269 8 344 8 Z M427 651 Q405 651 385 656.5 Q365 662 334 674 Q307 684 291 689 Q275 694 258 694 Q237 694 219 685.5 Q201 677 178 654 L173 669 Q194 692 214.5 701.5 Q235 711 260 711 Q280 711 297.5 705.5 Q315 700 340 690 L343 689 Q371 678 390.5 672.5 Q410 667 431 667 Q478 667 509 708 L514 693 Q500 674 477.5 662.5 Q455 651 427 651 Z " />
<glyph glyph-name="ae" unicode="&#xe6;" horiz-adv-x="1225" d="M344 -10 Q263 -10 195.5 28.5 Q128 67 89 134 Q50 201 50 282 Q50 363 89 430.5 Q128 498 195.5 537 Q263 576 344 576 Q438 576 512 523.5 Q586 471 616 386 L616 566 L636 566 L636 393 Q667 475 738 525.5 Q809 576 898 576 Q976 576 1040.5 537 Q1105 498 1142.5 430.5 Q1180 363 1180 282 Q1180 278 1180 274.5 Q1180 271 1180 267 L636 267 Q640 195 675.5 135.5 Q711 76 769.5 42 Q828 8 898 8 Q964 8 1020.5 39 Q1077 70 1113 123 L1136 123 Q1099 62 1036 26 Q973 -10 898 -10 Q809 -10 738 40 Q667 90 636 172 L636 0 L616 0 L616 178 Q586 94 512 42 Q438 -10 344 -10 Z M344 8 Q419 8 481.5 44.5 Q544 81 580 144 Q616 207 616 282 Q616 358 580 421.5 Q544 485 481.5 521.5 Q419 558 344 558 Q269 558 206 521.5 Q143 485 106.5 421.5 Q70 358 70 282 Q70 207 106.5 144 Q143 81 206 44.5 Q269 8 344 8 Z M1160 285 Q1160 361 1125 423.5 Q1090 486 1030 522 Q970 558 898 558 Q826 558 766 522 Q706 486 671 423.5 Q636 361 636 285 L1160 285 Z " />
<glyph glyph-name="aeacute" unicode="&#x1fd;" horiz-adv-x="1225" d="M344 -10 Q263 -10 195.5 28.5 Q128 67 89 134 Q50 201 50 282 Q50 363 89 430.5 Q128 498 195.5 537 Q263 576 344 576 Q438 576 512 523.5 Q586 471 616 386 L616 566 L636 566 L636 393 Q667 475 738 525.5 Q809 576 898 576 Q976 576 1040.5 537 Q1105 498 1142.5 430.5 Q1180 363 1180 282 Q1180 278 1180 274.5 Q1180 271 1180 267 L636 267 Q640 195 675.5 135.5 Q711 76 769.5 42 Q828 8 898 8 Q964 8 1020.5 39 Q1077 70 1113 123 L1136 123 Q1099 62 1036 26 Q973 -10 898 -10 Q809 -10 738 40 Q667 90 636 172 L636 0 L616 0 L616 178 Q586 94 512 42 Q438 -10 344 -10 Z M344 8 Q419 8 481.5 44.5 Q544 81 580 144 Q616 207 616 282 Q616 358 580 421.5 Q544 485 481.5 521.5 Q419 558 344 558 Q269 558 206 521.5 Q143 485 106.5 421.5 Q70 358 70 282 Q70 207 106.5 144 Q143 81 206 44.5 Q269 8 344 8 Z M1160 285 Q1160 361 1125 423.5 Q1090 486 1030 522 Q970 558 898 558 Q826 558 766 522 Q706 486 671 423.5 Q636 361 636 285 L1160 285 Z M605 636 L685 756 L706 756 L706 752 L622 636 L605 636 Z " />
<glyph glyph-name="b" unicode="b" horiz-adv-x="730" d="M386 -10 Q292 -10 218 42.5 Q144 95 114 180 L114 0 L94 0 L94 800 L114 800 L114 388 Q144 472 218 524 Q292 576 386 576 Q467 576 534.5 537.5 Q602 499 641 432 Q680 365 680 284 Q680 203 641 135.5 Q602 68 534.5 29 Q467 -10 386 -10 Z M386 8 Q461 8 524 44.5 Q587 81 623.5 144.5 Q660 208 660 284 Q660 359 623.5 422 Q587 485 524 521.5 Q461 558 386 558 Q311 558 248.5 521.5 Q186 485 150 422 Q114 359 114 284 Q114 208 150 144.5 Q186 81 248.5 44.5 Q311 8 386 8 Z " />
<glyph glyph-name="c" unicode="c" horiz-adv-x="529" d="M342 -10 Q261 -10 194 28.5 Q127 67 88.5 134 Q50 201 50 282 Q50 363 88.5 430.5 Q127 498 194 537 Q261 576 342 576 Q424 576 492 536 L492 514 Q459 535 421 546.5 Q383 558 342 558 Q267 558 204.5 521.5 Q142 485 106 421.5 Q70 358 70 282 Q70 207 106 144 Q142 81 204.5 44.5 Q267 8 342 8 Q383 8 421 19.5 Q459 31 492 52 L492 29 Q423 -10 342 -10 Z " />
<glyph glyph-name="cacute" unicode="&#x107;" horiz-adv-x="529" d="M342 -10 Q261 -10 194 28.5 Q127 67 88.5 134 Q50 201 50 282 Q50 363 88.5 430.5 Q127 498 194 537 Q261 576 342 576 Q424 576 492 536 L492 514 Q459 535 421 546.5 Q383 558 342 558 Q267 558 204.5 521.5 Q142 485 106 421.5 Q70 358 70 282 Q70 207 106 144 Q142 81 204.5 44.5 Q267 8 342 8 Q383 8 421 19.5 Q459 31 492 52 L492 29 Q423 -10 342 -10 Z M294 636 L374 756 L395 756 L395 752 L311 636 L294 636 Z " />
<glyph glyph-name="ccaron" unicode="&#x10d;" horiz-adv-x="529" d="M342 -10 Q261 -10 194 28.5 Q127 67 88.5 134 Q50 201 50 282 Q50 363 88.5 430.5 Q127 498 194 537 Q261 576 342 576 Q424 576 492 536 L492 514 Q459 535 421 546.5 Q383 558 342 558 Q267 558 204.5 521.5 Q142 485 106 421.5 Q70 358 70 282 Q70 207 106 144 Q142 81 204.5 44.5 Q267 8 342 8 Q383 8 421 19.5 Q459 31 492 52 L492 29 Q423 -10 342 -10 Z M304 636 L195 756 L217 756 L315 648 L413 756 L435 756 L326 636 L304 636 Z " />
<glyph glyph-name="ccedilla" unicode="&#xe7;" horiz-adv-x="529" d="M342 -10 Q261 -10 194 28.5 Q127 67 88.5 134 Q50 201 50 282 Q50 363 88.5 430.5 Q127 498 194 537 Q261 576 342 576 Q424 576 492 536 L492 514 Q459 535 421 546.5 Q383 558 342 558 Q267 558 204.5 521.5 Q142 485 106 421.5 Q70 358 70 282 Q70 207 106 144 Q142 81 204.5 44.5 Q267 8 342 8 Q383 8 421 19.5 Q459 31 492 52 L492 29 Q423 -10 342 -10 Z M217 -187 Q292 -196 330.5 -184 Q369 -172 369 -140 Q369 -88 281 -95 L307 0 L323 0 L301 -79 Q335 -77 361 -93.5 Q387 -110 387 -140 Q387 -179 342 -196 Q297 -213 213 -202 L217 -187 Z " />
<glyph glyph-name="ccircumflex" unicode="&#x109;" horiz-adv-x="529" d="M342 -10 Q261 -10 194 28.5 Q127 67 88.5 134 Q50 201 50 282 Q50 363 88.5 430.5 Q127 498 194 537 Q261 576 342 576 Q424 576 492 536 L492 514 Q459 535 421 546.5 Q383 558 342 558 Q267 558 204.5 521.5 Q142 485 106 421.5 Q70 358 70 282 Q70 207 106 144 Q142 81 204.5 44.5 Q267 8 342 8 Q383 8 421 19.5 Q459 31 492 52 L492 29 Q423 -10 342 -10 Z M195 636 L304 756 L326 756 L435 636 L413 636 L315 744 L217 636 L195 636 Z " />
<glyph glyph-name="cdotaccent" unicode="&#x10b;" horiz-adv-x="529" d="M342 -10 Q261 -10 194 28.5 Q127 67 88.5 134 Q50 201 50 282 Q50 363 88.5 430.5 Q127 498 194 537 Q261 576 342 576 Q424 576 492 536 L492 514 Q459 535 421 546.5 Q383 558 342 558 Q267 558 204.5 521.5 Q142 485 106 421.5 Q70 358 70 282 Q70 207 106 144 Q142 81 204.5 44.5 Q267 8 342 8 Q383 8 421 19.5 Q459 31 492 52 L492 29 Q423 -10 342 -10 Z M315 646 Q302 646 293.5 654.5 Q285 663 285 676 Q285 689 293.5 697.5 Q302 706 315 706 Q328 706 336.5 697.5 Q345 689 345 676 Q345 663 336.5 654.5 Q328 646 315 646 Z " />
<glyph glyph-name="d" unicode="d" horiz-adv-x="730" d="M344 -10 Q263 -10 195.5 29 Q128 68 89 135.5 Q50 203 50 284 Q50 365 89 432 Q128 499 195.5 537.5 Q263 576 344 576 Q438 576 512 524 Q586 472 616 388 L616 800 L636 800 L636 0 L616 0 L616 180 Q586 95 512 42.5 Q438 -10 344 -10 Z M344 8 Q419 8 481.5 44.5 Q544 81 580 144.5 Q616 208 616 284 Q616 359 580 422 Q544 485 481.5 521.5 Q419 558 344 558 Q269 558 206 521.5 Q143 485 106.5 422 Q70 359 70 284 Q70 208 106.5 144.5 Q143 81 206 44.5 Q269 8 344 8 Z " />
<glyph glyph-name="eth" unicode="&#xf0;" horiz-adv-x="646" d="M324 -10 Q249 -10 186.5 25.5 Q124 61 87.5 121.5 Q51 182 51 255 Q51 328 87.5 388.5 Q124 449 186.5 484.5 Q249 520 324 520 Q427 520 501 458 L504 438 L251 800 L266 810 L543 415 Q567 381 582 338.5 Q597 296 597 255 Q597 182 560.5 121.5 Q524 61 461.5 25.5 Q399 -10 324 -10 Z M324 8 Q394 8 452 41 Q510 74 543.5 130.5 Q577 187 577 255 Q577 323 543 379.5 Q509 436 451 469 Q393 502 324 502 Q254 502 196 469 Q138 436 104.5 379.5 Q71 323 71 255 Q71 187 104.5 130.5 Q138 74 196 41 Q254 8 324 8 Z M210 574 L210 596 L483 764 L483 742 L210 574 Z " />
<glyph glyph-name="dcaron" unicode="&#x10f;" horiz-adv-x="730" d="M344 -10 Q263 -10 195.5 29 Q128 68 89 135.5 Q50 203 50 284 Q50 365 89 432 Q128 499 195.5 537.5 Q263 576 344 576 Q438 576 512 524 Q586 472 616 388 L616 800 L636 800 L636 0 L616 0 L616 180 Q586 95 512 42.5 Q438 -10 344 -10 Z M344 8 Q419 8 481.5 44.5 Q544 81 580 144.5 Q616 208 616 284 Q616 359 580 422 Q544 485 481.5 521.5 Q419 558 344 558 Q269 558 206 521.5 Q143 485 106.5 422 Q70 359 70 284 Q70 208 106.5 144.5 Q143 81 206 44.5 Q269 8 344 8 Z M718 630 L728 800 L748 800 L734 630 L718 630 Z " />
<glyph glyph-name="dslash" unicode="&#x111;" horiz-adv-x="730" d="M370 699 L700 699 L700 681 L370 681 L370 699 Z M344 -10 Q263 -10 195.5 29 Q128 68 89 135.5 Q50 203 50 284 Q50 365 89 432 Q128 499 195.5 537.5 Q263 576 344 576 Q438 576 512 524 Q586 472 616 388 L616 800 L636 800 L636 0 L616 0 L616 180 Q586 95 512 42.5 Q438 -10 344 -10 Z M344 8 Q419 8 481.5 44.5 Q544 81 580 144.5 Q616 208 616 284 Q616 359 580 422 Q544 485 481.5 521.5 Q419 558 344 558 Q269 558 206 521.5 Q143 485 106.5 422 Q70 359 70 284 Q70 208 106.5 144.5 Q143 81 206 44.5 Q269 8 344 8 Z " />
<glyph glyph-name="e" unicode="e" horiz-adv-x="659" d="M332 -10 Q254 -10 189.5 28.5 Q125 67 87.5 134 Q50 201 50 282 Q50 363 87.5 430.5 Q125 498 189.5 537 Q254 576 332 576 Q410 576 474.5 537 Q539 498 576.5 430.5 Q614 363 614 282 Q614 281 614 279.5 Q614 278 614 277 L70 277 Q71 203 106.5 141 Q142 79 201.5 43.5 Q261 8 332 8 Q398 8 454.5 39 Q511 70 547 123 L570 123 Q533 62 470 26 Q407 -10 332 -10 Z M594 295 Q591 368 555.5 428.5 Q520 489 461 523.5 Q402 558 332 558 Q262 558 203 523.5 Q144 489 108.5 428.5 Q73 368 70 295 L594 295 Z " />
<glyph glyph-name="eacute" unicode="&#xe9;" horiz-adv-x="659" d="M332 -10 Q254 -10 189.5 28.5 Q125 67 87.5 134 Q50 201 50 282 Q50 363 87.5 430.5 Q125 498 189.5 537 Q254 576 332 576 Q410 576 474.5 537 Q539 498 576.5 430.5 Q614 363 614 282 Q614 281 614 279.5 Q614 278 614 277 L70 277 Q71 203 106.5 141 Q142 79 201.5 43.5 Q261 8 332 8 Q398 8 454.5 39 Q511 70 547 123 L570 123 Q533 62 470 26 Q407 -10 332 -10 Z M594 295 Q591 368 555.5 428.5 Q520 489 461 523.5 Q402 558 332 558 Q262 558 203 523.5 Q144 489 108.5 428.5 Q73 368 70 295 L594 295 Z M311 636 L391 756 L412 756 L412 752 L328 636 L311 636 Z " />
<glyph glyph-name="ebreve" unicode="&#x115;" horiz-adv-x="659" d="M332 -10 Q254 -10 189.5 28.5 Q125 67 87.5 134 Q50 201 50 282 Q50 363 87.5 430.5 Q125 498 189.5 537 Q254 576 332 576 Q410 576 474.5 537 Q539 498 576.5 430.5 Q614 363 614 282 Q614 281 614 279.5 Q614 278 614 277 L70 277 Q71 203 106.5 141 Q142 79 201.5 43.5 Q261 8 332 8 Q398 8 454.5 39 Q511 70 547 123 L570 123 Q533 62 470 26 Q407 -10 332 -10 Z M594 295 Q591 368 555.5 428.5 Q520 489 461 523.5 Q402 558 332 558 Q262 558 203 523.5 Q144 489 108.5 428.5 Q73 368 70 295 L594 295 Z M332 638 Q280 638 246 667.5 Q212 697 212 743 L230 743 Q230 704 259 679 Q288 654 332 654 Q376 654 405 679 Q434 704 434 743 L452 743 Q452 697 418 667.5 Q384 638 332 638 Z " />
<glyph glyph-name="ecaron" unicode="&#x11b;" horiz-adv-x="659" d="M332 -10 Q254 -10 189.5 28.5 Q125 67 87.5 134 Q50 201 50 282 Q50 363 87.5 430.5 Q125 498 189.5 537 Q254 576 332 576 Q410 576 474.5 537 Q539 498 576.5 430.5 Q614 363 614 282 Q614 281 614 279.5 Q614 278 614 277 L70 277 Q71 203 106.5 141 Q142 79 201.5 43.5 Q261 8 332 8 Q398 8 454.5 39 Q511 70 547 123 L570 123 Q533 62 470 26 Q407 -10 332 -10 Z M594 295 Q591 368 555.5 428.5 Q520 489 461 523.5 Q402 558 332 558 Q262 558 203 523.5 Q144 489 108.5 428.5 Q73 368 70 295 L594 295 Z M321 636 L212 756 L234 756 L332 648 L430 756 L452 756 L343 636 L321 636 Z " />
<glyph glyph-name="ecircumflex" unicode="&#xea;" horiz-adv-x="659" d="M332 -10 Q254 -10 189.5 28.5 Q125 67 87.5 134 Q50 201 50 282 Q50 363 87.5 430.5 Q125 498 189.5 537 Q254 576 332 576 Q410 576 474.5 537 Q539 498 576.5 430.5 Q614 363 614 282 Q614 281 614 279.5 Q614 278 614 277 L70 277 Q71 203 106.5 141 Q142 79 201.5 43.5 Q261 8 332 8 Q398 8 454.5 39 Q511 70 547 123 L570 123 Q533 62 470 26 Q407 -10 332 -10 Z M594 295 Q591 368 555.5 428.5 Q520 489 461 523.5 Q402 558 332 558 Q262 558 203 523.5 Q144 489 108.5 428.5 Q73 368 70 295 L594 295 Z M212 636 L321 756 L343 756 L452 636 L430 636 L332 744 L234 636 L212 636 Z " />
<glyph glyph-name="edieresis" unicode="&#xeb;" horiz-adv-x="659" d="M332 -10 Q254 -10 189.5 28.5 Q125 67 87.5 134 Q50 201 50 282 Q50 363 87.5 430.5 Q125 498 189.5 537 Q254 576 332 576 Q410 576 474.5 537 Q539 498 576.5 430.5 Q614 363 614 282 Q614 281 614 279.5 Q614 278 614 277 L70 277 Q71 203 106.5 141 Q142 79 201.5 43.5 Q261 8 332 8 Q398 8 454.5 39 Q511 70 547 123 L570 123 Q533 62 470 26 Q407 -10 332 -10 Z M594 295 Q591 368 555.5 428.5 Q520 489 461 523.5 Q402 558 332 558 Q262 558 203 523.5 Q144 489 108.5 428.5 Q73 368 70 295 L594 295 Z M409 646 Q401 646 395 652 Q389 658 389 666 Q389 674 395 680 Q401 686 409 686 Q417 686 423 680 Q429 674 429 666 Q429 658 423 652 Q417 646 409 646 Z M254 646 Q246 646 240 652 Q234 658 234 666 Q234 674 240 680 Q246 686 254 686 Q262 686 268 680 Q274 674 274 666 Q274 658 268 652 Q262 646 254 646 Z " />
<glyph glyph-name="edotaccent" unicode="&#x117;" horiz-adv-x="659" d="M332 -10 Q254 -10 189.5 28.5 Q125 67 87.5 134 Q50 201 50 282 Q50 363 87.5 430.5 Q125 498 189.5 537 Q254 576 332 576 Q410 576 474.5 537 Q539 498 576.5 430.5 Q614 363 614 282 Q614 281 614 279.5 Q614 278 614 277 L70 277 Q71 203 106.5 141 Q142 79 201.5 43.5 Q261 8 332 8 Q398 8 454.5 39 Q511 70 547 123 L570 123 Q533 62 470 26 Q407 -10 332 -10 Z M594 295 Q591 368 555.5 428.5 Q520 489 461 523.5 Q402 558 332 558 Q262 558 203 523.5 Q144 489 108.5 428.5 Q73 368 70 295 L594 295 Z M332 646 Q319 646 310.5 654.5 Q302 663 302 676 Q302 689 310.5 697.5 Q319 706 332 706 Q345 706 353.5 697.5 Q362 689 362 676 Q362 663 353.5 654.5 Q345 646 332 646 Z " />
<glyph glyph-name="uni1EB9" unicode="&#x1eb9;" horiz-adv-x="659" d="M332 -10 Q254 -10 189.5 28.5 Q125 67 87.5 134 Q50 201 50 282 Q50 363 87.5 430.5 Q125 498 189.5 537 Q254 576 332 576 Q410 576 474.5 537 Q539 498 576.5 430.5 Q614 363 614 282 Q614 281 614 279.5 Q614 278 614 277 L70 277 Q71 203 106.5 141 Q142 79 201.5 43.5 Q261 8 332 8 Q398 8 454.5 39 Q511 70 547 123 L570 123 Q533 62 470 26 Q407 -10 332 -10 Z M594 295 Q591 368 555.5 428.5 Q520 489 461 523.5 Q402 558 332 558 Q262 558 203 523.5 Q144 489 108.5 428.5 Q73 368 70 295 L594 295 Z M332 -130 Q319 -130 310.5 -121.5 Q302 -113 302 -100 Q302 -87 310.5 -78.5 Q319 -70 332 -70 Q345 -70 353.5 -78.5 Q362 -87 362 -100 Q362 -113 353.5 -121.5 Q345 -130 332 -130 Z " />
<glyph glyph-name="egrave" unicode="&#xe8;" horiz-adv-x="659" d="M332 -10 Q254 -10 189.5 28.5 Q125 67 87.5 134 Q50 201 50 282 Q50 363 87.5 430.5 Q125 498 189.5 537 Q254 576 332 576 Q410 576 474.5 537 Q539 498 576.5 430.5 Q614 363 614 282 Q614 281 614 279.5 Q614 278 614 277 L70 277 Q71 203 106.5 141 Q142 79 201.5 43.5 Q261 8 332 8 Q398 8 454.5 39 Q511 70 547 123 L570 123 Q533 62 470 26 Q407 -10 332 -10 Z M594 295 Q591 368 555.5 428.5 Q520 489 461 523.5 Q402 558 332 558 Q262 558 203 523.5 Q144 489 108.5 428.5 Q73 368 70 295 L594 295 Z M352 636 L335 636 L251 752 L251 756 L272 756 L352 636 Z " />
<glyph glyph-name="emacron" unicode="&#x113;" horiz-adv-x="659" d="M332 -10 Q254 -10 189.5 28.5 Q125 67 87.5 134 Q50 201 50 282 Q50 363 87.5 430.5 Q125 498 189.5 537 Q254 576 332 576 Q410 576 474.5 537 Q539 498 576.5 430.5 Q614 363 614 282 Q614 281 614 279.5 Q614 278 614 277 L70 277 Q71 203 106.5 141 Q142 79 201.5 43.5 Q261 8 332 8 Q398 8 454.5 39 Q511 70 547 123 L570 123 Q533 62 470 26 Q407 -10 332 -10 Z M594 295 Q591 368 555.5 428.5 Q520 489 461 523.5 Q402 558 332 558 Q262 558 203 523.5 Q144 489 108.5 428.5 Q73 368 70 295 L594 295 Z M212 667 L212 683 L452 683 L452 667 L212 667 Z " />
<glyph glyph-name="eogonek" unicode="&#x119;" horiz-adv-x="659" d="M614 282 Q614 281 614 279.5 Q614 278 614 277 L70 277 Q71 203 106.5 141 Q142 79 201.5 43.5 Q261 8 332 8 Q398 8 454.5 39 Q511 70 547 123 L570 123 Q563 113 556 103 Q549 93 541 83 Q531 70 518 56.5 Q505 43 492 28 Q437 -30 406 -72 Q375 -114 375 -147 Q375 -169 390 -181.5 Q405 -194 429 -194 Q453 -194 474 -186 L474 -202 Q456 -210 429 -210 Q396 -210 376.5 -193 Q357 -176 357 -147 Q357 -119 382.5 -78.5 Q408 -38 469 25 Q438 8 404 -1 Q387 -6 369 -8 Q351 -10 332 -10 Q254 -10 189.5 28.5 Q125 67 87.5 134 Q50 201 50 282 Q50 363 87.5 430.5 Q125 498 189.5 537 Q254 576 332 576 Q410 576 474.5 537 Q539 498 576.5 430.5 Q614 363 614 282 Z M594 295 Q591 368 555.5 428.5 Q520 489 461 523.5 Q402 558 332 558 Q262 558 203 523.5 Q144 489 108.5 428.5 Q73 368 70 295 L594 295 Z " />
<glyph glyph-name="uni1EBD" unicode="&#x1ebd;" horiz-adv-x="659" d="M332 -10 Q254 -10 189.5 28.5 Q125 67 87.5 134 Q50 201 50 282 Q50 363 87.5 430.5 Q125 498 189.5 537 Q254 576 332 576 Q410 576 474.5 537 Q539 498 576.5 430.5 Q614 363 614 282 Q614 281 614 279.5 Q614 278 614 277 L70 277 Q71 203 106.5 141 Q142 79 201.5 43.5 Q261 8 332 8 Q398 8 454.5 39 Q511 70 547 123 L570 123 Q533 62 470 26 Q407 -10 332 -10 Z M594 295 Q591 368 555.5 428.5 Q520 489 461 523.5 Q402 558 332 558 Q262 558 203 523.5 Q144 489 108.5 428.5 Q73 368 70 295 L594 295 Z M415 651 Q393 651 373 656.5 Q353 662 322 674 Q295 684 279 689 Q263 694 246 694 Q225 694 207 685.5 Q189 677 166 654 L161 669 Q182 692 202.5 701.5 Q223 711 248 711 Q268 711 285.5 705.5 Q303 700 328 690 L331 689 Q359 678 378.5 672.5 Q398 667 419 667 Q466 667 497 708 L502 693 Q488 674 465.5 662.5 Q443 651 415 651 Z " />
<glyph glyph-name="uni0259" unicode="&#x259;" horiz-adv-x="659" d="M327 576 Q405 576 469.5 537.5 Q534 499 571.5 432 Q609 365 609 284 Q609 203 571.5 135.5 Q534 68 469.5 29 Q405 -10 327 -10 Q249 -10 184.5 29 Q120 68 82.5 135.5 Q45 203 45 284 Q45 285 45 286.5 Q45 288 45 289 L589 289 Q588 363 552.5 425 Q517 487 457.5 522.5 Q398 558 327 558 Q261 558 204.5 527 Q148 496 112 443 L89 443 Q126 504 189 540 Q252 576 327 576 Z M65 271 Q68 198 103.5 137.5 Q139 77 198 42.5 Q257 8 327 8 Q397 8 456 42.5 Q515 77 550.5 137.5 Q586 198 589 271 L65 271 Z " />
<glyph glyph-name="f" unicode="f" horiz-adv-x="323" d="M120 0 L120 548 L14 548 L14 566 L126 566 L120 558 L120 639 Q120 692 137.5 730.5 Q155 769 188 789.5 Q221 810 267 810 Q300 810 330 798 L330 780 Q299 792 267 792 Q214 792 183 762 Q140 722 140 639 L140 559 L135 566 L325 566 L325 548 L140 548 L140 0 L120 0 Z " />
<glyph glyph-name="g" unicode="g" horiz-adv-x="731" d="M341 -210 Q278 -210 233.5 -199.5 Q189 -189 148 -165 Q109 -142 85.5 -106.5 Q62 -71 58 -29 L78 -29 Q81 -64 102 -95.5 Q123 -127 157 -148 Q196 -172 239.5 -182 Q283 -192 341 -192 Q461 -192 531 -135 Q617 -68 617 68 L617 188 Q587 104 513 52 Q439 0 345 0 Q264 0 196.5 38 Q129 76 90 142 Q51 208 51 287 Q51 367 90 433 Q129 499 196.5 537.5 Q264 576 345 576 Q439 576 513 523.5 Q587 471 617 386 L617 566 L637 566 L637 68 Q637 -5 613 -59 Q589 -113 545 -149 Q466 -210 341 -210 Z M345 18 Q419 18 481.5 55 Q544 92 580.5 153 Q617 214 617 282 Q617 358 581 421.5 Q545 485 482.5 521.5 Q420 558 345 558 Q270 558 207 522 Q144 486 107.5 424 Q71 362 71 287 Q71 213 107.5 151 Q144 89 207 53.5 Q270 18 345 18 Z " />
<glyph glyph-name="gbreve" unicode="&#x11f;" horiz-adv-x="731" d="M341 -210 Q278 -210 233.5 -199.5 Q189 -189 148 -165 Q109 -142 85.5 -106.5 Q62 -71 58 -29 L78 -29 Q81 -64 102 -95.5 Q123 -127 157 -148 Q196 -172 239.5 -182 Q283 -192 341 -192 Q461 -192 531 -135 Q617 -68 617 68 L617 188 Q587 104 513 52 Q439 0 345 0 Q264 0 196.5 38 Q129 76 90 142 Q51 208 51 287 Q51 367 90 433 Q129 499 196.5 537.5 Q264 576 345 576 Q439 576 513 523.5 Q587 471 617 386 L617 566 L637 566 L637 68 Q637 -5 613 -59 Q589 -113 545 -149 Q466 -210 341 -210 Z M345 18 Q419 18 481.5 55 Q544 92 580.5 153 Q617 214 617 282 Q617 358 581 421.5 Q545 485 482.5 521.5 Q420 558 345 558 Q270 558 207 522 Q144 486 107.5 424 Q71 362 71 287 Q71 213 107.5 151 Q144 89 207 53.5 Q270 18 345 18 Z M345 638 Q293 638 259 667.5 Q225 697 225 743 L243 743 Q243 704 272 679 Q301 654 345 654 Q389 654 418 679 Q447 704 447 743 L465 743 Q465 697 431 667.5 Q397 638 345 638 Z " />
<glyph glyph-name="gcaron" unicode="&#x1e7;" horiz-adv-x="731" d="M341 -210 Q278 -210 233.5 -199.5 Q189 -189 148 -165 Q109 -142 85.5 -106.5 Q62 -71 58 -29 L78 -29 Q81 -64 102 -95.5 Q123 -127 157 -148 Q196 -172 239.5 -182 Q283 -192 341 -192 Q461 -192 531 -135 Q617 -68 617 68 L617 188 Q587 104 513 52 Q439 0 345 0 Q264 0 196.5 38 Q129 76 90 142 Q51 208 51 287 Q51 367 90 433 Q129 499 196.5 537.5 Q264 576 345 576 Q439 576 513 523.5 Q587 471 617 386 L617 566 L637 566 L637 68 Q637 -5 613 -59 Q589 -113 545 -149 Q466 -210 341 -210 Z M345 18 Q419 18 481.5 55 Q544 92 580.5 153 Q617 214 617 282 Q617 358 581 421.5 Q545 485 482.5 521.5 Q420 558 345 558 Q270 558 207 522 Q144 486 107.5 424 Q71 362 71 287 Q71 213 107.5 151 Q144 89 207 53.5 Q270 18 345 18 Z M334 636 L225 756 L247 756 L345 648 L443 756 L465 756 L356 636 L334 636 Z " />
<glyph glyph-name="gcircumflex" unicode="&#x11d;" horiz-adv-x="731" d="M341 -210 Q278 -210 233.5 -199.5 Q189 -189 148 -165 Q109 -142 85.5 -106.5 Q62 -71 58 -29 L78 -29 Q81 -64 102 -95.5 Q123 -127 157 -148 Q196 -172 239.5 -182 Q283 -192 341 -192 Q461 -192 531 -135 Q617 -68 617 68 L617 188 Q587 104 513 52 Q439 0 345 0 Q264 0 196.5 38 Q129 76 90 142 Q51 208 51 287 Q51 367 90 433 Q129 499 196.5 537.5 Q264 576 345 576 Q439 576 513 523.5 Q587 471 617 386 L617 566 L637 566 L637 68 Q637 -5 613 -59 Q589 -113 545 -149 Q466 -210 341 -210 Z M345 18 Q419 18 481.5 55 Q544 92 580.5 153 Q617 214 617 282 Q617 358 581 421.5 Q545 485 482.5 521.5 Q420 558 345 558 Q270 558 207 522 Q144 486 107.5 424 Q71 362 71 287 Q71 213 107.5 151 Q144 89 207 53.5 Q270 18 345 18 Z M225 636 L334 756 L356 756 L465 636 L443 636 L345 744 L247 636 L225 636 Z " />
<glyph glyph-name="uni0123" unicode="&#x123;" horiz-adv-x="731" d="M341 -210 Q278 -210 233.5 -199.5 Q189 -189 148 -165 Q109 -142 85.5 -106.5 Q62 -71 58 -29 L78 -29 Q81 -64 102 -95.5 Q123 -127 157 -148 Q196 -172 239.5 -182 Q283 -192 341 -192 Q461 -192 531 -135 Q617 -68 617 68 L617 188 Q587 104 513 52 Q439 0 345 0 Q264 0 196.5 38 Q129 76 90 142 Q51 208 51 287 Q51 367 90 433 Q129 499 196.5 537.5 Q264 576 345 576 Q439 576 513 523.5 Q587 471 617 386 L617 566 L637 566 L637 68 Q637 -5 613 -59 Q589 -113 545 -149 Q466 -210 341 -210 Z M345 18 Q419 18 481.5 55 Q544 92 580.5 153 Q617 214 617 282 Q617 358 581 421.5 Q545 485 482.5 521.5 Q420 558 345 558 Q270 558 207 522 Q144 486 107.5 424 Q71 362 71 287 Q71 213 107.5 151 Q144 89 207 53.5 Q270 18 345 18 Z M334 636 L351 799 L370 799 L356 636 L334 636 Z " />
<glyph glyph-name="gdotaccent" unicode="&#x121;" horiz-adv-x="731" d="M341 -210 Q278 -210 233.5 -199.5 Q189 -189 148 -165 Q109 -142 85.5 -106.5 Q62 -71 58 -29 L78 -29 Q81 -64 102 -95.5 Q123 -127 157 -148 Q196 -172 239.5 -182 Q283 -192 341 -192 Q461 -192 531 -135 Q617 -68 617 68 L617 188 Q587 104 513 52 Q439 0 345 0 Q264 0 196.5 38 Q129 76 90 142 Q51 208 51 287 Q51 367 90 433 Q129 499 196.5 537.5 Q264 576 345 576 Q439 576 513 523.5 Q587 471 617 386 L617 566 L637 566 L637 68 Q637 -5 613 -59 Q589 -113 545 -149 Q466 -210 341 -210 Z M345 18 Q419 18 481.5 55 Q544 92 580.5 153 Q617 214 617 282 Q617 358 581 421.5 Q545 485 482.5 521.5 Q420 558 345 558 Q270 558 207 522 Q144 486 107.5 424 Q71 362 71 287 Q71 213 107.5 151 Q144 89 207 53.5 Q270 18 345 18 Z M345 646 Q332 646 323.5 654.5 Q315 663 315 676 Q315 689 323.5 697.5 Q332 706 345 706 Q358 706 366.5 697.5 Q375 689 375 676 Q375 663 366.5 654.5 Q358 646 345 646 Z " />
<glyph glyph-name="h" unicode="h" horiz-adv-x="644" d="M94 0 L94 800 L114 800 L114 426 Q140 497 199.5 536.5 Q259 576 342 576 Q394 576 435 562 Q476 548 504 521 Q530 495 544 457 Q558 419 558 372 L558 0 L538 0 L538 372 Q538 460 485.5 509 Q433 558 340 558 Q274 558 222.5 528 Q171 498 142.5 444.5 Q114 391 114 321 L114 0 L94 0 Z " />
<glyph glyph-name="hbar" unicode="&#x127;" horiz-adv-x="644" d="M504 521 Q530 495 544 457 Q558 419 558 372 L558 0 L538 0 L538 372 Q538 460 485.5 509 Q433 558 340 558 Q274 558 222.5 528 Q171 498 142.5 444.5 Q114 391 114 321 L114 0 L94 0 L94 682 L14 682 L14 699 L94 699 L94 800 L114 800 L114 699 L294 699 L294 682 L114 682 L114 426 Q140 497 199.5 536.5 Q259 576 342 576 Q394 576 435 562 Q476 548 504 521 Z " />
<glyph glyph-name="hcircumflex" unicode="&#x125;" horiz-adv-x="644" d="M94 0 L94 800 L114 800 L114 426 Q140 497 199.5 536.5 Q259 576 342 576 Q394 576 435 562 Q476 548 504 521 Q530 495 544 457 Q558 419 558 372 L558 0 L538 0 L538 372 Q538 460 485.5 509 Q433 558 340 558 Q274 558 222.5 528 Q171 498 142.5 444.5 Q114 391 114 321 L114 0 L94 0 Z M202 870 L311 990 L333 990 L442 870 L420 870 L322 978 L224 870 L202 870 Z " />
<glyph glyph-name="i" unicode="i" horiz-adv-x="208" d="M94 0 L94 566 L114 566 L114 0 L94 0 Z M103 720 Q94 720 87.5 726.5 Q81 733 81 743 Q81 753 87.5 760 Q94 767 103 767 Q113 767 119.5 760 Q126 753 126 743 Q126 733 119.5 726.5 Q113 720 103 720 Z " />
<glyph glyph-name="dotlessi" unicode="&#x131;" horiz-adv-x="209" d="M94 0 L94 566 L114 566 L114 0 L94 0 Z " />
<glyph glyph-name="iacute" unicode="&#xed;" horiz-adv-x="209" d="M94 0 L94 566 L114 566 L114 0 L94 0 Z M83 636 L163 756 L184 756 L184 752 L100 636 L83 636 Z " />
<glyph glyph-name="ibreve" unicode="&#x12d;" horiz-adv-x="209" d="M94 0 L94 566 L114 566 L114 0 L94 0 Z M104 638 Q52 638 18 667.5 Q-16 697 -16 743 L2 743 Q2 704 31 679 Q60 654 104 654 Q148 654 177 679 Q206 704 206 743 L224 743 Q224 697 190 667.5 Q156 638 104 638 Z " />
<glyph glyph-name="uni01D0" unicode="&#x1d0;" horiz-adv-x="209" d="M94 0 L94 566 L114 566 L114 0 L94 0 Z M93 636 L-16 756 L6 756 L104 648 L202 756 L224 756 L115 636 L93 636 Z " />
<glyph glyph-name="icircumflex" unicode="&#xee;" horiz-adv-x="209" d="M94 0 L94 566 L114 566 L114 0 L94 0 Z M-16 636 L93 756 L115 756 L224 636 L202 636 L104 744 L6 636 L-16 636 Z " />
<glyph glyph-name="idieresis" unicode="&#xef;" horiz-adv-x="209" d="M94 0 L94 566 L114 566 L114 0 L94 0 Z M181 646 Q173 646 167 652 Q161 658 161 666 Q161 674 167 680 Q173 686 181 686 Q189 686 195 680 Q201 674 201 666 Q201 658 195 652 Q189 646 181 646 Z M26 646 Q18 646 12 652 Q6 658 6 666 Q6 674 12 680 Q18 686 26 686 Q34 686 40 680 Q46 674 46 666 Q46 658 40 652 Q34 646 26 646 Z " />
<glyph glyph-name="uni1ECB" unicode="&#x1ecb;" horiz-adv-x="208" d="M94 0 L94 566 L114 566 L114 0 L94 0 Z M103 720 Q94 720 87.5 726.5 Q81 733 81 743 Q81 753 87.5 760 Q94 767 103 767 Q113 767 119.5 760 Q126 753 126 743 Q126 733 119.5 726.5 Q113 720 103 720 Z M80 -130 Q67 -130 58.5 -121.5 Q50 -113 50 -100 Q50 -87 58.5 -78.5 Q67 -70 80 -70 Q93 -70 101.5 -78.5 Q110 -87 110 -100 Q110 -113 101.5 -121.5 Q93 -130 80 -130 Z " />
<glyph glyph-name="igrave" unicode="&#xec;" horiz-adv-x="209" d="M94 0 L94 566 L114 566 L114 0 L94 0 Z M124 636 L107 636 L23 752 L23 756 L44 756 L124 636 Z " />
<glyph glyph-name="ij" unicode="&#x133;" horiz-adv-x="416" d="M94 0 L94 566 L114 566 L114 0 L94 0 Z M103 720 Q94 720 87.5 726.5 Q81 733 81 743 Q81 753 87.5 760 Q94 767 103 767 Q113 767 119.5 760 Q126 753 126 743 Q126 733 119.5 726.5 Q113 720 103 720 Z M214 -192 Q256 -192 279 -165 Q302 -138 302 -89 L302 566 L322 566 L322 -89 Q322 -125 309 -151.5 Q296 -178 273 -193 Q250 -208 221 -210 L214 -192 Z M311 720 Q302 720 295.5 726.5 Q289 733 289 743 Q289 753 295.5 760 Q302 767 311 767 Q321 767 327.5 760 Q334 753 334 743 Q334 733 327.5 726.5 Q321 720 311 720 Z " />
<glyph glyph-name="imacron" unicode="&#x12b;" horiz-adv-x="209" d="M94 0 L94 566 L114 566 L114 0 L94 0 Z M-16 667 L-16 683 L224 683 L224 667 L-16 667 Z " />
<glyph glyph-name="iogonek" unicode="&#x12f;" horiz-adv-x="208" d="M94 0 L94 566 L114 566 L114 0 L94 0 Z M103 720 Q94 720 87.5 726.5 Q81 733 81 743 Q81 753 87.5 760 Q94 767 103 767 Q113 767 119.5 760 Q126 753 126 743 Q126 733 119.5 726.5 Q113 720 103 720 Z M71 -200 Q38 -200 18.5 -183 Q-1 -166 -1 -137 Q-1 -73 94 0 L114 0 Q65 -39 41 -73.5 Q17 -108 17 -137 Q17 -159 32 -171.5 Q47 -184 71 -184 Q95 -184 116 -176 L116 -192 Q98 -200 71 -200 Z " />
<glyph glyph-name="itilde" unicode="&#x129;" horiz-adv-x="209" d="M94 0 L94 566 L114 566 L114 0 L94 0 Z M187 651 Q165 651 145 656.5 Q125 662 94 674 Q67 684 51 689 Q35 694 18 694 Q-3 694 -21 685.5 Q-39 677 -62 654 L-67 669 Q-46 692 -25.5 701.5 Q-5 711 20 711 Q40 711 57.5 705.5 Q75 700 100 690 L103 689 Q131 678 150.5 672.5 Q170 667 191 667 Q238 667 269 708 L274 693 Q260 674 237.5 662.5 Q215 651 187 651 Z " />
<glyph glyph-name="j" unicode="j" horiz-adv-x="208" d="M6 -192 Q48 -192 71 -165 Q94 -138 94 -89 L94 566 L114 566 L114 -89 Q114 -125 101 -151.5 Q88 -178 65 -193 Q42 -208 13 -210 L6 -192 Z M103 720 Q94 720 87.5 726.5 Q81 733 81 743 Q81 753 87.5 760 Q94 767 103 767 Q113 767 119.5 760 Q126 753 126 743 Q126 733 119.5 726.5 Q113 720 103 720 Z " />
<glyph glyph-name="uni0237" unicode="&#x237;" horiz-adv-x="199" d="M2 -192 Q44 -192 67 -165 Q90 -138 90 -89 L90 566 L110 566 L110 -89 Q110 -125 97 -151.5 Q84 -178 61 -193 Q38 -208 9 -210 L2 -192 Z " />
<glyph glyph-name="jcircumflex" unicode="&#x135;" horiz-adv-x="199" d="M2 -192 Q44 -192 67 -165 Q90 -138 90 -89 L90 566 L110 566 L110 -89 Q110 -125 97 -151.5 Q84 -178 61 -193 Q38 -208 9 -210 L2 -192 Z M-20 636 L89 756 L111 756 L220 636 L198 636 L100 744 L2 636 L-20 636 Z " />
<glyph glyph-name="k" unicode="k" horiz-adv-x="466" d="M437 0 L114 292 L430 566 L457 566 L142 292 L464 0 L437 0 Z M94 0 L94 800 L114 800 L114 0 L94 0 Z " />
<glyph glyph-name="uni0137" unicode="&#x137;" horiz-adv-x="466" d="M437 0 L114 292 L430 566 L457 566 L142 292 L464 0 L437 0 Z M94 0 L94 800 L114 800 L114 0 L94 0 Z M224 -233 L238 -70 L260 -70 L243 -233 L224 -233 Z " />
<glyph glyph-name="kgreenlandic" unicode="&#x138;" horiz-adv-x="466" d="M437 0 L114 292 L430 566 L457 566 L136 287 L135 299 L464 0 L437 0 Z M94 0 L94 566 L114 566 L114 0 L94 0 Z " />
<glyph glyph-name="l" unicode="l" horiz-adv-x="208" d="M94 0 L94 800 L114 800 L114 0 L94 0 Z " />
<glyph glyph-name="lacute" unicode="&#x13a;" horiz-adv-x="208" d="M94 0 L94 800 L114 800 L114 0 L94 0 Z M83 870 L163 990 L184 990 L184 986 L100 870 L83 870 Z " />
<glyph glyph-name="lcaron" unicode="&#x13e;" horiz-adv-x="208" d="M94 0 L94 800 L114 800 L114 0 L94 0 Z M200 630 L210 800 L230 800 L216 630 L200 630 Z " />
<glyph glyph-name="uni013C" unicode="&#x13c;" horiz-adv-x="208" d="M94 0 L94 800 L114 800 L114 0 L94 0 Z M79 -233 L93 -70 L115 -70 L98 -233 L79 -233 Z " />
<glyph glyph-name="ldot" unicode="&#x140;" horiz-adv-x="246" d="M94 0 L94 800 L114 800 L114 0 L94 0 Z M233 303 Q220 303 211.5 311.5 Q203 320 203 333 Q203 346 211.5 354.5 Q220 363 233 363 Q246 363 254.5 354.5 Q263 346 263 333 Q263 320 254.5 311.5 Q246 303 233 303 Z " />
<glyph glyph-name="lslash" unicode="&#x142;" horiz-adv-x="267" d="M147 381 L233 440 L233 419 L147 360 L147 0 L127 0 L127 346 L33 282 L33 303 L127 367 L127 800 L147 800 L147 381 Z " />
<glyph glyph-name="m" unicode="m" horiz-adv-x="995" d="M94 0 L94 566 L114 566 L114 437 Q137 499 195.5 537.5 Q254 576 326 576 Q396 576 445.5 536 Q495 496 508 430 Q531 496 589 536 Q647 576 722 576 Q776 576 818.5 552 Q861 528 885 485.5 Q909 443 909 389 L909 0 L889 0 L889 389 Q889 438 867.5 476.5 Q846 515 807.5 536.5 Q769 558 721 558 Q664 558 616.5 531 Q569 504 540.5 455 Q512 406 512 343 L512 0 L492 0 L492 389 Q492 438 470.5 476.5 Q449 515 410.5 536.5 Q372 558 324 558 Q268 558 219.5 529.5 Q171 501 142.5 451 Q114 401 114 338 L114 0 L94 0 Z " />
<glyph glyph-name="n" unicode="n" horiz-adv-x="644" d="M94 0 L94 566 L114 566 L114 426 Q140 497 199.5 536.5 Q259 576 342 576 Q394 576 435 562 Q476 548 504 521 Q530 495 544 457 Q558 419 558 372 L558 0 L538 0 L538 372 Q538 460 485.5 509 Q433 558 340 558 Q274 558 222.5 528 Q171 498 142.5 444.5 Q114 391 114 321 L114 0 L94 0 Z " />
<glyph glyph-name="nacute" unicode="&#x144;" horiz-adv-x="644" d="M94 0 L94 566 L114 566 L114 426 Q140 497 199.5 536.5 Q259 576 342 576 Q394 576 435 562 Q476 548 504 521 Q530 495 544 457 Q558 419 558 372 L558 0 L538 0 L538 372 Q538 460 485.5 509 Q433 558 340 558 Q274 558 222.5 528 Q171 498 142.5 444.5 Q114 391 114 321 L114 0 L94 0 Z M301 636 L381 756 L402 756 L402 752 L318 636 L301 636 Z " />
<glyph glyph-name="napostrophe" unicode="&#x149;" horiz-adv-x="644" d="M94 0 L94 566 L114 566 L114 426 Q140 497 199.5 536.5 Q259 576 342 576 Q394 576 435 562 Q476 548 504 521 Q530 495 544 457 Q558 419 558 372 L558 0 L538 0 L538 372 Q538 460 485.5 509 Q433 558 340 558 Q274 558 222.5 528 Q171 498 142.5 444.5 Q114 391 114 321 L114 0 L94 0 Z M-8 610 L2 780 L22 780 L8 610 L-8 610 Z " />
<glyph glyph-name="ncaron" unicode="&#x148;" horiz-adv-x="644" d="M94 0 L94 566 L114 566 L114 426 Q140 497 199.5 536.5 Q259 576 342 576 Q394 576 435 562 Q476 548 504 521 Q530 495 544 457 Q558 419 558 372 L558 0 L538 0 L538 372 Q538 460 485.5 509 Q433 558 340 558 Q274 558 222.5 528 Q171 498 142.5 444.5 Q114 391 114 321 L114 0 L94 0 Z M311 636 L202 756 L224 756 L322 648 L420 756 L442 756 L333 636 L311 636 Z " />
<glyph glyph-name="uni0146" unicode="&#x146;" horiz-adv-x="644" d="M94 0 L94 566 L114 566 L114 426 Q140 497 199.5 536.5 Q259 576 342 576 Q394 576 435 562 Q476 548 504 521 Q530 495 544 457 Q558 419 558 372 L558 0 L538 0 L538 372 Q538 460 485.5 509 Q433 558 340 558 Q274 558 222.5 528 Q171 498 142.5 444.5 Q114 391 114 321 L114 0 L94 0 Z M297 -233 L311 -70 L333 -70 L316 -233 L297 -233 Z " />
<glyph glyph-name="eng" unicode="&#x14b;" horiz-adv-x="644" d="M419 -191 Q478 -198 508 -172.5 Q538 -147 538 -89 L538 372 Q538 460 485.5 509 Q433 558 340 558 Q274 558 222.5 528 Q171 498 142.5 444.5 Q114 391 114 321 L114 0 L94 0 L94 566 L114 566 L114 426 Q140 497 199.5 536.5 Q259 576 342 576 Q394 576 435 562 Q476 548 504 521 Q530 495 544 457 Q558 419 558 372 L558 -89 Q558 -146 528.5 -178 Q499 -210 442 -210 Q434 -210 414 -208 L419 -191 Z " />
<glyph glyph-name="uni0272" unicode="&#x272;" horiz-adv-x="640" d="M2 -193 Q44 -193 67 -166 Q90 -139 90 -90 L90 566 L110 566 L110 426 Q136 497 195.5 536.5 Q255 576 338 576 Q390 576 431 562 Q472 548 500 521 Q526 495 540 457 Q554 419 554 372 L554 0 L534 0 L534 372 Q534 460 481.5 509 Q429 558 336 558 Q270 558 218.5 528 Q167 498 138.5 444.5 Q110 391 110 321 L110 -90 Q110 -126 97 -152.5 Q84 -179 61 -194 Q38 -209 9 -211 L2 -193 Z " />
<glyph glyph-name="ntilde" unicode="&#xf1;" horiz-adv-x="644" d="M94 0 L94 566 L114 566 L114 426 Q140 497 199.5 536.5 Q259 576 342 576 Q394 576 435 562 Q476 548 504 521 Q530 495 544 457 Q558 419 558 372 L558 0 L538 0 L538 372 Q538 460 485.5 509 Q433 558 340 558 Q274 558 222.5 528 Q171 498 142.5 444.5 Q114 391 114 321 L114 0 L94 0 Z M405 651 Q383 651 363 656.5 Q343 662 312 674 Q285 684 269 689 Q253 694 236 694 Q215 694 197 685.5 Q179 677 156 654 L151 669 Q172 692 192.5 701.5 Q213 711 238 711 Q258 711 275.5 705.5 Q293 700 318 690 L321 689 Q349 678 368.5 672.5 Q388 667 409 667 Q456 667 487 708 L492 693 Q478 674 455.5 662.5 Q433 651 405 651 Z " />
<glyph glyph-name="o" unicode="o" horiz-adv-x="686" d="M342 -10 Q261 -10 194 28.5 Q127 67 88.5 134 Q50 201 50 282 Q50 363 88.5 430.5 Q127 498 194 537 Q261 576 342 576 Q423 576 490.5 537 Q558 498 597 430.5 Q636 363 636 282 Q636 201 597 134 Q558 67 490.5 28.5 Q423 -10 342 -10 Z M342 8 Q417 8 480 44.5 Q543 81 579.5 144 Q616 207 616 282 Q616 358 579.5 421.5 Q543 485 480 521.5 Q417 558 342 558 Q267 558 204.5 521.5 Q142 485 106 421.5 Q70 358 70 282 Q70 207 106 144 Q142 81 204.5 44.5 Q267 8 342 8 Z " />
<glyph glyph-name="oacute" unicode="&#xf3;" horiz-adv-x="686" d="M342 -10 Q261 -10 194 28.5 Q127 67 88.5 134 Q50 201 50 282 Q50 363 88.5 430.5 Q127 498 194 537 Q261 576 342 576 Q423 576 490.5 537 Q558 498 597 430.5 Q636 363 636 282 Q636 201 597 134 Q558 67 490.5 28.5 Q423 -10 342 -10 Z M342 8 Q417 8 480 44.5 Q543 81 579.5 144 Q616 207 616 282 Q616 358 579.5 421.5 Q543 485 480 521.5 Q417 558 342 558 Q267 558 204.5 521.5 Q142 485 106 421.5 Q70 358 70 282 Q70 207 106 144 Q142 81 204.5 44.5 Q267 8 342 8 Z M321 636 L401 756 L422 756 L422 752 L338 636 L321 636 Z " />
<glyph glyph-name="obreve" unicode="&#x14f;" horiz-adv-x="686" d="M342 -10 Q261 -10 194 28.5 Q127 67 88.5 134 Q50 201 50 282 Q50 363 88.5 430.5 Q127 498 194 537 Q261 576 342 576 Q423 576 490.5 537 Q558 498 597 430.5 Q636 363 636 282 Q636 201 597 134 Q558 67 490.5 28.5 Q423 -10 342 -10 Z M342 8 Q417 8 480 44.5 Q543 81 579.5 144 Q616 207 616 282 Q616 358 579.5 421.5 Q543 485 480 521.5 Q417 558 342 558 Q267 558 204.5 521.5 Q142 485 106 421.5 Q70 358 70 282 Q70 207 106 144 Q142 81 204.5 44.5 Q267 8 342 8 Z M342 638 Q290 638 256 667.5 Q222 697 222 743 L240 743 Q240 704 269 679 Q298 654 342 654 Q386 654 415 679 Q444 704 444 743 L462 743 Q462 697 428 667.5 Q394 638 342 638 Z " />
<glyph glyph-name="ocircumflex" unicode="&#xf4;" horiz-adv-x="686" d="M342 -10 Q261 -10 194 28.5 Q127 67 88.5 134 Q50 201 50 282 Q50 363 88.5 430.5 Q127 498 194 537 Q261 576 342 576 Q423 576 490.5 537 Q558 498 597 430.5 Q636 363 636 282 Q636 201 597 134 Q558 67 490.5 28.5 Q423 -10 342 -10 Z M342 8 Q417 8 480 44.5 Q543 81 579.5 144 Q616 207 616 282 Q616 358 579.5 421.5 Q543 485 480 521.5 Q417 558 342 558 Q267 558 204.5 521.5 Q142 485 106 421.5 Q70 358 70 282 Q70 207 106 144 Q142 81 204.5 44.5 Q267 8 342 8 Z M222 636 L331 756 L353 756 L462 636 L440 636 L342 744 L244 636 L222 636 Z " />
<glyph glyph-name="odieresis" unicode="&#xf6;" horiz-adv-x="686" d="M342 -10 Q261 -10 194 28.5 Q127 67 88.5 134 Q50 201 50 282 Q50 363 88.5 430.5 Q127 498 194 537 Q261 576 342 576 Q423 576 490.5 537 Q558 498 597 430.5 Q636 363 636 282 Q636 201 597 134 Q558 67 490.5 28.5 Q423 -10 342 -10 Z M342 8 Q417 8 480 44.5 Q543 81 579.5 144 Q616 207 616 282 Q616 358 579.5 421.5 Q543 485 480 521.5 Q417 558 342 558 Q267 558 204.5 521.5 Q142 485 106 421.5 Q70 358 70 282 Q70 207 106 144 Q142 81 204.5 44.5 Q267 8 342 8 Z M419 646 Q411 646 405 652 Q399 658 399 666 Q399 674 405 680 Q411 686 419 686 Q427 686 433 680 Q439 674 439 666 Q439 658 433 652 Q427 646 419 646 Z M264 646 Q256 646 250 652 Q244 658 244 666 Q244 674 250 680 Q256 686 264 686 Q272 686 278 680 Q284 674 284 666 Q284 658 278 652 Q272 646 264 646 Z " />
<glyph glyph-name="uni1ECD" unicode="&#x1ecd;" horiz-adv-x="686" d="M342 -10 Q261 -10 194 28.5 Q127 67 88.5 134 Q50 201 50 282 Q50 363 88.5 430.5 Q127 498 194 537 Q261 576 342 576 Q423 576 490.5 537 Q558 498 597 430.5 Q636 363 636 282 Q636 201 597 134 Q558 67 490.5 28.5 Q423 -10 342 -10 Z M342 8 Q417 8 480 44.5 Q543 81 579.5 144 Q616 207 616 282 Q616 358 579.5 421.5 Q543 485 480 521.5 Q417 558 342 558 Q267 558 204.5 521.5 Q142 485 106 421.5 Q70 358 70 282 Q70 207 106 144 Q142 81 204.5 44.5 Q267 8 342 8 Z M342 -130 Q329 -130 320.5 -121.5 Q312 -113 312 -100 Q312 -87 320.5 -78.5 Q329 -70 342 -70 Q355 -70 363.5 -78.5 Q372 -87 372 -100 Q372 -113 363.5 -121.5 Q355 -130 342 -130 Z " />
<glyph glyph-name="ograve" unicode="&#xf2;" horiz-adv-x="686" d="M342 -10 Q261 -10 194 28.5 Q127 67 88.5 134 Q50 201 50 282 Q50 363 88.5 430.5 Q127 498 194 537 Q261 576 342 576 Q423 576 490.5 537 Q558 498 597 430.5 Q636 363 636 282 Q636 201 597 134 Q558 67 490.5 28.5 Q423 -10 342 -10 Z M342 8 Q417 8 480 44.5 Q543 81 579.5 144 Q616 207 616 282 Q616 358 579.5 421.5 Q543 485 480 521.5 Q417 558 342 558 Q267 558 204.5 521.5 Q142 485 106 421.5 Q70 358 70 282 Q70 207 106 144 Q142 81 204.5 44.5 Q267 8 342 8 Z M362 636 L345 636 L261 752 L261 756 L282 756 L362 636 Z " />
<glyph glyph-name="ohungarumlaut" unicode="&#x151;" horiz-adv-x="686" d="M342 -10 Q261 -10 194 28.5 Q127 67 88.5 134 Q50 201 50 282 Q50 363 88.5 430.5 Q127 498 194 537 Q261 576 342 576 Q423 576 490.5 537 Q558 498 597 430.5 Q636 363 636 282 Q636 201 597 134 Q558 67 490.5 28.5 Q423 -10 342 -10 Z M342 8 Q417 8 480 44.5 Q543 81 579.5 144 Q616 207 616 282 Q616 358 579.5 421.5 Q543 485 480 521.5 Q417 558 342 558 Q267 558 204.5 521.5 Q142 485 106 421.5 Q70 358 70 282 Q70 207 106 144 Q142 81 204.5 44.5 Q267 8 342 8 Z M405 636 L476 766 L497 766 L497 762 L423 636 L405 636 Z M261 636 L332 766 L353 766 L353 762 L279 636 L261 636 Z " />
<glyph glyph-name="omacron" unicode="&#x14d;" horiz-adv-x="686" d="M342 -10 Q261 -10 194 28.5 Q127 67 88.5 134 Q50 201 50 282 Q50 363 88.5 430.5 Q127 498 194 537 Q261 576 342 576 Q423 576 490.5 537 Q558 498 597 430.5 Q636 363 636 282 Q636 201 597 134 Q558 67 490.5 28.5 Q423 -10 342 -10 Z M342 8 Q417 8 480 44.5 Q543 81 579.5 144 Q616 207 616 282 Q616 358 579.5 421.5 Q543 485 480 521.5 Q417 558 342 558 Q267 558 204.5 521.5 Q142 485 106 421.5 Q70 358 70 282 Q70 207 106 144 Q142 81 204.5 44.5 Q267 8 342 8 Z M222 667 L222 683 L462 683 L462 667 L222 667 Z " />
<glyph glyph-name="uni01EB" unicode="&#x1eb;" horiz-adv-x="686" d="M448 -210 Q415 -210 395.5 -193 Q376 -176 376 -147 Q376 -119 402.5 -78 Q429 -37 490 28 Q422 -10 342 -10 Q261 -10 194 28.5 Q127 67 88.5 134 Q50 201 50 282 Q50 363 88.5 430.5 Q127 498 194 537 Q261 576 342 576 Q423 576 490.5 537 Q558 498 597 430.5 Q636 363 636 282 Q636 227 617 177.5 Q598 128 564 89 Q545 65 509 27 Q455 -31 424.5 -72.5 Q394 -114 394 -147 Q394 -169 409 -181.5 Q424 -194 448 -194 Q472 -194 493 -186 L493 -202 Q475 -210 448 -210 Z M342 8 Q417 8 480 44.5 Q543 81 579.5 144 Q616 207 616 282 Q616 358 579.5 421.5 Q543 485 480 521.5 Q417 558 342 558 Q267 558 204.5 521.5 Q142 485 106 421.5 Q70 358 70 282 Q70 207 106 144 Q142 81 204.5 44.5 Q267 8 342 8 Z " />
<glyph glyph-name="oslash" unicode="&#xf8;" horiz-adv-x="686" d="M548 493 Q590 453 613 398.5 Q636 344 636 282 Q636 201 597 134 Q558 67 490.5 28.5 Q423 -10 342 -10 Q287 -10 237.5 8.5 Q188 27 149 61 L93 0 L80 11 L137 72 Q96 112 73 166.5 Q50 221 50 282 Q50 363 88.5 430.5 Q127 498 194 537 Q261 576 342 576 Q397 576 446.5 557.5 Q496 539 536 505 L592 566 L605 555 L548 493 Z M70 282 Q70 225 91 174.5 Q112 124 150 87 L523 491 Q486 523 440 540.5 Q394 558 342 558 Q267 558 204.5 521.5 Q142 485 106 421.5 Q70 358 70 282 Z M342 8 Q417 8 480 44.5 Q543 81 579.5 144 Q616 207 616 282 Q616 340 594.5 391 Q573 442 535 479 L162 75 Q199 43 245 25.5 Q291 8 342 8 Z " />
<glyph glyph-name="oslashacute" unicode="&#x1ff;" horiz-adv-x="686" d="M548 493 Q590 453 613 398.5 Q636 344 636 282 Q636 201 597 134 Q558 67 490.5 28.5 Q423 -10 342 -10 Q287 -10 237.5 8.5 Q188 27 149 61 L93 0 L80 11 L137 72 Q96 112 73 166.5 Q50 221 50 282 Q50 363 88.5 430.5 Q127 498 194 537 Q261 576 342 576 Q397 576 446.5 557.5 Q496 539 536 505 L592 566 L605 555 L548 493 Z M70 282 Q70 225 91 174.5 Q112 124 150 87 L523 491 Q486 523 440 540.5 Q394 558 342 558 Q267 558 204.5 521.5 Q142 485 106 421.5 Q70 358 70 282 Z M342 8 Q417 8 480 44.5 Q543 81 579.5 144 Q616 207 616 282 Q616 340 594.5 391 Q573 442 535 479 L162 75 Q199 43 245 25.5 Q291 8 342 8 Z M321 636 L401 756 L422 756 L422 752 L338 636 L321 636 Z " />
<glyph glyph-name="otilde" unicode="&#xf5;" horiz-adv-x="686" d="M342 -10 Q261 -10 194 28.5 Q127 67 88.5 134 Q50 201 50 282 Q50 363 88.5 430.5 Q127 498 194 537 Q261 576 342 576 Q423 576 490.5 537 Q558 498 597 430.5 Q636 363 636 282 Q636 201 597 134 Q558 67 490.5 28.5 Q423 -10 342 -10 Z M342 8 Q417 8 480 44.5 Q543 81 579.5 144 Q616 207 616 282 Q616 358 579.5 421.5 Q543 485 480 521.5 Q417 558 342 558 Q267 558 204.5 521.5 Q142 485 106 421.5 Q70 358 70 282 Q70 207 106 144 Q142 81 204.5 44.5 Q267 8 342 8 Z M425 651 Q403 651 383 656.5 Q363 662 332 674 Q305 684 289 689 Q273 694 256 694 Q235 694 217 685.5 Q199 677 176 654 L171 669 Q192 692 212.5 701.5 Q233 711 258 711 Q278 711 295.5 705.5 Q313 700 338 690 L341 689 Q369 678 388.5 672.5 Q408 667 429 667 Q476 667 507 708 L512 693 Q498 674 475.5 662.5 Q453 651 425 651 Z " />
<glyph glyph-name="oe" unicode="&#x153;" horiz-adv-x="1225" d="M342 -10 Q261 -10 194 28.5 Q127 67 88.5 134 Q50 201 50 282 Q50 363 88.5 430.5 Q127 498 194 537 Q261 576 342 576 Q410 576 468.5 548.5 Q527 521 568 472 Q609 423 626 361 Q642 423 681.5 472 Q721 521 777 548.5 Q833 576 898 576 Q976 576 1040.5 537 Q1105 498 1142.5 430.5 Q1180 363 1180 282 Q1180 278 1180 274.5 Q1180 271 1180 267 L636 267 Q640 195 675.5 135.5 Q711 76 769.5 42 Q828 8 898 8 Q964 8 1020.5 39 Q1077 70 1113 123 L1136 123 Q1099 62 1036 26 Q973 -10 898 -10 Q833 -10 777 17.5 Q721 45 681.5 93.5 Q642 142 626 204 Q609 142 568 93.5 Q527 45 468.5 17.5 Q410 -10 342 -10 Z M342 8 Q417 8 480 44.5 Q543 81 579.5 144 Q616 207 616 282 Q616 358 579.5 421.5 Q543 485 480 521.5 Q417 558 342 558 Q267 558 204.5 521.5 Q142 485 106 421.5 Q70 358 70 282 Q70 207 106 144 Q142 81 204.5 44.5 Q267 8 342 8 Z M1160 285 Q1160 361 1125 423.5 Q1090 486 1030 522 Q970 558 898 558 Q826 558 766 522 Q706 486 671 423.5 Q636 361 636 285 L1160 285 Z " />
<glyph glyph-name="p" unicode="p" horiz-adv-x="730" d="M94 -200 L94 566 L114 566 L114 386 Q144 471 218 523.5 Q292 576 386 576 Q467 576 534.5 537 Q602 498 641 430.5 Q680 363 680 282 Q680 201 641 134 Q602 67 534.5 28.5 Q467 -10 386 -10 Q292 -10 218 42 Q144 94 114 178 L114 -200 L94 -200 Z M386 8 Q461 8 524 44.5 Q587 81 623.5 144 Q660 207 660 282 Q660 358 623.5 421.5 Q587 485 524 521.5 Q461 558 386 558 Q311 558 248.5 521.5 Q186 485 150 421.5 Q114 358 114 282 Q114 207 150 144 Q186 81 248.5 44.5 Q311 8 386 8 Z " />
<glyph glyph-name="thorn" unicode="&#xfe;" horiz-adv-x="730" d="M94 -200 L94 800 L114 800 L114 386 Q144 471 218 523.5 Q292 576 386 576 Q467 576 534.5 537 Q602 498 641 430.5 Q680 363 680 282 Q680 201 641 134 Q602 67 534.5 28.5 Q467 -10 386 -10 Q292 -10 218 42 Q144 94 114 178 L114 -200 L94 -200 Z M386 8 Q461 8 524 44.5 Q587 81 623.5 144 Q660 207 660 282 Q660 358 623.5 421.5 Q587 485 524 521.5 Q461 558 386 558 Q311 558 248.5 521.5 Q186 485 150 421.5 Q114 358 114 282 Q114 207 150 144 Q186 81 248.5 44.5 Q311 8 386 8 Z " />
<glyph glyph-name="q" unicode="q" horiz-adv-x="730" d="M616 178 Q586 94 512 42 Q438 -10 344 -10 Q263 -10 195.5 28.5 Q128 67 89 134 Q50 201 50 282 Q50 363 89 430.5 Q128 498 195.5 537 Q263 576 344 576 Q438 576 512 523.5 Q586 471 616 386 L616 566 L636 566 L636 -200 L616 -200 L616 178 Z M344 8 Q419 8 481.5 44.5 Q544 81 580 144 Q616 207 616 282 Q616 358 580 421.5 Q544 485 481.5 521.5 Q419 558 344 558 Q269 558 206 521.5 Q143 485 106.5 421.5 Q70 358 70 282 Q70 207 106.5 144 Q143 81 206 44.5 Q269 8 344 8 Z " />
<glyph glyph-name="r" unicode="r" horiz-adv-x="366" d="M94 0 L94 566 L114 566 L114 434 Q124 469 144 496.5 Q164 524 192 542 Q239 572 291 572 Q326 572 354 559 L344 541 Q317 554 286 554 Q247 554 211.5 533.5 Q176 513 152 479 Q134 454 124 419 Q114 384 114 344 L114 0 L94 0 Z " />
<glyph glyph-name="racute" unicode="&#x155;" horiz-adv-x="366" d="M94 0 L94 566 L114 566 L114 434 Q124 469 144 496.5 Q164 524 192 542 Q239 572 291 572 Q326 572 354 559 L344 541 Q317 554 286 554 Q247 554 211.5 533.5 Q176 513 152 479 Q134 454 124 419 Q114 384 114 344 L114 0 L94 0 Z M185 636 L265 756 L286 756 L286 752 L202 636 L185 636 Z " />
<glyph glyph-name="rcaron" unicode="&#x159;" horiz-adv-x="366" d="M94 0 L94 566 L114 566 L114 434 Q124 469 144 496.5 Q164 524 192 542 Q239 572 291 572 Q326 572 354 559 L344 541 Q317 554 286 554 Q247 554 211.5 533.5 Q176 513 152 479 Q134 454 124 419 Q114 384 114 344 L114 0 L94 0 Z M195 636 L86 756 L108 756 L206 648 L304 756 L326 756 L217 636 L195 636 Z " />
<glyph glyph-name="uni0157" unicode="&#x157;" horiz-adv-x="366" d="M94 0 L94 566 L114 566 L114 434 Q124 469 144 496.5 Q164 524 192 542 Q239 572 291 572 Q326 572 354 559 L344 541 Q317 554 286 554 Q247 554 211.5 533.5 Q176 513 152 479 Q134 454 124 419 Q114 384 114 344 L114 0 L94 0 Z M79 -233 L93 -70 L115 -70 L98 -233 L79 -233 Z " />
<glyph glyph-name="s" unicode="s" horiz-adv-x="415" d="M208 -10 Q166 -10 130.5 8 Q95 26 72.5 56.5 Q50 87 48 123 L65 128 Q70 75 111 41.5 Q152 8 208 8 Q247 8 279.5 24.5 Q312 41 330.5 69.5 Q349 98 349 132 Q349 178 318 211 Q301 229 278 243.5 Q255 258 224 271 L201 281 Q134 310 98 345.5 Q62 381 62 435 Q62 474 80.5 506.5 Q99 539 132 557.5 Q165 576 205 576 Q243 576 274.5 559 Q306 542 323.5 512.5 Q341 483 341 447 L324 442 Q323 495 290 526.5 Q257 558 205 558 Q152 558 117 522.5 Q82 487 82 435 Q82 389 114 357 Q141 330 186 309 Q191 306 197 303 Q203 300 209 298 L236 286 Q302 256 335.5 221 Q369 186 369 132 Q369 93 347.5 60.5 Q326 28 289 9 Q252 -10 208 -10 Z " />
<glyph glyph-name="sacute" unicode="&#x15b;" horiz-adv-x="415" d="M208 -10 Q166 -10 130.5 8 Q95 26 72.5 56.5 Q50 87 48 123 L65 128 Q70 75 111 41.5 Q152 8 208 8 Q247 8 279.5 24.5 Q312 41 330.5 69.5 Q349 98 349 132 Q349 178 318 211 Q301 229 278 243.5 Q255 258 224 271 L201 281 Q134 310 98 345.5 Q62 381 62 435 Q62 474 80.5 506.5 Q99 539 132 557.5 Q165 576 205 576 Q243 576 274.5 559 Q306 542 323.5 512.5 Q341 483 341 447 L324 442 Q323 495 290 526.5 Q257 558 205 558 Q152 558 117 522.5 Q82 487 82 435 Q82 389 114 357 Q141 330 186 309 Q191 306 197 303 Q203 300 209 298 L236 286 Q302 256 335.5 221 Q369 186 369 132 Q369 93 347.5 60.5 Q326 28 289 9 Q252 -10 208 -10 Z M185 636 L265 756 L286 756 L286 752 L202 636 L185 636 Z " />
<glyph glyph-name="scaron" unicode="&#x161;" horiz-adv-x="415" d="M208 -10 Q166 -10 130.5 8 Q95 26 72.5 56.5 Q50 87 48 123 L65 128 Q70 75 111 41.5 Q152 8 208 8 Q247 8 279.5 24.5 Q312 41 330.5 69.5 Q349 98 349 132 Q349 178 318 211 Q301 229 278 243.5 Q255 258 224 271 L201 281 Q134 310 98 345.5 Q62 381 62 435 Q62 474 80.5 506.5 Q99 539 132 557.5 Q165 576 205 576 Q243 576 274.5 559 Q306 542 323.5 512.5 Q341 483 341 447 L324 442 Q323 495 290 526.5 Q257 558 205 558 Q152 558 117 522.5 Q82 487 82 435 Q82 389 114 357 Q141 330 186 309 Q191 306 197 303 Q203 300 209 298 L236 286 Q302 256 335.5 221 Q369 186 369 132 Q369 93 347.5 60.5 Q326 28 289 9 Q252 -10 208 -10 Z M195 636 L86 756 L108 756 L206 648 L304 756 L326 756 L217 636 L195 636 Z " />
<glyph glyph-name="scedilla" unicode="&#x15f;" horiz-adv-x="415" d="M208 -10 Q166 -10 130.5 8 Q95 26 72.5 56.5 Q50 87 48 123 L65 128 Q70 75 111 41.5 Q152 8 208 8 Q247 8 279.5 24.5 Q312 41 330.5 69.5 Q349 98 349 132 Q349 178 318 211 Q301 229 278 243.5 Q255 258 224 271 L201 281 Q134 310 98 345.5 Q62 381 62 435 Q62 474 80.5 506.5 Q99 539 132 557.5 Q165 576 205 576 Q243 576 274.5 559 Q306 542 323.5 512.5 Q341 483 341 447 L324 442 Q323 495 290 526.5 Q257 558 205 558 Q152 558 117 522.5 Q82 487 82 435 Q82 389 114 357 Q141 330 186 309 Q191 306 197 303 Q203 300 209 298 L236 286 Q302 256 335.5 221 Q369 186 369 132 Q369 93 347.5 60.5 Q326 28 289 9 Q252 -10 208 -10 Z M108 -187 Q183 -196 221.5 -184 Q260 -172 260 -140 Q260 -88 172 -95 L198 0 L214 0 L192 -79 Q226 -77 252 -93.5 Q278 -110 278 -140 Q278 -179 233 -196 Q188 -213 104 -202 L108 -187 Z " />
<glyph glyph-name="scircumflex" unicode="&#x15d;" horiz-adv-x="415" d="M208 -10 Q166 -10 130.5 8 Q95 26 72.5 56.5 Q50 87 48 123 L65 128 Q70 75 111 41.5 Q152 8 208 8 Q247 8 279.5 24.5 Q312 41 330.5 69.5 Q349 98 349 132 Q349 178 318 211 Q301 229 278 243.5 Q255 258 224 271 L201 281 Q134 310 98 345.5 Q62 381 62 435 Q62 474 80.5 506.5 Q99 539 132 557.5 Q165 576 205 576 Q243 576 274.5 559 Q306 542 323.5 512.5 Q341 483 341 447 L324 442 Q323 495 290 526.5 Q257 558 205 558 Q152 558 117 522.5 Q82 487 82 435 Q82 389 114 357 Q141 330 186 309 Q191 306 197 303 Q203 300 209 298 L236 286 Q302 256 335.5 221 Q369 186 369 132 Q369 93 347.5 60.5 Q326 28 289 9 Q252 -10 208 -10 Z M86 636 L195 756 L217 756 L326 636 L304 636 L206 744 L108 636 L86 636 Z " />
<glyph glyph-name="uni0219" unicode="&#x219;" horiz-adv-x="415" d="M208 -10 Q166 -10 130.5 8 Q95 26 72.5 56.5 Q50 87 48 123 L65 128 Q70 75 111 41.5 Q152 8 208 8 Q247 8 279.5 24.5 Q312 41 330.5 69.5 Q349 98 349 132 Q349 178 318 211 Q301 229 278 243.5 Q255 258 224 271 L201 281 Q134 310 98 345.5 Q62 381 62 435 Q62 474 80.5 506.5 Q99 539 132 557.5 Q165 576 205 576 Q243 576 274.5 559 Q306 542 323.5 512.5 Q341 483 341 447 L324 442 Q323 495 290 526.5 Q257 558 205 558 Q152 558 117 522.5 Q82 487 82 435 Q82 389 114 357 Q141 330 186 309 Q191 306 197 303 Q203 300 209 298 L236 286 Q302 256 335.5 221 Q369 186 369 132 Q369 93 347.5 60.5 Q326 28 289 9 Q252 -10 208 -10 Z M181 -233 L195 -70 L217 -70 L200 -233 L181 -233 Z " />
<glyph glyph-name="germandbls" unicode="&#xdf;" horiz-adv-x="552" d="M311 -10 Q287 -10 275 -9 L275 9 Q286 8 306 8 Q385 8 434 56 Q483 104 483 181 Q483 232 462 270.5 Q441 309 401 357 Q371 395 356.5 419.5 Q342 444 342 471 Q342 496 349.5 514 Q357 532 374 560 Q393 590 403 615 Q413 640 413 675 Q413 703 396.5 730.5 Q380 758 349.5 775 Q319 792 278 792 Q206 792 160 745.5 Q114 699 114 619 L114 -1 L94 -1 L94 616 Q94 707 144.5 758 Q195 809 278 810 Q326 810 361 791 Q396 772 414.5 741 Q433 710 433 676 Q433 637 422 610.5 Q411 584 391 554 Q375 529 367.5 512.5 Q360 496 360 475 Q360 452 373.5 429.5 Q387 407 416 373 Q458 322 480.5 279.5 Q503 237 503 181 Q503 125 479 81.5 Q455 38 411 14 Q367 -10 311 -10 Z " />
<glyph glyph-name="t" unicode="t" horiz-adv-x="336" d="M268 -10 Q222 -10 189 10.5 Q156 31 138.5 69.5 Q121 108 121 161 L121 548 L5 548 L5 566 L121 566 L121 700 L137 725 L141 725 L141 566 L326 566 L326 548 L141 548 L141 161 Q141 78 184 38 Q216 8 268 8 Q300 8 331 20 L331 2 Q301 -10 268 -10 Z " />
<glyph glyph-name="tbar" unicode="&#x167;" horiz-adv-x="336" d="M47 340 L291 340 L291 322 L47 322 L47 340 Z M268 -10 Q222 -10 189 10.5 Q156 31 138.5 69.5 Q121 108 121 161 L121 548 L5 548 L5 566 L121 566 L121 700 L137 725 L141 725 L141 566 L326 566 L326 548 L141 548 L141 161 Q141 78 184 38 Q216 8 268 8 Q300 8 331 20 L331 2 Q301 -10 268 -10 Z " />
<glyph glyph-name="tcaron" unicode="&#x165;" horiz-adv-x="336" d="M268 -10 Q222 -10 189 10.5 Q156 31 138.5 69.5 Q121 108 121 161 L121 548 L5 548 L5 566 L121 566 L121 700 L137 725 L141 725 L141 566 L326 566 L326 548 L141 548 L141 161 Q141 78 184 38 Q216 8 268 8 Q300 8 331 20 L331 2 Q301 -10 268 -10 Z M207 628 L217 798 L237 798 L223 628 L207 628 Z " />
<glyph glyph-name="uni0163" unicode="&#x163;" horiz-adv-x="336" d="M268 -10 Q222 -10 189 10.5 Q156 31 138.5 69.5 Q121 108 121 161 L121 548 L5 548 L5 566 L121 566 L121 700 L137 725 L141 725 L141 566 L326 566 L326 548 L141 548 L141 161 Q141 78 184 38 Q216 8 268 8 Q300 8 331 20 L331 2 Q301 -10 268 -10 Z M121 -187 Q196 -196 234.5 -184 Q273 -172 273 -140 Q273 -88 185 -95 L211 0 L227 0 L205 -79 Q239 -77 265 -93.5 Q291 -110 291 -140 Q291 -179 246 -196 Q201 -213 117 -202 L121 -187 Z " />
<glyph glyph-name="uni021B" unicode="&#x21b;" horiz-adv-x="336" d="M268 -10 Q222 -10 189 10.5 Q156 31 138.5 69.5 Q121 108 121 161 L121 548 L5 548 L5 566 L121 566 L121 700 L137 725 L141 725 L141 566 L326 566 L326 548 L141 548 L141 161 Q141 78 184 38 Q216 8 268 8 Q300 8 331 20 L331 2 Q301 -10 268 -10 Z M194 -233 L208 -70 L230 -70 L213 -233 L194 -233 Z " />
<glyph glyph-name="u" unicode="u" horiz-adv-x="644" d="M302 -10 Q250 -10 209 4 Q168 18 140 45 Q114 71 100 109 Q86 147 86 194 L86 566 L106 566 L106 194 Q106 106 158.5 57 Q211 8 304 8 Q370 8 421.5 38 Q473 68 501.5 121.5 Q530 175 530 245 L530 566 L550 566 L550 0 L530 0 L530 140 Q504 69 444.5 29.5 Q385 -10 302 -10 Z " />
<glyph glyph-name="uacute" unicode="&#xfa;" horiz-adv-x="644" d="M302 -10 Q250 -10 209 4 Q168 18 140 45 Q114 71 100 109 Q86 147 86 194 L86 566 L106 566 L106 194 Q106 106 158.5 57 Q211 8 304 8 Q370 8 421.5 38 Q473 68 501.5 121.5 Q530 175 530 245 L530 566 L550 566 L550 0 L530 0 L530 140 Q504 69 444.5 29.5 Q385 -10 302 -10 Z M301 636 L381 756 L402 756 L402 752 L318 636 L301 636 Z " />
<glyph glyph-name="ubreve" unicode="&#x16d;" horiz-adv-x="644" d="M302 -10 Q250 -10 209 4 Q168 18 140 45 Q114 71 100 109 Q86 147 86 194 L86 566 L106 566 L106 194 Q106 106 158.5 57 Q211 8 304 8 Q370 8 421.5 38 Q473 68 501.5 121.5 Q530 175 530 245 L530 566 L550 566 L550 0 L530 0 L530 140 Q504 69 444.5 29.5 Q385 -10 302 -10 Z M322 638 Q270 638 236 667.5 Q202 697 202 743 L220 743 Q220 704 249 679 Q278 654 322 654 Q366 654 395 679 Q424 704 424 743 L442 743 Q442 697 408 667.5 Q374 638 322 638 Z " />
<glyph glyph-name="ucircumflex" unicode="&#xfb;" horiz-adv-x="644" d="M302 -10 Q250 -10 209 4 Q168 18 140 45 Q114 71 100 109 Q86 147 86 194 L86 566 L106 566 L106 194 Q106 106 158.5 57 Q211 8 304 8 Q370 8 421.5 38 Q473 68 501.5 121.5 Q530 175 530 245 L530 566 L550 566 L550 0 L530 0 L530 140 Q504 69 444.5 29.5 Q385 -10 302 -10 Z M202 636 L311 756 L333 756 L442 636 L420 636 L322 744 L224 636 L202 636 Z " />
<glyph glyph-name="udieresis" unicode="&#xfc;" horiz-adv-x="644" d="M302 -10 Q250 -10 209 4 Q168 18 140 45 Q114 71 100 109 Q86 147 86 194 L86 566 L106 566 L106 194 Q106 106 158.5 57 Q211 8 304 8 Q370 8 421.5 38 Q473 68 501.5 121.5 Q530 175 530 245 L530 566 L550 566 L550 0 L530 0 L530 140 Q504 69 444.5 29.5 Q385 -10 302 -10 Z M399 646 Q391 646 385 652 Q379 658 379 666 Q379 674 385 680 Q391 686 399 686 Q407 686 413 680 Q419 674 419 666 Q419 658 413 652 Q407 646 399 646 Z M244 646 Q236 646 230 652 Q224 658 224 666 Q224 674 230 680 Q236 686 244 686 Q252 686 258 680 Q264 674 264 666 Q264 658 258 652 Q252 646 244 646 Z " />
<glyph glyph-name="uni1EE5" unicode="&#x1ee5;" horiz-adv-x="644" d="M302 -10 Q250 -10 209 4 Q168 18 140 45 Q114 71 100 109 Q86 147 86 194 L86 566 L106 566 L106 194 Q106 106 158.5 57 Q211 8 304 8 Q370 8 421.5 38 Q473 68 501.5 121.5 Q530 175 530 245 L530 566 L550 566 L550 0 L530 0 L530 140 Q504 69 444.5 29.5 Q385 -10 302 -10 Z M322 -130 Q309 -130 300.5 -121.5 Q292 -113 292 -100 Q292 -87 300.5 -78.5 Q309 -70 322 -70 Q335 -70 343.5 -78.5 Q352 -87 352 -100 Q352 -113 343.5 -121.5 Q335 -130 322 -130 Z " />
<glyph glyph-name="ugrave" unicode="&#xf9;" horiz-adv-x="644" d="M302 -10 Q250 -10 209 4 Q168 18 140 45 Q114 71 100 109 Q86 147 86 194 L86 566 L106 566 L106 194 Q106 106 158.5 57 Q211 8 304 8 Q370 8 421.5 38 Q473 68 501.5 121.5 Q530 175 530 245 L530 566 L550 566 L550 0 L530 0 L530 140 Q504 69 444.5 29.5 Q385 -10 302 -10 Z M342 636 L325 636 L241 752 L241 756 L262 756 L342 636 Z " />
<glyph glyph-name="uhungarumlaut" unicode="&#x171;" horiz-adv-x="644" d="M302 -10 Q250 -10 209 4 Q168 18 140 45 Q114 71 100 109 Q86 147 86 194 L86 566 L106 566 L106 194 Q106 106 158.5 57 Q211 8 304 8 Q370 8 421.5 38 Q473 68 501.5 121.5 Q530 175 530 245 L530 566 L550 566 L550 0 L530 0 L530 140 Q504 69 444.5 29.5 Q385 -10 302 -10 Z M337 636 L408 766 L429 766 L429 762 L355 636 L337 636 Z M193 636 L264 766 L285 766 L285 762 L211 636 L193 636 Z " />
<glyph glyph-name="umacron" unicode="&#x16b;" horiz-adv-x="644" d="M302 -10 Q250 -10 209 4 Q168 18 140 45 Q114 71 100 109 Q86 147 86 194 L86 566 L106 566 L106 194 Q106 106 158.5 57 Q211 8 304 8 Q370 8 421.5 38 Q473 68 501.5 121.5 Q530 175 530 245 L530 566 L550 566 L550 0 L530 0 L530 140 Q504 69 444.5 29.5 Q385 -10 302 -10 Z M202 667 L202 683 L442 683 L442 667 L202 667 Z " />
<glyph glyph-name="uogonek" unicode="&#x173;" horiz-adv-x="644" d="M302 -10 Q250 -10 209 4 Q168 18 140 45 Q114 71 100 109 Q86 147 86 194 L86 566 L106 566 L106 194 Q106 106 158.5 57 Q211 8 304 8 Q370 8 421.5 38 Q473 68 501.5 121.5 Q530 175 530 245 L530 566 L550 566 L550 0 L530 0 L530 140 Q504 69 444.5 29.5 Q385 -10 302 -10 Z M507 -200 Q474 -200 454.5 -183 Q435 -166 435 -137 Q435 -73 530 0 L550 0 Q501 -39 477 -73.5 Q453 -108 453 -137 Q453 -159 468 -171.5 Q483 -184 507 -184 Q531 -184 552 -176 L552 -192 Q534 -200 507 -200 Z " />
<glyph glyph-name="uring" unicode="&#x16f;" horiz-adv-x="644" d="M302 -10 Q250 -10 209 4 Q168 18 140 45 Q114 71 100 109 Q86 147 86 194 L86 566 L106 566 L106 194 Q106 106 158.5 57 Q211 8 304 8 Q370 8 421.5 38 Q473 68 501.5 121.5 Q530 175 530 245 L530 566 L550 566 L550 0 L530 0 L530 140 Q504 69 444.5 29.5 Q385 -10 302 -10 Z M322 587 Q284 587 258 613.5 Q232 640 232 677 Q232 714 258.5 740 Q285 766 322 766 Q359 766 385 740 Q411 714 411 677 Q411 640 385 613.5 Q359 587 322 587 Z M322 603 Q352 603 372.5 624.5 Q393 646 393 677 Q393 707 372.5 728.5 Q352 750 322 750 Q292 750 271 728.5 Q250 707 250 677 Q250 646 270.5 624.5 Q291 603 322 603 Z " />
<glyph glyph-name="utilde" unicode="&#x169;" horiz-adv-x="644" d="M302 -10 Q250 -10 209 4 Q168 18 140 45 Q114 71 100 109 Q86 147 86 194 L86 566 L106 566 L106 194 Q106 106 158.5 57 Q211 8 304 8 Q370 8 421.5 38 Q473 68 501.5 121.5 Q530 175 530 245 L530 566 L550 566 L550 0 L530 0 L530 140 Q504 69 444.5 29.5 Q385 -10 302 -10 Z M405 651 Q383 651 363 656.5 Q343 662 312 674 Q285 684 269 689 Q253 694 236 694 Q215 694 197 685.5 Q179 677 156 654 L151 669 Q172 692 192.5 701.5 Q213 711 238 711 Q258 711 275.5 705.5 Q293 700 318 690 L321 689 Q349 678 368.5 672.5 Q388 667 409 667 Q456 667 487 708 L492 693 Q478 674 455.5 662.5 Q433 651 405 651 Z " />
<glyph glyph-name="v" unicode="v" horiz-adv-x="557" d="M279 31 L519 566 L539 566 L281 -10 L277 -10 L17 566 L37 566 L279 31 Z " />
<glyph glyph-name="w" unicode="w" horiz-adv-x="842" d="M240 -10 L23 566 L43 566 L241 41 L419 576 L423 576 L601 41 L799 566 L819 566 L602 -10 L598 -10 L421 521 L244 -10 L240 -10 Z " />
<glyph glyph-name="wacute" unicode="&#x1e83;" horiz-adv-x="842" d="M240 -10 L23 566 L43 566 L241 41 L419 576 L423 576 L601 41 L799 566 L819 566 L602 -10 L598 -10 L421 521 L244 -10 L240 -10 Z M400 636 L480 756 L501 756 L501 752 L417 636 L400 636 Z " />
<glyph glyph-name="wcircumflex" unicode="&#x175;" horiz-adv-x="842" d="M240 -10 L23 566 L43 566 L241 41 L419 576 L423 576 L601 41 L799 566 L819 566 L602 -10 L598 -10 L421 521 L244 -10 L240 -10 Z M301 636 L410 756 L432 756 L541 636 L519 636 L421 744 L323 636 L301 636 Z " />
<glyph glyph-name="wdieresis" unicode="&#x1e85;" horiz-adv-x="842" d="M240 -10 L23 566 L43 566 L241 41 L419 576 L423 576 L601 41 L799 566 L819 566 L602 -10 L598 -10 L421 521 L244 -10 L240 -10 Z M498 646 Q490 646 484 652 Q478 658 478 666 Q478 674 484 680 Q490 686 498 686 Q506 686 512 680 Q518 674 518 666 Q518 658 512 652 Q506 646 498 646 Z M343 646 Q335 646 329 652 Q323 658 323 666 Q323 674 329 680 Q335 686 343 686 Q351 686 357 680 Q363 674 363 666 Q363 658 357 652 Q351 646 343 646 Z " />
<glyph glyph-name="wgrave" unicode="&#x1e81;" horiz-adv-x="842" d="M240 -10 L23 566 L43 566 L241 41 L419 576 L423 576 L601 41 L799 566 L819 566 L602 -10 L598 -10 L421 521 L244 -10 L240 -10 Z M441 636 L424 636 L340 752 L340 756 L361 756 L441 636 Z " />
<glyph glyph-name="x" unicode="x" horiz-adv-x="476" d="M250 290 L459 0 L435 0 L238 273 L41 0 L17 0 L226 290 L27 566 L51 566 L238 307 L425 566 L449 566 L250 290 Z " />
<glyph glyph-name="y" unicode="y" horiz-adv-x="558" d="M280 19 L520 566 L540 566 L205 -200 L184 -200 L270 -4 L18 566 L39 566 L280 19 Z " />
<glyph glyph-name="yacute" unicode="&#xfd;" horiz-adv-x="558" d="M280 19 L520 566 L540 566 L205 -200 L184 -200 L270 -4 L18 566 L39 566 L280 19 Z M258 636 L338 756 L359 756 L359 752 L275 636 L258 636 Z " />
<glyph glyph-name="ycircumflex" unicode="&#x177;" horiz-adv-x="558" d="M280 19 L520 566 L540 566 L205 -200 L184 -200 L270 -4 L18 566 L39 566 L280 19 Z M159 636 L268 756 L290 756 L399 636 L377 636 L279 744 L181 636 L159 636 Z " />
<glyph glyph-name="ydieresis" unicode="&#xff;" horiz-adv-x="558" d="M280 19 L520 566 L540 566 L205 -200 L184 -200 L270 -4 L18 566 L39 566 L280 19 Z M356 646 Q348 646 342 652 Q336 658 336 666 Q336 674 342 680 Q348 686 356 686 Q364 686 370 680 Q376 674 376 666 Q376 658 370 652 Q364 646 356 646 Z M201 646 Q193 646 187 652 Q181 658 181 666 Q181 674 187 680 Q193 686 201 686 Q209 686 215 680 Q221 674 221 666 Q221 658 215 652 Q209 646 201 646 Z " />
<glyph glyph-name="ygrave" unicode="&#x1ef3;" horiz-adv-x="558" d="M280 19 L520 566 L540 566 L205 -200 L184 -200 L270 -4 L18 566 L39 566 L280 19 Z M299 636 L282 636 L198 752 L198 756 L219 756 L299 636 Z " />
<glyph glyph-name="uni0233" unicode="&#x233;" horiz-adv-x="558" d="M280 19 L520 566 L540 566 L205 -200 L184 -200 L270 -4 L18 566 L39 566 L280 19 Z M159 667 L159 683 L399 683 L399 667 L159 667 Z " />
<glyph glyph-name="uni1EF9" unicode="&#x1ef9;" horiz-adv-x="558" d="M280 19 L520 566 L540 566 L205 -200 L184 -200 L270 -4 L18 566 L39 566 L280 19 Z M362 651 Q340 651 320 656.5 Q300 662 269 674 Q242 684 226 689 Q210 694 193 694 Q172 694 154 685.5 Q136 677 113 654 L108 669 Q129 692 149.5 701.5 Q170 711 195 711 Q215 711 232.5 705.5 Q250 700 275 690 L278 689 Q306 678 325.5 672.5 Q345 667 366 667 Q413 667 444 708 L449 693 Q435 674 412.5 662.5 Q390 651 362 651 Z " />
<glyph glyph-name="z" unicode="z" horiz-adv-x="403" d="M25 0 L25 4 L343 548 L36 548 L36 566 L373 566 L373 562 L55 18 L379 18 L379 0 L25 0 Z " />
<glyph glyph-name="zacute" unicode="&#x17a;" horiz-adv-x="403" d="M25 0 L25 4 L343 548 L36 548 L36 566 L373 566 L373 562 L55 18 L379 18 L379 0 L25 0 Z M176 636 L256 756 L277 756 L277 752 L193 636 L176 636 Z " />
<glyph glyph-name="zcaron" unicode="&#x17e;" horiz-adv-x="403" d="M25 0 L25 4 L343 548 L36 548 L36 566 L373 566 L373 562 L55 18 L379 18 L379 0 L25 0 Z M186 636 L77 756 L99 756 L197 648 L295 756 L317 756 L208 636 L186 636 Z " />
<glyph glyph-name="zdotaccent" unicode="&#x17c;" horiz-adv-x="403" d="M25 0 L25 4 L343 548 L36 548 L36 566 L373 566 L373 562 L55 18 L379 18 L379 0 L25 0 Z M197 646 Q184 646 175.5 654.5 Q167 663 167 676 Q167 689 175.5 697.5 Q184 706 197 706 Q210 706 218.5 697.5 Q227 689 227 676 Q227 663 218.5 654.5 Q210 646 197 646 Z " />
<glyph glyph-name="fi" unicode="&#xfb01;" horiz-adv-x="524" d="M277 566 L412 566 L412 548 L277 548 L277 566 Z M120 0 L120 548 L14 548 L14 566 L126 566 L120 558 L120 639 Q120 692 137.5 730.5 Q155 769 188 789.5 Q221 810 267 810 Q300 810 330 798 L330 780 Q299 792 267 792 Q214 792 183 762 Q140 722 140 639 L140 559 L135 566 L325 566 L325 548 L140 548 L140 0 L120 0 Z M410 0 L410 566 L430 566 L430 0 L410 0 Z M419 720 Q410 720 403.5 726.5 Q397 733 397 743 Q397 753 403.5 760 Q410 767 419 767 Q429 767 435.5 760 Q442 753 442 743 Q442 733 435.5 726.5 Q429 720 419 720 Z " />
<glyph glyph-name="fl" unicode="&#xfb02;" horiz-adv-x="524" d="M280 566 L411 566 L411 548 L280 548 L280 566 Z M120 0 L120 548 L14 548 L14 566 L126 566 L120 558 L120 639 Q120 692 137.5 730.5 Q155 769 188 789.5 Q221 810 267 810 Q300 810 330 798 L330 780 Q299 792 267 792 Q214 792 183 762 Q140 722 140 639 L140 559 L135 566 L325 566 L325 548 L140 548 L140 0 L120 0 Z M410 0 L410 800 L430 800 L430 0 L410 0 Z " />
<glyph glyph-name="ordfeminine" unicode="&#xaa;" horiz-adv-x="558" d="M263 288 Q205 288 156.5 315.5 Q108 343 79.5 391 Q51 439 51 499 Q51 559 79.5 607 Q108 655 156.5 682.5 Q205 710 263 710 Q330 710 383 673.5 Q436 637 459 577 L456 702 L476 702 L476 296 L456 296 L459 421 Q436 361 383 324.5 Q330 288 263 288 Z M263 306 Q317 306 361 330.5 Q405 355 430.5 399.5 Q456 444 456 499 Q456 554 430.5 598.5 Q405 643 361 667.5 Q317 692 263 692 Q209 692 165 667 Q121 642 96 598 Q71 554 71 499 Q71 444 96 400 Q121 356 165 331 Q209 306 263 306 Z " />
<glyph glyph-name="ordmasculine" unicode="&#xba;" horiz-adv-x="528" d="M263 287 Q202 287 154 314.5 Q106 342 78.5 390 Q51 438 51 499 Q51 559 78.5 607 Q106 655 154 682.5 Q202 710 263 710 Q324 710 372.5 683 Q421 656 448.5 607.5 Q476 559 476 499 Q476 438 448.5 390 Q421 342 372.5 314.5 Q324 287 263 287 Z M263 305 Q318 305 362 330 Q406 355 431 399 Q456 443 456 499 Q456 554 431 598 Q406 642 362 667 Q318 692 263 692 Q208 692 164.5 667 Q121 642 96 598 Q71 554 71 499 Q71 443 96 399 Q121 355 164.5 330 Q208 305 263 305 Z " />
<glyph glyph-name="uni0410" unicode="&#x410;" horiz-adv-x="654" d="M21 0 L325 710 L329 710 L633 0 L611 0 L512 231 L142 231 L43 0 L21 0 Z M150 249 L504 249 L327 662 L150 249 Z " />
<glyph glyph-name="uni0411" unicode="&#x411;" horiz-adv-x="558" d="M106 0 L106 700 L466 700 L466 682 L126 682 L126 386 L301 386 Q364 386 413 362 Q462 338 489 294 Q516 250 516 193 Q516 136 489 92 Q462 48 413 24 Q364 0 301 0 L106 0 Z M301 18 Q358 18 402.5 40 Q447 62 471.5 102 Q496 142 496 193 Q496 244 471.5 284 Q447 324 402.5 346 Q358 368 301 368 L126 368 L126 18 L301 18 Z " />
<glyph glyph-name="uni0412" unicode="&#x412;" horiz-adv-x="618" d="M106 0 L106 700 L350 700 Q398 700 438.5 676 Q479 652 502.5 611.5 Q526 571 526 524 Q526 468 494 423 Q462 378 410 360 Q473 346 514.5 296.5 Q556 247 556 183 Q556 133 531.5 91 Q507 49 465.5 24.5 Q424 0 373 0 L106 0 Z M373 18 Q417 18 454.5 40 Q492 62 514 99.5 Q536 137 536 183 Q536 228 514 266 Q492 304 454.5 326 Q417 348 373 348 L126 348 L126 18 L373 18 Z M350 366 Q393 366 428.5 387 Q464 408 485 444.5 Q506 481 506 524 Q506 568 484.5 604 Q463 640 427 661 Q391 682 350 682 L126 682 L126 366 L350 366 Z " />
<glyph glyph-name="uni0413" unicode="&#x413;" horiz-adv-x="467" d="M106 0 L106 700 L446 700 L446 682 L126 682 L126 0 L106 0 Z " />
<glyph glyph-name="uni0403" unicode="&#x403;" horiz-adv-x="467" d="M106 0 L106 700 L446 700 L446 682 L126 682 L126 0 L106 0 Z M220 770 L300 890 L321 890 L321 886 L237 770 L220 770 Z " />
<glyph glyph-name="uni0490" unicode="&#x490;" horiz-adv-x="467" d="M106 0 L106 700 L426 700 L426 820 L446 820 L446 682 L126 682 L126 0 L106 0 Z " />
<glyph glyph-name="uni0414" unicode="&#x414;" horiz-adv-x="689" d="M18 -134 L18 18 L71 18 Q148 98 148 272 L148 700 L578 700 L578 18 L648 18 L648 -134 L628 -134 L628 0 L38 0 L38 -134 L18 -134 Z M97 18 L558 18 L558 682 L168 682 L168 272 Q168 103 97 18 Z " />
<glyph glyph-name="uni0415" unicode="&#x415;" horiz-adv-x="525" d="M126 18 L476 18 L476 0 L106 0 L106 700 L471 700 L471 682 L126 682 L126 362 L444 362 L444 344 L126 344 L126 18 Z " />
<glyph glyph-name="uni0400" unicode="&#x400;" horiz-adv-x="525" d="M126 18 L476 18 L476 0 L106 0 L106 700 L471 700 L471 682 L126 682 L126 362 L444 362 L444 344 L126 344 L126 18 Z M308 770 L291 770 L207 886 L207 890 L228 890 L308 770 Z " />
<glyph glyph-name="uni0401" unicode="&#x401;" horiz-adv-x="525" d="M126 18 L476 18 L476 0 L106 0 L106 700 L471 700 L471 682 L126 682 L126 362 L444 362 L444 344 L126 344 L126 18 Z M365 780 Q357 780 351 786 Q345 792 345 800 Q345 808 351 814 Q357 820 365 820 Q373 820 379 814 Q385 808 385 800 Q385 792 379 786 Q373 780 365 780 Z M210 780 Q202 780 196 786 Q190 792 190 800 Q190 808 196 814 Q202 820 210 820 Q218 820 224 814 Q230 808 230 800 Q230 792 224 786 Q218 780 210 780 Z " />
<glyph glyph-name="uni0416" unicode="&#x416;" horiz-adv-x="800" d="M758 0 L410 360 L748 700 L773 700 L435 360 L783 0 L758 0 Z M17 0 L365 360 L27 700 L52 700 L390 360 L42 0 L17 0 Z M390 0 L390 700 L410 700 L410 0 L390 0 Z " />
<glyph glyph-name="uni0417" unicode="&#x417;" horiz-adv-x="562" d="M283 -10 Q214 -10 145 20 Q88 45 42 86 L47 106 Q95 63 150 39 Q217 8 283 8 Q370 8 426 56 Q454 81 468 112 Q482 143 482 180 Q482 229 458.5 267.5 Q435 306 394 327 Q353 348 300 348 L223 348 L223 366 L282 366 Q333 366 373 386.5 Q413 407 435 443.5 Q457 480 457 526 Q457 599 405 645 Q379 668 347 680 Q315 692 276 692 Q214 692 161.5 668 Q109 644 61 596 L56 616 Q104 664 159 687 Q214 710 276 710 Q319 710 355 696.5 Q391 683 420 657 Q449 631 463 598.5 Q477 566 477 526 Q477 467 443 422 Q409 377 350 359 Q419 345 460.5 296 Q502 247 502 180 Q502 139 486.5 104.5 Q471 70 440 43 Q408 16 368 3 Q328 -10 283 -10 Z " />
<glyph glyph-name="uni0418" unicode="&#x418;" horiz-adv-x="812" d="M706 0 L706 710 L702 710 L126 39 L126 700 L106 700 L106 -10 L110 -10 L686 661 L686 0 L706 0 Z " />
<glyph glyph-name="uni0419" unicode="&#x419;" horiz-adv-x="812" d="M706 0 L706 710 L702 710 L126 39 L126 700 L106 700 L106 -10 L110 -10 L686 661 L686 0 L706 0 Z M406 772 Q354 772 320 801.5 Q286 831 286 877 L304 877 Q304 838 333 813 Q362 788 406 788 Q450 788 479 813 Q508 838 508 877 L526 877 Q526 831 492 801.5 Q458 772 406 772 Z " />
<glyph glyph-name="uni041A" unicode="&#x41a;" horiz-adv-x="560" d="M524 0 L126 360 L514 700 L542 700 L154 360 L554 0 L524 0 Z M106 0 L106 700 L126 700 L126 0 L106 0 Z " />
<glyph glyph-name="uni040C" unicode="&#x40c;" horiz-adv-x="560" d="M524 0 L126 360 L514 700 L542 700 L154 360 L554 0 L524 0 Z M106 0 L106 700 L126 700 L126 0 L106 0 Z M273 770 L353 890 L374 890 L374 886 L290 770 L273 770 Z " />
<glyph glyph-name="uni041B" unicode="&#x41b;" horiz-adv-x="707" d="M29 -10 Q17 -10 11 -9 L11 9 Q19 8 27 8 Q97 8 134 69.5 Q171 131 171 261 L171 700 L601 700 L601 0 L581 0 L581 682 L191 682 L191 261 Q191 180 176.5 123 Q162 66 132 33 Q94 -10 29 -10 Z " />
<glyph glyph-name="uni041C" unicode="&#x41c;" horiz-adv-x="880" d="M438 -10 L190 672 L209 676 L66 0 L45 0 L195 710 L199 710 L448 16 L432 16 L681 710 L685 710 L835 0 L814 0 L671 677 L688 666 L442 -10 L438 -10 Z " />
<glyph glyph-name="uni041D" unicode="&#x41d;" horiz-adv-x="702" d="M106 0 L106 700 L126 700 L126 389 L576 389 L576 700 L596 700 L596 0 L576 0 L576 371 L126 371 L126 0 L106 0 Z " />
<glyph glyph-name="uni041E" unicode="&#x41e;" horiz-adv-x="832" d="M416 -10 Q317 -10 234.5 38 Q152 86 104 168.5 Q56 251 56 350 Q56 448 104 531 Q152 614 235 662 Q318 710 416 710 Q514 710 596.5 661.5 Q679 613 727.5 530.5 Q776 448 776 350 Q776 252 728 169.5 Q680 87 597.5 38.5 Q515 -10 416 -10 Z M416 8 Q509 8 587 54 Q665 100 710.5 178 Q756 256 756 350 Q756 443 710.5 521.5 Q665 600 587 646 Q509 692 416 692 Q322 692 244.5 646.5 Q167 601 121.5 522.5 Q76 444 76 350 Q76 256 121.5 177.5 Q167 99 244.5 53.5 Q322 8 416 8 Z " />
<glyph glyph-name="uni041F" unicode="&#x41f;" horiz-adv-x="702" d="M106 0 L106 700 L596 700 L596 0 L576 0 L576 682 L126 682 L126 0 L106 0 Z " />
<glyph glyph-name="uni0420" unicode="&#x420;" horiz-adv-x="512" d="M106 0 L106 700 L261 700 Q326 700 374 679.5 Q422 659 449 618 Q476 577 476 517 Q476 457 449.5 416 Q423 375 374.5 354.5 Q326 334 261 334 L126 334 L126 0 L106 0 Z M261 352 Q351 352 403.5 394 Q456 436 456 517 Q456 598 403 640 Q350 682 261 682 L126 682 L126 352 L261 352 Z " />
<glyph glyph-name="uni0421" unicode="&#x421;" horiz-adv-x="637" d="M416 -10 Q317 -10 234.5 38 Q152 86 104 168.5 Q56 251 56 350 Q56 448 104 531 Q152 614 235 662 Q318 710 416 710 Q517 710 602 658 L602 637 Q562 664 514.5 678 Q467 692 416 692 Q322 692 244.5 646.5 Q167 601 121.5 522.5 Q76 444 76 350 Q76 256 121.5 177.5 Q167 99 244.5 53.5 Q322 8 416 8 Q467 8 514.5 22 Q562 36 602 63 L602 41 Q516 -10 416 -10 Z " />
<glyph glyph-name="uni0422" unicode="&#x422;" horiz-adv-x="470" d="M450 700 L450 682 L245 682 L245 0 L225 0 L225 682 L20 682 L20 700 L450 700 Z " />
<glyph glyph-name="uni0423" unicode="&#x423;" horiz-adv-x="602" d="M210 0 L301 181 L35 706 L57 706 L311 202 L564 706 L586 706 L232 0 L210 0 Z " />
<glyph glyph-name="uni040E" unicode="&#x40e;" horiz-adv-x="602" d="M210 0 L301 181 L35 706 L57 706 L311 202 L564 706 L586 706 L232 0 L210 0 Z M301 772 Q249 772 215 801.5 Q181 831 181 877 L199 877 Q199 838 228 813 Q257 788 301 788 Q345 788 374 813 Q403 838 403 877 L421 877 Q421 831 387 801.5 Q353 772 301 772 Z " />
<glyph glyph-name="uni0424" unicode="&#x424;" horiz-adv-x="830" d="M405 78 Q302 78 222 112 Q142 146 97.5 208 Q53 270 53 350 Q53 430 97.5 492 Q142 554 222 588 Q302 622 405 622 L405 700 L425 700 L425 622 Q528 622 608 588 Q688 554 732.5 492 Q777 430 777 350 Q777 270 732.5 208 Q688 146 608 112 Q528 78 425 78 L425 0 L405 0 L405 78 Z M405 604 Q308 604 232.5 572 Q157 540 115 482.5 Q73 425 73 350 Q73 275 115 217.5 Q157 160 232.5 128 Q308 96 405 96 L405 604 Z M425 96 Q522 96 597.5 128 Q673 160 715 217.5 Q757 275 757 350 Q757 425 715 482.5 Q673 540 597.5 572 Q522 604 425 604 L425 96 Z " />
<glyph glyph-name="uni0425" unicode="&#x425;" horiz-adv-x="527" d="M275 357 L503 0 L480 0 L264 339 L47 0 L24 0 L252 357 L33 700 L56 700 L264 375 L471 700 L494 700 L275 357 Z " />
<glyph glyph-name="uni0427" unicode="&#x427;" horiz-adv-x="602" d="M476 312 Q376 270 276 270 Q209 270 159.5 292.5 Q110 315 83 358 Q56 401 56 460 L56 700 L76 700 L76 460 Q76 382 129.5 335 Q183 288 276 288 Q374 288 476 332 L476 700 L496 700 L496 0 L476 0 L476 312 Z " />
<glyph glyph-name="uni0426" unicode="&#x426;" horiz-adv-x="687" d="M626 -134 L626 0 L106 0 L106 700 L126 700 L126 18 L556 18 L556 700 L576 700 L576 18 L646 18 L646 -134 L626 -134 Z " />
<glyph glyph-name="uni0428" unicode="&#x428;" horiz-adv-x="972" d="M846 18 L846 700 L866 700 L866 0 L106 0 L106 700 L126 700 L126 18 L476 18 L476 700 L496 700 L496 18 L846 18 Z " />
<glyph glyph-name="uni0429" unicode="&#x429;" horiz-adv-x="977" d="M916 -134 L916 0 L106 0 L106 700 L126 700 L126 18 L476 18 L476 700 L496 700 L496 18 L846 18 L846 700 L866 700 L866 18 L936 18 L936 -134 L916 -134 Z " />
<glyph glyph-name="uni040F" unicode="&#x40f;" horiz-adv-x="702" d="M341 -134 L341 0 L106 0 L106 700 L126 700 L126 18 L576 18 L576 700 L596 700 L596 0 L361 0 L361 -134 L341 -134 Z " />
<glyph glyph-name="uni042C" unicode="&#x42c;" horiz-adv-x="509" d="M106 700 L106 0 L261 0 Q326 0 374 20.5 Q422 41 449 82 Q476 123 476 183 Q476 243 449.5 284 Q423 325 374.5 345.5 Q326 366 261 366 L126 366 L126 700 L106 700 Z M261 348 Q351 348 403.5 306 Q456 264 456 183 Q456 102 403 60 Q350 18 261 18 L126 18 L126 348 L261 348 Z " />
<glyph glyph-name="uni042A" unicode="&#x42a;" horiz-adv-x="603" d="M200 0 L200 682 L20 682 L20 700 L220 700 L220 366 L355 366 Q420 366 468.5 345.5 Q517 325 543.5 284 Q570 243 570 183 Q570 123 543 82 Q516 41 468 20.5 Q420 0 355 0 L200 0 Z M355 18 Q444 18 497 60 Q550 102 550 183 Q550 264 497.5 306 Q445 348 355 348 L220 348 L220 18 L355 18 Z " />
<glyph glyph-name="uni042B" unicode="&#x42b;" horiz-adv-x="692" d="M566 0 L566 700 L586 700 L586 0 L566 0 Z M106 700 L126 700 L126 366 L261 366 Q326 366 374.5 345.5 Q423 325 449.5 284 Q476 243 476 183 Q476 123 449 82 Q422 41 374 20.5 Q326 0 261 0 L106 0 L106 700 Z M126 348 L126 18 L261 18 Q350 18 403 60 Q456 102 456 183 Q456 264 403.5 306 Q351 348 261 348 L126 348 Z " />
<glyph glyph-name="uni0409" unicode="&#x409;" horiz-adv-x="914" d="M29 -10 Q17 -10 11 -9 L11 9 Q19 8 27 8 Q97 8 134 69.5 Q171 131 171 261 L171 700 L561 700 L561 399 L666 399 Q730 399 778.5 374.5 Q827 350 854 305 Q881 260 881 200 Q881 139 854 94 Q827 49 778 24.5 Q729 0 666 0 L541 0 L541 682 L191 682 L191 261 Q191 178 175.5 120 Q160 62 129 29 Q90 -10 29 -10 Z M666 18 Q752 18 806.5 68 Q861 118 861 200 Q861 282 807.5 331.5 Q754 381 666 381 L561 381 L561 18 L666 18 Z " />
<glyph glyph-name="uni040A" unicode="&#x40a;" horiz-adv-x="909" d="M106 0 L106 700 L126 700 L126 399 L536 399 L536 700 L556 700 L556 399 L661 399 Q725 399 773.5 374.5 Q822 350 849 305 Q876 260 876 200 Q876 139 849 94 Q822 49 773 24.5 Q724 0 661 0 L536 0 L536 381 L126 381 L126 0 L106 0 Z M661 18 Q747 18 801.5 68 Q856 118 856 200 Q856 282 802.5 331.5 Q749 381 661 381 L556 381 L556 18 L661 18 Z " />
<glyph glyph-name="uni0405" unicode="&#x405;" horiz-adv-x="499" d="M250 -10 Q197 -10 153 12 Q109 34 83 70.5 Q57 107 54 150 L74 157 Q77 116 100 82 Q123 48 162.5 28 Q202 8 250 8 Q299 8 340 29 Q381 50 405 85.5 Q429 121 429 164 Q429 217 396 255.5 Q363 294 306 323 Q298 327 289 330.5 Q280 334 272 338 L246 349 Q162 385 116.5 429.5 Q71 474 71 547 Q71 592 94 629.5 Q117 667 156.5 688.5 Q196 710 243 710 Q292 710 331 690 Q370 670 391.5 635.5 Q413 601 413 559 L394 553 Q394 614 352.5 653 Q311 692 243 692 Q201 692 166 672.5 Q131 653 111 620 Q91 587 91 547 Q91 482 129.5 443.5 Q168 405 245 370 L256 365 L283 353 Q365 317 407 273 Q449 229 449 164 Q449 115 423 75.5 Q397 36 351.5 13 Q306 -10 250 -10 Z " />
<glyph glyph-name="uni0404" unicode="&#x404;" horiz-adv-x="639" d="M416 692 Q324 692 247 648 Q170 604 124 527.5 Q78 451 76 359 L494 359 L494 341 L76 341 Q78 249 124 172.5 Q170 96 247 52 Q324 8 416 8 Q467 8 514.5 22 Q562 36 602 63 L602 41 Q516 -10 416 -10 Q317 -10 234.5 38 Q152 86 104 168.5 Q56 251 56 350 Q56 448 104 531 Q152 614 235 662 Q318 710 416 710 Q517 710 602 658 L602 637 Q562 664 514.5 678 Q467 692 416 692 Z " />
<glyph glyph-name="uni042D" unicode="&#x42d;" horiz-adv-x="639" d="M223 710 Q321 710 404 662 Q487 614 535 531 Q583 448 583 350 Q583 251 535 168.5 Q487 86 404.5 38 Q322 -10 223 -10 Q123 -10 37 41 L37 63 Q77 36 124.5 22 Q172 8 223 8 Q315 8 392 52 Q469 96 515 172.5 Q561 249 563 341 L145 341 L145 359 L563 359 Q561 451 515 527.5 Q469 604 392 648 Q315 692 223 692 Q172 692 124.5 678 Q77 664 37 637 L37 658 Q122 710 223 710 Z " />
<glyph glyph-name="uni0406" unicode="&#x406;" horiz-adv-x="232" d="M106 0 L106 700 L126 700 L126 0 L106 0 Z " />
<glyph glyph-name="uni0407" unicode="&#x407;" horiz-adv-x="232" d="M106 0 L106 700 L126 700 L126 0 L106 0 Z M193 780 Q185 780 179 786 Q173 792 173 800 Q173 808 179 814 Q185 820 193 820 Q201 820 207 814 Q213 808 213 800 Q213 792 207 786 Q201 780 193 780 Z M38 780 Q30 780 24 786 Q18 792 18 800 Q18 808 24 814 Q30 820 38 820 Q46 820 52 814 Q58 808 58 800 Q58 792 52 786 Q46 780 38 780 Z " />
<glyph glyph-name="uni0408" unicode="&#x408;" horiz-adv-x="452" d="M333 700 L353 700 L353 180 Q353 87 300 38.5 Q247 -10 159 -10 Q125 -10 89.5 -1 Q54 8 23 26 L28 44 L38 38 Q66 23 97.5 15.5 Q129 8 159 8 Q240 8 286.5 52 Q333 96 333 180 L333 700 Z " />
<glyph glyph-name="uni040B" unicode="&#x40b;" horiz-adv-x="641" d="M205 0 L205 682 L20 682 L20 700 L450 700 L450 682 L225 682 L225 388 Q266 407 310.5 418.5 Q355 430 395 430 Q484 430 534.5 379.5 Q585 329 585 240 L585 0 L565 0 L565 240 Q565 319 520.5 365.5 Q476 412 395 412 Q357 412 312.5 400 Q268 388 225 368 L225 0 L205 0 Z " />
<glyph glyph-name="uni042E" unicode="&#x42e;" horiz-adv-x="1062" d="M646 710 Q744 710 826.5 661.5 Q909 613 957.5 530.5 Q1006 448 1006 350 Q1006 252 958 169.5 Q910 87 827.5 38.5 Q745 -10 646 -10 Q549 -10 467 36.5 Q385 83 336.5 163.5 Q288 244 286 341 L126 341 L126 0 L106 0 L106 700 L126 700 L126 359 L286 359 Q288 456 337 536 Q386 616 467.5 663 Q549 710 646 710 Z M646 8 Q739 8 817 54 Q895 100 940.5 178 Q986 256 986 350 Q986 443 940.5 521.5 Q895 600 817 646 Q739 692 646 692 Q552 692 474.5 646.5 Q397 601 351.5 522.5 Q306 444 306 350 Q306 256 351.5 177.5 Q397 99 474.5 53.5 Q552 8 646 8 Z " />
<glyph glyph-name="uni042F" unicode="&#x42f;" horiz-adv-x="573" d="M467 0 L447 0 L447 334 L28 0 L-3 0 L432 347 L461 334 L297 334 Q238 334 192.5 357 Q147 380 122 421.5 Q97 463 97 517 Q97 571 122 612.5 Q147 654 192.5 677 Q238 700 297 700 L467 700 L467 0 Z M447 352 L447 682 L297 682 Q217 682 167 636.5 Q117 591 117 517 Q117 443 167 397.5 Q217 352 297 352 L447 352 Z " />
<glyph glyph-name="uni0402" unicode="&#x402;" horiz-adv-x="637" d="M477 8 Q519 8 542 35 Q565 62 565 111 L565 240 Q565 319 520.5 365.5 Q476 412 395 412 Q357 412 312.5 400 Q268 388 225 368 L225 0 L205 0 L205 682 L20 682 L20 700 L450 700 L450 682 L225 682 L225 388 Q266 407 310.5 418.5 Q355 430 395 430 Q484 430 534.5 379.5 Q585 329 585 240 L585 111 Q585 58 556.5 25 Q528 -8 484 -10 L477 8 Z " />
<glyph glyph-name="uni0430" unicode="&#x430;" horiz-adv-x="730" d="M344 -10 Q263 -10 195.5 28.5 Q128 67 89 134 Q50 201 50 282 Q50 363 89 430.5 Q128 498 195.5 537 Q263 576 344 576 Q438 576 512 523.5 Q586 471 616 386 L616 566 L636 566 L636 0 L616 0 L616 178 Q586 94 512 42 Q438 -10 344 -10 Z M344 8 Q419 8 481.5 44.5 Q544 81 580 144 Q616 207 616 282 Q616 358 580 421.5 Q544 485 481.5 521.5 Q419 558 344 558 Q269 558 206 521.5 Q143 485 106.5 421.5 Q70 358 70 282 Q70 207 106.5 144 Q143 81 206 44.5 Q269 8 344 8 Z " />
<glyph glyph-name="uni0431" unicode="&#x431;" horiz-adv-x="648" d="M327 -10 Q252 -10 190 26 Q128 62 92 124.5 Q56 187 56 262 Q56 349 65.5 408 Q75 467 98 510 Q115 543 148 574 Q162 587 176.5 597.5 Q191 608 205 617 Q247 642 341 683 Q395 706 426 722 Q457 738 477 757.5 Q497 777 497 800 L518 800 Q518 771 495.5 747.5 Q473 724 440 707.5 Q407 691 348 666 Q301 646 270 631 Q239 616 213 599 Q181 578 156 553.5 Q131 529 115 498 Q100 469 91.5 431 Q83 393 78 340 L71 347 Q98 429 167 480 Q236 531 327 531 Q401 531 463 495.5 Q525 460 561 398 Q597 336 597 262 Q597 187 561 124.5 Q525 62 463 26 Q401 -10 327 -10 Z M327 8 Q395 8 452.5 42 Q510 76 543 134 Q576 192 576 262 Q576 331 543 388.5 Q510 446 452.5 479.5 Q395 513 327 513 Q258 513 200.5 479.5 Q143 446 110 388.5 Q77 331 77 262 Q77 192 110 134 Q143 76 200.5 42 Q258 8 327 8 Z " />
<glyph glyph-name="uni0432" unicode="&#x432;" horiz-adv-x="572" d="M94 0 L94 566 L330 566 Q380 566 415.5 548 Q451 530 469 497.5 Q487 465 487 423 Q487 374 465 342 Q443 310 398 294 Q455 281 485 243.5 Q515 206 515 151 Q515 107 496 72.5 Q477 38 439.5 19 Q402 0 349 0 L94 0 Z M349 18 Q418 18 456.5 53.5 Q495 89 495 151 Q495 212 456.5 247 Q418 282 349 282 L114 282 L114 18 L349 18 Z M330 300 Q394 300 430.5 333 Q467 366 467 423 Q467 480 430.5 514 Q394 548 330 548 L114 548 L114 300 L330 300 Z " />
<glyph glyph-name="uni0433" unicode="&#x433;" horiz-adv-x="410" d="M94 0 L94 566 L394 566 L394 548 L114 548 L114 0 L94 0 Z " />
<glyph glyph-name="uni0453" unicode="&#x453;" horiz-adv-x="410" d="M94 0 L94 566 L394 566 L394 548 L114 548 L114 0 L94 0 Z M186 636 L266 756 L287 756 L287 752 L203 636 L186 636 Z " />
<glyph glyph-name="uni0491" unicode="&#x491;" horiz-adv-x="410" d="M94 0 L94 566 L374 566 L374 670 L394 670 L394 548 L114 548 L114 0 L94 0 Z " />
<glyph glyph-name="uni0434" unicode="&#x434;" horiz-adv-x="619" d="M12 -134 L12 18 L65 18 Q125 104 125 243 L125 566 L516 566 L516 18 L586 18 L586 -134 L566 -134 L566 0 L32 0 L32 -134 L12 -134 Z M88 18 L496 18 L496 548 L130 548 L145 562 L145 243 Q145 105 88 18 Z " />
<glyph glyph-name="uni0435" unicode="&#x435;" horiz-adv-x="659" d="M332 -10 Q254 -10 189.5 28.5 Q125 67 87.5 134 Q50 201 50 282 Q50 363 87.5 430.5 Q125 498 189.5 537 Q254 576 332 576 Q410 576 474.5 537 Q539 498 576.5 430.5 Q614 363 614 282 Q614 281 614 279.5 Q614 278 614 277 L70 277 Q71 203 106.5 141 Q142 79 201.5 43.5 Q261 8 332 8 Q398 8 454.5 39 Q511 70 547 123 L570 123 Q533 62 470 26 Q407 -10 332 -10 Z M594 295 Q591 368 555.5 428.5 Q520 489 461 523.5 Q402 558 332 558 Q262 558 203 523.5 Q144 489 108.5 428.5 Q73 368 70 295 L594 295 Z " />
<glyph glyph-name="uni0450" unicode="&#x450;" horiz-adv-x="659" d="M332 -10 Q254 -10 189.5 28.5 Q125 67 87.5 134 Q50 201 50 282 Q50 363 87.5 430.5 Q125 498 189.5 537 Q254 576 332 576 Q410 576 474.5 537 Q539 498 576.5 430.5 Q614 363 614 282 Q614 281 614 279.5 Q614 278 614 277 L70 277 Q71 203 106.5 141 Q142 79 201.5 43.5 Q261 8 332 8 Q398 8 454.5 39 Q511 70 547 123 L570 123 Q533 62 470 26 Q407 -10 332 -10 Z M594 295 Q591 368 555.5 428.5 Q520 489 461 523.5 Q402 558 332 558 Q262 558 203 523.5 Q144 489 108.5 428.5 Q73 368 70 295 L594 295 Z M352 636 L335 636 L251 752 L251 756 L272 756 L352 636 Z " />
<glyph glyph-name="uni0451" unicode="&#x451;" horiz-adv-x="659" d="M332 -10 Q254 -10 189.5 28.5 Q125 67 87.5 134 Q50 201 50 282 Q50 363 87.5 430.5 Q125 498 189.5 537 Q254 576 332 576 Q410 576 474.5 537 Q539 498 576.5 430.5 Q614 363 614 282 Q614 281 614 279.5 Q614 278 614 277 L70 277 Q71 203 106.5 141 Q142 79 201.5 43.5 Q261 8 332 8 Q398 8 454.5 39 Q511 70 547 123 L570 123 Q533 62 470 26 Q407 -10 332 -10 Z M594 295 Q591 368 555.5 428.5 Q520 489 461 523.5 Q402 558 332 558 Q262 558 203 523.5 Q144 489 108.5 428.5 Q73 368 70 295 L594 295 Z M409 646 Q401 646 395 652 Q389 658 389 666 Q389 674 395 680 Q401 686 409 686 Q417 686 423 680 Q429 674 429 666 Q429 658 423 652 Q417 646 409 646 Z M254 646 Q246 646 240 652 Q234 658 234 666 Q234 674 240 680 Q246 686 254 686 Q262 686 268 680 Q274 674 274 666 Q274 658 268 652 Q262 646 254 646 Z " />
<glyph glyph-name="uni0436" unicode="&#x436;" horiz-adv-x="658" d="M622 0 L339 292 L615 566 L639 566 L364 292 L646 0 L622 0 Z M12 0 L294 292 L19 566 L43 566 L319 292 L36 0 L12 0 Z M319 0 L319 566 L339 566 L339 0 L319 0 Z " />
<glyph glyph-name="uni0437" unicode="&#x437;" horiz-adv-x="468" d="M236 -10 Q181 -10 123 14 Q72 38 39 68 L43 88 Q81 53 127 33 Q182 8 236 8 Q280 8 316 26 Q352 44 372.5 75 Q393 106 393 145 Q393 207 353.5 244 Q314 281 249 281 L177 281 L177 299 L235 299 Q301 299 337 336 Q373 373 373 428 Q373 460 356 490 Q339 520 306.5 539 Q274 558 230 558 Q179 558 136.5 538.5 Q94 519 54 479 L50 500 Q89 539 134 557.5 Q179 576 230 576 Q280 576 317 554.5 Q354 533 373.5 499 Q393 465 393 428 Q393 381 367.5 344 Q342 307 293 291 Q347 279 380 239.5 Q413 200 413 145 Q413 98 390 63 Q367 28 326.5 9 Q286 -10 236 -10 Z " />
<glyph glyph-name="uni0438" unicode="&#x438;" horiz-adv-x="675" d="M110 35 L581 576 L585 576 L585 0 L565 0 L565 531 L94 -10 L90 -10 L90 566 L110 566 L110 35 Z " />
<glyph glyph-name="uni0439" unicode="&#x439;" horiz-adv-x="675" d="M110 35 L581 576 L585 576 L585 0 L565 0 L565 531 L94 -10 L90 -10 L90 566 L110 566 L110 35 Z M338 638 Q286 638 252 667.5 Q218 697 218 743 L236 743 Q236 704 265 679 Q294 654 338 654 Q382 654 411 679 Q440 704 440 743 L458 743 Q458 697 424 667.5 Q390 638 338 638 Z " />
<glyph glyph-name="uni043A" unicode="&#x43a;" horiz-adv-x="466" d="M437 0 L114 292 L430 566 L457 566 L142 292 L464 0 L437 0 Z M94 0 L94 566 L114 566 L114 0 L94 0 Z " />
<glyph glyph-name="uni045C" unicode="&#x45c;" horiz-adv-x="466" d="M437 0 L114 292 L430 566 L457 566 L142 292 L464 0 L437 0 Z M94 0 L94 566 L114 566 L114 0 L94 0 Z M228 636 L308 756 L329 756 L329 752 L245 636 L228 636 Z " />
<glyph glyph-name="uni043B" unicode="&#x43b;" horiz-adv-x="590" d="M496 566 L496 0 L476 0 L476 548 L156 548 L156 194 Q156 88 121.5 39 Q87 -10 23 -10 Q14 -10 8 -9 L8 9 Q13 8 23 8 Q80 8 108 54 Q136 100 136 194 L136 566 L496 566 Z " />
<glyph glyph-name="uni043C" unicode="&#x43c;" horiz-adv-x="723" d="M561 576 L683 -2 L663 -2 L554 510 L365 -10 L361 -10 L169 511 L60 -2 L40 -2 L163 576 L167 576 L362 37 L556 576 L561 576 Z " />
<glyph glyph-name="uni043D" unicode="&#x43d;" horiz-adv-x="608" d="M94 0 L94 566 L114 566 L114 292 L494 292 L494 566 L514 566 L514 0 L494 0 L494 274 L114 274 L114 0 L94 0 Z " />
<glyph glyph-name="uni043E" unicode="&#x43e;" horiz-adv-x="686" d="M342 -10 Q261 -10 194 28.5 Q127 67 88.5 134 Q50 201 50 282 Q50 363 88.5 430.5 Q127 498 194 537 Q261 576 342 576 Q423 576 490.5 537 Q558 498 597 430.5 Q636 363 636 282 Q636 201 597 134 Q558 67 490.5 28.5 Q423 -10 342 -10 Z M342 8 Q417 8 480 44.5 Q543 81 579.5 144 Q616 207 616 282 Q616 358 579.5 421.5 Q543 485 480 521.5 Q417 558 342 558 Q267 558 204.5 521.5 Q142 485 106 421.5 Q70 358 70 282 Q70 207 106 144 Q142 81 204.5 44.5 Q267 8 342 8 Z " />
<glyph glyph-name="uni043F" unicode="&#x43f;" horiz-adv-x="608" d="M94 0 L94 566 L514 566 L514 0 L494 0 L494 548 L114 548 L114 0 L94 0 Z " />
<glyph glyph-name="uni0440" unicode="&#x440;" horiz-adv-x="730" d="M94 -200 L94 566 L114 566 L114 386 Q144 471 218 523.5 Q292 576 386 576 Q467 576 534.5 537 Q602 498 641 430.5 Q680 363 680 282 Q680 201 641 134 Q602 67 534.5 28.5 Q467 -10 386 -10 Q292 -10 218 42 Q144 94 114 178 L114 -200 L94 -200 Z M386 8 Q461 8 524 44.5 Q587 81 623.5 144 Q660 207 660 282 Q660 358 623.5 421.5 Q587 485 524 521.5 Q461 558 386 558 Q311 558 248.5 521.5 Q186 485 150 421.5 Q114 358 114 282 Q114 207 150 144 Q186 81 248.5 44.5 Q311 8 386 8 Z " />
<glyph glyph-name="uni0441" unicode="&#x441;" horiz-adv-x="529" d="M342 -10 Q261 -10 194 28.5 Q127 67 88.5 134 Q50 201 50 282 Q50 363 88.5 430.5 Q127 498 194 537 Q261 576 342 576 Q424 576 492 536 L492 514 Q459 535 421 546.5 Q383 558 342 558 Q267 558 204.5 521.5 Q142 485 106 421.5 Q70 358 70 282 Q70 207 106 144 Q142 81 204.5 44.5 Q267 8 342 8 Q383 8 421 19.5 Q459 31 492 52 L492 29 Q423 -10 342 -10 Z " />
<glyph glyph-name="uni0442" unicode="&#x442;" horiz-adv-x="422" d="M406 566 L406 548 L221 548 L221 0 L201 0 L201 548 L16 548 L16 566 L406 566 Z " />
<glyph glyph-name="uni0443" unicode="&#x443;" horiz-adv-x="558" d="M280 19 L520 566 L540 566 L205 -200 L184 -200 L270 -4 L18 566 L39 566 L280 19 Z " />
<glyph glyph-name="uni045E" unicode="&#x45e;" horiz-adv-x="558" d="M280 19 L520 566 L540 566 L205 -200 L184 -200 L270 -4 L18 566 L39 566 L280 19 Z M279 638 Q227 638 193 667.5 Q159 697 159 743 L177 743 Q177 704 206 679 Q235 654 279 654 Q323 654 352 679 Q381 704 381 743 L399 743 Q399 697 365 667.5 Q331 638 279 638 Z " />
<glyph glyph-name="uni0444" unicode="&#x444;" horiz-adv-x="728" d="M354 -10 Q270 -8 200 31.5 Q130 71 89.5 137.5 Q49 204 49 283 Q49 362 89.5 428.5 Q130 495 200 534.5 Q270 574 354 576 L354 800 L374 800 L374 576 Q458 574 528 534.5 Q598 495 638.5 428.5 Q679 362 679 283 Q679 204 638.5 137.5 Q598 71 528 31.5 Q458 -8 374 -10 L374 -200 L354 -200 L354 -10 Z M354 558 Q275 556 210 518.5 Q145 481 107 419 Q69 357 69 283 Q69 209 107 147 Q145 85 210 47.5 Q275 10 354 8 L354 558 Z M374 8 Q453 10 518 47.5 Q583 85 621 147 Q659 209 659 283 Q659 357 621 419 Q583 481 518 518.5 Q453 556 374 558 L374 8 Z " />
<glyph glyph-name="uni0445" unicode="&#x445;" horiz-adv-x="476" d="M250 290 L459 0 L435 0 L238 273 L41 0 L17 0 L226 290 L27 566 L51 566 L238 307 L425 566 L449 566 L250 290 Z " />
<glyph glyph-name="uni0447" unicode="&#x447;" horiz-adv-x="576" d="M462 235 Q368 192 268 192 Q164 192 106.5 240 Q49 288 49 373 L49 566 L69 566 L69 373 Q69 297 121.5 253.5 Q174 210 268 210 Q370 210 462 256 L462 566 L482 566 L482 0 L462 0 L462 235 Z " />
<glyph glyph-name="uni0446" unicode="&#x446;" horiz-adv-x="613" d="M564 -134 L564 0 L94 0 L94 566 L114 566 L114 18 L484 18 L484 566 L504 566 L504 18 L584 18 L584 -134 L564 -134 Z " />
<glyph glyph-name="uni0448" unicode="&#x448;" horiz-adv-x="878" d="M94 0 L94 566 L114 566 L114 18 L429 18 L429 566 L449 566 L449 18 L764 18 L764 566 L784 566 L784 0 L94 0 Z " />
<glyph glyph-name="uni0449" unicode="&#x449;" horiz-adv-x="893" d="M844 -134 L844 0 L94 0 L94 566 L114 566 L114 18 L429 18 L429 566 L449 566 L449 18 L764 18 L764 566 L784 566 L784 18 L864 18 L864 -134 L844 -134 Z " />
<glyph glyph-name="uni045F" unicode="&#x45f;" horiz-adv-x="588" d="M284 -134 L284 0 L94 0 L94 566 L114 566 L114 18 L474 18 L474 566 L494 566 L494 0 L304 0 L304 -134 L284 -134 Z " />
<glyph glyph-name="uni044C" unicode="&#x44c;" horiz-adv-x="469" d="M94 566 L114 566 L114 294 L262 294 Q315 294 354 277.5 Q393 261 414.5 228 Q436 195 436 147 Q436 99 414.5 66 Q393 33 353.5 16.5 Q314 0 262 0 L94 0 L94 566 Z M114 276 L114 18 L262 18 Q335 18 375.5 50 Q416 82 416 147 Q416 212 375.5 244 Q335 276 262 276 L114 276 Z " />
<glyph glyph-name="uni044A" unicode="&#x44a;" horiz-adv-x="546" d="M171 0 L171 548 L16 548 L16 566 L191 566 L191 294 L339 294 Q392 294 431 277.5 Q470 261 491.5 228 Q513 195 513 147 Q513 99 491.5 66 Q470 33 430.5 16.5 Q391 0 339 0 L171 0 Z M339 18 Q412 18 452.5 50 Q493 82 493 147 Q493 212 452.5 244 Q412 276 339 276 L191 276 L191 18 L339 18 Z " />
<glyph glyph-name="uni044B" unicode="&#x44b;" horiz-adv-x="640" d="M94 0 L94 566 L114 566 L114 294 L262 294 Q315 294 354 277.5 Q393 261 414.5 228 Q436 195 436 147 Q436 99 414.5 66 Q393 33 353.5 16.5 Q314 0 262 0 L94 0 Z M262 18 Q335 18 375.5 50 Q416 82 416 147 Q416 212 375.5 244 Q335 276 262 276 L114 276 L114 18 L262 18 Z M526 0 L526 566 L546 566 L546 0 L526 0 Z " />
<glyph glyph-name="uni0459" unicode="&#x459;" horiz-adv-x="820" d="M23 -10 Q14 -10 8 -9 L8 9 Q13 8 23 8 Q80 8 108 54 Q136 100 136 194 L136 566 L486 566 L486 310 L614 310 Q666 310 705.5 292 Q745 274 766.5 239 Q788 204 788 155 Q788 106 766 71.5 Q744 37 705 18.5 Q666 0 614 0 L466 0 L466 548 L156 548 L156 194 Q156 88 121.5 39 Q87 -10 23 -10 Z M614 18 Q685 18 726.5 53.5 Q768 89 768 155 Q768 221 727 256.5 Q686 292 614 292 L486 292 L486 18 L614 18 Z " />
<glyph glyph-name="uni045A" unicode="&#x45a;" horiz-adv-x="828" d="M94 0 L94 566 L114 566 L114 310 L474 310 L474 566 L494 566 L494 310 L622 310 Q674 310 713.5 292 Q753 274 774.5 239 Q796 204 796 155 Q796 106 774 71.5 Q752 37 713 18.5 Q674 0 622 0 L474 0 L474 292 L114 292 L114 0 L94 0 Z M622 18 Q693 18 734.5 53.5 Q776 89 776 155 Q776 221 735 256.5 Q694 292 622 292 L494 292 L494 18 L622 18 Z " />
<glyph glyph-name="uni0455" unicode="&#x455;" horiz-adv-x="415" d="M208 -10 Q166 -10 130.5 8 Q95 26 72.5 56.5 Q50 87 48 123 L65 128 Q70 75 111 41.5 Q152 8 208 8 Q247 8 279.5 24.5 Q312 41 330.5 69.5 Q349 98 349 132 Q349 178 318 211 Q301 229 278 243.5 Q255 258 224 271 L201 281 Q134 310 98 345.5 Q62 381 62 435 Q62 474 80.5 506.5 Q99 539 132 557.5 Q165 576 205 576 Q243 576 274.5 559 Q306 542 323.5 512.5 Q341 483 341 447 L324 442 Q323 495 290 526.5 Q257 558 205 558 Q152 558 117 522.5 Q82 487 82 435 Q82 389 114 357 Q141 330 186 309 Q191 306 197 303 Q203 300 209 298 L236 286 Q302 256 335.5 221 Q369 186 369 132 Q369 93 347.5 60.5 Q326 28 289 9 Q252 -10 208 -10 Z " />
<glyph glyph-name="uni0454" unicode="&#x454;" horiz-adv-x="531" d="M342 558 Q269 558 208 523 Q147 488 110 427.5 Q73 367 70 294 L407 294 L407 276 L70 276 Q71 202 108 140.5 Q145 79 206.5 43.5 Q268 8 342 8 Q383 8 421 19.5 Q459 31 492 52 L492 29 Q423 -10 342 -10 Q261 -10 194 28.5 Q127 67 88.5 134 Q50 201 50 282 Q50 363 88.5 430.5 Q127 498 194 537 Q261 576 342 576 Q424 576 492 536 L492 514 Q459 535 421 546.5 Q383 558 342 558 Z " />
<glyph glyph-name="uni044D" unicode="&#x44d;" horiz-adv-x="531" d="M189 576 Q270 576 337 537 Q404 498 442.5 430.5 Q481 363 481 282 Q481 201 442.5 134 Q404 67 337 28.5 Q270 -10 189 -10 Q108 -10 39 29 L39 52 Q72 31 110 19.5 Q148 8 189 8 Q263 8 324.5 43.5 Q386 79 423 140.5 Q460 202 461 276 L124 276 L124 294 L461 294 Q458 367 421 427.5 Q384 488 323 523 Q262 558 189 558 Q148 558 110 546.5 Q72 535 39 514 L39 536 Q107 576 189 576 Z " />
<glyph glyph-name="uni0456" unicode="&#x456;" horiz-adv-x="208" d="M94 0 L94 566 L114 566 L114 0 L94 0 Z M103 720 Q94 720 87.5 726.5 Q81 733 81 743 Q81 753 87.5 760 Q94 767 103 767 Q113 767 119.5 760 Q126 753 126 743 Q126 733 119.5 726.5 Q113 720 103 720 Z " />
<glyph glyph-name="uni0457" unicode="&#x457;" horiz-adv-x="209" d="M94 0 L94 566 L114 566 L114 0 L94 0 Z M181 646 Q173 646 167 652 Q161 658 161 666 Q161 674 167 680 Q173 686 181 686 Q189 686 195 680 Q201 674 201 666 Q201 658 195 652 Q189 646 181 646 Z M26 646 Q18 646 12 652 Q6 658 6 666 Q6 674 12 680 Q18 686 26 686 Q34 686 40 680 Q46 674 46 666 Q46 658 40 652 Q34 646 26 646 Z " />
<glyph glyph-name="uni0458" unicode="&#x458;" horiz-adv-x="208" d="M6 -192 Q48 -192 71 -165 Q94 -138 94 -89 L94 566 L114 566 L114 -89 Q114 -125 101 -151.5 Q88 -178 65 -193 Q42 -208 13 -210 L6 -192 Z M103 720 Q94 720 87.5 726.5 Q81 733 81 743 Q81 753 87.5 760 Q94 767 103 767 Q113 767 119.5 760 Q126 753 126 743 Q126 733 119.5 726.5 Q113 720 103 720 Z " />
<glyph glyph-name="uni045B" unicode="&#x45b;" horiz-adv-x="644" d="M504 521 Q530 495 544 457 Q558 419 558 372 L558 0 L538 0 L538 372 Q538 460 485.5 509 Q433 558 340 558 Q274 558 222.5 528 Q171 498 142.5 444.5 Q114 391 114 321 L114 0 L94 0 L94 682 L14 682 L14 699 L94 699 L94 800 L114 800 L114 699 L294 699 L294 682 L114 682 L114 426 Q140 497 199.5 536.5 Q259 576 342 576 Q394 576 435 562 Q476 548 504 521 Z " />
<glyph glyph-name="uni044E" unicode="&#x44e;" horiz-adv-x="878" d="M534 576 Q615 576 682.5 537 Q750 498 789 430.5 Q828 363 828 282 Q828 201 789 134 Q750 67 682.5 28.5 Q615 -10 534 -10 Q455 -10 388.5 27.5 Q322 65 283 130 Q244 195 242 274 L114 274 L114 0 L94 0 L94 566 L114 566 L114 292 L242 292 Q244 371 283.5 436 Q323 501 389 538.5 Q455 576 534 576 Z M534 8 Q609 8 672 44.5 Q735 81 771.5 144 Q808 207 808 282 Q808 358 771.5 421.5 Q735 485 672 521.5 Q609 558 534 558 Q459 558 396.5 521.5 Q334 485 298 421.5 Q262 358 262 282 Q262 207 298 144 Q334 81 396.5 44.5 Q459 8 534 8 Z " />
<glyph glyph-name="uni044F" unicode="&#x44f;" horiz-adv-x="473" d="M-1 0 L346 277 L348 270 L242 270 Q169 270 124.5 311 Q80 352 80 418 Q80 462 100.5 495.5 Q121 529 157.5 547.5 Q194 566 242 566 L379 566 L379 0 L359 0 L359 263 L34 0 L-1 0 Z M242 288 L359 288 L359 548 L242 548 Q177 548 138.5 512.5 Q100 477 100 418 Q100 359 138.5 323.5 Q177 288 242 288 Z " />
<glyph glyph-name="uni0452" unicode="&#x452;" horiz-adv-x="644" d="M504 521 Q530 495 544 457 Q558 419 558 372 L558 -89 Q558 -125 545 -151.5 Q532 -178 509 -193 Q486 -208 457 -210 L450 -192 Q492 -192 515 -165 Q538 -138 538 -89 L538 372 Q538 460 485.5 509 Q433 558 340 558 Q274 558 222.5 528 Q171 498 142.5 444.5 Q114 391 114 321 L114 0 L94 0 L94 682 L14 682 L14 699 L94 699 L94 800 L114 800 L114 699 L294 699 L294 682 L114 682 L114 426 Q140 497 199.5 536.5 Q259 576 342 576 Q394 576 435 562 Q476 548 504 521 Z " />
<glyph glyph-name="uni04BB" unicode="&#x4bb;" horiz-adv-x="644" d="M94 0 L94 800 L114 800 L114 426 Q140 497 199.5 536.5 Q259 576 342 576 Q394 576 435 562 Q476 548 504 521 Q530 495 544 457 Q558 419 558 372 L558 0 L538 0 L538 372 Q538 460 485.5 509 Q433 558 340 558 Q274 558 222.5 528 Q171 498 142.5 444.5 Q114 391 114 321 L114 0 L94 0 Z " />
<glyph glyph-name="uni04C2" unicode="&#x4c2;" horiz-adv-x="658" d="M622 0 L339 292 L615 566 L639 566 L364 292 L646 0 L622 0 Z M12 0 L294 292 L19 566 L43 566 L319 292 L36 0 L12 0 Z M319 0 L319 566 L339 566 L339 0 L319 0 Z M329 638 Q277 638 243 667.5 Q209 697 209 743 L227 743 Q227 704 256 679 Q285 654 329 654 Q373 654 402 679 Q431 704 431 743 L449 743 Q449 697 415 667.5 Q381 638 329 638 Z " />
<glyph glyph-name="uni04D1" unicode="&#x4d1;" horiz-adv-x="730" d="M344 -10 Q263 -10 195.5 28.5 Q128 67 89 134 Q50 201 50 282 Q50 363 89 430.5 Q128 498 195.5 537 Q263 576 344 576 Q438 576 512 523.5 Q586 471 616 386 L616 566 L636 566 L636 0 L616 0 L616 178 Q586 94 512 42 Q438 -10 344 -10 Z M344 8 Q419 8 481.5 44.5 Q544 81 580 144 Q616 207 616 282 Q616 358 580 421.5 Q544 485 481.5 521.5 Q419 558 344 558 Q269 558 206 521.5 Q143 485 106.5 421.5 Q70 358 70 282 Q70 207 106.5 144 Q143 81 206 44.5 Q269 8 344 8 Z M344 638 Q292 638 258 667.5 Q224 697 224 743 L242 743 Q242 704 271 679 Q300 654 344 654 Q388 654 417 679 Q446 704 446 743 L464 743 Q464 697 430 667.5 Q396 638 344 638 Z " />
<glyph glyph-name="uni04D7" unicode="&#x4d7;" horiz-adv-x="659" d="M332 -10 Q254 -10 189.5 28.5 Q125 67 87.5 134 Q50 201 50 282 Q50 363 87.5 430.5 Q125 498 189.5 537 Q254 576 332 576 Q410 576 474.5 537 Q539 498 576.5 430.5 Q614 363 614 282 Q614 281 614 279.5 Q614 278 614 277 L70 277 Q71 203 106.5 141 Q142 79 201.5 43.5 Q261 8 332 8 Q398 8 454.5 39 Q511 70 547 123 L570 123 Q533 62 470 26 Q407 -10 332 -10 Z M594 295 Q591 368 555.5 428.5 Q520 489 461 523.5 Q402 558 332 558 Q262 558 203 523.5 Q144 489 108.5 428.5 Q73 368 70 295 L594 295 Z M332 638 Q280 638 246 667.5 Q212 697 212 743 L230 743 Q230 704 259 679 Q288 654 332 654 Q376 654 405 679 Q434 704 434 743 L452 743 Q452 697 418 667.5 Q384 638 332 638 Z " />
<glyph glyph-name="uni0394" unicode="&#x394;" horiz-adv-x="626" d="M315 710 L606 0 L20 0 L311 710 L315 710 Z M49 18 L577 18 L313 660 L49 18 Z " />
<glyph glyph-name="uni03A9" unicode="&#x3a9;" horiz-adv-x="840" d="M780 350 Q780 276 751 209.5 Q722 143 670.5 93.5 Q619 44 552 18 L770 18 L770 0 L502 0 L502 18 Q577 37 636 85.5 Q695 134 727.5 202.5 Q760 271 760 350 Q760 443 714.5 521.5 Q669 600 591 646 Q513 692 420 692 Q326 692 248.5 646.5 Q171 601 125.5 522.5 Q80 444 80 350 Q80 270 113 201.5 Q146 133 205 85 Q264 37 338 18 L338 0 L70 0 L70 18 L288 18 Q184 59 122 148.5 Q60 238 60 350 Q60 448 108 531 Q156 614 239 662 Q322 710 420 710 Q518 710 600.5 661.5 Q683 613 731.5 530.5 Q780 448 780 350 Z " />
<glyph glyph-name="uni03BC" unicode="&#x3bc;" horiz-adv-x="629" d="M90 -200 L90 566 L110 566 L110 194 Q110 106 158.5 57 Q207 8 293 8 Q355 8 403 38 Q451 68 477.5 121.5 Q504 175 504 245 L504 566 L524 566 L524 41 Q524 25 532.5 16.5 Q541 8 557 8 Q572 8 589 15 L589 -3 Q572 -10 557 -10 Q532 -10 518 3.5 Q504 17 504 41 L504 149 L506 146 Q482 73 426 31.5 Q370 -10 292 -10 Q224 -10 177 18 Q130 46 108 98 L110 102 L110 -200 L90 -200 Z " />
<glyph glyph-name="pi" unicode="&#x3c0;" horiz-adv-x="526" d="M518 548 L383 548 L383 41 Q383 25 391.5 16.5 Q400 8 416 8 Q431 8 448 15 L448 -3 Q431 -10 416 -10 Q391 -10 377 3.5 Q363 17 363 41 L363 548 L163 548 L113 0 L93 0 L143 548 L26 548 L26 566 L518 566 L518 548 Z " />
<glyph glyph-name="zero" unicode="0" horiz-adv-x="658" d="M329 -10 Q254 -10 196 22 Q138 54 106 112.5 Q74 171 74 246 L74 454 Q74 529 106 587.5 Q138 646 196 678 Q254 710 329 710 Q404 710 462 678 Q520 646 552 587.5 Q584 529 584 454 L584 246 Q584 171 552 112.5 Q520 54 462 22 Q404 -10 329 -10 Z M329 8 Q398 8 451.5 38 Q505 68 534.5 122 Q564 176 564 246 L564 454 Q564 524 534.5 578 Q505 632 451.5 662 Q398 692 329 692 Q260 692 206.5 662 Q153 632 123.5 578 Q94 524 94 454 L94 246 Q94 176 123.5 122 Q153 68 206.5 38 Q260 8 329 8 Z " />
<glyph glyph-name="one" unicode="1" horiz-adv-x="238" d="M109 0 L109 692 L125 710 L129 710 L129 0 L109 0 Z " />
<glyph glyph-name="two" unicode="2" horiz-adv-x="523" d="M44 0 L44 4 L313 298 Q383 376 411 428 Q434 471 434 520 Q434 569 411.5 608.5 Q389 648 349.5 670 Q310 692 260 692 Q208 692 166.5 668.5 Q125 645 103 601.5 Q81 558 85 500 L65 500 Q61 563 85.5 611 Q110 659 156.5 684.5 Q203 710 260 710 Q316 710 360 685.5 Q404 661 429 617.5 Q454 574 454 520 Q454 485 441.5 451 Q429 417 403 379.5 Q377 342 335 295 L324 283 L82 18 L472 18 L472 0 L44 0 Z " />
<glyph glyph-name="three" unicode="3" horiz-adv-x="557" d="M267 -10 Q203 -10 148.5 13.5 Q94 37 47 84 L52 105 Q101 56 154 32 Q207 8 267 8 Q325 8 373 36 Q421 64 449 112.5 Q477 161 477 220 Q477 279 449 327.5 Q421 376 373 404 Q325 432 267 432 Q237 432 212 426.5 Q187 421 160 409 L157 413 L445 682 L67 682 L67 700 L486 700 L486 696 L213 440 L210 444 Q224 447 238 448.5 Q252 450 267 450 Q328 450 381 420.5 Q434 391 465.5 338.5 Q497 286 497 220 Q497 156 466.5 103.5 Q436 51 383.5 20.5 Q331 -10 267 -10 Z " />
<glyph glyph-name="four" unicode="4" horiz-adv-x="555" d="M400 0 L400 160 L27 160 L27 164 L309 700 L332 700 L57 178 L400 178 L400 385 L416 408 L420 408 L420 178 L525 178 L525 160 L420 160 L420 0 L400 0 Z " />
<glyph glyph-name="five" unicode="5" horiz-adv-x="555" d="M268 -10 Q201 -10 146.5 16.5 Q92 43 41 96 L45 118 Q99 63 152.5 35.5 Q206 8 267 8 Q328 8 377 36 Q426 64 454.5 112.5 Q483 161 483 220 Q483 279 455 327.5 Q427 376 379 404 Q331 432 273 432 Q216 432 174 412.5 Q132 393 101 353 L96 355 L169 700 L467 700 L467 682 L184 682 L124 395 L122 400 Q155 426 193 438 Q231 450 273 450 Q337 450 389.5 419.5 Q442 389 472.5 336.5 Q503 284 503 220 Q503 157 472.5 104 Q442 51 388 20.5 Q334 -10 268 -10 Z " />
<glyph glyph-name="six" unicode="6" horiz-adv-x="571" d="M293 -10 Q224 -10 170.5 19.5 Q117 49 87.5 101 Q58 153 58 220 Q58 259 68.5 293.5 Q79 328 101 359 L346 700 L368 700 L161 410 L161 414 Q190 432 223 441 Q256 450 293 450 Q361 450 414.5 421 Q468 392 498 339.5 Q528 287 528 220 Q528 153 498.5 100.5 Q469 48 415.5 19 Q362 -10 293 -10 Z M293 8 Q358 8 406.5 35 Q455 62 481.5 110 Q508 158 508 220 Q508 282 481 330 Q454 378 405.5 405 Q357 432 293 432 Q229 432 180 405 Q131 378 104.5 329.5 Q78 281 78 220 Q78 157 104.5 109 Q131 61 180 34.5 Q229 8 293 8 Z " />
<glyph glyph-name="seven" unicode="7" horiz-adv-x="458" d="M25 700 L433 700 L433 696 L126 0 L105 0 L406 682 L25 682 L25 700 Z " />
<glyph glyph-name="eight" unicode="8" horiz-adv-x="560" d="M280 -10 Q220 -10 170.5 18 Q121 46 92 94 Q63 142 63 200 Q63 272 101.5 324 Q140 376 212 402 Q158 416 126.5 457 Q95 498 95 551 Q95 595 119.5 631.5 Q144 668 186.5 689 Q229 710 280 710 Q331 710 373.5 689 Q416 668 440.5 631.5 Q465 595 465 551 Q465 498 433.5 457 Q402 416 348 402 Q420 376 458.5 324 Q497 272 497 200 Q497 142 468 94 Q439 46 389.5 18 Q340 -10 280 -10 Z M280 8 Q334 8 379.5 33.5 Q425 59 451 103 Q477 147 477 200 Q477 253 451 297 Q425 341 379.5 366.5 Q334 392 280 392 Q226 392 180.5 366.5 Q135 341 109 297 Q83 253 83 200 Q83 147 109 103 Q135 59 180.5 33.5 Q226 8 280 8 Z M280 410 Q352 410 398.5 449.5 Q445 489 445 551 Q445 590 423 622.5 Q401 655 363 673.5 Q325 692 280 692 Q235 692 197 673.5 Q159 655 137 622.5 Q115 590 115 551 Q115 489 161.5 449.5 Q208 410 280 410 Z " />
<glyph glyph-name="nine" unicode="9" horiz-adv-x="572" d="M203 0 L410 290 L410 286 Q381 268 348 259 Q315 250 278 250 Q209 250 155.5 279.5 Q102 309 72.5 361 Q43 413 43 480 Q43 547 73 599 Q103 651 156.5 680.5 Q210 710 278 710 Q346 710 399.5 681 Q453 652 483 599.5 Q513 547 513 480 Q513 441 502.5 406.5 Q492 372 470 341 L225 0 L203 0 Z M278 268 Q343 268 391.5 295 Q440 322 466.5 370 Q493 418 493 480 Q493 542 466 590 Q439 638 390.5 665 Q342 692 278 692 Q214 692 165 665 Q116 638 89.5 589.5 Q63 541 63 480 Q63 417 89.5 369 Q116 321 165 294.5 Q214 268 278 268 Z " />
<glyph glyph-name="uni2780" unicode="&#x2780;" horiz-adv-x="844" d="M422 -10 Q323 -10 240 37.5 Q157 85 108.5 167.5 Q60 250 60 350 Q60 450 109 532.5 Q158 615 241 662.5 Q324 710 422 710 Q521 710 604 662.5 Q687 615 735.5 532.5 Q784 450 784 350 Q784 250 735 167.5 Q686 85 603 37.5 Q520 -10 422 -10 Z M422 8 Q516 8 594.5 53.5 Q673 99 718.5 177.5 Q764 256 764 350 Q764 444 718.5 522.5 Q673 601 594.5 646.5 Q516 692 422 692 Q328 692 249.5 646.5 Q171 601 125.5 522.5 Q80 444 80 350 Q80 256 125.5 177.5 Q171 99 249.5 53.5 Q328 8 422 8 Z M412 150 L412 544 L428 562 L432 562 L432 150 L412 150 Z " />
<glyph glyph-name="uni2781" unicode="&#x2781;" horiz-adv-x="844" d="M422 -10 Q323 -10 240 37.5 Q157 85 108.5 167.5 Q60 250 60 350 Q60 450 109 532.5 Q158 615 241 662.5 Q324 710 422 710 Q521 710 604 662.5 Q687 615 735.5 532.5 Q784 450 784 350 Q784 250 735 167.5 Q686 85 603 37.5 Q520 -10 422 -10 Z M422 8 Q516 8 594.5 53.5 Q673 99 718.5 177.5 Q764 256 764 350 Q764 444 718.5 522.5 Q673 601 594.5 646.5 Q516 692 422 692 Q328 692 249.5 646.5 Q171 601 125.5 522.5 Q80 444 80 350 Q80 256 125.5 177.5 Q171 99 249.5 53.5 Q328 8 422 8 Z M289 150 L289 154 L452 323 L467 339 Q498 371 512.5 396.5 Q527 422 527 452 Q527 491 497.5 517.5 Q468 544 424 544 Q374 544 345 515.5 Q316 487 320 440 L302 440 Q299 495 332.5 528.5 Q366 562 424 562 Q475 562 510.5 530 Q546 498 546 452 Q546 424 533 398 Q520 372 490 338 Q485 332 479.5 326 Q474 320 468 314 L329 168 L556 168 L556 150 L289 150 Z " />
<glyph glyph-name="uni2782" unicode="&#x2782;" horiz-adv-x="844" d="M422 -10 Q323 -10 240 37.5 Q157 85 108.5 167.5 Q60 250 60 350 Q60 450 109 532.5 Q158 615 241 662.5 Q324 710 422 710 Q521 710 604 662.5 Q687 615 735.5 532.5 Q784 450 784 350 Q784 250 735 167.5 Q686 85 603 37.5 Q520 -10 422 -10 Z M419 138 Q380 138 347.5 151.5 Q315 165 286 193 L291 213 Q322 184 352.5 170 Q383 156 419 156 Q472 156 505 188 Q538 220 538 271 Q538 322 503.5 357 Q469 392 419 392 Q384 392 355 381 L352 385 L527 545 L533 532 L299 532 L299 550 L551 550 L551 546 L391 399 L387 406 Q394 408 402 408.5 Q410 409 419 409 Q457 409 489 390.5 Q521 372 539.5 340.5 Q558 309 558 271 Q558 232 540.5 201.5 Q523 171 491.5 154.5 Q460 138 419 138 Z M422 8 Q516 8 594.5 53.5 Q673 99 718.5 177.5 Q764 256 764 350 Q764 444 718.5 522.5 Q673 601 594.5 646.5 Q516 692 422 692 Q328 692 249.5 646.5 Q171 601 125.5 522.5 Q80 444 80 350 Q80 256 125.5 177.5 Q171 99 249.5 53.5 Q328 8 422 8 Z " />
<glyph glyph-name="uni2783" unicode="&#x2783;" horiz-adv-x="844" d="M422 -10 Q323 -10 240 37.5 Q157 85 108.5 167.5 Q60 250 60 350 Q60 450 109 532.5 Q158 615 241 662.5 Q324 710 422 710 Q521 710 604 662.5 Q687 615 735.5 532.5 Q784 450 784 350 Q784 250 735 167.5 Q686 85 603 37.5 Q520 -10 422 -10 Z M480 150 L480 240 L253 240 L253 244 L424 550 L445 550 L282 258 L480 258 L480 373 L496 384 L500 384 L500 258 L557 258 L557 240 L500 240 L500 150 L480 150 Z M422 8 Q516 8 594.5 53.5 Q673 99 718.5 177.5 Q764 256 764 350 Q764 444 718.5 522.5 Q673 601 594.5 646.5 Q516 692 422 692 Q328 692 249.5 646.5 Q171 601 125.5 522.5 Q80 444 80 350 Q80 256 125.5 177.5 Q171 99 249.5 53.5 Q328 8 422 8 Z " />
<glyph glyph-name="uni2784" unicode="&#x2784;" horiz-adv-x="844" d="M422 -10 Q323 -10 240 37.5 Q157 85 108.5 167.5 Q60 250 60 350 Q60 450 109 532.5 Q158 615 241 662.5 Q324 710 422 710 Q521 710 604 662.5 Q687 615 735.5 532.5 Q784 450 784 350 Q784 250 735 167.5 Q686 85 603 37.5 Q520 -10 422 -10 Z M410 138 Q371 138 339.5 153 Q308 168 278 199 L281 220 Q311 188 342 172 Q373 156 409 156 Q458 156 492 189.5 Q526 223 526 271 Q526 321 493 356 Q460 391 413 391 Q380 391 357 381 Q334 371 313 349 L308 350 L352 550 L525 550 L525 532 L355 532 L368 545 L330 373 L325 381 Q361 409 413 409 Q449 409 479.5 390.5 Q510 372 528 340.5 Q546 309 546 271 Q546 235 528 204.5 Q510 174 478.5 156 Q447 138 410 138 Z M422 8 Q516 8 594.5 53.5 Q673 99 718.5 177.5 Q764 256 764 350 Q764 444 718.5 522.5 Q673 601 594.5 646.5 Q516 692 422 692 Q328 692 249.5 646.5 Q171 601 125.5 522.5 Q80 444 80 350 Q80 256 125.5 177.5 Q171 99 249.5 53.5 Q328 8 422 8 Z " />
<glyph glyph-name="uni2785" unicode="&#x2785;" horiz-adv-x="844" d="M422 -10 Q323 -10 240 37.5 Q157 85 108.5 167.5 Q60 250 60 350 Q60 450 109 532.5 Q158 615 241 662.5 Q324 710 422 710 Q521 710 604 662.5 Q687 615 735.5 532.5 Q784 450 784 350 Q784 250 735 167.5 Q686 85 603 37.5 Q520 -10 422 -10 Z M422 156 Q473 156 506.5 187 Q540 218 540 268 Q540 316 506.5 347.5 Q473 379 422 379 Q371 379 338 347.5 Q305 316 305 268 Q305 218 338 187 Q371 156 422 156 Z M422 138 Q364 138 324.5 175 Q285 212 285 268 Q285 286 289.5 302.5 Q294 319 303 335 L443 550 L465 550 L351 374 L351 379 Q366 388 384 392.5 Q402 397 422 397 Q461 397 492.5 380.5 Q524 364 542 334.5 Q560 305 560 268 Q560 211 521 174.5 Q482 138 422 138 Z M422 8 Q516 8 594.5 53.5 Q673 99 718.5 177.5 Q764 256 764 350 Q764 444 718.5 522.5 Q673 601 594.5 646.5 Q516 692 422 692 Q328 692 249.5 646.5 Q171 601 125.5 522.5 Q80 444 80 350 Q80 256 125.5 177.5 Q171 99 249.5 53.5 Q328 8 422 8 Z " />
<glyph glyph-name="uni2786" unicode="&#x2786;" horiz-adv-x="844" d="M422 -10 Q323 -10 240 37.5 Q157 85 108.5 167.5 Q60 250 60 350 Q60 450 109 532.5 Q158 615 241 662.5 Q324 710 422 710 Q521 710 604 662.5 Q687 615 735.5 532.5 Q784 450 784 350 Q784 250 735 167.5 Q686 85 603 37.5 Q520 -10 422 -10 Z M422 8 Q516 8 594.5 53.5 Q673 99 718.5 177.5 Q764 256 764 350 Q764 444 718.5 522.5 Q673 601 594.5 646.5 Q516 692 422 692 Q328 692 249.5 646.5 Q171 601 125.5 522.5 Q80 444 80 350 Q80 256 125.5 177.5 Q171 99 249.5 53.5 Q328 8 422 8 Z M345 150 L520 546 L519 532 L303 532 L303 550 L541 550 L541 546 L366 150 L345 150 Z " />
<glyph glyph-name="uni2787" unicode="&#x2787;" horiz-adv-x="844" d="M422 -10 Q323 -10 240 37.5 Q157 85 108.5 167.5 Q60 250 60 350 Q60 450 109 532.5 Q158 615 241 662.5 Q324 710 422 710 Q521 710 604 662.5 Q687 615 735.5 532.5 Q784 450 784 350 Q784 250 735 167.5 Q686 85 603 37.5 Q520 -10 422 -10 Z M422 156 Q471 156 504.5 186.5 Q538 217 538 261 Q538 307 504.5 339 Q471 371 422 371 Q373 371 339.5 339 Q306 307 306 261 Q306 217 339.5 186.5 Q373 156 422 156 Z M422 8 Q516 8 594.5 53.5 Q673 99 718.5 177.5 Q764 256 764 350 Q764 444 718.5 522.5 Q673 601 594.5 646.5 Q516 692 422 692 Q328 692 249.5 646.5 Q171 601 125.5 522.5 Q80 444 80 350 Q80 256 125.5 177.5 Q171 99 249.5 53.5 Q328 8 422 8 Z M422 138 Q365 138 325.5 173.5 Q286 209 286 261 Q286 300 311 334 Q336 368 373 380 Q346 388 327.5 413 Q309 438 309 468 Q309 494 324 515.5 Q339 537 365 549.5 Q391 562 422 562 Q453 562 479 549.5 Q505 537 520 515.5 Q535 494 535 468 Q535 438 516.5 413 Q498 388 471 380 Q508 368 533 334 Q558 300 558 261 Q558 209 518.5 173.5 Q479 138 422 138 Z M422 389 Q461 389 488 412 Q515 435 515 468 Q515 500 488 522 Q461 544 422 544 Q383 544 356 522 Q329 500 329 468 Q329 435 356 412 Q383 389 422 389 Z " />
<glyph glyph-name="uni2788" unicode="&#x2788;" horiz-adv-x="844" d="M422 -10 Q323 -10 240 37.5 Q157 85 108.5 167.5 Q60 250 60 350 Q60 450 109 532.5 Q158 615 241 662.5 Q324 710 422 710 Q521 710 604 662.5 Q687 615 735.5 532.5 Q784 450 784 350 Q784 250 735 167.5 Q686 85 603 37.5 Q520 -10 422 -10 Z M422 8 Q516 8 594.5 53.5 Q673 99 718.5 177.5 Q764 256 764 350 Q764 444 718.5 522.5 Q673 601 594.5 646.5 Q516 692 422 692 Q328 692 249.5 646.5 Q171 601 125.5 522.5 Q80 444 80 350 Q80 256 125.5 177.5 Q171 99 249.5 53.5 Q328 8 422 8 Z M379 150 L493 326 L493 321 Q478 312 460 307.5 Q442 303 422 303 Q383 303 351.5 319.5 Q320 336 302 365.5 Q284 395 284 432 Q284 489 323 525.5 Q362 562 422 562 Q480 562 519.5 525 Q559 488 559 432 Q559 414 554.5 397.5 Q550 381 541 365 L401 150 L379 150 Z M422 321 Q473 321 506 352.5 Q539 384 539 432 Q539 482 506 513 Q473 544 422 544 Q371 544 337.5 513 Q304 482 304 432 Q304 384 337.5 352.5 Q371 321 422 321 Z " />
<glyph glyph-name="uni24FF" unicode="&#x24ff;" horiz-adv-x="844" d="M422 -10 Q323 -10 240 37.5 Q157 85 108.5 167.5 Q60 250 60 350 Q60 450 109 532.5 Q158 615 241 662.5 Q324 710 422 710 Q521 710 604 662.5 Q687 615 735.5 532.5 Q784 450 784 350 Q784 250 735 167.5 Q686 85 603 37.5 Q520 -10 422 -10 Z M421 138 Q467 138 502.5 159 Q538 180 558 217.5 Q578 255 578 303 L578 397 Q578 445 558 482.5 Q538 520 502.5 541 Q467 562 421 562 Q351 562 308 516.5 Q265 471 265 397 L265 303 Q265 229 308 183.5 Q351 138 421 138 Z M421 156 Q360 156 322.5 197 Q285 238 285 303 L285 397 Q285 462 322.5 503 Q360 544 421 544 Q482 544 520 503 Q558 462 558 397 L558 303 Q558 238 520 197 Q482 156 421 156 Z " />
<glyph glyph-name="uni2776" unicode="&#x2776;" horiz-adv-x="844" d="M422 -10 Q323 -10 240 37.5 Q157 85 108.5 167.5 Q60 250 60 350 Q60 450 109 532.5 Q158 615 241 662.5 Q324 710 422 710 Q521 710 604 662.5 Q687 615 735.5 532.5 Q784 450 784 350 Q784 250 735 167.5 Q686 85 603 37.5 Q520 -10 422 -10 Z M412 150 L432 150 L432 562 L428 562 L412 544 L412 150 Z " />
<glyph glyph-name="uni2777" unicode="&#x2777;" horiz-adv-x="844" d="M422 -10 Q323 -10 240 37.5 Q157 85 108.5 167.5 Q60 250 60 350 Q60 450 109 532.5 Q158 615 241 662.5 Q324 710 422 710 Q521 710 604 662.5 Q687 615 735.5 532.5 Q784 450 784 350 Q784 250 735 167.5 Q686 85 603 37.5 Q520 -10 422 -10 Z M289 150 L556 150 L556 168 L329 168 L468 314 Q474 320 479.5 326 Q485 332 490 338 Q520 372 533 398 Q546 424 546 452 Q546 498 510.5 530 Q475 562 424 562 Q366 562 332.5 528.5 Q299 495 302 440 L320 440 Q316 487 345 515.5 Q374 544 424 544 Q468 544 497.5 517.5 Q527 491 527 452 Q527 422 512.5 396.5 Q498 371 467 339 L452 323 L289 154 L289 150 Z " />
<glyph glyph-name="uni2778" unicode="&#x2778;" horiz-adv-x="844" d="M422 -10 Q323 -10 240 37.5 Q157 85 108.5 167.5 Q60 250 60 350 Q60 450 109 532.5 Q158 615 241 662.5 Q324 710 422 710 Q521 710 604 662.5 Q687 615 735.5 532.5 Q784 450 784 350 Q784 250 735 167.5 Q686 85 603 37.5 Q520 -10 422 -10 Z M419 138 Q460 138 491.5 154.5 Q523 171 540.5 201.5 Q558 232 558 271 Q558 313 535 347 Q512 381 475.5 397.5 Q439 414 401 408 L551 546 L551 550 L299 550 L299 532 L513 532 L352 385 L355 381 Q384 392 419 392 Q469 392 503.5 357 Q538 322 538 271 Q538 220 505 188 Q472 156 419 156 Q383 156 352.5 170 Q322 184 291 213 L286 193 Q315 165 347.5 151.5 Q380 138 419 138 Z " />
<glyph glyph-name="uni2779" unicode="&#x2779;" horiz-adv-x="844" d="M422 -10 Q323 -10 240 37.5 Q157 85 108.5 167.5 Q60 250 60 350 Q60 450 109 532.5 Q158 615 241 662.5 Q324 710 422 710 Q521 710 604 662.5 Q687 615 735.5 532.5 Q784 450 784 350 Q784 250 735 167.5 Q686 85 603 37.5 Q520 -10 422 -10 Z M480 150 L500 150 L500 240 L557 240 L557 258 L500 258 L500 384 L496 384 L480 373 L480 258 L282 258 L445 550 L424 550 L253 244 L253 240 L480 240 L480 150 Z " />
<glyph glyph-name="uni277A" unicode="&#x277a;" horiz-adv-x="844" d="M422 -10 Q323 -10 240 37.5 Q157 85 108.5 167.5 Q60 250 60 350 Q60 450 109 532.5 Q158 615 241 662.5 Q324 710 422 710 Q521 710 604 662.5 Q687 615 735.5 532.5 Q784 450 784 350 Q784 250 735 167.5 Q686 85 603 37.5 Q520 -10 422 -10 Z M410 138 Q447 138 478.5 156 Q510 174 528 204.5 Q546 235 546 271 Q546 309 528 340.5 Q510 372 479.5 390.5 Q449 409 413 409 Q390 409 370 404 Q350 399 333 387 L365 532 L525 532 L525 550 L352 550 L308 350 L313 349 Q334 371 357 381 Q380 391 413 391 Q460 391 493 356 Q526 321 526 271 Q526 223 492 189.5 Q458 156 409 156 Q373 156 342 172 Q311 188 281 220 L278 199 Q308 168 339.5 153 Q371 138 410 138 Z " />
<glyph glyph-name="uni277B" unicode="&#x277b;" horiz-adv-x="844" d="M422 -10 Q323 -10 240 37.5 Q157 85 108.5 167.5 Q60 250 60 350 Q60 450 109 532.5 Q158 615 241 662.5 Q324 710 422 710 Q521 710 604 662.5 Q687 615 735.5 532.5 Q784 450 784 350 Q784 250 735 167.5 Q686 85 603 37.5 Q520 -10 422 -10 Z M422 156 Q371 156 338 187 Q305 218 305 268 Q305 316 338 347.5 Q371 379 422 379 Q473 379 506.5 347.5 Q540 316 540 268 Q540 218 506.5 187 Q473 156 422 156 Z M422 138 Q482 138 521 174.5 Q560 211 560 268 Q560 318 528.5 352.5 Q497 387 449 395.5 Q401 404 357 383 L465 550 L443 550 L303 335 Q294 319 289.5 302.5 Q285 286 285 268 Q285 212 324.5 175 Q364 138 422 138 Z " />
<glyph glyph-name="uni277C" unicode="&#x277c;" horiz-adv-x="844" d="M422 -10 Q323 -10 240 37.5 Q157 85 108.5 167.5 Q60 250 60 350 Q60 450 109 532.5 Q158 615 241 662.5 Q324 710 422 710 Q521 710 604 662.5 Q687 615 735.5 532.5 Q784 450 784 350 Q784 250 735 167.5 Q686 85 603 37.5 Q520 -10 422 -10 Z M345 150 L366 150 L541 546 L541 550 L303 550 L303 532 L514 532 L345 150 Z " />
<glyph glyph-name="uni277D" unicode="&#x277d;" horiz-adv-x="844" d="M422 -10 Q323 -10 240 37.5 Q157 85 108.5 167.5 Q60 250 60 350 Q60 450 109 532.5 Q158 615 241 662.5 Q324 710 422 710 Q521 710 604 662.5 Q687 615 735.5 532.5 Q784 450 784 350 Q784 250 735 167.5 Q686 85 603 37.5 Q520 -10 422 -10 Z M422 156 Q373 156 339.5 186.5 Q306 217 306 261 Q306 307 339.5 339 Q373 371 422 371 Q471 371 504.5 339 Q538 307 538 261 Q538 217 504.5 186.5 Q471 156 422 156 Z M422 138 Q479 138 518.5 173.5 Q558 209 558 261 Q558 300 533 334 Q508 368 471 380 Q498 388 516.5 413 Q535 438 535 468 Q535 494 520 515.5 Q505 537 479 549.5 Q453 562 422 562 Q391 562 365 549.5 Q339 537 324 515.5 Q309 494 309 468 Q309 438 327.5 413 Q346 388 373 380 Q336 368 311 334 Q286 300 286 261 Q286 209 325.5 173.5 Q365 138 422 138 Z M422 389 Q383 389 356 412 Q329 435 329 468 Q329 500 356 522 Q383 544 422 544 Q461 544 488 522 Q515 500 515 468 Q515 435 488 412 Q461 389 422 389 Z " />
<glyph glyph-name="uni277E" unicode="&#x277e;" horiz-adv-x="844" d="M422 -10 Q323 -10 240 37.5 Q157 85 108.5 167.5 Q60 250 60 350 Q60 450 109 532.5 Q158 615 241 662.5 Q324 710 422 710 Q521 710 604 662.5 Q687 615 735.5 532.5 Q784 450 784 350 Q784 250 735 167.5 Q686 85 603 37.5 Q520 -10 422 -10 Z M379 150 L401 150 L541 365 Q550 381 554.5 397.5 Q559 414 559 432 Q559 488 519.5 525 Q480 562 422 562 Q362 562 323 525.5 Q284 489 284 432 Q284 382 316.5 347 Q349 312 397.5 304 Q446 296 488 318 L379 150 Z M422 321 Q371 321 337.5 352.5 Q304 384 304 432 Q304 482 337.5 513 Q371 544 422 544 Q473 544 506 513 Q539 482 539 432 Q539 384 506 352.5 Q473 321 422 321 Z " />
<glyph glyph-name="uni24EA" unicode="&#x24ea;" horiz-adv-x="844" d="M422 -10 Q323 -10 240 37.5 Q157 85 108.5 167.5 Q60 250 60 350 Q60 450 109 532.5 Q158 615 241 662.5 Q324 710 422 710 Q521 710 604 662.5 Q687 615 735.5 532.5 Q784 450 784 350 Q784 250 735 167.5 Q686 85 603 37.5 Q520 -10 422 -10 Z M422 8 Q516 8 594.5 53.5 Q673 99 718.5 177.5 Q764 256 764 350 Q764 444 718.5 522.5 Q673 601 594.5 646.5 Q516 692 422 692 Q328 692 249.5 646.5 Q171 601 125.5 522.5 Q80 444 80 350 Q80 256 125.5 177.5 Q171 99 249.5 53.5 Q328 8 422 8 Z M421 138 Q351 138 308 183.5 Q265 229 265 303 L265 397 Q265 471 308 516.5 Q351 562 421 562 Q467 562 502.5 541 Q538 520 558 482.5 Q578 445 578 397 L578 303 Q578 255 558 217.5 Q538 180 502.5 159 Q467 138 421 138 Z M421 156 Q482 156 520 197 Q558 238 558 303 L558 397 Q558 462 520 503 Q482 544 421 544 Q360 544 322.5 503 Q285 462 285 397 L285 303 Q285 238 322.5 197 Q360 156 421 156 Z " />
<glyph glyph-name="uni2080" unicode="&#x2080;" horiz-adv-x="393" d="M196 -172 Q126 -172 83 -126.5 Q40 -81 40 -7 L40 87 Q40 161 83 206.5 Q126 252 196 252 Q242 252 277.5 231 Q313 210 333 172.5 Q353 135 353 87 L353 -7 Q353 -55 333 -92.5 Q313 -130 277.5 -151 Q242 -172 196 -172 Z M196 -154 Q257 -154 295 -113 Q333 -72 333 -7 L333 87 Q333 152 295 193 Q257 234 196 234 Q135 234 97.5 193 Q60 152 60 87 L60 -7 Q60 -72 97.5 -113 Q135 -154 196 -154 Z " />
<glyph glyph-name="uni2081" unicode="&#x2081;" horiz-adv-x="160" d="M70 -160 L70 234 L86 252 L90 252 L90 -160 L70 -160 Z " />
<glyph glyph-name="uni2082" unicode="&#x2082;" horiz-adv-x="347" d="M40 -160 L40 -156 L203 13 L218 29 Q249 61 263.5 86.5 Q278 112 278 142 Q278 181 248.5 207.5 Q219 234 175 234 Q125 234 96 205.5 Q67 177 71 130 L53 130 Q50 185 83.5 218.5 Q117 252 175 252 Q226 252 261.5 220 Q297 188 297 142 Q297 114 284 88 Q271 62 241 28 Q236 22 230.5 16 Q225 10 219 4 L67 -156 L62 -142 L307 -142 L307 -160 L40 -160 Z " />
<glyph glyph-name="uni2083" unicode="&#x2083;" horiz-adv-x="347" d="M168 -172 Q129 -172 96.5 -158.5 Q64 -145 35 -117 L40 -97 Q71 -126 101.5 -140 Q132 -154 168 -154 Q221 -154 254 -122 Q287 -90 287 -39 Q287 12 252.5 47 Q218 82 168 82 Q133 82 104 71 L101 75 L276 235 L282 222 L48 222 L48 240 L300 240 L300 236 L140 89 L136 96 Q143 98 151 98.5 Q159 99 168 99 Q206 99 238 80.5 Q270 62 288.5 30.5 Q307 -1 307 -39 Q307 -78 289.5 -108.5 Q272 -139 240.5 -155.5 Q209 -172 168 -172 Z " />
<glyph glyph-name="uni2084" unicode="&#x2084;" horiz-adv-x="354" d="M247 -160 L247 -70 L20 -70 L20 -66 L191 240 L212 240 L49 -52 L247 -52 L247 63 L263 74 L267 74 L267 -52 L324 -52 L324 -70 L267 -70 L267 -160 L247 -160 Z " />
<glyph glyph-name="uni2085" unicode="&#x2085;" horiz-adv-x="328" d="M167 -172 Q128 -172 96.5 -157 Q65 -142 35 -111 L38 -90 Q68 -122 99 -138 Q130 -154 166 -154 Q215 -154 249 -120.5 Q283 -87 283 -39 Q283 11 250 46 Q217 81 170 81 Q137 81 114 71 Q91 61 70 39 L65 40 L109 240 L282 240 L282 222 L112 222 L125 235 L87 63 L82 71 Q118 99 170 99 Q206 99 236.5 80.5 Q267 62 285 30.5 Q303 -1 303 -39 Q303 -75 285 -105.5 Q267 -136 235.5 -154 Q204 -172 167 -172 Z " />
<glyph glyph-name="uni2086" unicode="&#x2086;" horiz-adv-x="335" d="M167 -172 Q109 -172 69.5 -135 Q30 -98 30 -42 Q30 -24 34.5 -7.5 Q39 9 48 25 L188 240 L210 240 L96 64 L96 69 Q111 78 129 82.5 Q147 87 167 87 Q206 87 237.5 70.5 Q269 54 287 24.5 Q305 -5 305 -42 Q305 -99 266 -135.5 Q227 -172 167 -172 Z M167 -154 Q218 -154 251.5 -123 Q285 -92 285 -42 Q285 6 251.5 37.5 Q218 69 167 69 Q116 69 83 37.5 Q50 6 50 -42 Q50 -92 83 -123 Q116 -154 167 -154 Z " />
<glyph glyph-name="uni2087" unicode="&#x2087;" horiz-adv-x="308" d="M72 -160 L241 222 L30 222 L30 240 L268 240 L268 236 L93 -160 L72 -160 Z " />
<glyph glyph-name="uni2088" unicode="&#x2088;" horiz-adv-x="352" d="M176 -172 Q119 -172 79.5 -136.5 Q40 -101 40 -49 Q40 -10 65 24 Q90 58 127 70 Q100 78 81.5 103 Q63 128 63 158 Q63 184 78 205.5 Q93 227 119 239.5 Q145 252 176 252 Q207 252 233 239.5 Q259 227 274 205.5 Q289 184 289 158 Q289 128 270.5 103 Q252 78 225 70 Q262 58 287 24 Q312 -10 312 -49 Q312 -101 272.5 -136.5 Q233 -172 176 -172 Z M176 -154 Q225 -154 258.5 -123.5 Q292 -93 292 -49 Q292 -3 258.5 29 Q225 61 176 61 Q127 61 93.5 29 Q60 -3 60 -49 Q60 -93 93.5 -123.5 Q127 -154 176 -154 Z M176 79 Q215 79 242 102 Q269 125 269 158 Q269 190 242 212 Q215 234 176 234 Q137 234 110 212 Q83 190 83 158 Q83 125 110 102 Q137 79 176 79 Z " />
<glyph glyph-name="uni2089" unicode="&#x2089;" horiz-adv-x="335" d="M125 -160 L239 16 L239 11 Q224 2 206 -2.5 Q188 -7 168 -7 Q129 -7 97.5 9.5 Q66 26 48 55.5 Q30 85 30 122 Q30 179 69 215.5 Q108 252 168 252 Q226 252 265.5 215 Q305 178 305 122 Q305 104 300.5 87.5 Q296 71 287 55 L147 -160 L125 -160 Z M168 11 Q219 11 252 42.5 Q285 74 285 122 Q285 172 252 203 Q219 234 168 234 Q117 234 83.5 203 Q50 172 50 122 Q50 74 83.5 42.5 Q117 11 168 11 Z " />
<glyph glyph-name="uni2070" unicode="&#x2070;" horiz-adv-x="393" d="M196 448 Q126 448 83 493.5 Q40 539 40 613 L40 707 Q40 781 83 826.5 Q126 872 196 872 Q242 872 277.5 851 Q313 830 333 792.5 Q353 755 353 707 L353 613 Q353 565 333 527.5 Q313 490 277.5 469 Q242 448 196 448 Z M196 466 Q257 466 295 507 Q333 548 333 613 L333 707 Q333 772 295 813 Q257 854 196 854 Q135 854 97.5 813 Q60 772 60 707 L60 613 Q60 548 97.5 507 Q135 466 196 466 Z " />
<glyph glyph-name="uni00B9" unicode="&#xb9;" horiz-adv-x="160" d="M70 460 L70 854 L86 872 L90 872 L90 460 L70 460 Z " />
<glyph glyph-name="uni00B2" unicode="&#xb2;" horiz-adv-x="347" d="M40 460 L40 464 L203 633 L218 649 Q249 681 263.5 706.5 Q278 732 278 762 Q278 801 248.5 827.5 Q219 854 175 854 Q125 854 96 825.5 Q67 797 71 750 L53 750 Q50 805 83.5 838.5 Q117 872 175 872 Q226 872 261.5 840 Q297 808 297 762 Q297 734 284 708 Q271 682 241 648 Q236 642 230.5 636 Q225 630 219 624 L67 464 L62 478 L307 478 L307 460 L40 460 Z " />
<glyph glyph-name="uni00B3" unicode="&#xb3;" horiz-adv-x="347" d="M168 448 Q129 448 96.5 461.5 Q64 475 35 503 L40 523 Q71 494 101.5 480 Q132 466 168 466 Q221 466 254 498 Q287 530 287 581 Q287 632 252.5 667 Q218 702 168 702 Q133 702 104 691 L101 695 L276 855 L282 842 L48 842 L48 860 L300 860 L300 856 L140 709 L136 716 Q143 718 151 718.5 Q159 719 168 719 Q206 719 238 700.5 Q270 682 288.5 650.5 Q307 619 307 581 Q307 542 289.5 511.5 Q272 481 240.5 464.5 Q209 448 168 448 Z " />
<glyph glyph-name="uni2074" unicode="&#x2074;" horiz-adv-x="354" d="M247 460 L247 550 L20 550 L20 554 L191 860 L212 860 L49 568 L247 568 L247 683 L263 694 L267 694 L267 568 L324 568 L324 550 L267 550 L267 460 L247 460 Z " />
<glyph glyph-name="uni2075" unicode="&#x2075;" horiz-adv-x="328" d="M167 448 Q128 448 96.5 463 Q65 478 35 509 L38 530 Q68 498 99 482 Q130 466 166 466 Q215 466 249 499.5 Q283 533 283 581 Q283 631 250 666 Q217 701 170 701 Q137 701 114 691 Q91 681 70 659 L65 660 L109 860 L282 860 L282 842 L112 842 L125 855 L87 683 L82 691 Q118 719 170 719 Q206 719 236.5 700.5 Q267 682 285 650.5 Q303 619 303 581 Q303 545 285 514.5 Q267 484 235.5 466 Q204 448 167 448 Z " />
<glyph glyph-name="uni2076" unicode="&#x2076;" horiz-adv-x="335" d="M167 448 Q109 448 69.5 485 Q30 522 30 578 Q30 596 34.5 612.5 Q39 629 48 645 L188 860 L210 860 L96 684 L96 689 Q111 698 129 702.5 Q147 707 167 707 Q206 707 237.5 690.5 Q269 674 287 644.5 Q305 615 305 578 Q305 521 266 484.5 Q227 448 167 448 Z M167 466 Q218 466 251.5 497 Q285 528 285 578 Q285 626 251.5 657.5 Q218 689 167 689 Q116 689 83 657.5 Q50 626 50 578 Q50 528 83 497 Q116 466 167 466 Z " />
<glyph glyph-name="uni2077" unicode="&#x2077;" horiz-adv-x="308" d="M72 460 L241 842 L30 842 L30 860 L268 860 L268 856 L93 460 L72 460 Z " />
<glyph glyph-name="uni2078" unicode="&#x2078;" horiz-adv-x="352" d="M176 448 Q119 448 79.5 483.5 Q40 519 40 571 Q40 610 65 644 Q90 678 127 690 Q100 698 81.5 723 Q63 748 63 778 Q63 804 78 825.5 Q93 847 119 859.5 Q145 872 176 872 Q207 872 233 859.5 Q259 847 274 825.5 Q289 804 289 778 Q289 748 270.5 723 Q252 698 225 690 Q262 678 287 644 Q312 610 312 571 Q312 519 272.5 483.5 Q233 448 176 448 Z M176 466 Q225 466 258.5 496.5 Q292 527 292 571 Q292 617 258.5 649 Q225 681 176 681 Q127 681 93.5 649 Q60 617 60 571 Q60 527 93.5 496.5 Q127 466 176 466 Z M176 699 Q215 699 242 722 Q269 745 269 778 Q269 810 242 832 Q215 854 176 854 Q137 854 110 832 Q83 810 83 778 Q83 745 110 722 Q137 699 176 699 Z " />
<glyph glyph-name="uni2079" unicode="&#x2079;" horiz-adv-x="335" d="M125 460 L239 636 L239 631 Q224 622 206 617.5 Q188 613 168 613 Q129 613 97.5 629.5 Q66 646 48 675.5 Q30 705 30 742 Q30 799 69 835.5 Q108 872 168 872 Q226 872 265.5 835 Q305 798 305 742 Q305 724 300.5 707.5 Q296 691 287 675 L147 460 L125 460 Z M168 631 Q219 631 252 662.5 Q285 694 285 742 Q285 792 252 823 Q219 854 168 854 Q117 854 83.5 823 Q50 792 50 742 Q50 694 83.5 662.5 Q117 631 168 631 Z " />
<glyph glyph-name="fraction" unicode="&#x2044;" horiz-adv-x="180" d="M-202 0 L354 700 L377 700 L-179 0 L-202 0 Z " />
<glyph glyph-name="onehalf" unicode="&#xbd;" horiz-adv-x="692" d="M42 0 L598 700 L621 700 L65 0 L42 0 Z M101 298 L101 692 L117 710 L121 710 L121 298 L101 298 Z M469 0 L469 4 L632 173 L647 189 Q678 221 692.5 246.5 Q707 272 707 302 Q707 341 677.5 367.5 Q648 394 604 394 Q554 394 525 365.5 Q496 337 500 290 L482 290 Q479 345 512.5 378.5 Q546 412 604 412 Q655 412 690.5 380 Q726 348 726 302 Q726 274 713 248 Q700 222 670 188 Q665 182 659.5 176 Q654 170 648 164 L496 4 L491 18 L736 18 L736 0 L469 0 Z " />
<glyph glyph-name="onequarter" unicode="&#xbc;" horiz-adv-x="785" d="M46 0 L602 700 L625 700 L69 0 L46 0 Z M105 298 L105 692 L121 710 L125 710 L125 298 L105 298 Z M675 0 L675 90 L448 90 L448 94 L619 400 L640 400 L477 108 L675 108 L675 223 L691 234 L695 234 L695 108 L752 108 L752 90 L695 90 L695 0 L675 0 Z " />
<glyph glyph-name="threequarters" unicode="&#xbe;" horiz-adv-x="941" d="M202 0 L758 700 L781 700 L225 0 L202 0 Z M831 0 L831 90 L604 90 L604 94 L775 400 L796 400 L633 108 L831 108 L831 223 L847 234 L851 234 L851 108 L908 108 L908 90 L851 90 L851 0 L831 0 Z M176 287 Q137 287 104.5 300.5 Q72 314 43 342 L48 362 Q79 333 109.5 319 Q140 305 176 305 Q229 305 262 337 Q295 369 295 420 Q295 471 260.5 506 Q226 541 176 541 Q141 541 112 530 L109 534 L284 694 L290 681 L56 681 L56 699 L308 699 L308 695 L148 548 L144 555 Q151 557 159 557.5 Q167 558 176 558 Q214 558 246 539.5 Q278 521 296.5 489.5 Q315 458 315 420 Q315 381 297.5 350.5 Q280 320 248.5 303.5 Q217 287 176 287 Z " />
<glyph glyph-name="oneeighth" unicode="&#x215b;" horiz-adv-x="780" d="M39 0 L595 700 L618 700 L62 0 L39 0 Z M98 298 L98 692 L114 710 L118 710 L118 298 L98 298 Z M604 8 Q653 8 686.5 38.5 Q720 69 720 113 Q720 159 686.5 191 Q653 223 604 223 Q555 223 521.5 191 Q488 159 488 113 Q488 69 521.5 38.5 Q555 8 604 8 Z M604 -10 Q547 -10 507.5 25.5 Q468 61 468 113 Q468 152 493 186 Q518 220 555 232 Q528 240 509.5 265 Q491 290 491 320 Q491 346 506 367.5 Q521 389 547 401.5 Q573 414 604 414 Q635 414 661 401.5 Q687 389 702 367.5 Q717 346 717 320 Q717 290 698.5 265 Q680 240 653 232 Q690 220 715 186 Q740 152 740 113 Q740 61 700.5 25.5 Q661 -10 604 -10 Z M604 241 Q643 241 670 264 Q697 287 697 320 Q697 352 670 374 Q643 396 604 396 Q565 396 538 374 Q511 352 511 320 Q511 287 538 264 Q565 241 604 241 Z " />
<glyph glyph-name="threeeighths" unicode="&#x215c;" horiz-adv-x="938" d="M196 0 L752 700 L775 700 L219 0 L196 0 Z M170 288 Q131 288 98.5 301.5 Q66 315 37 343 L42 363 Q73 334 103.5 320 Q134 306 170 306 Q223 306 256 338 Q289 370 289 421 Q289 472 254.5 507 Q220 542 170 542 Q135 542 106 531 L103 535 L278 695 L284 682 L50 682 L50 700 L302 700 L302 696 L142 549 L138 556 Q145 558 153 558.5 Q161 559 170 559 Q208 559 240 540.5 Q272 522 290.5 490.5 Q309 459 309 421 Q309 382 291.5 351.5 Q274 321 242.5 304.5 Q211 288 170 288 Z M761 8 Q810 8 843.5 38.5 Q877 69 877 113 Q877 159 843.5 191 Q810 223 761 223 Q712 223 678.5 191 Q645 159 645 113 Q645 69 678.5 38.5 Q712 8 761 8 Z M761 -10 Q704 -10 664.5 25.5 Q625 61 625 113 Q625 152 650 186 Q675 220 712 232 Q685 240 666.5 265 Q648 290 648 320 Q648 346 663 367.5 Q678 389 704 401.5 Q730 414 761 414 Q792 414 818 401.5 Q844 389 859 367.5 Q874 346 874 320 Q874 290 855.5 265 Q837 240 810 232 Q847 220 872 186 Q897 152 897 113 Q897 61 857.5 25.5 Q818 -10 761 -10 Z M761 241 Q800 241 827 264 Q854 287 854 320 Q854 352 827 374 Q800 396 761 396 Q722 396 695 374 Q668 352 668 320 Q668 287 695 264 Q722 241 761 241 Z " />
<glyph glyph-name="fiveeighths" unicode="&#x215d;" horiz-adv-x="929" d="M186 0 L742 700 L765 700 L209 0 L186 0 Z M751 -10 Q694 -10 654.5 25.5 Q615 61 615 113 Q615 152 640 186 Q665 220 702 232 Q675 240 656.5 265 Q638 290 638 320 Q638 346 653 367.5 Q668 389 694 401.5 Q720 414 751 414 Q782 414 808 401.5 Q834 389 849 367.5 Q864 346 864 320 Q864 290 845.5 265 Q827 240 800 232 Q837 220 862 186 Q887 152 887 113 Q887 61 847.5 25.5 Q808 -10 751 -10 Z M751 8 Q800 8 833.5 38.5 Q867 69 867 113 Q867 159 833.5 191 Q800 223 751 223 Q702 223 668.5 191 Q635 159 635 113 Q635 69 668.5 38.5 Q702 8 751 8 Z M751 241 Q790 241 817 264 Q844 287 844 320 Q844 352 817 374 Q790 396 751 396 Q712 396 685 374 Q658 352 658 320 Q658 287 685 264 Q712 241 751 241 Z M169 288 Q130 288 98.5 303 Q67 318 37 349 L40 370 Q70 338 101 322 Q132 306 168 306 Q217 306 251 339.5 Q285 373 285 421 Q285 471 252 506 Q219 541 172 541 Q139 541 116 531 Q93 521 72 499 L67 500 L111 700 L284 700 L284 682 L114 682 L127 695 L89 523 L84 531 Q120 559 172 559 Q208 559 238.5 540.5 Q269 522 287 490.5 Q305 459 305 421 Q305 385 287 354.5 Q269 324 237.5 306 Q206 288 169 288 Z " />
<glyph glyph-name="seveneighths" unicode="&#x215e;" horiz-adv-x="902" d="M155 0 L711 700 L734 700 L178 0 L155 0 Z M720 -10 Q663 -10 623.5 25.5 Q584 61 584 113 Q584 152 609 186 Q634 220 671 232 Q644 240 625.5 265 Q607 290 607 320 Q607 346 622 367.5 Q637 389 663 401.5 Q689 414 720 414 Q751 414 777 401.5 Q803 389 818 367.5 Q833 346 833 320 Q833 290 814.5 265 Q796 240 769 232 Q806 220 831 186 Q856 152 856 113 Q856 61 816.5 25.5 Q777 -10 720 -10 Z M720 8 Q769 8 802.5 38.5 Q836 69 836 113 Q836 159 802.5 191 Q769 223 720 223 Q671 223 637.5 191 Q604 159 604 113 Q604 69 637.5 38.5 Q671 8 720 8 Z M720 241 Q759 241 786 264 Q813 287 813 320 Q813 352 786 374 Q759 396 720 396 Q681 396 654 374 Q627 352 627 320 Q627 287 654 264 Q681 241 720 241 Z M76 300 L245 682 L34 682 L34 700 L272 700 L272 696 L97 300 L76 300 Z " />
<glyph glyph-name="period" unicode="&#x2e;" horiz-adv-x="169" d="M85 -10 Q74 -10 66.5 -2.5 Q59 5 59 16 Q59 27 66.5 34 Q74 41 85 41 Q96 41 103 34 Q110 27 110 16 Q110 5 103 -2.5 Q96 -10 85 -10 Z " />
<glyph glyph-name="comma" unicode="&#x2c;" horiz-adv-x="157" d="M34 -140 L76 35 L101 35 L50 -140 L34 -140 Z " />
<glyph glyph-name="colon" unicode="&#x3a;" horiz-adv-x="205" d="M103 430 Q92 430 84.5 437.5 Q77 445 77 456 Q77 467 84.5 474 Q92 481 103 481 Q114 481 121 474 Q128 467 128 456 Q128 445 121 437.5 Q114 430 103 430 Z M103 -10 Q92 -10 84.5 -2.5 Q77 5 77 16 Q77 27 84.5 34 Q92 41 103 41 Q114 41 121 34 Q128 27 128 16 Q128 5 121 -2.5 Q114 -10 103 -10 Z " />
<glyph glyph-name="semicolon" unicode="&#x3b;" horiz-adv-x="257" d="M82 -140 L124 35 L149 35 L98 -140 L82 -140 Z M136 430 Q125 430 117.5 437.5 Q110 445 110 456 Q110 467 117.5 474 Q125 481 136 481 Q147 481 154 474 Q161 467 161 456 Q161 445 154 437.5 Q147 430 136 430 Z " />
<glyph glyph-name="ellipsis" unicode="&#x2026;" horiz-adv-x="549" d="M465 -10 Q454 -10 446.5 -2.5 Q439 5 439 16 Q439 27 446.5 34 Q454 41 465 41 Q476 41 483 34 Q490 27 490 16 Q490 5 483 -2.5 Q476 -10 465 -10 Z M85 -10 Q74 -10 66.5 -2.5 Q59 5 59 16 Q59 27 66.5 34 Q74 41 85 41 Q96 41 103 34 Q110 27 110 16 Q110 5 103 -2.5 Q96 -10 85 -10 Z M275 -10 Q264 -10 256.5 -2.5 Q249 5 249 16 Q249 27 256.5 34 Q264 41 275 41 Q286 41 293 34 Q300 27 300 16 Q300 5 293 -2.5 Q286 -10 275 -10 Z " />
<glyph glyph-name="exclam" unicode="&#x21;" horiz-adv-x="222" d="M103 160 L101 700 L121 700 L119 160 L103 160 Z M112 -10 Q101 -10 93.5 -2.5 Q86 5 86 16 Q86 27 93.5 34 Q101 41 112 41 Q123 41 130 34 Q137 27 137 16 Q137 5 130 -2.5 Q123 -10 112 -10 Z " />
<glyph glyph-name="exclamdown" unicode="&#xa1;" horiz-adv-x="210" d="M95 -134 L97 406 L113 406 L115 -134 L95 -134 Z M106 525 Q95 525 87.5 532 Q80 539 80 550 Q80 561 87.5 568.5 Q95 576 106 576 Q117 576 124 568.5 Q131 561 131 550 Q131 540 124 532.5 Q117 525 106 525 Z " />
<glyph glyph-name="question" unicode="&#x3f;" horiz-adv-x="467" d="M210 160 Q198 204 215 247 Q232 290 266 330 L294 362 Q343 417 368 456 Q393 495 393 540 Q393 582 369.5 617 Q346 652 306 672 Q266 692 218 692 Q171 692 133 674 Q95 656 74 624 Q53 592 53 553 L35 559 Q35 601 59 635.5 Q83 670 125 690 Q167 710 218 710 Q272 710 316.5 687.5 Q361 665 387 626 Q413 587 413 540 Q413 491 388.5 451 Q364 411 316 358 Q306 347 296 335 Q286 323 276 312 Q256 288 243 265 Q230 242 224 215.5 Q218 189 222 160 L210 160 Z M227 -10 Q216 -10 208.5 -2.5 Q201 5 201 16 Q201 27 208.5 34 Q216 41 227 41 Q238 41 245 34 Q252 27 252 16 Q252 5 245 -2.5 Q238 -10 227 -10 Z " />
</font>
</svg>
