<?xml version="1.0" standalone="no"?>
<!DOCTYPE svg PUBLIC "-//W3C//DTD SVG 20010904//EN"
 "http://www.w3.org/TR/2001/REC-SVG-20010904/DTD/svg10.dtd">
<svg version="1.0" xmlns="http://www.w3.org/2000/svg"
 width="700.000000pt" height="700.000000pt" viewBox="0 0 700.000000 700.000000"
 preserveAspectRatio="xMidYMid meet">
<metadata>
Created by potrace 1.14, written by Peter Selinger 2001-2017
</metadata>
<g transform="translate(0.000000,700.000000) scale(0.100000,-0.100000)"
fill="#000000" stroke="none">
<path d="M665 5932 c-61 -21 -89 -63 -139 -216 -108 -326 -104 -639 14 -901
69 -154 223 -332 373 -434 90 -61 248 -141 325 -166 28 -10 52 -19 52 -20 0
-2 -39 -15 -87 -30 -49 -14 -102 -31 -119 -36 -17 -5 -40 -11 -50 -13 -10 -2
-54 -11 -96 -20 -43 -9 -93 -18 -112 -21 -69 -8 -116 -54 -116 -112 0 -63 72
-192 155 -278 100 -105 311 -197 509 -223 71 -9 257 -8 311 1 17 3 50 9 74 12
61 9 217 62 268 92 l41 24 20 -63 c20 -61 179 -560 187 -586 3 -7 5 -16 6 -20
1 -4 6 -18 11 -32 25 -66 83 -315 103 -440 3 -19 7 -46 10 -60 35 -202 19
-568 -35 -805 -22 -96 -3 -145 73 -189 59 -34 121 -53 234 -71 118 -19 180
-40 187 -63 2 -9 7 -34 10 -54 12 -71 74 -97 296 -124 30 -3 75 -9 100 -12 66
-8 396 -8 460 0 30 4 78 10 105 13 218 25 278 51 291 123 3 20 8 45 10 54 7
23 70 44 189 64 161 26 260 69 301 131 18 29 17 42 -15 226 -23 128 -35 271
-35 407 0 90 12 278 18 289 2 3 6 29 10 56 5 43 12 86 32 181 22 109 88 336
164 564 64 193 122 374 125 390 2 8 4 16 4 17 1 1 38 -16 84 -37 144 -67 303
-98 485 -95 125 3 168 8 277 37 224 59 398 190 479 358 36 74 44 132 22 165
-22 33 -53 53 -96 60 -19 3 -46 7 -60 10 -14 3 -38 7 -55 10 -41 6 -173 41
-275 72 -65 20 -80 28 -65 33 233 87 386 180 521 314 326 326 394 772 196
1291 -38 99 -88 139 -164 130 -94 -12 -126 -90 -90 -220 80 -286 -112 -520
-547 -670 -194 -66 -405 -100 -626 -99 -178 1 -276 15 -360 55 -60 28 -90 54
-260 228 -98 101 -172 151 -254 172 -56 14 -79 11 -231 -31 -125 -35 -184 -50
-210 -55 -14 -3 -36 -7 -50 -10 -163 -36 -156 -37 -510 50 -8 2 -49 14 -90 26
-182 55 -293 14 -469 -174 -158 -170 -211 -210 -310 -234 -265 -63 -714 -16
-1006 106 -370 154 -534 390 -451 649 28 87 25 119 -16 165 -34 37 -89 53
-133 39z"/>
</g>
</svg>
