<?xml version="1.0" encoding="UTF-8"?>
<svg xmlns="http://www.w3.org/2000/svg" xmlns:xlink="http://www.w3.org/1999/xlink" version="1.2" >
<font id="EtruscoNowItalicVariable">
<font-face  font-family="EtruscoNowItalicVariable" units-per-em="1000" ascent="1153" descent="-382" font-style="normal" font-weight="400" font-stretch="normal" slope="-15" cap-height="700" x-height="532" underline-position="-150" underline-thickness="100" />
<missing-glyph  horiz-adv-x="328" d="" />
<glyph glyph-name="nonmarkingreturn" unicode="&#xd;" horiz-adv-x="236" d="" />
<glyph glyph-name="space" unicode="&#x20;" horiz-adv-x="120" d="" />
<glyph glyph-name="A" unicode="A" horiz-adv-x="210" d="M22 177 L31 205 L151 205 L144 177 L22 177 Z M-63 0 L195 700 L249 700 L131 0 L103 0 L216 672 L214 672 L-34 0 L-63 0 Z " />
<glyph glyph-name="B" unicode="B" horiz-adv-x="201" d="M-46 0 L141 700 L190 700 Q241 700 256.5 662.5 Q272 625 250 543 L243 515 Q225 450 202.5 411 Q180 372 153 361 L153 359 Q176 345 179.5 309.5 Q183 274 167 214 L152 157 Q129 72 99 36 Q69 0 18 0 L-46 0 Z M20 28 Q56 28 79.5 58 Q103 88 122 157 L137 214 Q156 285 148.5 316.5 Q141 348 106 348 L77 348 L-9 28 L20 28 Z M113 376 Q146 376 169.5 408.5 Q193 441 213 515 L220 543 Q239 612 232.5 642 Q226 672 193 672 L164 672 L84 376 L113 376 Z " />
<glyph glyph-name="C" unicode="C" horiz-adv-x="200" d="M39 -4 Q14 -4 -3.5 8 Q-21 20 -27.5 41.5 Q-34 63 -27 92 L111 606 Q124 654 146 679 Q168 704 203 704 Q228 704 246.5 692 Q265 680 272 658 Q279 636 271 607 L248 519 L225 434 L195 434 Q207 478 218.5 521 Q230 564 241 607 Q247 629 244 644.5 Q241 660 230.5 668 Q220 676 205 676 Q182 676 166.5 659.5 Q151 643 141 607 L3 91 Q-5 61 4.5 42.5 Q14 24 37 24 Q59 24 77 42 Q95 60 103 91 Q110 115 116 138.5 Q122 162 128 185 Q134 208 140.5 231.5 Q147 255 153 279 L183 279 Q177 255 170.5 231.5 Q164 208 158 185 Q142 123 133 91 Q121 46 98 21 Q75 -4 39 -4 Z " />
<glyph glyph-name="D" unicode="D" horiz-adv-x="203" d="M-46 0 L141 700 L191 700 Q228 700 247.5 683 Q267 666 269.5 631.5 Q272 597 257 544 L154 157 Q132 73 103 36.5 Q74 0 20 0 L-46 0 Z M20 28 Q46 28 64 40 Q82 52 95.5 78 Q109 104 121 148 Q122 150 122.5 152.5 Q123 155 124 157 L227 543 Q228 547 229 550.5 Q230 554 231 557 Q241 599 241 624 Q241 649 229.5 660.5 Q218 672 193 672 L164 672 L-9 28 L20 28 Z " />
<glyph glyph-name="E" unicode="E" horiz-adv-x="169" d="M-46 0 L141 700 L276 700 L269 672 L164 672 L88 390 L177 390 L170 362 L81 362 L-9 28 L96 28 L89 0 L-46 0 Z " />
<glyph glyph-name="F" unicode="F" horiz-adv-x="168" d="M269 672 L164 672 L79 356 L166 356 L159 328 L72 328 L-16 0 L-46 0 L141 700 L276 700 L269 672 Z " />
<glyph glyph-name="G" unicode="G" horiz-adv-x="200" d="M36 -4 Q11 -4 -5.5 7.5 Q-22 19 -28 41 Q-34 63 -27 91 L111 606 Q123 652 147.5 678 Q172 704 208 704 Q233 704 250 692 Q267 680 273 658 Q279 636 271 607 L239 485 L209 485 L241 607 Q247 628 245 643.5 Q243 659 234 667.5 Q225 676 210 676 Q188 676 169 657.5 Q150 639 141 607 L3 91 Q-5 60 3.5 42 Q12 24 35 24 Q58 24 76.5 42 Q95 60 103 91 Q113 127 126.5 176.5 Q140 226 153 278 Q159 300 164 319 Q169 338 173 353 L203 353 Q197 330 188.5 297 Q180 264 170 226 Q160 190 151.5 158.5 Q143 127 137 105 L127 105 Q126 102 125.5 99 Q125 96 124 93 Q117 65 108.5 45.5 Q100 26 82.5 11 Q65 -4 36 -4 Z M114 325 L121 353 L203 353 L191 325 L179 325 L114 325 Z M97 0 L101 29 L90 29 L173 339 L200 339 L109 0 L97 0 Z " />
<glyph glyph-name="H" unicode="H" horiz-adv-x="207" d="M81 0 L268 700 L298 700 L111 0 L81 0 Z M-46 0 L141 700 L171 700 L-16 0 L-46 0 Z M70 336 L77 364 L182 364 L175 336 L70 336 Z " />
<glyph glyph-name="I" unicode="I" horiz-adv-x="80" d="M-46 0 L141 700 L171 700 L-16 0 L-46 0 Z " />
<glyph glyph-name="J" unicode="J" horiz-adv-x="180" d="M-1 90 Q-10 57 -4 40.5 Q2 24 23 24 Q44 24 59 40.5 Q74 57 83 90 L246 700 L276 700 L113 90 Q101 45 78 20.5 Q55 -4 22 -4 Q-1 -4 -15.5 7.5 Q-30 19 -34.5 40 Q-39 61 -31 90 L10 245 L40 245 L-1 90 Z " />
<glyph glyph-name="K" unicode="K" horiz-adv-x="200" d="M122 416 L151 445 L129 0 L101 0 L122 416 Z M55 276 L44 311 L277 699 L310 699 L137 412 L55 276 Z M-16 0 L-46 0 L141 700 L171 700 L-16 0 Z " />
<glyph glyph-name="L" unicode="L" horiz-adv-x="168" d="M89 0 L-46 0 L141 700 L171 700 L-9 28 L96 28 L89 0 Z " />
<glyph glyph-name="M" unicode="M" horiz-adv-x="306" d="M-46 0 L141 700 L195 700 L99 93 L88 30 L92 30 L115 93 L342 700 L397 700 L210 0 L180 0 L344 612 L360 670 L357 670 L337 612 L108 0 L58 0 L155 612 L165 670 L162 670 L147 611 L-16 0 L-46 0 Z " />
<glyph glyph-name="N" unicode="N" horiz-adv-x="235" d="M-45 0 L141 700 L195 700 L115 30 L120 30 L146 140 L295 700 L325 700 L139 0 L84 0 L164 670 L160 670 L134 559 L-15 0 L-45 0 Z " />
<glyph glyph-name="O" unicode="O" horiz-adv-x="200" d="M37 -4 Q12 -4 -5 8 Q-22 20 -28 41.5 Q-34 63 -27 92 L111 606 Q124 653 147 678.5 Q170 704 206 704 Q231 704 248.5 692 Q266 680 272.5 658 Q279 636 271 607 L133 91 Q121 46 97 21 Q73 -4 37 -4 Z M36 24 Q60 24 77.5 42 Q95 60 103 91 L241 607 Q250 638 239.5 657 Q229 676 206 676 Q184 676 167 657.5 Q150 639 141 607 L3 91 Q-5 60 3.5 42 Q12 24 36 24 Z " />
<glyph glyph-name="P" unicode="P" horiz-adv-x="195" d="M256 518 Q240 461 221.5 426.5 Q203 392 178 376.5 Q153 361 119 361 L80 361 L-16 0 L-46 0 L141 700 L192 700 Q227 700 247.5 684 Q268 668 272.5 633 Q277 598 262 543 L256 518 Z M232 543 Q251 613 242.5 642.5 Q234 672 193 672 L164 672 L88 389 L117 389 Q158 389 182.5 418.5 Q207 448 226 518 L232 543 Z " />
<glyph glyph-name="Q" unicode="Q" horiz-adv-x="200" d="M8 -22 L14 0 L43 0 L37 -22 Q33 -37 33 -46 Q33 -55 36 -59 Q39 -63 46 -63 L75 -63 L67 -92 L38 -92 Q22 -92 13 -84.5 Q4 -77 3 -61 Q2 -45 8 -22 Z M37 -4 Q12 -4 -5 8 Q-22 20 -28 41.5 Q-34 63 -27 92 L111 606 Q124 653 147 678.5 Q170 704 206 704 Q231 704 248.5 692 Q266 680 272.5 658 Q279 636 271 607 L133 91 Q121 46 97 21 Q73 -4 37 -4 Z M36 24 Q60 24 77.5 42 Q95 60 103 91 L241 607 Q250 638 239.5 657 Q229 676 206 676 Q184 676 167 657.5 Q150 639 141 607 L3 91 Q-5 60 3.5 42 Q12 24 36 24 Z " />
<glyph glyph-name="R" unicode="R" horiz-adv-x="203" d="M136 380 Q159 380 172.5 370 Q186 360 189 339.5 Q192 319 184 288 L117 40 L117 39 Q114 26 114.5 18.5 Q115 11 124 8 L122 0 L92 0 Q86 5 85 15.5 Q84 26 87 40 L153 283 Q163 320 159 341 Q155 362 119 362 L136 380 Z M256 518 Q242 458 222.5 425 Q203 392 169 376 L168 372 Q167 371 165.5 370.5 Q164 370 163 369 Q155 365 146 363.5 Q137 362 129 362 L81 362 L-16 0 L-46 0 L141 700 L194 700 Q229 700 248.5 684.5 Q268 669 272 634 Q276 599 262 543 L256 518 Z M232 543 Q251 613 242.5 642.5 Q234 672 193 672 L164 672 L88 389 L117 389 Q158 389 182.5 418.5 Q207 448 226 518 L232 543 Z " />
<glyph glyph-name="S" unicode="S" horiz-adv-x="200" d="M37 -4 Q12 -4 -5 8 Q-22 20 -28 42 Q-34 64 -26 93 Q-22 108 -18.5 122.5 Q-15 137 -11 151 Q-7 165 -3.5 179.5 Q0 194 4 208 L34 208 Q30 194 26.5 179.5 Q23 165 19 151 Q15 137 11.5 122.5 Q8 108 4 93 Q-5 62 3.5 43 Q12 24 35 24 Q50 24 63.5 32.5 Q77 41 87.5 56.5 Q98 72 104 93 L125 172 Q138 220 142 251.5 Q146 283 141.5 306.5 Q137 330 122 349 Q91 388 83 430 Q75 472 91 532 L111 606 Q119 637 132.5 659 Q146 681 165.5 692.5 Q185 704 209 704 Q234 704 250.5 692 Q267 680 273 658 Q279 636 271 607 Q267 594 264 580.5 Q261 567 257 554 Q253 539 249 524 Q245 509 241 494 L211 494 Q215 509 219 523 Q223 537 226 551 Q230 565 233.5 579 Q237 593 241 607 Q250 638 241.5 657 Q233 676 210 676 Q195 676 181.5 667.5 Q168 659 157.5 643.5 Q147 628 141 607 L121 532 Q110 493 109.5 465 Q109 437 117.5 414 Q126 391 146 367 Q162 348 168.5 321 Q175 294 171.5 257.5 Q168 221 155 172 L134 94 Q126 63 112.5 41 Q99 19 80 7.5 Q61 -4 37 -4 Z " />
<glyph glyph-name="T" unicode="T" horiz-adv-x="183" d="M6 0 L186 672 L119 672 L126 700 L289 700 L282 672 L216 672 L36 0 L6 0 Z " />
<glyph glyph-name="U" unicode="U" horiz-adv-x="200" d="M37 -4 Q12 -4 -5 8 Q-22 20 -28 41.5 Q-34 63 -27 92 L136 700 L166 700 L3 91 Q-5 60 3.5 42 Q12 24 35 24 Q58 24 76.5 42 Q95 60 103 91 L266 700 L296 700 L133 91 Q121 46 97 21 Q73 -4 37 -4 Z " />
<glyph glyph-name="V" unicode="V" horiz-adv-x="210" d="M124 700 L152 700 L39 28 L41 28 L289 700 L318 700 L60 0 L6 0 L124 700 Z " />
<glyph glyph-name="W" unicode="W" horiz-adv-x="354" d="M-13 0 L124 700 L153 700 L30 73 L20 25 L21 25 L37 73 L267 700 L318 700 L213 73 L203 25 L204 25 L220 73 L432 700 L462 700 L225 0 L174 0 L279 632 L288 675 L286 675 L271 632 L39 0 L-13 0 Z " />
<glyph glyph-name="X" unicode="X" horiz-adv-x="188" d="M-69 0 L101 368 L124 700 L152 700 L129 393 L268 700 L298 700 L145 365 L117 0 L89 0 L116 336 L-38 0 L-69 0 Z " />
<glyph glyph-name="Y" unicode="Y" horiz-adv-x="190" d="M298 700 L114 284 L39 0 L9 0 L86 290 L124 700 L152 700 L115 345 L268 700 L298 700 Z " />
<glyph glyph-name="Z" unicode="Z" horiz-adv-x="171" d="M90 0 L-60 0 L-53 26 L241 672 L126 672 L133 700 L278 700 L271 672 L-23 28 L97 28 L90 0 Z " />
<glyph glyph-name="AE" unicode="&#xc6;" horiz-adv-x="275" d="M-63 0 L226 700 L252 700 L246 685 L-33 0 L-63 0 Z M59 0 L246 700 L382 700 L375 672 L269 672 L193 390 L283 390 L276 362 L186 362 L96 28 L202 28 L195 0 L59 0 Z M36 188 L46 215 L124 215 L118 188 L36 188 Z M224 673 L231 700 L254 700 L247 673 L224 673 Z " />
<glyph glyph-name="OE" unicode="&#x152;" horiz-adv-x="294" d="M133 91 Q122 48 93.5 22 Q65 -4 28 -4 Q4 -4 -11 7.5 Q-26 19 -30 41 Q-34 63 -27 92 L111 606 Q123 651 151.5 677.5 Q180 704 217 704 Q254 704 268.5 678 Q283 652 271 607 L241 607 Q250 638 241.5 657 Q233 676 210 676 Q188 676 169 657.5 Q150 639 141 607 L3 91 Q-5 60 3.5 42 Q12 24 35 24 Q58 24 76.5 42 Q95 60 103 91 L133 91 Z M79 0 L266 700 L401 700 L394 672 L289 672 L213 390 L302 390 L295 362 L206 362 L116 28 L221 28 L214 0 L79 0 Z " />
<glyph glyph-name="Eth" unicode="&#xd0;" horiz-adv-x="203" d="M-46 0 L141 700 L200 700 Q255 700 267 662.5 Q279 625 257 544 L154 157 Q132 75 100 37.5 Q68 0 13 0 L-46 0 Z M20 28 Q46 28 64 40 Q82 52 95.5 78 Q109 104 121 148 Q122 150 122.5 152.5 Q123 155 124 157 L227 543 Q228 547 229 550.5 Q230 554 231 557 Q241 599 241 624 Q241 649 229.5 660.5 Q218 672 193 672 L164 672 L-9 28 L20 28 Z M132 336 L18 336 L25 364 L139 364 L132 336 Z " />
<glyph glyph-name="Thorn" unicode="&#xde;" horiz-adv-x="202" d="M-8 0 L-38 0 L149 700 L179 700 L-8 0 Z M75 208 Q116 208 140.5 237.5 Q165 267 184 337 L191 362 Q209 432 200.5 461.5 Q192 491 151 491 L123 491 L130 519 L159 519 Q211 519 227.5 482 Q244 445 221 362 L214 337 Q198 281 177 246 Q156 211 129 195.5 Q102 180 68 180 L39 180 L47 208 L75 208 Z " />
<glyph glyph-name="uni1E9E" unicode="&#x1e9e;" horiz-adv-x="211" d="M11 -6 L19 22 L27 22 Q66 22 89 51.5 Q112 81 130 151 L163 275 Q177 324 178.5 349.5 Q180 375 170.5 384.5 Q161 394 138 394 L146 424 Q177 424 192 409.5 Q207 395 207.5 362 Q208 329 193 275 L160 151 Q146 97 127.5 62.5 Q109 28 82.5 11 Q56 -6 19 -6 L11 -6 Z M228 672 Q202 672 183.5 659 Q165 646 151 618 Q137 590 124 543 L-21 0 L-51 0 L94 544 Q117 626 148.5 663 Q180 700 235 700 L228 672 Z M235 700 L296 700 L289 672 L228 672 L235 700 Z M267 684 L289 672 L168 412 L146 424 L267 684 Z " />
<glyph glyph-name="Eng" unicode="&#x14a;" horiz-adv-x="235" d="M37 -174 Q27 -174 17.5 -170.5 Q8 -167 3 -163 L19 -131 Q19 -132 19.5 -132.5 Q20 -133 21 -134 Q24 -139 30.5 -142.5 Q37 -146 43 -146 Q57 -146 66 -133.5 Q75 -121 83 -95 Q91 -69 107 -9 L114 16 L143 16 L136 -9 L135 -13 Q119 -73 108 -103.5 Q97 -134 80 -154 Q63 -174 37 -174 Z M-45 0 L141 700 L195 700 L115 30 L120 30 L146 140 L295 700 L325 700 L139 0 L84 0 L164 670 L160 670 L134 559 L-15 0 L-45 0 Z " />
<glyph glyph-name="uni019D" unicode="&#x19d;" horiz-adv-x="235" d="M-118 -174 Q-128 -174 -137.5 -170.5 Q-147 -167 -152 -163 L-136 -131 Q-136 -132 -135.5 -132.5 Q-135 -133 -134 -134 Q-131 -139 -124.5 -142.5 Q-118 -146 -112 -146 Q-98 -146 -89 -133.5 Q-80 -121 -72 -95 Q-64 -69 -48 -9 L-41 16 L-11 16 L-18 -9 Q-34 -69 -45.5 -101 Q-57 -133 -74.5 -153.5 Q-92 -174 -118 -174 Z M-45 0 L141 700 L195 700 L115 30 L120 30 L146 140 L295 700 L325 700 L139 0 L84 0 L164 670 L160 670 L134 559 L-15 0 L-45 0 Z " />
<glyph glyph-name="uni018F" unicode="&#x18f;" horiz-adv-x="201" d="M176 325 L54 325 L42 325 L44 353 L183 353 L176 325 Z M4 91 Q-4 60 4.5 42 Q13 24 37 24 Q61 24 78.5 42 Q96 60 104 91 L242 607 Q251 638 240.5 657 Q230 676 207 676 Q185 676 168 657.5 Q151 639 142 607 L109 485 L79 485 L112 606 Q125 653 148 678.5 Q171 704 207 704 Q232 704 249.5 692 Q267 680 273.5 658 Q280 636 272 607 L134 91 Q122 46 98 21 Q74 -4 38 -4 Q13 -4 -4 8 Q-21 20 -27.5 41.5 Q-34 63 -26 92 L44 353 L74 353 L4 91 Z " />
<glyph glyph-name="a" unicode="a" horiz-adv-x="191" d="M18 -4 Q1 -4 -12.5 4 Q-26 12 -31.5 32 Q-37 52 -28 87 L-9 159 Q4 205 23.5 235 Q43 265 66 283.5 Q89 302 131 328 L159 346 L188 452 Q195 481 186.5 496.5 Q178 512 157 512 Q138 512 125 497.5 Q112 483 104 454 L103 452 Q102 447 97.5 432 Q93 417 88 397 Q83 377 79 361.5 Q75 346 73 341 L44 341 Q45 346 49.5 361.5 Q54 377 59 397 Q63 412 67 426 Q71 440 74 452 Q86 496 106 518 Q126 540 159 540 Q178 540 194 529.5 Q210 519 217 499 Q224 479 217 452 L96 0 L67 0 L82 55 Q75 29 55.5 12.5 Q36 -4 18 -4 Z M19 24 Q35 24 51 40.5 Q67 57 87 104 Q107 151 130 237 L150 309 Q146 306 141.5 303 Q137 300 132 297 Q96 273 78 258.5 Q60 244 45.5 220.5 Q31 197 20 159 L1 87 Q-5 62 -4.5 48.5 Q-4 35 1.5 29.5 Q7 24 19 24 Z " />
<glyph glyph-name="b" unicode="b" horiz-adv-x="187" d="M-47 0 L148 730 L177 730 L107 467 L102 450 L-1 66 L-18 0 L-47 0 Z M38 -4 Q17 -4 4.5 7.5 Q-8 19 -11 41.5 Q-14 64 -6 94 L87 442 Q96 474 107 495.5 Q118 517 133.5 528.5 Q149 540 169 540 Q187 540 200.5 529 Q214 518 219 498 Q224 478 217 452 L118 84 Q111 57 99 37 Q87 17 71.5 6.5 Q56 -4 38 -4 Z M32 24 Q52 24 67 39.5 Q82 55 89 84 L188 452 Q195 481 189 496.5 Q183 512 163 512 Q149 512 137 505 Q125 498 116.5 484.5 Q108 471 103 452 L4 84 Q-1 65 0.5 51.5 Q2 38 10 31 Q18 24 32 24 Z M-22 25 L10 121 L0 65 L-6 30 L-22 25 Z M94 437 L109 523 L123 518 L113 493 L94 437 Z " />
<glyph glyph-name="c" unicode="c" horiz-adv-x="183" d="M30 -4 Q6 -4 -10 6.5 Q-26 17 -31 36.5 Q-36 56 -29 84 L70 452 Q78 482 89 501 Q100 520 116 530 Q132 540 155 540 Q174 540 190 529.5 Q206 519 213 499 Q220 479 213 452 Q209 436 205.5 422.5 Q202 409 198 397 Q195 384 191 370.5 Q187 357 183 341 L154 341 Q158 357 162 370.5 Q166 384 169 397 Q173 409 176.5 422.5 Q180 436 184 452 Q191 480 182.5 496 Q174 512 154 512 Q133 512 120 497 Q107 482 99 452 L0 84 Q-7 55 0 39.5 Q7 24 28 24 Q48 24 63 39.5 Q78 55 85 84 Q90 103 94.5 119.5 Q99 136 103 151 Q107 165 111 180 Q115 195 120 212 L149 212 Q143 193 138.5 176 Q134 159 130 143 L114 84 Q102 40 82.5 18 Q63 -4 30 -4 Z " />
<glyph glyph-name="d" unicode="d" horiz-adv-x="187" d="M91 0 L62 0 L80 66 L183 450 L187 467 L258 730 L287 730 L91 0 Z M150 540 Q171 540 183.5 528.5 Q196 517 199 494.5 Q202 472 194 442 L101 94 Q92 62 81 40.5 Q70 19 54.5 7.5 Q39 -4 19 -4 Q1 -4 -12.5 7 Q-26 18 -31 38 Q-36 58 -29 84 L70 452 Q77 479 89 499 Q101 519 116.5 529.5 Q132 540 150 540 Z M156 512 Q136 512 121 496.5 Q106 481 99 452 L0 84 Q-7 55 -1 39.5 Q5 24 25 24 Q39 24 51 31 Q63 38 71.5 51.5 Q80 65 85 84 L184 452 Q189 471 187.5 484.5 Q186 498 178 505 Q170 512 156 512 Z M210 511 L178 415 L188 471 L194 506 L210 511 Z M94 99 L79 13 L65 18 L75 43 L94 99 Z " />
<glyph glyph-name="e" unicode="e" horiz-adv-x="183" d="M30 -4 Q6 -4 -10 6.5 Q-26 17 -31 36.5 Q-36 56 -29 84 L70 452 Q78 482 89 501 Q100 520 116 530 Q132 540 155 540 Q174 540 190 529.5 Q206 519 213 499 Q220 479 213 452 Q207 430 201 409 Q195 388 190 368 Q185 346 179 324.5 Q173 303 167 280 L53 280 Q47 257 40.5 232.5 Q34 208 27 183 L0 84 Q-7 55 0 39.5 Q7 24 28 24 Q48 24 63 39.5 Q78 55 85 84 Q89 98 93.5 114 Q98 130 103 148 Q108 166 112.5 182.5 Q117 199 120 212 L149 212 L132 148 Q127 130 122.5 114 Q118 98 114 84 Q102 40 82.5 18 Q63 -4 30 -4 Z M145 308 Q150 327 155 345 Q160 363 165 380 Q170 397 174.5 415 Q179 433 184 452 Q191 480 182.5 496 Q174 512 154 512 Q133 512 120 497 Q107 482 99 452 Q94 433 89.5 415 Q85 397 80 380 Q75 363 70 345 Q65 327 60 308 L145 308 Z " />
<glyph glyph-name="f" unicode="f" horiz-adv-x="126" d="M130 616 Q141 658 152.5 683 Q164 708 182 721 Q200 734 227 734 Q232 734 236.5 733.5 Q241 733 246 732 L238 703 Q226 706 221 706 Q195 706 183.5 685 Q172 664 158 613 Q157 611 157 609 Q157 607 156 606 L-6 0 L-35 0 L130 616 Z M74 504 L81 532 L192 532 L185 504 L74 504 Z " />
<glyph glyph-name="g" unicode="g" horiz-adv-x="188" d="M-20 -178 Q-41 -178 -57 -167.5 Q-73 -157 -78 -136.5 Q-83 -116 -75 -89 L-63 -48 L-34 -48 L-46 -89 Q-54 -118 -47.5 -134 Q-41 -150 -20 -150 Q1 -150 16.5 -134.5 Q32 -119 39 -90 L206 532 L235 532 L68 -90 Q56 -134 35 -156 Q14 -178 -20 -178 Z M151 540 Q172 540 184.5 528.5 Q197 517 200 494.5 Q203 472 195 442 L102 94 Q93 62 82 40.5 Q71 19 55.5 7.5 Q40 -4 20 -4 Q2 -4 -11.5 7 Q-25 18 -30 38 Q-35 58 -28 84 L71 452 Q78 479 90 499 Q102 519 117.5 529.5 Q133 540 151 540 Z M157 512 Q137 512 122 496.5 Q107 481 100 452 L1 84 Q-4 65 -3 51.5 Q-2 38 5.5 31 Q13 24 26 24 Q40 24 52 31 Q64 38 72.5 51.5 Q81 65 86 84 L185 452 Q190 471 188.5 484.5 Q187 498 179 505 Q171 512 157 512 Z M211 511 L179 415 L189 471 L195 506 L211 511 Z M95 99 L80 13 L66 18 L76 43 L95 99 Z " />
<glyph glyph-name="h" unicode="h" horiz-adv-x="191" d="M-18 0 L-47 0 L149 730 L178 730 L-18 0 Z M188 452 Q193 471 192 485 Q191 499 183.5 506 Q176 513 164 513 Q148 513 135.5 504 Q123 495 115.5 481.5 Q108 468 103 452 L59 289 L56 304 L89 428 Q102 475 114.5 499 Q127 523 140 531.5 Q153 540 171 540 Q188 540 201 529.5 Q214 519 219 499 Q224 479 217 452 L96 0 L67 0 L188 452 Z M104 513 L124 508 L106 478 L88 422 L104 513 Z " />
<glyph glyph-name="i" unicode="i" horiz-adv-x="77" d="M-47 0 L95 532 L124 532 L-18 0 L-47 0 Z M115 601 L149 730 L176 730 L142 601 L115 601 Z " />
<glyph glyph-name="dotlessi" unicode="&#x131;" horiz-adv-x="77" d="M-47 0 L95 532 L124 532 L-18 0 L-47 0 Z " />
<glyph glyph-name="j" unicode="j" horiz-adv-x="77" d="M-116 -178 Q-127 -178 -137 -173 Q-147 -168 -152 -162 L-138 -136 Q-133 -143 -128.5 -146.5 Q-124 -150 -115 -150 Q-103 -150 -93.5 -133.5 Q-84 -117 -74 -87 Q-64 -57 -49 -1 L95 532 L124 532 L-20 -1 Q-21 -5 -22 -8.5 Q-23 -12 -24 -16 Q-40 -75 -51 -106.5 Q-62 -138 -77.5 -158 Q-93 -178 -116 -178 Z M115 601 L149 730 L176 730 L142 601 L115 601 Z " />
<glyph glyph-name="uni0237" unicode="&#x237;" horiz-adv-x="77" d="M-116 -178 Q-127 -178 -137 -173 Q-147 -168 -152 -162 L-138 -136 Q-133 -143 -128.5 -146.5 Q-124 -150 -115 -150 Q-103 -150 -93.5 -133.5 Q-84 -117 -74 -87 Q-64 -57 -49 -1 L95 532 L124 532 L-20 -1 Q-21 -5 -22 -8.5 Q-23 -12 -24 -16 Q-40 -75 -51 -106.5 Q-62 -138 -77.5 -158 Q-93 -178 -116 -178 Z " />
<glyph glyph-name="k" unicode="k" horiz-adv-x="181" d="M-47 0 L148 730 L177 730 L-18 0 L-47 0 Z M246 532 L114 327 L28 197 L25 238 L213 532 L246 532 Z M77 0 L89 308 L117 333 L105 0 L77 0 Z M57 300 L69 293 L61 276 L48 283 L57 300 Z " />
<glyph glyph-name="l" unicode="l" horiz-adv-x="77" d="M-18 0 L-47 0 L148 730 L177 730 L-18 0 Z " />
<glyph glyph-name="m" unicode="m" horiz-adv-x="299" d="M-47 0 L95 532 L124 532 L-18 0 L-47 0 Z M171 402 Q188 465 186.5 488.5 Q185 512 162 512 Q147 512 134.5 500 Q122 488 110 462 Q98 436 87 394 L45 237 L41 242 L87 414 Q100 461 110 487 Q120 513 133.5 526.5 Q147 540 166 540 Q200 540 210.5 508.5 Q221 477 203 410 L93 0 L64 0 L171 402 Z M282 402 Q299 465 297.5 488.5 Q296 512 273 512 Q258 512 245.5 500 Q233 488 221 462 Q209 436 198 394 L156 237 L147 242 L193 414 Q204 458 216 485.5 Q228 513 242.5 526.5 Q257 540 277 540 Q311 540 321.5 508.5 Q332 477 314 410 L204 0 L175 0 L282 402 Z M114 509 L122 505 L119 491 L108 491 L114 509 Z M208 487 L222 482 L216 461 L199 461 L208 487 Z " />
<glyph glyph-name="n" unicode="n" horiz-adv-x="191" d="M-47 0 L95 532 L124 532 L-18 0 L-47 0 Z M188 452 Q193 471 192 485 Q191 499 183.5 506 Q176 513 164 513 Q148 513 135.5 504 Q123 495 115.5 481.5 Q108 468 103 452 L59 289 L56 304 L89 428 Q102 475 114.5 499 Q127 523 140 531.5 Q153 540 171 540 Q188 540 201 529.5 Q214 519 219 499 Q224 479 217 452 L96 0 L67 0 L188 452 Z M104 513 L124 508 L106 478 L88 422 L104 513 Z " />
<glyph glyph-name="o" unicode="o" horiz-adv-x="183" d="M30 -4 Q6 -4 -10 6.5 Q-26 17 -31 36.5 Q-36 56 -29 84 L70 452 Q78 482 89 501 Q100 520 116 530 Q132 540 155 540 Q174 540 190 529.5 Q206 519 213 499 Q220 479 213 452 L114 84 Q106 55 95 35.5 Q84 16 68 6 Q52 -4 30 -4 Z M28 24 Q48 24 63 39.5 Q78 55 85 84 L184 452 Q191 480 182.5 496 Q174 512 154 512 Q133 512 120 497 Q107 482 99 452 L0 84 Q-7 55 0 39.5 Q7 24 28 24 Z " />
<glyph glyph-name="p" unicode="p" horiz-adv-x="187" d="M95 532 L124 532 L106 465 L1 72 L-4 55 L-64 -170 L-93 -170 L95 532 Z M38 -4 Q17 -4 4.5 7.5 Q-8 19 -11 41.5 Q-14 64 -6 94 L87 442 Q96 474 107 495.5 Q118 517 133.5 528.5 Q149 540 169 540 Q187 540 200.5 529 Q214 518 219 498 Q224 478 217 452 L118 84 Q111 57 99 37 Q87 17 71.5 6.5 Q56 -4 38 -4 Z M32 24 Q52 24 67 39.5 Q82 55 89 84 L188 452 Q193 471 192 484.5 Q191 498 183.5 505 Q176 512 163 512 Q149 512 137 505 Q125 498 116.5 484.5 Q108 471 103 452 L4 84 Q-1 65 0.5 51.5 Q2 38 10 31 Q18 24 32 24 Z M-22 25 L10 121 L0 65 L-6 30 L-22 25 Z M94 437 L109 523 L123 518 L113 493 L94 437 Z " />
<glyph glyph-name="q" unicode="q" horiz-adv-x="187" d="M150 540 Q171 540 183.5 528.5 Q196 517 199 494.5 Q202 472 194 442 L101 94 Q92 62 81 40.5 Q70 19 54.5 7.5 Q39 -4 19 -4 Q1 -4 -12.5 7 Q-26 18 -31 38 Q-36 58 -29 84 L70 452 Q77 479 89 499 Q101 519 116.5 529.5 Q132 540 150 540 Z M156 512 Q136 512 121 496.5 Q106 481 99 452 L0 84 Q-7 55 -1 39.5 Q5 24 25 24 Q39 24 51 31 Q63 38 71.5 51.5 Q80 65 85 84 L184 452 Q189 471 187.5 484.5 Q186 498 178 505 Q170 512 156 512 Z M210 511 L178 415 L188 471 L194 506 L210 511 Z M94 99 L79 13 L65 18 L75 43 L94 99 Z M234 532 L46 -170 L17 -170 L77 55 L82 72 L187 465 L205 532 L234 532 Z " />
<glyph glyph-name="r" unicode="r" horiz-adv-x="125" d="M-47 0 L95 532 L124 532 L112 488 L107 468 L-18 0 L-47 0 Z M180 508 Q177 509 174 510 Q171 511 167 511 Q154 511 140.5 502.5 Q127 494 116.5 479 Q106 464 101 446 L41 222 L38 278 L80 435 Q86 458 101 482.5 Q116 507 136.5 523.5 Q157 540 179 540 Q181 540 183.5 540 Q186 540 188 539 L180 508 Z M105 509 L123 505 L109 485 L93 468 L105 509 Z " />
<glyph glyph-name="s" unicode="s" horiz-adv-x="183" d="M28 -4 Q5 -4 -10.5 6.5 Q-26 17 -31 36.5 Q-36 56 -29 84 Q-24 100 -19.5 117.5 Q-15 135 -10 153 Q-6 167 -2.5 181 Q1 195 4 208 L33 208 Q29 192 24.5 175.5 Q20 159 16 141 Q12 126 8 111.5 Q4 97 0 84 Q-5 65 -3.5 51.5 Q-2 38 6 31 Q14 24 27 24 Q48 24 63 39 Q78 54 85 84 L90 102 L95 119 Q104 155 105.5 173.5 Q107 192 102 210.5 Q97 229 82 262 Q81 264 80.5 265.5 Q80 267 79 268 Q63 299 56.5 321.5 Q50 344 51 365 Q52 386 59 413 L70 452 Q82 497 102.5 518.5 Q123 540 157 540 Q180 540 195 529.5 Q210 519 215 499.5 Q220 480 213 452 Q209 439 206 426.5 Q203 414 199 401 Q195 386 191 371 Q187 356 183 341 L154 341 Q158 354 161 366.5 Q164 379 168 392 Q172 407 176 422 Q180 437 184 452 Q189 471 187.5 484.5 Q186 498 178.5 505 Q171 512 158 512 Q137 512 121.5 496.5 Q106 481 99 452 Q98 449 96.5 444.5 Q95 440 94 435 Q92 428 90.5 422 Q89 416 88 413 Q88 413 88 412.5 Q88 412 88 411.5 Q88 411 88 411 Q80 381 78.5 367 Q77 353 82 335.5 Q87 318 102 287 Q121 248 128 226.5 Q135 205 134 180.5 Q133 156 123 118 Q122 115 121 110.5 Q120 106 119 101 Q118 96 116.5 91.5 Q115 87 114 84 Q102 40 82 18 Q62 -4 28 -4 Z " />
<glyph glyph-name="t" unicode="t" horiz-adv-x="146" d="M41 0 Q16 0 6 18 Q-4 36 5 70 L163 656 L192 656 L34 70 Q30 55 30 45.5 Q30 36 33 32 Q36 28 43 28 L72 28 L65 0 L41 0 Z M74 504 L81 532 L207 532 L200 504 L74 504 Z " />
<glyph glyph-name="u" unicode="u" horiz-adv-x="191" d="M238 532 L96 0 L67 0 L209 532 L238 532 Z M3 80 Q-2 61 -1 47 Q0 33 7.5 26 Q15 19 27 19 Q43 19 55.5 28 Q68 37 75.5 50.5 Q83 64 88 80 L132 243 L135 228 L102 104 Q89 57 76.5 33 Q64 9 51 0.5 Q38 -8 20 -8 Q3 -8 -10 2.5 Q-23 13 -28 33 Q-33 53 -26 80 L95 532 L124 532 L3 80 Z M87 19 L67 24 L85 54 L103 110 L87 19 Z " />
<glyph glyph-name="v" unicode="v" horiz-adv-x="173" d="M76 532 L104 532 L25 41 L27 41 L210 532 L239 532 L40 0 L-9 0 L76 532 Z " />
<glyph glyph-name="w" unicode="w" horiz-adv-x="267" d="M76 532 L105 532 L12 45 L14 45 L180 532 L229 532 L135 45 L137 45 L304 532 L333 532 L149 0 L100 0 L191 477 L190 477 L26 0 L-24 0 L76 532 Z " />
<glyph glyph-name="x" unicode="x" horiz-adv-x="166" d="M-71 0 L65 280 L75 532 L103 532 L93 305 L205 532 L235 532 L107 275 L96 0 L68 0 L79 250 L-41 0 L-71 0 Z " />
<glyph glyph-name="y" unicode="y" horiz-adv-x="173" d="M76 532 L104 532 L25 41 L28 41 L20 0 L-9 0 L76 532 Z M210 532 L239 532 L40 0 Q38 -6 35 -12.5 Q32 -19 30 -26 Q10 -77 -3 -105 Q-16 -133 -35.5 -153.5 Q-55 -174 -81 -174 Q-91 -174 -97.5 -170.5 Q-104 -167 -109 -160 L-96 -135 Q-96 -135 -96 -135 Q-96 -135 -96 -135 Q-95 -139 -91 -142.5 Q-87 -146 -80 -146 Q-56 -146 -35 -108 Q-14 -70 8 -11 Q9 -8 10 -5 Q11 -2 12 0 L210 532 Z " />
<glyph glyph-name="z" unicode="z" horiz-adv-x="160" d="M78 0 L-60 0 L-53 26 L182 504 L81 504 L88 532 L220 532 L213 505 L-22 28 L85 28 L78 0 Z " />
<glyph glyph-name="ae" unicode="&#xe6;" horiz-adv-x="301" d="M18 -4 Q1 -4 -12.5 4 Q-26 12 -31.5 32 Q-37 52 -28 87 L-9 159 Q4 205 23.5 235 Q43 265 66 283.5 Q89 302 131 328 Q138 333 145 337.5 Q152 342 159 346 L188 452 Q195 481 186.5 496.5 Q178 512 157 512 Q138 512 125 497.5 Q112 483 104 454 L103 452 Q102 447 97.5 432 Q93 417 88 397 Q74 342 73 341 L44 341 Q45 346 49.5 361.5 Q54 377 59 397 Q63 412 67 426 Q71 440 74 452 Q86 496 106 518 Q126 540 159 540 Q190 540 209 516 Q228 492 217 452 L118 84 L115 72 L89 52 Q75 22 56.5 9 Q38 -4 18 -4 Z M19 24 Q35 24 51 40.5 Q67 57 87 104 Q107 151 130 237 L150 309 Q146 306 141.5 303 Q137 300 132 297 Q96 273 78 258.5 Q60 244 45.5 220.5 Q31 197 20 159 L1 87 Q-5 62 -4.5 48.5 Q-4 35 1.5 29.5 Q7 24 19 24 Z M148 -4 Q124 -4 108 6.5 Q92 17 87 36.5 Q82 56 89 84 L188 452 Q196 482 207 501 Q218 520 234 530 Q250 540 273 540 Q292 540 308 529.5 Q324 519 331 499 Q338 479 331 452 Q325 430 319 408.5 Q313 387 308 366 Q302 345 296.5 324 Q291 303 285 280 L171 280 Q165 257 158.5 233 Q152 209 145 184 Q138 159 131.5 133.5 Q125 108 118 84 Q111 55 118 39.5 Q125 24 146 24 Q166 24 181 39.5 Q196 55 203 84 Q207 98 211.5 114 Q216 130 221 148 Q226 166 230.5 182.5 Q235 199 238 212 L267 212 L250 148 Q245 130 240.5 114 Q236 98 232 84 Q220 40 200.5 18 Q181 -4 148 -4 Z M263 308 Q268 327 273 345 Q278 363 283 380 Q288 397 292.5 415 Q297 433 302 452 Q309 480 300.5 496 Q292 512 272 512 Q251 512 238 497 Q225 482 217 452 Q212 433 207.5 415 Q203 397 198 380 Q193 363 188 345 Q183 327 178 308 L263 308 Z " />
<glyph glyph-name="oe" unicode="&#x153;" horiz-adv-x="297" d="M30 -4 Q6 -4 -10 6.5 Q-26 17 -31 36.5 Q-36 56 -29 84 L70 452 Q78 482 89 501 Q100 520 116 530 Q132 540 155 540 Q174 540 190 529.5 Q206 519 213 499 Q220 479 213 452 L114 84 Q106 55 95 35.5 Q84 16 68 6 Q52 -4 30 -4 Z M28 24 Q48 24 63 39.5 Q78 55 85 84 L184 452 Q191 480 182.5 496 Q174 512 154 512 Q133 512 120 497 Q107 482 99 452 L0 84 Q-7 55 0 39.5 Q7 24 28 24 Z M144 -4 Q120 -4 104 6.5 Q88 17 83 36.5 Q78 56 85 84 L184 452 Q192 482 203 501 Q214 520 230 530 Q246 540 269 540 Q288 540 304 529.5 Q320 519 327 499 Q334 479 327 452 Q321 430 315 408.5 Q309 387 304 366 Q298 345 292.5 324 Q287 303 281 280 L167 280 Q161 257 154.5 233 Q148 209 141 184 L114 84 Q107 55 114 39.5 Q121 24 142 24 Q162 24 177 39.5 Q192 55 199 84 Q203 98 207.5 114 Q212 130 217 148 L234 212 L263 212 Q260 199 255.5 182.5 Q251 166 246 148 Q241 130 236.5 114 Q232 98 228 84 Q216 40 196.5 18 Q177 -4 144 -4 Z M259 308 Q264 327 269 345 Q274 363 279 380 Q284 397 288.5 415 Q293 433 298 452 Q305 480 296.5 496 Q288 512 268 512 Q247 512 234 497 Q221 482 213 452 Q208 433 203.5 415 Q199 397 194 380 Q189 363 184 345 Q179 327 174 308 L259 308 Z " />
<glyph glyph-name="eth" unicode="&#xf0;" horiz-adv-x="183" d="M28 -8 Q5 -8 -11 2.5 Q-27 13 -32 32.5 Q-37 52 -30 80 L70 452 Q81 494 104 517 Q127 540 155 540 Q181 540 190 527.5 Q199 515 196.5 488.5 Q194 462 180 410 L202 410 L113 80 Q101 36 80.5 14 Q60 -8 28 -8 Z M26 20 Q46 20 61.5 35.5 Q77 51 84 80 L184 452 Q189 471 187.5 484.5 Q186 498 178.5 505 Q171 512 158 512 Q137 512 121.5 496.5 Q106 481 99 452 L-1 80 Q-9 51 -2 35.5 Q5 20 26 20 Z M199 734 Q224 734 241 722 Q258 710 264 688.5 Q270 667 263 639 L202 410 L180 410 L193 505 L199 507 L234 639 Q240 661 238 676 Q236 691 226.5 698.5 Q217 706 202 706 L182 706 L189 734 L199 734 Z M176 651 L273 753 L289 736 L192 634 L176 651 Z " />
<glyph glyph-name="thorn" unicode="&#xfe;" horiz-adv-x="197" d="M-53 -168 L-83 -168 L159 738 L189 738 L-53 -168 Z M55 24 Q34 24 21.5 35.5 Q9 47 6 69.5 Q3 92 11 122 L104 470 Q113 502 124 523.5 Q135 545 150.5 556.5 Q166 568 186 568 Q204 568 217.5 557 Q231 546 236 526 Q241 506 234 480 L135 112 Q128 85 116 65 Q104 45 88.5 34.5 Q73 24 55 24 Z M49 52 Q69 52 84 67.5 Q99 83 106 112 L205 480 Q212 509 206 524.5 Q200 540 180 540 Q166 540 154 533 Q142 526 133.5 512.5 Q125 499 120 480 L21 112 Q16 93 17.5 79.5 Q19 66 27 59 Q35 52 49 52 Z M-5 53 L27 149 L17 93 L11 58 L-5 53 Z M111 465 L126 551 L140 546 L130 521 L111 465 Z " />
<glyph glyph-name="germandbls" unicode="&#xdf;" horiz-adv-x="217" d="M20 -8 L27 20 L52 20 Q76 20 93.5 38 Q111 56 119 87 L195 369 Q204 404 194 421.5 Q184 439 140 439 L148 467 Q184 467 204 455 Q224 443 228.5 421.5 Q233 400 225 369 L149 87 Q141 57 128 36 Q115 15 96 3.5 Q77 -8 53 -8 L20 -8 Z M124 636 Q132 667 145 688.5 Q158 710 176.5 722 Q195 734 219 734 Q244 734 261.5 722 Q279 710 285.5 688 Q292 666 284 637 L257 534 Q249 505 233 483.5 Q217 462 193.5 450.5 Q170 439 140 439 L148 467 Q178 467 198.5 484.5 Q219 502 227 534 L254 637 Q260 657 257 673 Q254 689 244 697.5 Q234 706 219 706 Q197 706 180 687.5 Q163 669 154 637 L-16 0 L-46 0 L124 636 Z " />
<glyph glyph-name="eng" unicode="&#x14b;" horiz-adv-x="191" d="M149 307 L171 284 L95 0 Q93 -8 91 -15.5 Q89 -23 87 -31 Q72 -88 61.5 -118.5 Q51 -149 34 -169 Q17 -189 -9 -189 Q-22 -189 -33.5 -184 Q-45 -179 -50 -174 L-40 -146 Q-39 -147 -38.5 -147.5 Q-38 -148 -37 -149 Q-31 -154 -24 -157.5 Q-17 -161 -10 -161 Q6 -161 16.5 -146.5 Q27 -132 36.5 -103 Q46 -74 64 -7 L66 0 L149 307 Z M188 452 Q195 481 189 497 Q183 513 164 513 Q148 513 135.5 504 Q123 495 115.5 481.5 Q108 468 103 452 L59 289 L56 304 L89 428 Q102 475 114.5 499 Q127 523 140 531.5 Q153 540 171 540 Q197 540 212.5 516 Q228 492 217 452 L96 0 L67 0 L188 452 Z M104 513 L124 508 L106 478 L88 422 L104 513 Z M-47 0 L95 532 L124 532 L-18 0 L-47 0 Z " />
<glyph glyph-name="uni0272" unicode="&#x272;" horiz-adv-x="191" d="M36 307 L57 284 L-18 0 L-24 -25 Q-39 -83 -50 -115 Q-61 -147 -78.5 -168 Q-96 -189 -122 -189 Q-134 -189 -144.5 -185 Q-155 -181 -161 -176 Q-162 -175 -162 -175 Q-162 -175 -163 -174 L-153 -146 Q-152 -147 -151.5 -147.5 Q-151 -148 -150 -149 Q-144 -154 -137 -157.5 Q-130 -161 -123 -161 Q-107 -161 -96.5 -146.5 Q-86 -132 -76.5 -103 Q-67 -74 -49 -7 L-47 0 L36 307 Z M188 452 Q195 481 189 497 Q183 513 164 513 Q148 513 135.5 504 Q123 495 115.5 481.5 Q108 468 103 452 L59 289 L56 304 L89 428 Q102 475 114.5 499 Q127 523 140 531.5 Q153 540 171 540 Q197 540 212.5 516 Q228 492 217 452 L96 0 L67 0 L188 452 Z M104 513 L124 508 L106 478 L88 422 L104 513 Z M-47 0 L95 532 L124 532 L-18 0 L-47 0 Z " />
<glyph glyph-name="uni0259" unicode="&#x259;" horiz-adv-x="184" d="M155 540 Q179 540 195 529.5 Q211 519 216 499.5 Q221 480 214 452 L115 84 Q107 54 96 35 Q85 16 69 6 Q53 -4 30 -4 Q11 -4 -5 6.5 Q-21 17 -28 37 Q-35 57 -28 84 Q-22 106 -16 127 Q-10 148 -5 168 Q0 190 6 211.5 Q12 233 18 256 L132 256 Q138 279 144.5 303.5 Q151 328 158 353 L185 452 Q192 481 185 496.5 Q178 512 157 512 Q137 512 122 496.5 Q107 481 100 452 Q96 438 91.5 422 Q87 406 82 388 Q77 370 72.5 353.5 Q68 337 65 324 L36 324 L53 388 Q58 406 62.5 422 Q67 438 71 452 Q83 496 102.5 518 Q122 540 155 540 Z M40 228 Q35 209 30 191 Q25 173 20 156 Q15 139 10.5 121 Q6 103 1 84 Q-6 56 2.5 40 Q11 24 31 24 Q52 24 65 39 Q78 54 86 84 Q91 103 95.5 121 Q100 139 105 156 Q110 173 115 191 Q120 209 125 228 L40 228 Z " />
<glyph glyph-name="zero" unicode="0" horiz-adv-x="200" d="M37 -4 Q12 -4 -5 8 Q-22 20 -28 41.5 Q-34 63 -27 92 L111 606 Q124 653 147 678.5 Q170 704 206 704 Q231 704 248.5 692 Q266 680 272.5 658 Q279 636 271 607 L133 91 Q121 46 97 21 Q73 -4 37 -4 Z M36 24 Q60 24 77.5 42 Q95 60 103 91 L241 607 Q250 638 239.5 657 Q229 676 206 676 Q184 676 167 657.5 Q150 639 141 607 L3 91 Q-5 60 3.5 42 Q12 24 36 24 Z " />
<glyph glyph-name="one" unicode="1" horiz-adv-x="98" d="M2 0 L-28 0 L142 636 L130 636 Q125 636 119.5 636 Q114 636 109 636 L117 664 Q132 664 143 673.5 Q154 683 158 700 L189 700 L2 0 Z " />
<glyph glyph-name="two" unicode="2" horiz-adv-x="191" d="M117 28 L110 0 L-51 0 L-44 28 Q-26 92 -5.5 142 Q15 192 38.5 232 Q62 272 93 316 Q97 321 100.5 327 Q104 333 108 338 Q114 347 120.5 356 Q127 365 133 374 Q152 401 171.5 431 Q191 461 205 490 Q219 519 227 550 L242 607 Q248 628 245.5 643.5 Q243 659 234 667.5 Q225 676 210 676 Q187 676 171 658 Q155 640 146 607 L116 495 L86 495 L116 606 Q129 655 152 679.5 Q175 704 213 704 Q234 704 250.5 692 Q267 680 273.5 657.5 Q280 635 272 607 L257 550 Q248 517 232 484 Q216 451 194 416.5 Q172 382 151 351 Q147 346 143 340 Q139 334 135 328 Q122 309 109 290.5 Q96 272 85 254 Q63 220 46 187.5 Q29 155 14 115.5 Q-1 76 -14 28 L117 28 Z " />
<glyph glyph-name="three" unicode="3" horiz-adv-x="200" d="M206 704 Q228 704 245 692 Q262 680 268.5 658 Q275 636 267 607 L226 454 Q216 415 203.5 392.5 Q191 370 166 360 L166 358 Q186 343 187 320 Q188 297 179 261 L133 91 Q121 46 97 21 Q73 -4 37 -4 Q12 -4 -5 8 Q-22 20 -28 41.5 Q-34 63 -27 92 L4 208 L34 208 L3 91 Q-5 60 3.5 42 Q12 24 35 24 Q58 24 76.5 42 Q95 60 103 91 L151 268 Q161 304 156 326.5 Q151 349 122 349 L102 349 L110 377 L130 377 Q159 377 172.5 397.5 Q186 418 198 461 L238 608 Q246 639 237.5 657.5 Q229 676 208 676 Q184 676 169.5 658.5 Q155 641 145 607 L115 494 L85 494 L115 606 Q128 653 149.5 678.5 Q171 704 206 704 Z " />
<glyph glyph-name="four" unicode="4" horiz-adv-x="203" d="M54 0 L91 138 L-26 138 L-19 166 L216 700 L271 700 L128 166 L168 166 L161 138 L121 138 L84 0 L54 0 Z M11 166 L98 166 L234 672 L233 672 L11 166 Z " />
<glyph glyph-name="five" unicode="5" horiz-adv-x="178" d="M268 700 L261 672 L163 672 L77 400 L79 400 Q86 407 98.5 412.5 Q111 418 125 418 Q145 418 161 406 Q177 394 184 372 Q191 350 183 322 L121 92 Q113 62 99.5 40.5 Q86 19 67 7.5 Q48 -4 24 -4 Q-1 -4 -17.5 7.5 Q-34 19 -40 41 Q-46 63 -39 91 L-8 208 L22 208 L-9 91 Q-17 60 -8.5 42 Q0 24 23 24 Q38 24 51.5 32 Q65 40 75.5 55.5 Q86 71 91 91 L153 323 Q158 343 156 358.5 Q154 374 145 382 Q136 390 121 390 Q98 390 79.5 372 Q61 354 53 323 L50 310 L20 310 L144 700 L268 700 Z " />
<glyph glyph-name="six" unicode="6" horiz-adv-x="200" d="M112 609 Q124 654 147 679 Q170 704 206 704 Q229 704 246.5 692 Q264 680 270.5 658 Q277 636 270 608 Q266 594 262.5 579.5 Q259 565 255 551 Q251 537 247 523 Q243 509 239 494 L209 494 Q213 509 217 523.5 Q221 538 225 552 Q229 566 232.5 580 Q236 594 240 609 Q249 640 239 658 Q229 676 207 676 Q185 676 167.5 658 Q150 640 142 609 L86 400 L88 400 Q95 407 108 412.5 Q121 418 137 418 Q158 418 174 406 Q190 394 196.5 372 Q203 350 195 322 L133 92 Q125 62 112 40.5 Q99 19 80.5 7.5 Q62 -4 38 -4 Q13 -4 -4.5 8 Q-22 20 -28 41.5 Q-34 63 -27 91 L112 609 Z M3 91 Q-2 71 -0.5 55.5 Q1 40 10.5 32 Q20 24 35 24 Q59 24 77 42 Q95 60 103 91 L165 323 Q173 355 165 372.5 Q157 390 131 390 Q109 390 91 372 Q73 354 65 323 L3 91 Z " />
<glyph glyph-name="seven" unicode="7" horiz-adv-x="167" d="M126 700 L283 700 L276 672 Q216 561 164.5 450 Q113 339 70.5 225.5 Q28 112 -2 0 L-32 0 Q11 162 82.5 333.5 Q154 505 245 672 L119 672 L126 700 Z " />
<glyph glyph-name="eight" unicode="8" horiz-adv-x="200" d="M38 -4 Q13 -4 -4 8 Q-21 20 -27.5 41.5 Q-34 63 -27 92 L15 246 Q26 287 36.5 311.5 Q47 336 69 353 Q91 370 128 370 Q165 370 178 353 Q191 336 188.5 312 Q186 288 175 247 Q175 247 175 246.5 Q175 246 175 246 L133 91 Q121 46 97.5 21 Q74 -4 38 -4 Z M36 24 Q60 24 77.5 42 Q95 60 103 91 L151 268 Q161 304 156 326.5 Q151 349 122 349 Q93 349 77 327 Q61 305 51 268 L3 91 Q-5 60 3.5 42 Q12 24 36 24 Z M206 704 Q227 704 244 692 Q261 680 268 658 Q275 636 267 607 L229 464 Q220 430 209 407 Q198 384 177 369.5 Q156 355 124 355 Q92 355 79 369.5 Q66 384 67 407 Q68 430 77 464 L115 606 Q128 653 150 678.5 Q172 704 206 704 Z M206 676 Q184 676 169 658 Q154 640 145 607 L106 461 Q95 420 98 398 Q101 376 129 376 Q158 376 172 397 Q186 418 198 461 L238 608 Q246 639 237.5 657.5 Q229 676 206 676 Z M168 367 L166 359 L84 359 L86 367 L168 367 Z " />
<glyph glyph-name="nine" unicode="9" horiz-adv-x="200" d="M133 91 Q121 46 98 21 Q75 -4 39 -4 Q16 -4 -1.5 8 Q-19 20 -25.5 42 Q-32 64 -25 92 Q-21 106 -17.5 120.5 Q-14 135 -10 149 Q-6 163 -2 177 Q2 191 6 206 L36 206 Q32 191 28 176.5 Q24 162 20 148 Q16 134 12.5 120 Q9 106 5 91 Q-4 60 6 42 Q16 24 38 24 Q60 24 77.5 42 Q95 60 103 91 L159 300 L157 300 Q150 293 137 287.5 Q124 282 108 282 Q87 282 71 294 Q55 306 48.5 328 Q42 350 50 378 L112 608 Q120 638 133 659.5 Q146 681 164.5 692.5 Q183 704 207 704 Q232 704 249.5 692 Q267 680 273 658.5 Q279 637 272 609 L133 91 Z M242 609 Q247 629 245.5 644.5 Q244 660 234.5 668 Q225 676 210 676 Q186 676 168 658 Q150 640 142 609 L80 377 Q72 345 80 327.5 Q88 310 114 310 Q136 310 154 328 Q172 346 180 377 L242 609 Z " />
<glyph glyph-name="Aacute" unicode="&#xc1;" horiz-adv-x="210" d="M22 177 L31 205 L151 205 L144 177 L22 177 Z M-63 0 L195 700 L249 700 L131 0 L103 0 L216 672 L214 672 L-34 0 L-63 0 Z M336 869 L252 761 L224 761 L302 869 L336 869 Z " />
<glyph glyph-name="Abreve" unicode="&#x102;" horiz-adv-x="210" d="M22 177 L31 205 L151 205 L144 177 L22 177 Z M-63 0 L195 700 L249 700 L131 0 L103 0 L216 672 L214 672 L-34 0 L-63 0 Z M349 865 Q336 811 310.5 785.5 Q285 760 246 760 Q219 760 202 771.5 Q185 783 180 806.5 Q175 830 182 865 L211 865 Q203 825 211 806.5 Q219 788 246 788 Q273 788 290.5 806.5 Q308 825 318 865 L349 865 Z " />
<glyph glyph-name="Acircumflex" unicode="&#xc2;" horiz-adv-x="210" d="M22 177 L31 205 L151 205 L144 177 L22 177 Z M-63 0 L195 700 L249 700 L131 0 L103 0 L216 672 L214 672 L-34 0 L-63 0 Z M164 759 L247 869 L284 869 L306 759 L276 759 L261 844 L199 759 L164 759 Z " />
<glyph glyph-name="Adieresis" unicode="&#xc4;" horiz-adv-x="210" d="M22 177 L31 205 L151 205 L144 177 L22 177 Z M-63 0 L195 700 L249 700 L131 0 L103 0 L216 672 L214 672 L-34 0 L-63 0 Z M200 819 L242 819 L231 777 L189 777 L200 819 Z M262 819 L304 819 L293 777 L251 777 L262 819 Z " />
<glyph glyph-name="Agrave" unicode="&#xc0;" horiz-adv-x="210" d="M22 177 L31 205 L151 205 L144 177 L22 177 Z M-63 0 L195 700 L249 700 L131 0 L103 0 L216 672 L214 672 L-34 0 L-63 0 Z M198 868 L232 868 L252 760 L224 760 L198 868 Z " />
<glyph glyph-name="Amacron" unicode="&#x100;" horiz-adv-x="210" d="M22 177 L31 205 L151 205 L144 177 L22 177 Z M-63 0 L195 700 L249 700 L131 0 L103 0 L216 672 L214 672 L-34 0 L-63 0 Z M364 816 L141 816 L149 844 L372 844 L364 816 Z " />
<glyph glyph-name="Aogonek" unicode="&#x104;" horiz-adv-x="210" d="M22 177 L31 205 L151 205 L144 177 L22 177 Z M-63 0 L195 700 L249 700 L131 0 L103 0 L216 672 L214 672 L-34 0 L-63 0 Z M122 -153 Q114 -159 103.5 -162 Q93 -165 80 -165 Q63 -165 49 -156 Q35 -147 29 -129 Q23 -111 30 -84 Q39 -51 61 -29 Q83 -7 109 7 L116 11 L132 0 Q131 -1 130.5 -1 Q130 -1 130 -2 Q105 -18 86 -37 Q67 -56 59 -86 Q52 -110 58 -123.5 Q64 -137 83 -137 Q94 -137 103.5 -133 Q113 -129 121 -123 L123 -122 L122 -153 Z " />
<glyph glyph-name="Aring" unicode="&#xc5;" horiz-adv-x="210" d="M22 177 L31 205 L151 205 L144 177 L22 177 Z M-63 0 L195 700 L249 700 L131 0 L103 0 L216 672 L214 672 L-34 0 L-63 0 Z M200 818 Q208 846 223 860.5 Q238 875 262 875 Q279 875 290.5 867.5 Q302 860 306.5 847 Q311 834 306 816 Q299 788 284 773.5 Q269 759 245 759 Q220 759 206.5 775.5 Q193 792 200 818 Z M228 817 Q224 802 229 794.5 Q234 787 247 787 Q260 787 267 794.5 Q274 802 278 817 Q282 832 277 839.5 Q272 847 259 847 Q247 847 240 840 Q233 833 228 817 Z " />
<glyph glyph-name="Aringacute" unicode="&#x1fa;" horiz-adv-x="210" d="M22 177 L31 205 L151 205 L144 177 L22 177 Z M-63 0 L195 700 L249 700 L131 0 L103 0 L216 672 L214 672 L-34 0 L-63 0 Z M200 818 Q208 846 223 860.5 Q238 875 262 875 Q279 875 290.5 867.5 Q302 860 306.5 847 Q311 834 306 816 Q299 788 284 773.5 Q269 759 245 759 Q220 759 206.5 775.5 Q193 792 200 818 Z M228 817 Q224 802 229 794.5 Q234 787 247 787 Q260 787 267 794.5 Q274 802 278 817 Q282 832 277 839.5 Q272 847 259 847 Q247 847 240 840 Q233 833 228 817 Z M383 1043 L299 935 L271 935 L349 1043 L383 1043 Z " />
<glyph glyph-name="Atilde" unicode="&#xc3;" horiz-adv-x="210" d="M22 177 L31 205 L151 205 L144 177 L22 177 Z M-63 0 L195 700 L249 700 L131 0 L103 0 L216 672 L214 672 L-34 0 L-63 0 Z M335 774 Q321 754 306.5 745.5 Q292 737 277 737 Q265 737 256 741.5 Q247 746 232 757 Q225 762 217.5 766.5 Q210 771 204 771 Q193 771 182.5 765.5 Q172 760 162 746 L144 762 Q159 783 174 791 Q189 799 206 799 Q217 799 227 794 Q237 789 249 780 Q257 774 265 769.5 Q273 765 280 765 Q288 765 297.5 770.5 Q307 776 318 790 L335 774 Z " />
<glyph glyph-name="AEacute" unicode="&#x1fc;" horiz-adv-x="275" d="M-63 0 L226 700 L252 700 L246 685 L-33 0 L-63 0 Z M59 0 L246 700 L382 700 L375 672 L269 672 L193 390 L283 390 L276 362 L186 362 L96 28 L202 28 L195 0 L59 0 Z M36 188 L46 215 L124 215 L118 188 L36 188 Z M224 673 L231 700 L254 700 L247 673 L224 673 Z M410 869 L326 761 L298 761 L376 869 L410 869 Z " />
<glyph glyph-name="Cacute" unicode="&#x106;" horiz-adv-x="200" d="M39 -4 Q14 -4 -3.5 8 Q-21 20 -27.5 41.5 Q-34 63 -27 92 L111 606 Q124 654 146 679 Q168 704 203 704 Q228 704 246.5 692 Q265 680 272 658 Q279 636 271 607 L248 519 L225 434 L195 434 Q207 478 218.5 521 Q230 564 241 607 Q247 629 244 644.5 Q241 660 230.5 668 Q220 676 205 676 Q182 676 166.5 659.5 Q151 643 141 607 L3 91 Q-5 61 4.5 42.5 Q14 24 37 24 Q59 24 77 42 Q95 60 103 91 Q110 115 116 138.5 Q122 162 128 185 Q134 208 140.5 231.5 Q147 255 153 279 L183 279 Q177 255 170.5 231.5 Q164 208 158 185 Q142 123 133 91 Q121 46 98 21 Q75 -4 39 -4 Z M330 869 L246 761 L218 761 L296 869 L330 869 Z " />
<glyph glyph-name="Ccaron" unicode="&#x10c;" horiz-adv-x="200" d="M39 -4 Q14 -4 -3.5 8 Q-21 20 -27.5 41.5 Q-34 63 -27 92 L111 606 Q124 654 146 679 Q168 704 203 704 Q228 704 246.5 692 Q265 680 272 658 Q279 636 271 607 L248 519 L225 434 L195 434 Q207 478 218.5 521 Q230 564 241 607 Q247 629 244 644.5 Q241 660 230.5 668 Q220 676 205 676 Q182 676 166.5 659.5 Q151 643 141 607 L3 91 Q-5 61 4.5 42.5 Q14 24 37 24 Q59 24 77 42 Q95 60 103 91 Q110 115 116 138.5 Q122 162 128 185 Q134 208 140.5 231.5 Q147 255 153 279 L183 279 Q177 255 170.5 231.5 Q164 208 158 185 Q142 123 133 91 Q121 46 98 21 Q75 -4 39 -4 Z M188 849 L218 849 L233 764 L295 849 L330 849 L247 739 L210 739 L188 849 Z " />
<glyph glyph-name="Ccedilla" unicode="&#xc7;" horiz-adv-x="200" d="M39 -4 Q14 -4 -3.5 8 Q-21 20 -27.5 41.5 Q-34 63 -27 92 L111 606 Q124 654 146 679 Q168 704 203 704 Q228 704 246.5 692 Q265 680 272 658 Q279 636 271 607 L248 519 L225 434 L195 434 Q207 478 218.5 521 Q230 564 241 607 Q247 629 244 644.5 Q241 660 230.5 668 Q220 676 205 676 Q182 676 166.5 659.5 Q151 643 141 607 L3 91 Q-5 61 4.5 42.5 Q14 24 37 24 Q59 24 77 42 Q95 60 103 91 Q110 115 116 138.5 Q122 162 128 185 Q134 208 140.5 231.5 Q147 255 153 279 L183 279 Q177 255 170.5 231.5 Q164 208 158 185 Q142 123 133 91 Q121 46 98 21 Q75 -4 39 -4 Z M-33 -81 Q-28 -88 -18 -92 Q-8 -96 4 -96 Q17 -96 26.5 -89 Q36 -82 39 -70 Q41 -61 37.5 -55 Q34 -49 24 -47 Q14 -45 0 -48 L15 8 L45 8 L36 -26 Q47 -26 55.5 -32.5 Q64 -39 67 -50 Q70 -61 67 -74 Q60 -98 43 -111 Q26 -124 1 -124 Q-15 -124 -28.5 -118.5 Q-42 -113 -50 -103 L-33 -81 Z " />
<glyph glyph-name="Ccircumflex" unicode="&#x108;" horiz-adv-x="200" d="M39 -4 Q14 -4 -3.5 8 Q-21 20 -27.5 41.5 Q-34 63 -27 92 L111 606 Q124 654 146 679 Q168 704 203 704 Q228 704 246.5 692 Q265 680 272 658 Q279 636 271 607 L248 519 L225 434 L195 434 Q207 478 218.5 521 Q230 564 241 607 Q247 629 244 644.5 Q241 660 230.5 668 Q220 676 205 676 Q182 676 166.5 659.5 Q151 643 141 607 L3 91 Q-5 61 4.5 42.5 Q14 24 37 24 Q59 24 77 42 Q95 60 103 91 Q110 115 116 138.5 Q122 162 128 185 Q134 208 140.5 231.5 Q147 255 153 279 L183 279 Q177 255 170.5 231.5 Q164 208 158 185 Q142 123 133 91 Q121 46 98 21 Q75 -4 39 -4 Z M158 759 L241 869 L278 869 L300 759 L270 759 L255 844 L193 759 L158 759 Z " />
<glyph glyph-name="Cdotaccent" unicode="&#x10a;" horiz-adv-x="200" d="M39 -4 Q14 -4 -3.5 8 Q-21 20 -27.5 41.5 Q-34 63 -27 92 L111 606 Q124 654 146 679 Q168 704 203 704 Q228 704 246.5 692 Q265 680 272 658 Q279 636 271 607 L248 519 L225 434 L195 434 Q207 478 218.5 521 Q230 564 241 607 Q247 629 244 644.5 Q241 660 230.5 668 Q220 676 205 676 Q182 676 166.5 659.5 Q151 643 141 607 L3 91 Q-5 61 4.5 42.5 Q14 24 37 24 Q59 24 77 42 Q95 60 103 91 Q110 115 116 138.5 Q122 162 128 185 Q134 208 140.5 231.5 Q147 255 153 279 L183 279 Q177 255 170.5 231.5 Q164 208 158 185 Q142 123 133 91 Q121 46 98 21 Q75 -4 39 -4 Z M217 759 L236 828 L265 828 L246 759 L217 759 Z " />
<glyph glyph-name="Dcaron" unicode="&#x10e;" horiz-adv-x="203" d="M-46 0 L141 700 L191 700 Q228 700 247.5 683 Q267 666 269.5 631.5 Q272 597 257 544 L154 157 Q132 73 103 36.5 Q74 0 20 0 L-46 0 Z M20 28 Q46 28 64 40 Q82 52 95.5 78 Q109 104 121 148 Q122 150 122.5 152.5 Q123 155 124 157 L227 543 Q228 547 229 550.5 Q230 554 231 557 Q241 599 241 624 Q241 649 229.5 660.5 Q218 672 193 672 L164 672 L-9 28 L20 28 Z M182 849 L212 849 L227 764 L289 849 L324 849 L241 739 L204 739 L182 849 Z " />
<glyph glyph-name="Dcroat" unicode="&#x110;" horiz-adv-x="203" d="M-46 0 L141 700 L200 700 Q255 700 267 662.5 Q279 625 257 544 L154 157 Q132 75 100 37.5 Q68 0 13 0 L-46 0 Z M20 28 Q46 28 64 40 Q82 52 95.5 78 Q109 104 121 148 Q122 150 122.5 152.5 Q123 155 124 157 L227 543 Q228 547 229 550.5 Q230 554 231 557 Q241 599 241 624 Q241 649 229.5 660.5 Q218 672 193 672 L164 672 L-9 28 L20 28 Z M132 336 L18 336 L25 364 L139 364 L132 336 Z " />
<glyph glyph-name="Eacute" unicode="&#xc9;" horiz-adv-x="169" d="M-46 0 L141 700 L276 700 L269 672 L164 672 L88 390 L177 390 L170 362 L81 362 L-9 28 L96 28 L89 0 L-46 0 Z M323 869 L239 761 L211 761 L289 869 L323 869 Z " />
<glyph glyph-name="Ebreve" unicode="&#x114;" horiz-adv-x="169" d="M-46 0 L141 700 L276 700 L269 672 L164 672 L88 390 L177 390 L170 362 L81 362 L-9 28 L96 28 L89 0 L-46 0 Z M336 865 Q323 811 297.5 785.5 Q272 760 233 760 Q206 760 189 771.5 Q172 783 167 806.5 Q162 830 169 865 L198 865 Q190 825 198 806.5 Q206 788 233 788 Q260 788 277.5 806.5 Q295 825 305 865 L336 865 Z " />
<glyph glyph-name="Ecaron" unicode="&#x11a;" horiz-adv-x="169" d="M-46 0 L141 700 L276 700 L269 672 L164 672 L88 390 L177 390 L170 362 L81 362 L-9 28 L96 28 L89 0 L-46 0 Z M181 849 L211 849 L226 764 L288 849 L323 849 L240 739 L203 739 L181 849 Z " />
<glyph glyph-name="Ecircumflex" unicode="&#xca;" horiz-adv-x="169" d="M-46 0 L141 700 L276 700 L269 672 L164 672 L88 390 L177 390 L170 362 L81 362 L-9 28 L96 28 L89 0 L-46 0 Z M151 759 L234 869 L271 869 L293 759 L263 759 L248 844 L186 759 L151 759 Z " />
<glyph glyph-name="Edieresis" unicode="&#xcb;" horiz-adv-x="169" d="M-46 0 L141 700 L276 700 L269 672 L164 672 L88 390 L177 390 L170 362 L81 362 L-9 28 L96 28 L89 0 L-46 0 Z M187 819 L229 819 L218 777 L176 777 L187 819 Z M249 819 L291 819 L280 777 L238 777 L249 819 Z " />
<glyph glyph-name="Edotaccent" unicode="&#x116;" horiz-adv-x="169" d="M-46 0 L141 700 L276 700 L269 672 L164 672 L88 390 L177 390 L170 362 L81 362 L-9 28 L96 28 L89 0 L-46 0 Z M210 759 L229 828 L258 828 L239 759 L210 759 Z " />
<glyph glyph-name="Egrave" unicode="&#xc8;" horiz-adv-x="169" d="M-46 0 L141 700 L276 700 L269 672 L164 672 L88 390 L177 390 L170 362 L81 362 L-9 28 L96 28 L89 0 L-46 0 Z M185 868 L219 868 L239 760 L211 760 L185 868 Z " />
<glyph glyph-name="Emacron" unicode="&#x112;" horiz-adv-x="169" d="M-46 0 L141 700 L276 700 L269 672 L164 672 L88 390 L177 390 L170 362 L81 362 L-9 28 L96 28 L89 0 L-46 0 Z M351 816 L128 816 L136 844 L359 844 L351 816 Z " />
<glyph glyph-name="Eogonek" unicode="&#x118;" horiz-adv-x="169" d="M-46 0 L141 700 L276 700 L269 672 L164 672 L88 390 L177 390 L170 362 L81 362 L-9 28 L96 28 L89 0 L-46 0 Z M79 -153 Q71 -159 60.5 -162 Q50 -165 37 -165 Q20 -165 6 -156 Q-8 -147 -14 -129 Q-20 -111 -13 -84 Q-4 -51 18 -29 Q40 -7 66 7 L73 11 L89 0 Q88 -1 87.5 -1 Q87 -1 87 -2 Q62 -18 43 -37 Q24 -56 16 -86 Q9 -110 15 -123.5 Q21 -137 40 -137 Q51 -137 60.5 -133 Q70 -129 78 -123 L80 -122 L79 -153 Z " />
<glyph glyph-name="uni1EBC" unicode="&#x1ebc;" horiz-adv-x="169" d="M-46 0 L141 700 L276 700 L269 672 L164 672 L88 390 L177 390 L170 362 L81 362 L-9 28 L96 28 L89 0 L-46 0 Z M322 774 Q308 754 293.5 745.5 Q279 737 264 737 Q252 737 243 741.5 Q234 746 219 757 Q212 762 204.5 766.5 Q197 771 191 771 Q180 771 169.5 765.5 Q159 760 149 746 L131 762 Q146 783 161 791 Q176 799 193 799 Q204 799 214 794 Q224 789 236 780 Q244 774 252 769.5 Q260 765 267 765 Q275 765 284.5 770.5 Q294 776 305 790 L322 774 Z " />
<glyph glyph-name="Gbreve" unicode="&#x11e;" horiz-adv-x="200" d="M36 -4 Q11 -4 -5.5 7.5 Q-22 19 -28 41 Q-34 63 -27 91 L111 606 Q123 652 147.5 678 Q172 704 208 704 Q233 704 250 692 Q267 680 273 658 Q279 636 271 607 L239 485 L209 485 L241 607 Q247 628 245 643.5 Q243 659 234 667.5 Q225 676 210 676 Q188 676 169 657.5 Q150 639 141 607 L3 91 Q-5 60 3.5 42 Q12 24 35 24 Q58 24 76.5 42 Q95 60 103 91 Q113 127 126.5 176.5 Q140 226 153 278 Q159 300 164 319 Q169 338 173 353 L203 353 Q197 330 188.5 297 Q180 264 170 226 Q160 190 151.5 158.5 Q143 127 137 105 L127 105 Q126 102 125.5 99 Q125 96 124 93 Q117 65 108.5 45.5 Q100 26 82.5 11 Q65 -4 36 -4 Z M114 325 L121 353 L203 353 L191 325 L179 325 L114 325 Z M97 0 L101 29 L90 29 L173 339 L200 339 L109 0 L97 0 Z M343 865 Q330 811 304.5 785.5 Q279 760 240 760 Q213 760 196 771.5 Q179 783 174 806.5 Q169 830 176 865 L205 865 Q197 825 205 806.5 Q213 788 240 788 Q267 788 284.5 806.5 Q302 825 312 865 L343 865 Z " />
<glyph glyph-name="Gcircumflex" unicode="&#x11c;" horiz-adv-x="200" d="M36 -4 Q11 -4 -5.5 7.5 Q-22 19 -28 41 Q-34 63 -27 91 L111 606 Q123 652 147.5 678 Q172 704 208 704 Q233 704 250 692 Q267 680 273 658 Q279 636 271 607 L239 485 L209 485 L241 607 Q247 628 245 643.5 Q243 659 234 667.5 Q225 676 210 676 Q188 676 169 657.5 Q150 639 141 607 L3 91 Q-5 60 3.5 42 Q12 24 35 24 Q58 24 76.5 42 Q95 60 103 91 Q113 127 126.5 176.5 Q140 226 153 278 Q159 300 164 319 Q169 338 173 353 L203 353 Q197 330 188.5 297 Q180 264 170 226 Q160 190 151.5 158.5 Q143 127 137 105 L127 105 Q126 102 125.5 99 Q125 96 124 93 Q117 65 108.5 45.5 Q100 26 82.5 11 Q65 -4 36 -4 Z M114 325 L121 353 L203 353 L191 325 L179 325 L114 325 Z M97 0 L101 29 L90 29 L173 339 L200 339 L109 0 L97 0 Z M158 759 L241 869 L278 869 L300 759 L270 759 L255 844 L193 759 L158 759 Z " />
<glyph glyph-name="uni0122" unicode="&#x122;" horiz-adv-x="200" d="M36 -4 Q11 -4 -5.5 7.5 Q-22 19 -28 41 Q-34 63 -27 91 L111 606 Q123 652 147.5 678 Q172 704 208 704 Q233 704 250 692 Q267 680 273 658 Q279 636 271 607 L239 485 L209 485 L241 607 Q247 628 245 643.5 Q243 659 234 667.5 Q225 676 210 676 Q188 676 169 657.5 Q150 639 141 607 L3 91 Q-5 60 3.5 42 Q12 24 35 24 Q58 24 76.5 42 Q95 60 103 91 Q113 127 126.5 176.5 Q140 226 153 278 Q159 300 164 319 Q169 338 173 353 L203 353 Q197 330 188.5 297 Q180 264 170 226 Q160 190 151.5 158.5 Q143 127 137 105 L127 105 Q126 102 125.5 99 Q125 96 124 93 Q117 65 108.5 45.5 Q100 26 82.5 11 Q65 -4 36 -4 Z M114 325 L121 353 L203 353 L191 325 L179 325 L114 325 Z M97 0 L101 29 L90 29 L173 339 L200 339 L109 0 L97 0 Z M-16 -83 L-5 -41 L38 -41 L31 -68 Q24 -93 11.5 -110.5 Q-1 -128 -18 -143 L-30 -133 Q-14 -119 -6 -108 Q2 -97 6 -83 L-16 -83 Z " />
<glyph glyph-name="Gdotaccent" unicode="&#x120;" horiz-adv-x="200" d="M36 -4 Q11 -4 -5.5 7.5 Q-22 19 -28 41 Q-34 63 -27 91 L111 606 Q123 652 147.5 678 Q172 704 208 704 Q233 704 250 692 Q267 680 273 658 Q279 636 271 607 L239 485 L209 485 L241 607 Q247 628 245 643.5 Q243 659 234 667.5 Q225 676 210 676 Q188 676 169 657.5 Q150 639 141 607 L3 91 Q-5 60 3.5 42 Q12 24 35 24 Q58 24 76.5 42 Q95 60 103 91 Q113 127 126.5 176.5 Q140 226 153 278 Q159 300 164 319 Q169 338 173 353 L203 353 Q197 330 188.5 297 Q180 264 170 226 Q160 190 151.5 158.5 Q143 127 137 105 L127 105 Q126 102 125.5 99 Q125 96 124 93 Q117 65 108.5 45.5 Q100 26 82.5 11 Q65 -4 36 -4 Z M114 325 L121 353 L203 353 L191 325 L179 325 L114 325 Z M97 0 L101 29 L90 29 L173 339 L200 339 L109 0 L97 0 Z M217 759 L236 828 L265 828 L246 759 L217 759 Z " />
<glyph glyph-name="Hbar" unicode="&#x126;" horiz-adv-x="207" d="M81 0 L268 700 L298 700 L111 0 L81 0 Z M-46 0 L141 700 L171 700 L-16 0 L-46 0 Z M70 336 L77 364 L182 364 L175 336 L70 336 Z M267 518 L72 518 L80 545 L275 545 L267 518 Z " />
<glyph glyph-name="Hcircumflex" unicode="&#x124;" horiz-adv-x="207" d="M81 0 L268 700 L298 700 L111 0 L81 0 Z M-46 0 L141 700 L171 700 L-16 0 L-46 0 Z M70 336 L77 364 L182 364 L175 336 L70 336 Z M161 759 L244 869 L281 869 L303 759 L273 759 L258 844 L196 759 L161 759 Z " />
<glyph glyph-name="Iacute" unicode="&#xcd;" horiz-adv-x="80" d="M-46 0 L141 700 L171 700 L-16 0 L-46 0 Z M270 869 L186 761 L158 761 L236 869 L270 869 Z " />
<glyph glyph-name="Ibreve" unicode="&#x12c;" horiz-adv-x="80" d="M-46 0 L141 700 L171 700 L-16 0 L-46 0 Z M283 865 Q270 811 244.5 785.5 Q219 760 180 760 Q153 760 136 771.5 Q119 783 114 806.5 Q109 830 116 865 L145 865 Q137 825 145 806.5 Q153 788 180 788 Q207 788 224.5 806.5 Q242 825 252 865 L283 865 Z " />
<glyph glyph-name="Icircumflex" unicode="&#xce;" horiz-adv-x="80" d="M-46 0 L141 700 L171 700 L-16 0 L-46 0 Z M98 759 L181 869 L218 869 L240 759 L210 759 L195 844 L133 759 L98 759 Z " />
<glyph glyph-name="Idieresis" unicode="&#xcf;" horiz-adv-x="80" d="M-46 0 L141 700 L171 700 L-16 0 L-46 0 Z M134 819 L176 819 L165 777 L123 777 L134 819 Z M196 819 L238 819 L227 777 L185 777 L196 819 Z " />
<glyph glyph-name="Idot" unicode="&#x130;" horiz-adv-x="80" d="M-46 0 L141 700 L171 700 L-16 0 L-46 0 Z M157 759 L176 828 L205 828 L186 759 L157 759 Z " />
<glyph glyph-name="Igrave" unicode="&#xcc;" horiz-adv-x="80" d="M-46 0 L141 700 L171 700 L-16 0 L-46 0 Z M132 868 L166 868 L186 760 L158 760 L132 868 Z " />
<glyph glyph-name="Imacron" unicode="&#x12a;" horiz-adv-x="80" d="M-46 0 L141 700 L171 700 L-16 0 L-46 0 Z M298 816 L75 816 L83 844 L306 844 L298 816 Z " />
<glyph glyph-name="Iogonek" unicode="&#x12e;" horiz-adv-x="80" d="M-46 0 L141 700 L171 700 L-16 0 L-46 0 Z M-26 -153 Q-34 -159 -44.5 -162 Q-55 -165 -68 -165 Q-85 -165 -99 -156 Q-113 -147 -119 -129 Q-125 -111 -118 -84 Q-109 -51 -87 -29 Q-65 -7 -39 7 L-32 11 L-16 0 Q-17 -1 -17.5 -1 Q-18 -1 -18 -2 Q-43 -18 -62 -37 Q-81 -56 -89 -86 Q-96 -110 -90 -123.5 Q-84 -137 -65 -137 Q-54 -137 -44.5 -133 Q-35 -129 -27 -123 L-25 -122 L-26 -153 Z " />
<glyph glyph-name="Itilde" unicode="&#x128;" horiz-adv-x="80" d="M-46 0 L141 700 L171 700 L-16 0 L-46 0 Z M269 774 Q255 754 240.5 745.5 Q226 737 211 737 Q199 737 190 741.5 Q181 746 166 757 Q159 762 151.5 766.5 Q144 771 138 771 Q127 771 116.5 765.5 Q106 760 96 746 L78 762 Q93 783 108 791 Q123 799 140 799 Q151 799 161 794 Q171 789 183 780 Q191 774 199 769.5 Q207 765 214 765 Q222 765 231.5 770.5 Q241 776 252 790 L269 774 Z " />
<glyph glyph-name="Jcircumflex" unicode="&#x134;" horiz-adv-x="180" d="M-1 90 Q-10 57 -4 40.5 Q2 24 23 24 Q44 24 59 40.5 Q74 57 83 90 L246 700 L276 700 L113 90 Q101 45 78 20.5 Q55 -4 22 -4 Q-1 -4 -15.5 7.5 Q-30 19 -34.5 40 Q-39 61 -31 90 L10 245 L40 245 L-1 90 Z M203 759 L286 869 L323 869 L345 759 L315 759 L300 844 L238 759 L203 759 Z " />
<glyph glyph-name="uni0136" unicode="&#x136;" horiz-adv-x="200" d="M122 416 L151 445 L129 0 L101 0 L122 416 Z M55 276 L44 311 L277 699 L310 699 L137 412 L55 276 Z M-16 0 L-46 0 L141 700 L171 700 L-16 0 Z M-11 -83 L0 -41 L43 -41 L36 -68 Q29 -93 16.5 -110.5 Q4 -128 -13 -143 L-25 -133 Q-9 -119 -1 -108 Q7 -97 11 -83 L-11 -83 Z " />
<glyph glyph-name="Lacute" unicode="&#x139;" horiz-adv-x="168" d="M89 0 L-46 0 L141 700 L171 700 L-9 28 L96 28 L89 0 Z M271 869 L187 761 L159 761 L237 869 L271 869 Z " />
<glyph glyph-name="Lcaron" unicode="&#x13d;" horiz-adv-x="168" d="M89 0 L-46 0 L141 700 L171 700 L-9 28 L96 28 L89 0 Z M230 578 L212 578 L245 700 L276 700 L230 578 Z " />
<glyph glyph-name="uni013B" unicode="&#x13b;" horiz-adv-x="168" d="M89 0 L-46 0 L141 700 L171 700 L-9 28 L96 28 L89 0 Z M-24 -83 L-13 -41 L30 -41 L23 -68 Q16 -93 3.5 -110.5 Q-9 -128 -26 -143 L-38 -133 Q-22 -119 -14 -108 Q-6 -97 -2 -83 L-24 -83 Z " />
<glyph glyph-name="Ldot" unicode="&#x13f;" horiz-adv-x="170" d="M89 0 L-46 0 L141 700 L171 700 L-9 28 L96 28 L89 0 Z M183 643 L225 643 L214 601 L172 601 L183 643 Z " />
<glyph glyph-name="Lslash" unicode="&#x141;" horiz-adv-x="168" d="M89 0 L-46 0 L141 700 L171 700 L-9 28 L96 28 L89 0 Z M126 385 L-13 267 L-1 313 L139 432 L126 385 Z " />
<glyph glyph-name="Nacute" unicode="&#x143;" horiz-adv-x="235" d="M-45 0 L141 700 L195 700 L115 30 L120 30 L146 140 L295 700 L325 700 L139 0 L84 0 L164 670 L160 670 L134 559 L-15 0 L-45 0 Z M348 869 L264 761 L236 761 L314 869 L348 869 Z " />
<glyph glyph-name="Ncaron" unicode="&#x147;" horiz-adv-x="235" d="M-45 0 L141 700 L195 700 L115 30 L120 30 L146 140 L295 700 L325 700 L139 0 L84 0 L164 670 L160 670 L134 559 L-15 0 L-45 0 Z M206 849 L236 849 L251 764 L313 849 L348 849 L265 739 L228 739 L206 849 Z " />
<glyph glyph-name="uni0145" unicode="&#x145;" horiz-adv-x="235" d="M-45 0 L141 700 L195 700 L115 30 L120 30 L146 140 L295 700 L325 700 L139 0 L84 0 L164 670 L160 670 L134 559 L-15 0 L-45 0 Z M2 -83 L13 -41 L56 -41 L49 -68 Q42 -93 29.5 -110.5 Q17 -128 0 -143 L-12 -133 Q4 -119 12 -108 Q20 -97 24 -83 L2 -83 Z " />
<glyph glyph-name="Ntilde" unicode="&#xd1;" horiz-adv-x="235" d="M-45 0 L141 700 L195 700 L115 30 L120 30 L146 140 L295 700 L325 700 L139 0 L84 0 L164 670 L160 670 L134 559 L-15 0 L-45 0 Z M347 774 Q333 754 318.5 745.5 Q304 737 289 737 Q277 737 268 741.5 Q259 746 244 757 Q237 762 229.5 766.5 Q222 771 216 771 Q205 771 194.5 765.5 Q184 760 174 746 L156 762 Q171 783 186 791 Q201 799 218 799 Q229 799 239 794 Q249 789 261 780 Q269 774 277 769.5 Q285 765 292 765 Q300 765 309.5 770.5 Q319 776 330 790 L347 774 Z " />
<glyph glyph-name="Oacute" unicode="&#xd3;" horiz-adv-x="200" d="M37 -4 Q12 -4 -5 8 Q-22 20 -28 41.5 Q-34 63 -27 92 L111 606 Q124 653 147 678.5 Q170 704 206 704 Q231 704 248.5 692 Q266 680 272.5 658 Q279 636 271 607 L133 91 Q121 46 97 21 Q73 -4 37 -4 Z M36 24 Q60 24 77.5 42 Q95 60 103 91 L241 607 Q250 638 239.5 657 Q229 676 206 676 Q184 676 167 657.5 Q150 639 141 607 L3 91 Q-5 60 3.5 42 Q12 24 36 24 Z M330 869 L246 761 L218 761 L296 869 L330 869 Z " />
<glyph glyph-name="Obreve" unicode="&#x14e;" horiz-adv-x="200" d="M37 -4 Q12 -4 -5 8 Q-22 20 -28 41.5 Q-34 63 -27 92 L111 606 Q124 653 147 678.5 Q170 704 206 704 Q231 704 248.5 692 Q266 680 272.5 658 Q279 636 271 607 L133 91 Q121 46 97 21 Q73 -4 37 -4 Z M36 24 Q60 24 77.5 42 Q95 60 103 91 L241 607 Q250 638 239.5 657 Q229 676 206 676 Q184 676 167 657.5 Q150 639 141 607 L3 91 Q-5 60 3.5 42 Q12 24 36 24 Z M343 865 Q330 811 304.5 785.5 Q279 760 240 760 Q213 760 196 771.5 Q179 783 174 806.5 Q169 830 176 865 L205 865 Q197 825 205 806.5 Q213 788 240 788 Q267 788 284.5 806.5 Q302 825 312 865 L343 865 Z " />
<glyph glyph-name="Ocircumflex" unicode="&#xd4;" horiz-adv-x="200" d="M37 -4 Q12 -4 -5 8 Q-22 20 -28 41.5 Q-34 63 -27 92 L111 606 Q124 653 147 678.5 Q170 704 206 704 Q231 704 248.5 692 Q266 680 272.5 658 Q279 636 271 607 L133 91 Q121 46 97 21 Q73 -4 37 -4 Z M36 24 Q60 24 77.5 42 Q95 60 103 91 L241 607 Q250 638 239.5 657 Q229 676 206 676 Q184 676 167 657.5 Q150 639 141 607 L3 91 Q-5 60 3.5 42 Q12 24 36 24 Z M158 759 L241 869 L278 869 L300 759 L270 759 L255 844 L193 759 L158 759 Z " />
<glyph glyph-name="Odieresis" unicode="&#xd6;" horiz-adv-x="200" d="M37 -4 Q12 -4 -5 8 Q-22 20 -28 41.5 Q-34 63 -27 92 L111 606 Q124 653 147 678.5 Q170 704 206 704 Q231 704 248.5 692 Q266 680 272.5 658 Q279 636 271 607 L133 91 Q121 46 97 21 Q73 -4 37 -4 Z M36 24 Q60 24 77.5 42 Q95 60 103 91 L241 607 Q250 638 239.5 657 Q229 676 206 676 Q184 676 167 657.5 Q150 639 141 607 L3 91 Q-5 60 3.5 42 Q12 24 36 24 Z M194 819 L236 819 L225 777 L183 777 L194 819 Z M256 819 L298 819 L287 777 L245 777 L256 819 Z " />
<glyph glyph-name="Ograve" unicode="&#xd2;" horiz-adv-x="200" d="M37 -4 Q12 -4 -5 8 Q-22 20 -28 41.5 Q-34 63 -27 92 L111 606 Q124 653 147 678.5 Q170 704 206 704 Q231 704 248.5 692 Q266 680 272.5 658 Q279 636 271 607 L133 91 Q121 46 97 21 Q73 -4 37 -4 Z M36 24 Q60 24 77.5 42 Q95 60 103 91 L241 607 Q250 638 239.5 657 Q229 676 206 676 Q184 676 167 657.5 Q150 639 141 607 L3 91 Q-5 60 3.5 42 Q12 24 36 24 Z M192 868 L226 868 L246 760 L218 760 L192 868 Z " />
<glyph glyph-name="Ohungarumlaut" unicode="&#x150;" horiz-adv-x="200" d="M37 -4 Q12 -4 -5 8 Q-22 20 -28 41.5 Q-34 63 -27 92 L111 606 Q124 653 147 678.5 Q170 704 206 704 Q231 704 248.5 692 Q266 680 272.5 658 Q279 636 271 607 L133 91 Q121 46 97 21 Q73 -4 37 -4 Z M36 24 Q60 24 77.5 42 Q95 60 103 91 L241 607 Q250 638 239.5 657 Q229 676 206 676 Q184 676 167 657.5 Q150 639 141 607 L3 91 Q-5 60 3.5 42 Q12 24 36 24 Z M236 868 L270 868 L186 760 L158 760 L236 868 Z M300 868 L334 868 L251 760 L223 760 L300 868 Z " />
<glyph glyph-name="Omacron" unicode="&#x14c;" horiz-adv-x="200" d="M37 -4 Q12 -4 -5 8 Q-22 20 -28 41.5 Q-34 63 -27 92 L111 606 Q124 653 147 678.5 Q170 704 206 704 Q231 704 248.5 692 Q266 680 272.5 658 Q279 636 271 607 L133 91 Q121 46 97 21 Q73 -4 37 -4 Z M36 24 Q60 24 77.5 42 Q95 60 103 91 L241 607 Q250 638 239.5 657 Q229 676 206 676 Q184 676 167 657.5 Q150 639 141 607 L3 91 Q-5 60 3.5 42 Q12 24 36 24 Z M358 816 L135 816 L143 844 L366 844 L358 816 Z " />
<glyph glyph-name="Oslash" unicode="&#xd8;" horiz-adv-x="218" d="M-1 62 L-49 -32 L-80 -32 L-1 123 L-1 62 Z M260 634 L311 732 L341 732 L265 584 L260 634 Z M46 -4 Q21 -4 4 8 Q-13 20 -19 41.5 Q-25 63 -18 92 L120 606 Q133 653 156 678.5 Q179 704 215 704 Q240 704 257.5 692 Q275 680 281.5 658 Q288 636 280 607 L142 91 Q130 46 106 21 Q82 -4 46 -4 Z M45 24 Q69 24 86.5 42 Q104 60 112 91 L250 607 Q259 638 248.5 657 Q238 676 215 676 Q193 676 176 657.5 Q159 639 150 607 L12 91 Q4 60 12.5 42 Q21 24 45 24 Z " />
<glyph glyph-name="Oslashacute" unicode="&#x1fe;" horiz-adv-x="218" d="M-1 62 L-49 -32 L-80 -32 L-1 123 L-1 62 Z M260 634 L311 732 L341 732 L265 584 L260 634 Z M46 -4 Q21 -4 4 8 Q-13 20 -19 41.5 Q-25 63 -18 92 L120 606 Q133 653 156 678.5 Q179 704 215 704 Q240 704 257.5 692 Q275 680 281.5 658 Q288 636 280 607 L142 91 Q130 46 106 21 Q82 -4 46 -4 Z M45 24 Q69 24 86.5 42 Q104 60 112 91 L250 607 Q259 638 248.5 657 Q238 676 215 676 Q193 676 176 657.5 Q159 639 150 607 L12 91 Q4 60 12.5 42 Q21 24 45 24 Z M339 869 L255 761 L227 761 L305 869 L339 869 Z " />
<glyph glyph-name="Otilde" unicode="&#xd5;" horiz-adv-x="200" d="M37 -4 Q12 -4 -5 8 Q-22 20 -28 41.5 Q-34 63 -27 92 L111 606 Q124 653 147 678.5 Q170 704 206 704 Q231 704 248.5 692 Q266 680 272.5 658 Q279 636 271 607 L133 91 Q121 46 97 21 Q73 -4 37 -4 Z M36 24 Q60 24 77.5 42 Q95 60 103 91 L241 607 Q250 638 239.5 657 Q229 676 206 676 Q184 676 167 657.5 Q150 639 141 607 L3 91 Q-5 60 3.5 42 Q12 24 36 24 Z M329 774 Q315 754 300.5 745.5 Q286 737 271 737 Q259 737 250 741.5 Q241 746 226 757 Q219 762 211.5 766.5 Q204 771 198 771 Q187 771 176.5 765.5 Q166 760 156 746 L138 762 Q153 783 168 791 Q183 799 200 799 Q211 799 221 794 Q231 789 243 780 Q251 774 259 769.5 Q267 765 274 765 Q282 765 291.5 770.5 Q301 776 312 790 L329 774 Z " />
<glyph glyph-name="Racute" unicode="&#x154;" horiz-adv-x="203" d="M136 380 Q159 380 172.5 370 Q186 360 189 339.5 Q192 319 184 288 L117 40 L117 39 Q114 26 114.5 18.5 Q115 11 124 8 L122 0 L92 0 Q86 5 85 15.5 Q84 26 87 40 L153 283 Q163 320 159 341 Q155 362 119 362 L136 380 Z M256 518 Q242 458 222.5 425 Q203 392 169 376 L168 372 Q167 371 165.5 370.5 Q164 370 163 369 Q155 365 146 363.5 Q137 362 129 362 L81 362 L-16 0 L-46 0 L141 700 L194 700 Q229 700 248.5 684.5 Q268 669 272 634 Q276 599 262 543 L256 518 Z M232 543 Q251 613 242.5 642.5 Q234 672 193 672 L164 672 L88 389 L117 389 Q158 389 182.5 418.5 Q207 448 226 518 L232 543 Z M297 869 L213 761 L185 761 L263 869 L297 869 Z " />
<glyph glyph-name="Rcaron" unicode="&#x158;" horiz-adv-x="203" d="M136 380 Q159 380 172.5 370 Q186 360 189 339.5 Q192 319 184 288 L117 40 L117 39 Q114 26 114.5 18.5 Q115 11 124 8 L122 0 L92 0 Q86 5 85 15.5 Q84 26 87 40 L153 283 Q163 320 159 341 Q155 362 119 362 L136 380 Z M256 518 Q242 458 222.5 425 Q203 392 169 376 L168 372 Q167 371 165.5 370.5 Q164 370 163 369 Q155 365 146 363.5 Q137 362 129 362 L81 362 L-16 0 L-46 0 L141 700 L194 700 Q229 700 248.5 684.5 Q268 669 272 634 Q276 599 262 543 L256 518 Z M232 543 Q251 613 242.5 642.5 Q234 672 193 672 L164 672 L88 389 L117 389 Q158 389 182.5 418.5 Q207 448 226 518 L232 543 Z M155 849 L185 849 L200 764 L262 849 L297 849 L214 739 L177 739 L155 849 Z " />
<glyph glyph-name="uni0156" unicode="&#x156;" horiz-adv-x="203" d="M136 380 Q159 380 172.5 370 Q186 360 189 339.5 Q192 319 184 288 L117 40 L117 39 Q114 26 114.5 18.5 Q115 11 124 8 L122 0 L92 0 Q86 5 85 15.5 Q84 26 87 40 L153 283 Q163 320 159 341 Q155 362 119 362 L136 380 Z M256 518 Q242 458 222.5 425 Q203 392 169 376 L168 372 Q167 371 165.5 370.5 Q164 370 163 369 Q155 365 146 363.5 Q137 362 129 362 L81 362 L-16 0 L-46 0 L141 700 L194 700 Q229 700 248.5 684.5 Q268 669 272 634 Q276 599 262 543 L256 518 Z M232 543 Q251 613 242.5 642.5 Q234 672 193 672 L164 672 L88 389 L117 389 Q158 389 182.5 418.5 Q207 448 226 518 L232 543 Z M-9 -83 L2 -41 L45 -41 L38 -68 Q31 -93 18.5 -110.5 Q6 -128 -11 -143 L-23 -133 Q-7 -119 1 -108 Q9 -97 13 -83 L-9 -83 Z " />
<glyph glyph-name="Sacute" unicode="&#x15a;" horiz-adv-x="200" d="M37 -4 Q12 -4 -5 8 Q-22 20 -28 42 Q-34 64 -26 93 Q-22 108 -18.5 122.5 Q-15 137 -11 151 Q-7 165 -3.5 179.5 Q0 194 4 208 L34 208 Q30 194 26.5 179.5 Q23 165 19 151 Q15 137 11.5 122.5 Q8 108 4 93 Q-5 62 3.5 43 Q12 24 35 24 Q50 24 63.5 32.5 Q77 41 87.5 56.5 Q98 72 104 93 L125 172 Q138 220 142 251.5 Q146 283 141.5 306.5 Q137 330 122 349 Q91 388 83 430 Q75 472 91 532 L111 606 Q119 637 132.5 659 Q146 681 165.5 692.5 Q185 704 209 704 Q234 704 250.5 692 Q267 680 273 658 Q279 636 271 607 Q267 594 264 580.5 Q261 567 257 554 Q253 539 249 524 Q245 509 241 494 L211 494 Q215 509 219 523 Q223 537 226 551 Q230 565 233.5 579 Q237 593 241 607 Q250 638 241.5 657 Q233 676 210 676 Q195 676 181.5 667.5 Q168 659 157.5 643.5 Q147 628 141 607 L121 532 Q110 493 109.5 465 Q109 437 117.5 414 Q126 391 146 367 Q162 348 168.5 321 Q175 294 171.5 257.5 Q168 221 155 172 L134 94 Q126 63 112.5 41 Q99 19 80 7.5 Q61 -4 37 -4 Z M330 869 L246 761 L218 761 L296 869 L330 869 Z " />
<glyph glyph-name="Scaron" unicode="&#x160;" horiz-adv-x="200" d="M37 -4 Q12 -4 -5 8 Q-22 20 -28 42 Q-34 64 -26 93 Q-22 108 -18.5 122.5 Q-15 137 -11 151 Q-7 165 -3.5 179.5 Q0 194 4 208 L34 208 Q30 194 26.5 179.5 Q23 165 19 151 Q15 137 11.5 122.5 Q8 108 4 93 Q-5 62 3.5 43 Q12 24 35 24 Q50 24 63.5 32.5 Q77 41 87.5 56.5 Q98 72 104 93 L125 172 Q138 220 142 251.5 Q146 283 141.5 306.5 Q137 330 122 349 Q91 388 83 430 Q75 472 91 532 L111 606 Q119 637 132.5 659 Q146 681 165.5 692.5 Q185 704 209 704 Q234 704 250.5 692 Q267 680 273 658 Q279 636 271 607 Q267 594 264 580.5 Q261 567 257 554 Q253 539 249 524 Q245 509 241 494 L211 494 Q215 509 219 523 Q223 537 226 551 Q230 565 233.5 579 Q237 593 241 607 Q250 638 241.5 657 Q233 676 210 676 Q195 676 181.5 667.5 Q168 659 157.5 643.5 Q147 628 141 607 L121 532 Q110 493 109.5 465 Q109 437 117.5 414 Q126 391 146 367 Q162 348 168.5 321 Q175 294 171.5 257.5 Q168 221 155 172 L134 94 Q126 63 112.5 41 Q99 19 80 7.5 Q61 -4 37 -4 Z M188 849 L218 849 L233 764 L295 849 L330 849 L247 739 L210 739 L188 849 Z " />
<glyph glyph-name="Scedilla" unicode="&#x15e;" horiz-adv-x="200" d="M37 -4 Q12 -4 -5 8 Q-22 20 -28 42 Q-34 64 -26 93 Q-22 108 -18.5 122.5 Q-15 137 -11 151 Q-7 165 -3.5 179.5 Q0 194 4 208 L34 208 Q30 194 26.5 179.5 Q23 165 19 151 Q15 137 11.5 122.5 Q8 108 4 93 Q-5 62 3.5 43 Q12 24 35 24 Q50 24 63.5 32.5 Q77 41 87.5 56.5 Q98 72 104 93 L125 172 Q138 220 142 251.5 Q146 283 141.5 306.5 Q137 330 122 349 Q91 388 83 430 Q75 472 91 532 L111 606 Q119 637 132.5 659 Q146 681 165.5 692.5 Q185 704 209 704 Q234 704 250.5 692 Q267 680 273 658 Q279 636 271 607 Q267 594 264 580.5 Q261 567 257 554 Q253 539 249 524 Q245 509 241 494 L211 494 Q215 509 219 523 Q223 537 226 551 Q230 565 233.5 579 Q237 593 241 607 Q250 638 241.5 657 Q233 676 210 676 Q195 676 181.5 667.5 Q168 659 157.5 643.5 Q147 628 141 607 L121 532 Q110 493 109.5 465 Q109 437 117.5 414 Q126 391 146 367 Q162 348 168.5 321 Q175 294 171.5 257.5 Q168 221 155 172 L134 94 Q126 63 112.5 41 Q99 19 80 7.5 Q61 -4 37 -4 Z M-33 -81 Q-28 -88 -18 -92 Q-8 -96 4 -96 Q17 -96 26.5 -89 Q36 -82 39 -70 Q41 -61 37.5 -55 Q34 -49 24 -47 Q14 -45 0 -48 L15 8 L45 8 L36 -26 Q47 -26 55.5 -32.5 Q64 -39 67 -50 Q70 -61 67 -74 Q60 -98 43 -111 Q26 -124 1 -124 Q-15 -124 -28.5 -118.5 Q-42 -113 -50 -103 L-33 -81 Z " />
<glyph glyph-name="Scircumflex" unicode="&#x15c;" horiz-adv-x="200" d="M37 -4 Q12 -4 -5 8 Q-22 20 -28 42 Q-34 64 -26 93 Q-22 108 -18.5 122.5 Q-15 137 -11 151 Q-7 165 -3.5 179.5 Q0 194 4 208 L34 208 Q30 194 26.5 179.5 Q23 165 19 151 Q15 137 11.5 122.5 Q8 108 4 93 Q-5 62 3.5 43 Q12 24 35 24 Q50 24 63.5 32.5 Q77 41 87.5 56.5 Q98 72 104 93 L125 172 Q138 220 142 251.5 Q146 283 141.5 306.5 Q137 330 122 349 Q91 388 83 430 Q75 472 91 532 L111 606 Q119 637 132.5 659 Q146 681 165.5 692.5 Q185 704 209 704 Q234 704 250.5 692 Q267 680 273 658 Q279 636 271 607 Q267 594 264 580.5 Q261 567 257 554 Q253 539 249 524 Q245 509 241 494 L211 494 Q215 509 219 523 Q223 537 226 551 Q230 565 233.5 579 Q237 593 241 607 Q250 638 241.5 657 Q233 676 210 676 Q195 676 181.5 667.5 Q168 659 157.5 643.5 Q147 628 141 607 L121 532 Q110 493 109.5 465 Q109 437 117.5 414 Q126 391 146 367 Q162 348 168.5 321 Q175 294 171.5 257.5 Q168 221 155 172 L134 94 Q126 63 112.5 41 Q99 19 80 7.5 Q61 -4 37 -4 Z M158 759 L241 869 L278 869 L300 759 L270 759 L255 844 L193 759 L158 759 Z " />
<glyph glyph-name="uni0218" unicode="&#x218;" horiz-adv-x="200" d="M37 -4 Q12 -4 -5 8 Q-22 20 -28 42 Q-34 64 -26 93 Q-22 108 -18.5 122.5 Q-15 137 -11 151 Q-7 165 -3.5 179.5 Q0 194 4 208 L34 208 Q30 194 26.5 179.5 Q23 165 19 151 Q15 137 11.5 122.5 Q8 108 4 93 Q-5 62 3.5 43 Q12 24 35 24 Q50 24 63.5 32.5 Q77 41 87.5 56.5 Q98 72 104 93 L125 172 Q138 220 142 251.5 Q146 283 141.5 306.5 Q137 330 122 349 Q91 388 83 430 Q75 472 91 532 L111 606 Q119 637 132.5 659 Q146 681 165.5 692.5 Q185 704 209 704 Q234 704 250.5 692 Q267 680 273 658 Q279 636 271 607 Q267 594 264 580.5 Q261 567 257 554 Q253 539 249 524 Q245 509 241 494 L211 494 Q215 509 219 523 Q223 537 226 551 Q230 565 233.5 579 Q237 593 241 607 Q250 638 241.5 657 Q233 676 210 676 Q195 676 181.5 667.5 Q168 659 157.5 643.5 Q147 628 141 607 L121 532 Q110 493 109.5 465 Q109 437 117.5 414 Q126 391 146 367 Q162 348 168.5 321 Q175 294 171.5 257.5 Q168 221 155 172 L134 94 Q126 63 112.5 41 Q99 19 80 7.5 Q61 -4 37 -4 Z M-16 -83 L-5 -41 L38 -41 L31 -68 Q24 -93 11.5 -110.5 Q-1 -128 -18 -143 L-30 -133 Q-14 -119 -6 -108 Q2 -97 6 -83 L-16 -83 Z " />
<glyph glyph-name="Tbar" unicode="&#x166;" horiz-adv-x="171" d="M6 0 L186 672 L119 672 L126 700 L289 700 L282 672 L216 672 L36 0 L6 0 Z M181 336 L47 336 L55 364 L189 364 L181 336 Z " />
<glyph glyph-name="Tcaron" unicode="&#x164;" horiz-adv-x="183" d="M6 0 L186 672 L119 672 L126 700 L289 700 L282 672 L216 672 L36 0 L6 0 Z M180 849 L210 849 L225 764 L287 849 L322 849 L239 739 L202 739 L180 849 Z " />
<glyph glyph-name="uni0162" unicode="&#x162;" horiz-adv-x="183" d="M6 0 L186 672 L119 672 L126 700 L289 700 L282 672 L216 672 L36 0 L6 0 Z M-40 -81 Q-35 -88 -25 -92 Q-15 -96 -3 -96 Q10 -96 19.5 -89 Q29 -82 32 -70 Q34 -61 30.5 -55 Q27 -49 17 -47 Q7 -45 -7 -48 L8 8 L38 8 L29 -26 Q40 -26 48.5 -32.5 Q57 -39 60 -50 Q63 -61 60 -74 Q53 -98 36 -111 Q19 -124 -6 -124 Q-22 -124 -35.5 -118.5 Q-49 -113 -57 -103 L-40 -81 Z " />
<glyph glyph-name="uni021A" unicode="&#x21a;" horiz-adv-x="183" d="M6 0 L186 672 L119 672 L126 700 L289 700 L282 672 L216 672 L36 0 L6 0 Z M-23 -83 L-12 -41 L31 -41 L24 -68 Q17 -93 4.5 -110.5 Q-8 -128 -25 -143 L-37 -133 Q-21 -119 -13 -108 Q-5 -97 -1 -83 L-23 -83 Z " />
<glyph glyph-name="Uacute" unicode="&#xda;" horiz-adv-x="215" d="M37 -4 Q12 -4 -5 8 Q-22 20 -28 41.5 Q-34 63 -27 92 L136 700 L166 700 L3 91 Q-5 60 3.5 42 Q12 24 35 24 Q58 24 76.5 42 Q95 60 103 91 L266 700 L296 700 L133 91 Q121 46 97 21 Q73 -4 37 -4 Z M338 869 L254 761 L226 761 L304 869 L338 869 Z " />
<glyph glyph-name="Ubreve" unicode="&#x16c;" horiz-adv-x="215" d="M37 -4 Q12 -4 -5 8 Q-22 20 -28 41.5 Q-34 63 -27 92 L136 700 L166 700 L3 91 Q-5 60 3.5 42 Q12 24 35 24 Q58 24 76.5 42 Q95 60 103 91 L266 700 L296 700 L133 91 Q121 46 97 21 Q73 -4 37 -4 Z M351 865 Q338 811 312.5 785.5 Q287 760 248 760 Q221 760 204 771.5 Q187 783 182 806.5 Q177 830 184 865 L213 865 Q205 825 213 806.5 Q221 788 248 788 Q275 788 292.5 806.5 Q310 825 320 865 L351 865 Z " />
<glyph glyph-name="Ucircumflex" unicode="&#xdb;" horiz-adv-x="215" d="M37 -4 Q12 -4 -5 8 Q-22 20 -28 41.5 Q-34 63 -27 92 L136 700 L166 700 L3 91 Q-5 60 3.5 42 Q12 24 35 24 Q58 24 76.5 42 Q95 60 103 91 L266 700 L296 700 L133 91 Q121 46 97 21 Q73 -4 37 -4 Z M171 759 L254 869 L291 869 L313 759 L283 759 L268 844 L206 759 L171 759 Z " />
<glyph glyph-name="Udieresis" unicode="&#xdc;" horiz-adv-x="215" d="M37 -4 Q12 -4 -5 8 Q-22 20 -28 41.5 Q-34 63 -27 92 L136 700 L166 700 L3 91 Q-5 60 3.5 42 Q12 24 35 24 Q58 24 76.5 42 Q95 60 103 91 L266 700 L296 700 L133 91 Q121 46 97 21 Q73 -4 37 -4 Z M183 819 L225 819 L214 777 L172 777 L183 819 Z M245 819 L287 819 L276 777 L234 777 L245 819 Z " />
<glyph glyph-name="&amp;#x1ee4;" unicode="&#x1ee4;" horiz-adv-x="215" d="M37 -4 Q12 -4 -5 8 Q-22 20 -28 41.5 Q-34 63 -27 92 L136 700 L166 700 L3 91 Q-5 60 3.5 42 Q12 24 35 24 Q58 24 76.5 42 Q95 60 103 91 L266 700 L296 700 L133 91 Q121 46 97 21 Q73 -4 37 -4 Z M1 -48 L43 -48 L32 -90 L-10 -90 L1 -48 Z " />
<glyph glyph-name="&amp;#x1ee5;" unicode="&#x1ee5;" horiz-adv-x="215" d="M37 -4 Q12 -4 -5 8 Q-22 20 -28 41.5 Q-34 63 -27 92 L136 700 L166 700 L3 91 Q-5 60 3.5 42 Q12 24 35 24 Q58 24 76.5 42 Q95 60 103 91 L266 700 L296 700 L133 91 Q121 46 97 21 Q73 -4 37 -4 Z M1 -48 L43 -48 L32 -90 L-10 -90 L1 -48 Z " />
<glyph glyph-name="Ugrave" unicode="&#xd9;" horiz-adv-x="215" d="M37 -4 Q12 -4 -5 8 Q-22 20 -28 41.5 Q-34 63 -27 92 L136 700 L166 700 L3 91 Q-5 60 3.5 42 Q12 24 35 24 Q58 24 76.5 42 Q95 60 103 91 L266 700 L296 700 L133 91 Q121 46 97 21 Q73 -4 37 -4 Z M200 868 L234 868 L254 760 L226 760 L200 868 Z " />
<glyph glyph-name="Uhungarumlaut" unicode="&#x170;" horiz-adv-x="215" d="M37 -4 Q12 -4 -5 8 Q-22 20 -28 41.5 Q-34 63 -27 92 L136 700 L166 700 L3 91 Q-5 60 3.5 42 Q12 24 35 24 Q58 24 76.5 42 Q95 60 103 91 L266 700 L296 700 L133 91 Q121 46 97 21 Q73 -4 37 -4 Z M244 868 L278 868 L194 760 L166 760 L244 868 Z M308 868 L342 868 L259 760 L231 760 L308 868 Z " />
<glyph glyph-name="Umacron" unicode="&#x16a;" horiz-adv-x="215" d="M37 -4 Q12 -4 -5 8 Q-22 20 -28 41.5 Q-34 63 -27 92 L136 700 L166 700 L3 91 Q-5 60 3.5 42 Q12 24 35 24 Q58 24 76.5 42 Q95 60 103 91 L266 700 L296 700 L133 91 Q121 46 97 21 Q73 -4 37 -4 Z M366 816 L143 816 L151 844 L374 844 L366 816 Z " />
<glyph glyph-name="Uogonek" unicode="&#x172;" horiz-adv-x="215" d="M37 -4 Q12 -4 -5 8 Q-22 20 -28 41.5 Q-34 63 -27 92 L136 700 L166 700 L3 91 Q-5 60 3.5 42 Q12 24 35 24 Q58 24 76.5 42 Q95 60 103 91 L266 700 L296 700 L133 91 Q121 46 97 21 Q73 -4 37 -4 Z M75 -143 Q67 -149 56.5 -152 Q46 -155 33 -155 Q16 -155 2 -146 Q-12 -137 -18 -119 Q-24 -101 -17 -74 Q-8 -41 14 -19 Q36 3 62 17 L69 21 L85 10 Q84 9 83.5 9 Q83 9 83 8 Q58 -8 39 -27 Q20 -46 12 -76 Q5 -100 11 -113.5 Q17 -127 36 -127 Q47 -127 56.5 -123 Q66 -119 74 -113 L76 -112 L75 -143 Z " />
<glyph glyph-name="Uring" unicode="&#x16e;" horiz-adv-x="341" d="M37 -4 Q12 -4 -5 8 Q-22 20 -28 41.5 Q-34 63 -27 92 L136 700 L166 700 L3 91 Q-5 60 3.5 42 Q12 24 35 24 Q58 24 76.5 42 Q95 60 103 91 L266 700 L296 700 L133 91 Q121 46 97 21 Q73 -4 37 -4 Z M193 807 Q201 835 216 849.5 Q231 864 255 864 Q272 864 283.5 856.5 Q295 849 299.5 836 Q304 823 299 805 Q292 777 277 762.5 Q262 748 238 748 Q213 748 199.5 764.5 Q186 781 193 807 Z M221 806 Q217 791 222 783.5 Q227 776 240 776 Q253 776 260 783.5 Q267 791 271 806 Q275 821 270 828.5 Q265 836 252 836 Q240 836 233 829 Q226 822 221 806 Z " />
<glyph glyph-name="Utilde" unicode="&#x168;" horiz-adv-x="215" d="M37 -4 Q12 -4 -5 8 Q-22 20 -28 41.5 Q-34 63 -27 92 L136 700 L166 700 L3 91 Q-5 60 3.5 42 Q12 24 35 24 Q58 24 76.5 42 Q95 60 103 91 L266 700 L296 700 L133 91 Q121 46 97 21 Q73 -4 37 -4 Z M350 821 Q336 801 321.5 792.5 Q307 784 292 784 Q280 784 271 788.5 Q262 793 247 804 Q240 809 232.5 813.5 Q225 818 219 818 Q208 818 197.5 812.5 Q187 807 177 793 L159 809 Q174 830 189 838 Q204 846 221 846 Q232 846 242 841 Q252 836 264 827 Q272 821 280 816.5 Q288 812 295 812 Q303 812 312.5 817.5 Q322 823 333 837 L350 821 Z " />
<glyph glyph-name="Wacute" unicode="&#x1e82;" horiz-adv-x="354" d="M-13 0 L124 700 L153 700 L30 73 L20 25 L21 25 L37 73 L267 700 L318 700 L213 73 L203 25 L204 25 L220 73 L432 700 L462 700 L225 0 L174 0 L279 632 L288 675 L286 675 L271 632 L39 0 L-13 0 Z M407 869 L323 761 L295 761 L373 869 L407 869 Z " />
<glyph glyph-name="Wcircumflex" unicode="&#x174;" horiz-adv-x="354" d="M-13 0 L124 700 L153 700 L30 73 L20 25 L21 25 L37 73 L267 700 L318 700 L213 73 L203 25 L204 25 L220 73 L432 700 L462 700 L225 0 L174 0 L279 632 L288 675 L286 675 L271 632 L39 0 L-13 0 Z M235 759 L318 869 L355 869 L377 759 L347 759 L332 844 L270 759 L235 759 Z " />
<glyph glyph-name="Wdieresis" unicode="&#x1e84;" horiz-adv-x="354" d="M-13 0 L124 700 L153 700 L30 73 L20 25 L21 25 L37 73 L267 700 L318 700 L213 73 L203 25 L204 25 L220 73 L432 700 L462 700 L225 0 L174 0 L279 632 L288 675 L286 675 L271 632 L39 0 L-13 0 Z M271 819 L313 819 L302 777 L260 777 L271 819 Z M333 819 L375 819 L364 777 L322 777 L333 819 Z " />
<glyph glyph-name="Wgrave" unicode="&#x1e80;" horiz-adv-x="354" d="M-13 0 L124 700 L153 700 L30 73 L20 25 L21 25 L37 73 L267 700 L318 700 L213 73 L203 25 L204 25 L220 73 L432 700 L462 700 L225 0 L174 0 L279 632 L288 675 L286 675 L271 632 L39 0 L-13 0 Z M269 868 L303 868 L323 760 L295 760 L269 868 Z " />
<glyph glyph-name="Yacute" unicode="&#xdd;" horiz-adv-x="190" d="M298 700 L114 284 L39 0 L9 0 L86 290 L124 700 L152 700 L115 345 L268 700 L298 700 Z M325 869 L241 761 L213 761 L291 869 L325 869 Z " />
<glyph glyph-name="Ycircumflex" unicode="&#x176;" horiz-adv-x="190" d="M298 700 L114 284 L39 0 L9 0 L86 290 L124 700 L152 700 L115 345 L268 700 L298 700 Z M153 759 L236 869 L273 869 L295 759 L265 759 L250 844 L188 759 L153 759 Z " />
<glyph glyph-name="Ydieresis" unicode="&#x178;" horiz-adv-x="190" d="M298 700 L114 284 L39 0 L9 0 L86 290 L124 700 L152 700 L115 345 L268 700 L298 700 Z M189 819 L231 819 L220 777 L178 777 L189 819 Z M251 819 L293 819 L282 777 L240 777 L251 819 Z " />
<glyph glyph-name="Ygrave" unicode="&#x1ef2;" horiz-adv-x="190" d="M298 700 L114 284 L39 0 L9 0 L86 290 L124 700 L152 700 L115 345 L268 700 L298 700 Z M187 868 L221 868 L241 760 L213 760 L187 868 Z " />
<glyph glyph-name="uni0232" unicode="&#x232;" horiz-adv-x="190" d="M298 700 L114 284 L39 0 L9 0 L86 290 L124 700 L152 700 L115 345 L268 700 L298 700 Z M353 816 L130 816 L138 844 L361 844 L353 816 Z " />
<glyph glyph-name="uni1EF8" unicode="&#x1ef8;" horiz-adv-x="190" d="M298 700 L114 284 L39 0 L9 0 L86 290 L124 700 L152 700 L115 345 L268 700 L298 700 Z M324 774 Q310 754 295.5 745.5 Q281 737 266 737 Q254 737 245 741.5 Q236 746 221 757 Q214 762 206.5 766.5 Q199 771 193 771 Q182 771 171.5 765.5 Q161 760 151 746 L133 762 Q148 783 163 791 Q178 799 195 799 Q206 799 216 794 Q226 789 238 780 Q246 774 254 769.5 Q262 765 269 765 Q277 765 286.5 770.5 Q296 776 307 790 L324 774 Z " />
<glyph glyph-name="Zacute" unicode="&#x179;" horiz-adv-x="171" d="M90 0 L-60 0 L-53 26 L241 672 L126 672 L133 700 L278 700 L271 672 L-23 28 L97 28 L90 0 Z M316 869 L232 761 L204 761 L282 869 L316 869 Z " />
<glyph glyph-name="Zcaron" unicode="&#x17d;" horiz-adv-x="171" d="M90 0 L-60 0 L-53 26 L241 672 L126 672 L133 700 L278 700 L271 672 L-23 28 L97 28 L90 0 Z M174 849 L204 849 L219 764 L281 849 L316 849 L233 739 L196 739 L174 849 Z " />
<glyph glyph-name="Zdotaccent" unicode="&#x17b;" horiz-adv-x="171" d="M90 0 L-60 0 L-53 26 L241 672 L126 672 L133 700 L278 700 L271 672 L-23 28 L97 28 L90 0 Z M203 759 L222 828 L251 828 L232 759 L203 759 Z " />
<glyph glyph-name="aacute" unicode="&#xe1;" horiz-adv-x="191" d="M18 -4 Q1 -4 -12.5 4 Q-26 12 -31.5 32 Q-37 52 -28 87 L-9 159 Q4 205 23.5 235 Q43 265 66 283.5 Q89 302 131 328 L159 346 L188 452 Q195 481 186.5 496.5 Q178 512 157 512 Q138 512 125 497.5 Q112 483 104 454 L103 452 Q102 447 97.5 432 Q93 417 88 397 Q83 377 79 361.5 Q75 346 73 341 L44 341 Q45 346 49.5 361.5 Q54 377 59 397 Q63 412 67 426 Q71 440 74 452 Q86 496 106 518 Q126 540 159 540 Q178 540 194 529.5 Q210 519 217 499 Q224 479 217 452 L96 0 L67 0 L82 55 Q75 29 55.5 12.5 Q36 -4 18 -4 Z M19 24 Q35 24 51 40.5 Q67 57 87 104 Q107 151 130 237 L150 309 Q146 306 141.5 303 Q137 300 132 297 Q96 273 78 258.5 Q60 244 45.5 220.5 Q31 197 20 159 L1 87 Q-5 62 -4.5 48.5 Q-4 35 1.5 29.5 Q7 24 19 24 Z M279 700 L195 592 L167 592 L245 700 L279 700 Z " />
<glyph glyph-name="abreve" unicode="&#x103;" horiz-adv-x="191" d="M18 -4 Q1 -4 -12.5 4 Q-26 12 -31.5 32 Q-37 52 -28 87 L-9 159 Q4 205 23.5 235 Q43 265 66 283.5 Q89 302 131 328 L159 346 L188 452 Q195 481 186.5 496.5 Q178 512 157 512 Q138 512 125 497.5 Q112 483 104 454 L103 452 Q102 447 97.5 432 Q93 417 88 397 Q83 377 79 361.5 Q75 346 73 341 L44 341 Q45 346 49.5 361.5 Q54 377 59 397 Q63 412 67 426 Q71 440 74 452 Q86 496 106 518 Q126 540 159 540 Q178 540 194 529.5 Q210 519 217 499 Q224 479 217 452 L96 0 L67 0 L82 55 Q75 29 55.5 12.5 Q36 -4 18 -4 Z M19 24 Q35 24 51 40.5 Q67 57 87 104 Q107 151 130 237 L150 309 Q146 306 141.5 303 Q137 300 132 297 Q96 273 78 258.5 Q60 244 45.5 220.5 Q31 197 20 159 L1 87 Q-5 62 -4.5 48.5 Q-4 35 1.5 29.5 Q7 24 19 24 Z M292 696 Q279 642 253.5 616.5 Q228 591 189 591 Q162 591 145 602.5 Q128 614 123 637.5 Q118 661 125 696 L154 696 Q146 656 154 637.5 Q162 619 189 619 Q216 619 233.5 637.5 Q251 656 261 696 L292 696 Z " />
<glyph glyph-name="acircumflex" unicode="&#xe2;" horiz-adv-x="191" d="M18 -4 Q1 -4 -12.5 4 Q-26 12 -31.5 32 Q-37 52 -28 87 L-9 159 Q4 205 23.5 235 Q43 265 66 283.5 Q89 302 131 328 L159 346 L188 452 Q195 481 186.5 496.5 Q178 512 157 512 Q138 512 125 497.5 Q112 483 104 454 L103 452 Q102 447 97.5 432 Q93 417 88 397 Q83 377 79 361.5 Q75 346 73 341 L44 341 Q45 346 49.5 361.5 Q54 377 59 397 Q63 412 67 426 Q71 440 74 452 Q86 496 106 518 Q126 540 159 540 Q178 540 194 529.5 Q210 519 217 499 Q224 479 217 452 L96 0 L67 0 L82 55 Q75 29 55.5 12.5 Q36 -4 18 -4 Z M19 24 Q35 24 51 40.5 Q67 57 87 104 Q107 151 130 237 L150 309 Q146 306 141.5 303 Q137 300 132 297 Q96 273 78 258.5 Q60 244 45.5 220.5 Q31 197 20 159 L1 87 Q-5 62 -4.5 48.5 Q-4 35 1.5 29.5 Q7 24 19 24 Z M107 590 L190 700 L227 700 L249 590 L219 590 L204 675 L142 590 L107 590 Z " />
<glyph glyph-name="adieresis" unicode="&#xe4;" horiz-adv-x="191" d="M18 -4 Q1 -4 -12.5 4 Q-26 12 -31.5 32 Q-37 52 -28 87 L-9 159 Q4 205 23.5 235 Q43 265 66 283.5 Q89 302 131 328 L159 346 L188 452 Q195 481 186.5 496.5 Q178 512 157 512 Q138 512 125 497.5 Q112 483 104 454 L103 452 Q102 447 97.5 432 Q93 417 88 397 Q83 377 79 361.5 Q75 346 73 341 L44 341 Q45 346 49.5 361.5 Q54 377 59 397 Q63 412 67 426 Q71 440 74 452 Q86 496 106 518 Q126 540 159 540 Q178 540 194 529.5 Q210 519 217 499 Q224 479 217 452 L96 0 L67 0 L82 55 Q75 29 55.5 12.5 Q36 -4 18 -4 Z M19 24 Q35 24 51 40.5 Q67 57 87 104 Q107 151 130 237 L150 309 Q146 306 141.5 303 Q137 300 132 297 Q96 273 78 258.5 Q60 244 45.5 220.5 Q31 197 20 159 L1 87 Q-5 62 -4.5 48.5 Q-4 35 1.5 29.5 Q7 24 19 24 Z M143 650 L185 650 L174 608 L132 608 L143 650 Z M205 650 L247 650 L236 608 L194 608 L205 650 Z " />
<glyph glyph-name="agrave" unicode="&#xe0;" horiz-adv-x="191" d="M18 -4 Q1 -4 -12.5 4 Q-26 12 -31.5 32 Q-37 52 -28 87 L-9 159 Q4 205 23.5 235 Q43 265 66 283.5 Q89 302 131 328 L159 346 L188 452 Q195 481 186.5 496.5 Q178 512 157 512 Q138 512 125 497.5 Q112 483 104 454 L103 452 Q102 447 97.5 432 Q93 417 88 397 Q83 377 79 361.5 Q75 346 73 341 L44 341 Q45 346 49.5 361.5 Q54 377 59 397 Q63 412 67 426 Q71 440 74 452 Q86 496 106 518 Q126 540 159 540 Q178 540 194 529.5 Q210 519 217 499 Q224 479 217 452 L96 0 L67 0 L82 55 Q75 29 55.5 12.5 Q36 -4 18 -4 Z M19 24 Q35 24 51 40.5 Q67 57 87 104 Q107 151 130 237 L150 309 Q146 306 141.5 303 Q137 300 132 297 Q96 273 78 258.5 Q60 244 45.5 220.5 Q31 197 20 159 L1 87 Q-5 62 -4.5 48.5 Q-4 35 1.5 29.5 Q7 24 19 24 Z M141 699 L175 699 L195 591 L167 591 L141 699 Z " />
<glyph glyph-name="amacron" unicode="&#x101;" horiz-adv-x="191" d="M18 -4 Q1 -4 -12.5 4 Q-26 12 -31.5 32 Q-37 52 -28 87 L-9 159 Q4 205 23.5 235 Q43 265 66 283.5 Q89 302 131 328 L159 346 L188 452 Q195 481 186.5 496.5 Q178 512 157 512 Q138 512 125 497.5 Q112 483 104 454 L103 452 Q102 447 97.5 432 Q93 417 88 397 Q83 377 79 361.5 Q75 346 73 341 L44 341 Q45 346 49.5 361.5 Q54 377 59 397 Q63 412 67 426 Q71 440 74 452 Q86 496 106 518 Q126 540 159 540 Q178 540 194 529.5 Q210 519 217 499 Q224 479 217 452 L96 0 L67 0 L82 55 Q75 29 55.5 12.5 Q36 -4 18 -4 Z M19 24 Q35 24 51 40.5 Q67 57 87 104 Q107 151 130 237 L150 309 Q146 306 141.5 303 Q137 300 132 297 Q96 273 78 258.5 Q60 244 45.5 220.5 Q31 197 20 159 L1 87 Q-5 62 -4.5 48.5 Q-4 35 1.5 29.5 Q7 24 19 24 Z M307 647 L84 647 L92 675 L315 675 L307 647 Z " />
<glyph glyph-name="aogonek" unicode="&#x105;" horiz-adv-x="191" d="M18 -4 Q1 -4 -12.5 4 Q-26 12 -31.5 32 Q-37 52 -28 87 L-9 159 Q4 205 23.5 235 Q43 265 66 283.5 Q89 302 131 328 L159 346 L188 452 Q195 481 186.5 496.5 Q178 512 157 512 Q138 512 125 497.5 Q112 483 104 454 L103 452 Q102 447 97.5 432 Q93 417 88 397 Q83 377 79 361.5 Q75 346 73 341 L44 341 Q45 346 49.5 361.5 Q54 377 59 397 Q63 412 67 426 Q71 440 74 452 Q86 496 106 518 Q126 540 159 540 Q178 540 194 529.5 Q210 519 217 499 Q224 479 217 452 L96 0 L67 0 L82 55 Q75 29 55.5 12.5 Q36 -4 18 -4 Z M19 24 Q35 24 51 40.5 Q67 57 87 104 Q107 151 130 237 L150 309 Q146 306 141.5 303 Q137 300 132 297 Q96 273 78 258.5 Q60 244 45.5 220.5 Q31 197 20 159 L1 87 Q-5 62 -4.5 48.5 Q-4 35 1.5 29.5 Q7 24 19 24 Z M86 -153 Q78 -159 67.5 -162 Q57 -165 44 -165 Q27 -165 13 -156 Q-1 -147 -7 -129 Q-13 -111 -6 -84 Q3 -51 25 -29 Q47 -7 73 7 L80 11 L96 0 Q95 -1 94.5 -1 Q94 -1 94 -2 Q69 -18 50 -37 Q31 -56 23 -86 Q16 -110 22 -123.5 Q28 -137 47 -137 Q58 -137 67.5 -133 Q77 -129 85 -123 L87 -122 L86 -153 Z " />
<glyph glyph-name="aring" unicode="&#xe5;" horiz-adv-x="191" d="M18 -4 Q1 -4 -12.5 4 Q-26 12 -31.5 32 Q-37 52 -28 87 L-9 159 Q4 205 23.5 235 Q43 265 66 283.5 Q89 302 131 328 L159 346 L188 452 Q195 481 186.5 496.5 Q178 512 157 512 Q138 512 125 497.5 Q112 483 104 454 L103 452 Q102 447 97.5 432 Q93 417 88 397 Q83 377 79 361.5 Q75 346 73 341 L44 341 Q45 346 49.5 361.5 Q54 377 59 397 Q63 412 67 426 Q71 440 74 452 Q86 496 106 518 Q126 540 159 540 Q178 540 194 529.5 Q210 519 217 499 Q224 479 217 452 L96 0 L67 0 L82 55 Q75 29 55.5 12.5 Q36 -4 18 -4 Z M19 24 Q35 24 51 40.5 Q67 57 87 104 Q107 151 130 237 L150 309 Q146 306 141.5 303 Q137 300 132 297 Q96 273 78 258.5 Q60 244 45.5 220.5 Q31 197 20 159 L1 87 Q-5 62 -4.5 48.5 Q-4 35 1.5 29.5 Q7 24 19 24 Z M135 619 Q143 647 158 661.5 Q173 676 197 676 Q214 676 225.5 668.5 Q237 661 241.5 648 Q246 635 241 617 Q234 589 219 574.5 Q204 560 180 560 Q155 560 141.5 576.5 Q128 593 135 619 Z M163 618 Q159 603 164 595.5 Q169 588 182 588 Q195 588 202 595.5 Q209 603 213 618 Q217 633 212 640.5 Q207 648 194 648 Q182 648 175 641 Q168 634 163 618 Z " />
<glyph glyph-name="atilde" unicode="&#xe3;" horiz-adv-x="191" d="M18 -4 Q1 -4 -12.5 4 Q-26 12 -31.5 32 Q-37 52 -28 87 L-9 159 Q4 205 23.5 235 Q43 265 66 283.5 Q89 302 131 328 L159 346 L188 452 Q195 481 186.5 496.5 Q178 512 157 512 Q138 512 125 497.5 Q112 483 104 454 L103 452 Q102 447 97.5 432 Q93 417 88 397 Q83 377 79 361.5 Q75 346 73 341 L44 341 Q45 346 49.5 361.5 Q54 377 59 397 Q63 412 67 426 Q71 440 74 452 Q86 496 106 518 Q126 540 159 540 Q178 540 194 529.5 Q210 519 217 499 Q224 479 217 452 L96 0 L67 0 L82 55 Q75 29 55.5 12.5 Q36 -4 18 -4 Z M19 24 Q35 24 51 40.5 Q67 57 87 104 Q107 151 130 237 L150 309 Q146 306 141.5 303 Q137 300 132 297 Q96 273 78 258.5 Q60 244 45.5 220.5 Q31 197 20 159 L1 87 Q-5 62 -4.5 48.5 Q-4 35 1.5 29.5 Q7 24 19 24 Z M291 652 Q277 632 262.5 623.5 Q248 615 233 615 Q221 615 212 619.5 Q203 624 188 635 Q181 640 173.5 644.5 Q166 649 160 649 Q149 649 138.5 643.5 Q128 638 118 624 L100 640 Q115 661 130 669 Q145 677 162 677 Q173 677 183 672 Q193 667 205 658 Q213 652 221 647.5 Q229 643 236 643 Q244 643 253.5 648.5 Q263 654 274 668 L291 652 Z " />
<glyph glyph-name="aeacute" unicode="&#x1fd;" horiz-adv-x="301" d="M18 -4 Q1 -4 -12.5 4 Q-26 12 -31.5 32 Q-37 52 -28 87 L-9 159 Q4 205 23.5 235 Q43 265 66 283.5 Q89 302 131 328 Q138 333 145 337.5 Q152 342 159 346 L188 452 Q195 481 186.5 496.5 Q178 512 157 512 Q138 512 125 497.5 Q112 483 104 454 L103 452 Q102 447 97.5 432 Q93 417 88 397 Q74 342 73 341 L44 341 Q45 346 49.5 361.5 Q54 377 59 397 Q63 412 67 426 Q71 440 74 452 Q86 496 106 518 Q126 540 159 540 Q190 540 209 516 Q228 492 217 452 L118 84 L115 72 L89 52 Q75 22 56.5 9 Q38 -4 18 -4 Z M19 24 Q35 24 51 40.5 Q67 57 87 104 Q107 151 130 237 L150 309 Q146 306 141.5 303 Q137 300 132 297 Q96 273 78 258.5 Q60 244 45.5 220.5 Q31 197 20 159 L1 87 Q-5 62 -4.5 48.5 Q-4 35 1.5 29.5 Q7 24 19 24 Z M148 -4 Q124 -4 108 6.5 Q92 17 87 36.5 Q82 56 89 84 L188 452 Q196 482 207 501 Q218 520 234 530 Q250 540 273 540 Q292 540 308 529.5 Q324 519 331 499 Q338 479 331 452 Q325 430 319 408.5 Q313 387 308 366 Q302 345 296.5 324 Q291 303 285 280 L171 280 Q165 257 158.5 233 Q152 209 145 184 Q138 159 131.5 133.5 Q125 108 118 84 Q111 55 118 39.5 Q125 24 146 24 Q166 24 181 39.5 Q196 55 203 84 Q207 98 211.5 114 Q216 130 221 148 Q226 166 230.5 182.5 Q235 199 238 212 L267 212 L250 148 Q245 130 240.5 114 Q236 98 232 84 Q220 40 200.5 18 Q181 -4 148 -4 Z M263 308 Q268 327 273 345 Q278 363 283 380 Q288 397 292.5 415 Q297 433 302 452 Q309 480 300.5 496 Q292 512 272 512 Q251 512 238 497 Q225 482 217 452 Q212 433 207.5 415 Q203 397 198 380 Q193 363 188 345 Q183 327 178 308 L263 308 Z M338 701 L254 593 L226 593 L304 701 L338 701 Z " />
<glyph glyph-name="cacute" unicode="&#x107;" horiz-adv-x="183" d="M30 -4 Q6 -4 -10 6.5 Q-26 17 -31 36.5 Q-36 56 -29 84 L70 452 Q78 482 89 501 Q100 520 116 530 Q132 540 155 540 Q174 540 190 529.5 Q206 519 213 499 Q220 479 213 452 Q209 436 205.5 422.5 Q202 409 198 397 Q195 384 191 370.5 Q187 357 183 341 L154 341 Q158 357 162 370.5 Q166 384 169 397 Q173 409 176.5 422.5 Q180 436 184 452 Q191 480 182.5 496 Q174 512 154 512 Q133 512 120 497 Q107 482 99 452 L0 84 Q-7 55 0 39.5 Q7 24 28 24 Q48 24 63 39.5 Q78 55 85 84 Q90 103 94.5 119.5 Q99 136 103 151 Q107 165 111 180 Q115 195 120 212 L149 212 Q143 193 138.5 176 Q134 159 130 143 L114 84 Q102 40 82.5 18 Q63 -4 30 -4 Z M276 701 L192 593 L164 593 L242 701 L276 701 Z " />
<glyph glyph-name="ccaron" unicode="&#x10d;" horiz-adv-x="183" d="M30 -4 Q6 -4 -10 6.5 Q-26 17 -31 36.5 Q-36 56 -29 84 L70 452 Q78 482 89 501 Q100 520 116 530 Q132 540 155 540 Q174 540 190 529.5 Q206 519 213 499 Q220 479 213 452 Q209 436 205.5 422.5 Q202 409 198 397 Q195 384 191 370.5 Q187 357 183 341 L154 341 Q158 357 162 370.5 Q166 384 169 397 Q173 409 176.5 422.5 Q180 436 184 452 Q191 480 182.5 496 Q174 512 154 512 Q133 512 120 497 Q107 482 99 452 L0 84 Q-7 55 0 39.5 Q7 24 28 24 Q48 24 63 39.5 Q78 55 85 84 Q90 103 94.5 119.5 Q99 136 103 151 Q107 165 111 180 Q115 195 120 212 L149 212 Q143 193 138.5 176 Q134 159 130 143 L114 84 Q102 40 82.5 18 Q63 -4 30 -4 Z M134 681 L164 681 L179 596 L241 681 L276 681 L193 571 L156 571 L134 681 Z " />
<glyph glyph-name="ccedilla" unicode="&#xe7;" horiz-adv-x="183" d="M30 -4 Q6 -4 -10 6.5 Q-26 17 -31 36.5 Q-36 56 -29 84 L70 452 Q78 482 89 501 Q100 520 116 530 Q132 540 155 540 Q174 540 190 529.5 Q206 519 213 499 Q220 479 213 452 Q209 436 205.5 422.5 Q202 409 198 397 Q195 384 191 370.5 Q187 357 183 341 L154 341 Q158 357 162 370.5 Q166 384 169 397 Q173 409 176.5 422.5 Q180 436 184 452 Q191 480 182.5 496 Q174 512 154 512 Q133 512 120 497 Q107 482 99 452 L0 84 Q-7 55 0 39.5 Q7 24 28 24 Q48 24 63 39.5 Q78 55 85 84 Q90 103 94.5 119.5 Q99 136 103 151 Q107 165 111 180 Q115 195 120 212 L149 212 Q143 193 138.5 176 Q134 159 130 143 L114 84 Q102 40 82.5 18 Q63 -4 30 -4 Z M-39 -81 Q-34 -88 -24 -92 Q-14 -96 -2 -96 Q11 -96 20.5 -89 Q30 -82 33 -70 Q35 -61 31.5 -55 Q28 -49 18 -47 Q8 -45 -6 -48 L9 8 L39 8 L30 -26 Q41 -26 49.5 -32.5 Q58 -39 61 -50 Q64 -61 61 -74 Q54 -98 37 -111 Q20 -124 -5 -124 Q-21 -124 -34.5 -118.5 Q-48 -113 -56 -103 L-39 -81 Z " />
<glyph glyph-name="ccircumflex" unicode="&#x109;" horiz-adv-x="183" d="M30 -4 Q6 -4 -10 6.5 Q-26 17 -31 36.5 Q-36 56 -29 84 L70 452 Q78 482 89 501 Q100 520 116 530 Q132 540 155 540 Q174 540 190 529.5 Q206 519 213 499 Q220 479 213 452 Q209 436 205.5 422.5 Q202 409 198 397 Q195 384 191 370.5 Q187 357 183 341 L154 341 Q158 357 162 370.5 Q166 384 169 397 Q173 409 176.5 422.5 Q180 436 184 452 Q191 480 182.5 496 Q174 512 154 512 Q133 512 120 497 Q107 482 99 452 L0 84 Q-7 55 0 39.5 Q7 24 28 24 Q48 24 63 39.5 Q78 55 85 84 Q90 103 94.5 119.5 Q99 136 103 151 Q107 165 111 180 Q115 195 120 212 L149 212 Q143 193 138.5 176 Q134 159 130 143 L114 84 Q102 40 82.5 18 Q63 -4 30 -4 Z M104 591 L187 701 L224 701 L246 591 L216 591 L201 676 L139 591 L104 591 Z " />
<glyph glyph-name="cdotaccent" unicode="&#x10b;" horiz-adv-x="183" d="M30 -4 Q6 -4 -10 6.5 Q-26 17 -31 36.5 Q-36 56 -29 84 L70 452 Q78 482 89 501 Q100 520 116 530 Q132 540 155 540 Q174 540 190 529.5 Q206 519 213 499 Q220 479 213 452 Q209 436 205.5 422.5 Q202 409 198 397 Q195 384 191 370.5 Q187 357 183 341 L154 341 Q158 357 162 370.5 Q166 384 169 397 Q173 409 176.5 422.5 Q180 436 184 452 Q191 480 182.5 496 Q174 512 154 512 Q133 512 120 497 Q107 482 99 452 L0 84 Q-7 55 0 39.5 Q7 24 28 24 Q48 24 63 39.5 Q78 55 85 84 Q90 103 94.5 119.5 Q99 136 103 151 Q107 165 111 180 Q115 195 120 212 L149 212 Q143 193 138.5 176 Q134 159 130 143 L114 84 Q102 40 82.5 18 Q63 -4 30 -4 Z M163 591 L182 660 L211 660 L192 591 L163 591 Z " />
<glyph glyph-name="dcaron" unicode="&#x10f;" horiz-adv-x="207" d="M91 0 L62 0 L80 66 L183 450 L187 467 L258 730 L287 730 L91 0 Z M150 540 Q171 540 183.5 528.5 Q196 517 199 494.5 Q202 472 194 442 L101 94 Q92 62 81 40.5 Q70 19 54.5 7.5 Q39 -4 19 -4 Q1 -4 -12.5 7 Q-26 18 -31 38 Q-36 58 -29 84 L70 452 Q77 479 89 499 Q101 519 116.5 529.5 Q132 540 150 540 Z M156 512 Q136 512 121 496.5 Q106 481 99 452 L0 84 Q-7 55 -1 39.5 Q5 24 25 24 Q39 24 51 31 Q63 38 71.5 51.5 Q80 65 85 84 L184 452 Q189 471 187.5 484.5 Q186 498 178 505 Q170 512 156 512 Z M210 511 L178 415 L188 471 L194 506 L210 511 Z M94 99 L79 13 L65 18 L75 43 L94 99 Z M292 608 L274 608 L307 730 L338 730 L292 608 Z " />
<glyph glyph-name="dslash" unicode="&#x111;" horiz-adv-x="187" d="M91 0 L62 0 L80 66 L183 450 L187 467 L258 730 L287 730 L91 0 Z M150 540 Q171 540 183.5 528.5 Q196 517 199 494.5 Q202 472 194 442 L101 94 Q92 62 81 40.5 Q70 19 54.5 7.5 Q39 -4 19 -4 Q1 -4 -12.5 7 Q-26 18 -31 38 Q-36 58 -29 84 L70 452 Q77 479 89 499 Q101 519 116.5 529.5 Q132 540 150 540 Z M156 512 Q136 512 121 496.5 Q106 481 99 452 L0 84 Q-7 55 -1 39.5 Q5 24 25 24 Q39 24 51 31 Q63 38 71.5 51.5 Q80 65 85 84 L184 452 Q189 471 187.5 484.5 Q186 498 178 505 Q170 512 156 512 Z M210 511 L178 415 L188 471 L194 506 L210 511 Z M94 99 L79 13 L65 18 L75 43 L94 99 Z M301 637 L167 637 L175 665 L309 665 L301 637 Z " />
<glyph glyph-name="eacute" unicode="&#xe9;" horiz-adv-x="183" d="M30 -4 Q6 -4 -10 6.5 Q-26 17 -31 36.5 Q-36 56 -29 84 L70 452 Q78 482 89 501 Q100 520 116 530 Q132 540 155 540 Q174 540 190 529.5 Q206 519 213 499 Q220 479 213 452 Q207 430 201 409 Q195 388 190 368 Q185 346 179 324.5 Q173 303 167 280 L53 280 Q47 257 40.5 232.5 Q34 208 27 183 L0 84 Q-7 55 0 39.5 Q7 24 28 24 Q48 24 63 39.5 Q78 55 85 84 Q89 98 93.5 114 Q98 130 103 148 Q108 166 112.5 182.5 Q117 199 120 212 L149 212 L132 148 Q127 130 122.5 114 Q118 98 114 84 Q102 40 82.5 18 Q63 -4 30 -4 Z M145 308 Q150 327 155 345 Q160 363 165 380 Q170 397 174.5 415 Q179 433 184 452 Q191 480 182.5 496 Q174 512 154 512 Q133 512 120 497 Q107 482 99 452 Q94 433 89.5 415 Q85 397 80 380 Q75 363 70 345 Q65 327 60 308 L145 308 Z M278 701 L194 593 L166 593 L244 701 L278 701 Z " />
<glyph glyph-name="ebreve" unicode="&#x115;" horiz-adv-x="183" d="M30 -4 Q6 -4 -10 6.5 Q-26 17 -31 36.5 Q-36 56 -29 84 L70 452 Q78 482 89 501 Q100 520 116 530 Q132 540 155 540 Q174 540 190 529.5 Q206 519 213 499 Q220 479 213 452 Q207 430 201 409 Q195 388 190 368 Q185 346 179 324.5 Q173 303 167 280 L53 280 Q47 257 40.5 232.5 Q34 208 27 183 L0 84 Q-7 55 0 39.5 Q7 24 28 24 Q48 24 63 39.5 Q78 55 85 84 Q89 98 93.5 114 Q98 130 103 148 Q108 166 112.5 182.5 Q117 199 120 212 L149 212 L132 148 Q127 130 122.5 114 Q118 98 114 84 Q102 40 82.5 18 Q63 -4 30 -4 Z M145 308 Q150 327 155 345 Q160 363 165 380 Q170 397 174.5 415 Q179 433 184 452 Q191 480 182.5 496 Q174 512 154 512 Q133 512 120 497 Q107 482 99 452 Q94 433 89.5 415 Q85 397 80 380 Q75 363 70 345 Q65 327 60 308 L145 308 Z M291 697 Q278 643 252.5 617.5 Q227 592 188 592 Q161 592 144 603.5 Q127 615 122 638.5 Q117 662 124 697 L153 697 Q145 657 153 638.5 Q161 620 188 620 Q215 620 232.5 638.5 Q250 657 260 697 L291 697 Z " />
<glyph glyph-name="ecaron" unicode="&#x11b;" horiz-adv-x="183" d="M30 -4 Q6 -4 -10 6.5 Q-26 17 -31 36.5 Q-36 56 -29 84 L70 452 Q78 482 89 501 Q100 520 116 530 Q132 540 155 540 Q174 540 190 529.5 Q206 519 213 499 Q220 479 213 452 Q207 430 201 409 Q195 388 190 368 Q185 346 179 324.5 Q173 303 167 280 L53 280 Q47 257 40.5 232.5 Q34 208 27 183 L0 84 Q-7 55 0 39.5 Q7 24 28 24 Q48 24 63 39.5 Q78 55 85 84 Q89 98 93.5 114 Q98 130 103 148 Q108 166 112.5 182.5 Q117 199 120 212 L149 212 L132 148 Q127 130 122.5 114 Q118 98 114 84 Q102 40 82.5 18 Q63 -4 30 -4 Z M145 308 Q150 327 155 345 Q160 363 165 380 Q170 397 174.5 415 Q179 433 184 452 Q191 480 182.5 496 Q174 512 154 512 Q133 512 120 497 Q107 482 99 452 Q94 433 89.5 415 Q85 397 80 380 Q75 363 70 345 Q65 327 60 308 L145 308 Z M136 681 L166 681 L181 596 L243 681 L278 681 L195 571 L158 571 L136 681 Z " />
<glyph glyph-name="ecircumflex" unicode="&#xea;" horiz-adv-x="183" d="M30 -4 Q6 -4 -10 6.5 Q-26 17 -31 36.5 Q-36 56 -29 84 L70 452 Q78 482 89 501 Q100 520 116 530 Q132 540 155 540 Q174 540 190 529.5 Q206 519 213 499 Q220 479 213 452 Q207 430 201 409 Q195 388 190 368 Q185 346 179 324.5 Q173 303 167 280 L53 280 Q47 257 40.5 232.5 Q34 208 27 183 L0 84 Q-7 55 0 39.5 Q7 24 28 24 Q48 24 63 39.5 Q78 55 85 84 Q89 98 93.5 114 Q98 130 103 148 Q108 166 112.5 182.5 Q117 199 120 212 L149 212 L132 148 Q127 130 122.5 114 Q118 98 114 84 Q102 40 82.5 18 Q63 -4 30 -4 Z M145 308 Q150 327 155 345 Q160 363 165 380 Q170 397 174.5 415 Q179 433 184 452 Q191 480 182.5 496 Q174 512 154 512 Q133 512 120 497 Q107 482 99 452 Q94 433 89.5 415 Q85 397 80 380 Q75 363 70 345 Q65 327 60 308 L145 308 Z M106 591 L189 701 L226 701 L248 591 L218 591 L203 676 L141 591 L106 591 Z " />
<glyph glyph-name="edieresis" unicode="&#xeb;" horiz-adv-x="183" d="M30 -4 Q6 -4 -10 6.5 Q-26 17 -31 36.5 Q-36 56 -29 84 L70 452 Q78 482 89 501 Q100 520 116 530 Q132 540 155 540 Q174 540 190 529.5 Q206 519 213 499 Q220 479 213 452 Q207 430 201 409 Q195 388 190 368 Q185 346 179 324.5 Q173 303 167 280 L53 280 Q47 257 40.5 232.5 Q34 208 27 183 L0 84 Q-7 55 0 39.5 Q7 24 28 24 Q48 24 63 39.5 Q78 55 85 84 Q89 98 93.5 114 Q98 130 103 148 Q108 166 112.5 182.5 Q117 199 120 212 L149 212 L132 148 Q127 130 122.5 114 Q118 98 114 84 Q102 40 82.5 18 Q63 -4 30 -4 Z M145 308 Q150 327 155 345 Q160 363 165 380 Q170 397 174.5 415 Q179 433 184 452 Q191 480 182.5 496 Q174 512 154 512 Q133 512 120 497 Q107 482 99 452 Q94 433 89.5 415 Q85 397 80 380 Q75 363 70 345 Q65 327 60 308 L145 308 Z M142 651 L184 651 L173 609 L131 609 L142 651 Z M204 651 L246 651 L235 609 L193 609 L204 651 Z " />
<glyph glyph-name="edotaccent" unicode="&#x117;" horiz-adv-x="183" d="M30 -4 Q6 -4 -10 6.5 Q-26 17 -31 36.5 Q-36 56 -29 84 L70 452 Q78 482 89 501 Q100 520 116 530 Q132 540 155 540 Q174 540 190 529.5 Q206 519 213 499 Q220 479 213 452 Q207 430 201 409 Q195 388 190 368 Q185 346 179 324.5 Q173 303 167 280 L53 280 Q47 257 40.5 232.5 Q34 208 27 183 L0 84 Q-7 55 0 39.5 Q7 24 28 24 Q48 24 63 39.5 Q78 55 85 84 Q89 98 93.5 114 Q98 130 103 148 Q108 166 112.5 182.5 Q117 199 120 212 L149 212 L132 148 Q127 130 122.5 114 Q118 98 114 84 Q102 40 82.5 18 Q63 -4 30 -4 Z M145 308 Q150 327 155 345 Q160 363 165 380 Q170 397 174.5 415 Q179 433 184 452 Q191 480 182.5 496 Q174 512 154 512 Q133 512 120 497 Q107 482 99 452 Q94 433 89.5 415 Q85 397 80 380 Q75 363 70 345 Q65 327 60 308 L145 308 Z M165 591 L184 660 L213 660 L194 591 L165 591 Z " />
<glyph glyph-name="uni1EB9" unicode="&#x1eb9;" horiz-adv-x="183" d="M30 -4 Q6 -4 -10 6.5 Q-26 17 -31 36.5 Q-36 56 -29 84 L70 452 Q78 482 89 501 Q100 520 116 530 Q132 540 155 540 Q174 540 190 529.5 Q206 519 213 499 Q220 479 213 452 Q207 430 201 409 Q195 388 190 368 Q185 346 179 324.5 Q173 303 167 280 L53 280 Q47 257 40.5 232.5 Q34 208 27 183 L0 84 Q-7 55 0 39.5 Q7 24 28 24 Q48 24 63 39.5 Q78 55 85 84 Q89 98 93.5 114 Q98 130 103 148 Q108 166 112.5 182.5 Q117 199 120 212 L149 212 L132 148 Q127 130 122.5 114 Q118 98 114 84 Q102 40 82.5 18 Q63 -4 30 -4 Z M145 308 Q150 327 155 345 Q160 363 165 380 Q170 397 174.5 415 Q179 433 184 452 Q191 480 182.5 496 Q174 512 154 512 Q133 512 120 497 Q107 482 99 452 Q94 433 89.5 415 Q85 397 80 380 Q75 363 70 345 Q65 327 60 308 L145 308 Z M-12 -41 L30 -41 L19 -83 L-23 -83 L-12 -41 Z " />
<glyph glyph-name="egrave" unicode="&#xe8;" horiz-adv-x="183" d="M30 -4 Q6 -4 -10 6.5 Q-26 17 -31 36.5 Q-36 56 -29 84 L70 452 Q78 482 89 501 Q100 520 116 530 Q132 540 155 540 Q174 540 190 529.5 Q206 519 213 499 Q220 479 213 452 Q207 430 201 409 Q195 388 190 368 Q185 346 179 324.5 Q173 303 167 280 L53 280 Q47 257 40.5 232.5 Q34 208 27 183 L0 84 Q-7 55 0 39.5 Q7 24 28 24 Q48 24 63 39.5 Q78 55 85 84 Q89 98 93.5 114 Q98 130 103 148 Q108 166 112.5 182.5 Q117 199 120 212 L149 212 L132 148 Q127 130 122.5 114 Q118 98 114 84 Q102 40 82.5 18 Q63 -4 30 -4 Z M145 308 Q150 327 155 345 Q160 363 165 380 Q170 397 174.5 415 Q179 433 184 452 Q191 480 182.5 496 Q174 512 154 512 Q133 512 120 497 Q107 482 99 452 Q94 433 89.5 415 Q85 397 80 380 Q75 363 70 345 Q65 327 60 308 L145 308 Z M140 700 L174 700 L194 592 L166 592 L140 700 Z " />
<glyph glyph-name="emacron" unicode="&#x113;" horiz-adv-x="183" d="M30 -4 Q6 -4 -10 6.5 Q-26 17 -31 36.5 Q-36 56 -29 84 L70 452 Q78 482 89 501 Q100 520 116 530 Q132 540 155 540 Q174 540 190 529.5 Q206 519 213 499 Q220 479 213 452 Q207 430 201 409 Q195 388 190 368 Q185 346 179 324.5 Q173 303 167 280 L53 280 Q47 257 40.5 232.5 Q34 208 27 183 L0 84 Q-7 55 0 39.5 Q7 24 28 24 Q48 24 63 39.5 Q78 55 85 84 Q89 98 93.5 114 Q98 130 103 148 Q108 166 112.5 182.5 Q117 199 120 212 L149 212 L132 148 Q127 130 122.5 114 Q118 98 114 84 Q102 40 82.5 18 Q63 -4 30 -4 Z M145 308 Q150 327 155 345 Q160 363 165 380 Q170 397 174.5 415 Q179 433 184 452 Q191 480 182.5 496 Q174 512 154 512 Q133 512 120 497 Q107 482 99 452 Q94 433 89.5 415 Q85 397 80 380 Q75 363 70 345 Q65 327 60 308 L145 308 Z M306 648 L83 648 L91 676 L314 676 L306 648 Z " />
<glyph glyph-name="eogonek" unicode="&#x119;" horiz-adv-x="183" d="M30 -4 Q6 -4 -10 6.5 Q-26 17 -31 36.5 Q-36 56 -29 84 L70 452 Q78 482 89 501 Q100 520 116 530 Q132 540 155 540 Q174 540 190 529.5 Q206 519 213 499 Q220 479 213 452 Q207 430 201 409 Q195 388 190 368 Q185 346 179 324.5 Q173 303 167 280 L53 280 Q47 257 40.5 232.5 Q34 208 27 183 L0 84 Q-7 55 0 39.5 Q7 24 28 24 Q48 24 63 39.5 Q78 55 85 84 Q89 98 93.5 114 Q98 130 103 148 Q108 166 112.5 182.5 Q117 199 120 212 L149 212 L132 148 Q127 130 122.5 114 Q118 98 114 84 Q102 40 82.5 18 Q63 -4 30 -4 Z M145 308 Q150 327 155 345 Q160 363 165 380 Q170 397 174.5 415 Q179 433 184 452 Q191 480 182.5 496 Q174 512 154 512 Q133 512 120 497 Q107 482 99 452 Q94 433 89.5 415 Q85 397 80 380 Q75 363 70 345 Q65 327 60 308 L145 308 Z M66 -141 Q58 -147 47.5 -150 Q37 -153 24 -153 Q7 -153 -7 -144 Q-21 -135 -27 -117 Q-33 -99 -26 -72 Q-17 -39 5 -17 Q27 5 53 19 L60 23 L76 12 Q75 11 74.5 11 Q74 11 74 10 Q49 -6 30 -25 Q11 -44 3 -74 Q-4 -98 2 -111.5 Q8 -125 27 -125 Q38 -125 47.5 -121 Q57 -117 65 -111 L67 -110 L66 -141 Z " />
<glyph glyph-name="gbreve" unicode="&#x11f;" horiz-adv-x="188" d="M-20 -178 Q-41 -178 -57 -167.5 Q-73 -157 -78 -136.5 Q-83 -116 -75 -89 L-63 -48 L-34 -48 L-46 -89 Q-54 -118 -47.5 -134 Q-41 -150 -20 -150 Q1 -150 16.5 -134.5 Q32 -119 39 -90 L206 532 L235 532 L68 -90 Q56 -134 35 -156 Q14 -178 -20 -178 Z M151 540 Q172 540 184.5 528.5 Q197 517 200 494.5 Q203 472 195 442 L102 94 Q93 62 82 40.5 Q71 19 55.5 7.5 Q40 -4 20 -4 Q2 -4 -11.5 7 Q-25 18 -30 38 Q-35 58 -28 84 L71 452 Q78 479 90 499 Q102 519 117.5 529.5 Q133 540 151 540 Z M157 512 Q137 512 122 496.5 Q107 481 100 452 L1 84 Q-4 65 -3 51.5 Q-2 38 5.5 31 Q13 24 26 24 Q40 24 52 31 Q64 38 72.5 51.5 Q81 65 86 84 L185 452 Q190 471 188.5 484.5 Q187 498 179 505 Q171 512 157 512 Z M211 511 L179 415 L189 471 L195 506 L211 511 Z M95 99 L80 13 L66 18 L76 43 L95 99 Z M300 697 Q287 643 261.5 617.5 Q236 592 197 592 Q170 592 153 603.5 Q136 615 131 638.5 Q126 662 133 697 L162 697 Q154 657 162 638.5 Q170 620 197 620 Q224 620 241.5 638.5 Q259 657 269 697 L300 697 Z " />
<glyph glyph-name="gcaron" unicode="&#x1e7;" horiz-adv-x="188" d="M-20 -178 Q-41 -178 -57 -167.5 Q-73 -157 -78 -136.5 Q-83 -116 -75 -89 L-63 -48 L-34 -48 L-46 -89 Q-54 -118 -47.5 -134 Q-41 -150 -20 -150 Q1 -150 16.5 -134.5 Q32 -119 39 -90 L206 532 L235 532 L68 -90 Q56 -134 35 -156 Q14 -178 -20 -178 Z M151 540 Q172 540 184.5 528.5 Q197 517 200 494.5 Q203 472 195 442 L102 94 Q93 62 82 40.5 Q71 19 55.5 7.5 Q40 -4 20 -4 Q2 -4 -11.5 7 Q-25 18 -30 38 Q-35 58 -28 84 L71 452 Q78 479 90 499 Q102 519 117.5 529.5 Q133 540 151 540 Z M157 512 Q137 512 122 496.5 Q107 481 100 452 L1 84 Q-4 65 -3 51.5 Q-2 38 5.5 31 Q13 24 26 24 Q40 24 52 31 Q64 38 72.5 51.5 Q81 65 86 84 L185 452 Q190 471 188.5 484.5 Q187 498 179 505 Q171 512 157 512 Z M211 511 L179 415 L189 471 L195 506 L211 511 Z M95 99 L80 13 L66 18 L76 43 L95 99 Z M145 681 L175 681 L190 596 L252 681 L287 681 L204 571 L167 571 L145 681 Z " />
<glyph glyph-name="gcircumflex" unicode="&#x11d;" horiz-adv-x="188" d="M-20 -178 Q-41 -178 -57 -167.5 Q-73 -157 -78 -136.5 Q-83 -116 -75 -89 L-63 -48 L-34 -48 L-46 -89 Q-54 -118 -47.5 -134 Q-41 -150 -20 -150 Q1 -150 16.5 -134.5 Q32 -119 39 -90 L206 532 L235 532 L68 -90 Q56 -134 35 -156 Q14 -178 -20 -178 Z M151 540 Q172 540 184.5 528.5 Q197 517 200 494.5 Q203 472 195 442 L102 94 Q93 62 82 40.5 Q71 19 55.5 7.5 Q40 -4 20 -4 Q2 -4 -11.5 7 Q-25 18 -30 38 Q-35 58 -28 84 L71 452 Q78 479 90 499 Q102 519 117.5 529.5 Q133 540 151 540 Z M157 512 Q137 512 122 496.5 Q107 481 100 452 L1 84 Q-4 65 -3 51.5 Q-2 38 5.5 31 Q13 24 26 24 Q40 24 52 31 Q64 38 72.5 51.5 Q81 65 86 84 L185 452 Q190 471 188.5 484.5 Q187 498 179 505 Q171 512 157 512 Z M211 511 L179 415 L189 471 L195 506 L211 511 Z M95 99 L80 13 L66 18 L76 43 L95 99 Z M115 591 L198 701 L235 701 L257 591 L227 591 L212 676 L150 591 L115 591 Z " />
<glyph glyph-name="uni0123" unicode="&#x123;" horiz-adv-x="188" d="M-20 -178 Q-41 -178 -57 -167.5 Q-73 -157 -78 -136.5 Q-83 -116 -75 -89 L-63 -48 L-34 -48 L-46 -89 Q-54 -118 -47.5 -134 Q-41 -150 -20 -150 Q1 -150 16.5 -134.5 Q32 -119 39 -90 L206 532 L235 532 L68 -90 Q56 -134 35 -156 Q14 -178 -20 -178 Z M151 540 Q172 540 184.5 528.5 Q197 517 200 494.5 Q203 472 195 442 L102 94 Q93 62 82 40.5 Q71 19 55.5 7.5 Q40 -4 20 -4 Q2 -4 -11.5 7 Q-25 18 -30 38 Q-35 58 -28 84 L71 452 Q78 479 90 499 Q102 519 117.5 529.5 Q133 540 151 540 Z M157 512 Q137 512 122 496.5 Q107 481 100 452 L1 84 Q-4 65 -3 51.5 Q-2 38 5.5 31 Q13 24 26 24 Q40 24 52 31 Q64 38 72.5 51.5 Q81 65 86 84 L185 452 Q190 471 188.5 484.5 Q187 498 179 505 Q171 512 157 512 Z M211 511 L179 415 L189 471 L195 506 L211 511 Z M95 99 L80 13 L66 18 L76 43 L95 99 Z M150 563 L234 671 L262 671 L184 563 L150 563 Z " />
<glyph glyph-name="gdotaccent" unicode="&#x121;" horiz-adv-x="188" d="M-20 -178 Q-41 -178 -57 -167.5 Q-73 -157 -78 -136.5 Q-83 -116 -75 -89 L-63 -48 L-34 -48 L-46 -89 Q-54 -118 -47.5 -134 Q-41 -150 -20 -150 Q1 -150 16.5 -134.5 Q32 -119 39 -90 L206 532 L235 532 L68 -90 Q56 -134 35 -156 Q14 -178 -20 -178 Z M151 540 Q172 540 184.5 528.5 Q197 517 200 494.5 Q203 472 195 442 L102 94 Q93 62 82 40.5 Q71 19 55.5 7.5 Q40 -4 20 -4 Q2 -4 -11.5 7 Q-25 18 -30 38 Q-35 58 -28 84 L71 452 Q78 479 90 499 Q102 519 117.5 529.5 Q133 540 151 540 Z M157 512 Q137 512 122 496.5 Q107 481 100 452 L1 84 Q-4 65 -3 51.5 Q-2 38 5.5 31 Q13 24 26 24 Q40 24 52 31 Q64 38 72.5 51.5 Q81 65 86 84 L185 452 Q190 471 188.5 484.5 Q187 498 179 505 Q171 512 157 512 Z M211 511 L179 415 L189 471 L195 506 L211 511 Z M95 99 L80 13 L66 18 L76 43 L95 99 Z M174 591 L193 660 L222 660 L203 591 L174 591 Z " />
<glyph glyph-name="hbar" unicode="&#x127;" horiz-adv-x="191" d="M-18 0 L-47 0 L149 730 L178 730 L-18 0 Z M188 452 Q193 471 192 485 Q191 499 183.5 506 Q176 513 164 513 Q148 513 135.5 504 Q123 495 115.5 481.5 Q108 468 103 452 L59 289 L56 304 L89 428 Q102 475 114.5 499 Q127 523 140 531.5 Q153 540 171 540 Q188 540 201 529.5 Q214 519 219 499 Q224 479 217 452 L96 0 L67 0 L188 452 Z M104 513 L124 508 L106 478 L88 422 L104 513 Z M225 635 L91 635 L99 663 L233 663 L225 635 Z " />
<glyph glyph-name="hcircumflex" unicode="&#x125;" horiz-adv-x="191" d="M-18 0 L-47 0 L149 730 L178 730 L-18 0 Z M188 452 Q193 471 192 485 Q191 499 183.5 506 Q176 513 164 513 Q148 513 135.5 504 Q123 495 115.5 481.5 Q108 468 103 452 L59 289 L56 304 L89 428 Q102 475 114.5 499 Q127 523 140 531.5 Q153 540 171 540 Q188 540 201 529.5 Q214 519 219 499 Q224 479 217 452 L96 0 L67 0 L188 452 Z M104 513 L124 508 L106 478 L88 422 L104 513 Z M124 789 L207 899 L244 899 L266 789 L236 789 L221 874 L159 789 L124 789 Z " />
<glyph glyph-name="iacute" unicode="&#xed;" horiz-adv-x="77" d="M-47 0 L95 532 L124 532 L-18 0 L-47 0 Z M224 701 L140 593 L112 593 L190 701 L224 701 Z " />
<glyph glyph-name="ibreve" unicode="&#x12d;" horiz-adv-x="77" d="M-47 0 L95 532 L124 532 L-18 0 L-47 0 Z M237 697 Q224 643 198.5 617.5 Q173 592 134 592 Q107 592 90 603.5 Q73 615 68 638.5 Q63 662 70 697 L99 697 Q91 657 99 638.5 Q107 620 134 620 Q161 620 178.5 638.5 Q196 657 206 697 L237 697 Z " />
<glyph glyph-name="icircumflex" unicode="&#xee;" horiz-adv-x="77" d="M-47 0 L95 532 L124 532 L-18 0 L-47 0 Z M52 591 L135 701 L172 701 L194 591 L164 591 L149 676 L87 591 L52 591 Z " />
<glyph glyph-name="idieresis" unicode="&#xef;" horiz-adv-x="77" d="M-47 0 L95 532 L124 532 L-18 0 L-47 0 Z M88 651 L130 651 L119 609 L77 609 L88 651 Z M150 651 L192 651 L181 609 L139 609 L150 651 Z " />
<glyph glyph-name="uni1ECB" unicode="&#x1ecb;" horiz-adv-x="80" d="M-46 0 L96 532 L125 532 L-17 0 L-46 0 Z M112 591 L131 660 L160 660 L141 591 L112 591 Z M-65 -41 L-23 -41 L-34 -83 L-76 -83 L-65 -41 Z " />
<glyph glyph-name="igrave" unicode="&#xec;" horiz-adv-x="77" d="M-47 0 L95 532 L124 532 L-18 0 L-47 0 Z M86 700 L120 700 L140 592 L112 592 L86 700 Z " />
<glyph glyph-name="ij" unicode="&#x133;" horiz-adv-x="196" d="M3 -178 Q-8 -178 -18 -173 Q-28 -168 -33 -162 L-19 -136 Q-14 -143 -9.5 -146.5 Q-5 -150 4 -150 Q16 -150 25.5 -133.5 Q35 -117 45 -87 Q55 -57 70 -1 L214 532 L243 532 L99 -1 Q98 -5 97 -8.5 Q96 -12 95 -16 Q79 -75 68 -106.5 Q57 -138 41.5 -158 Q26 -178 3 -178 Z M226 591 L245 660 L274 660 L255 591 L226 591 Z M-47 0 L95 532 L124 532 L-18 0 L-47 0 Z M111 591 L130 660 L159 660 L140 591 L111 591 Z " />
<glyph glyph-name="imacron" unicode="&#x12b;" horiz-adv-x="77" d="M-47 0 L95 532 L124 532 L-18 0 L-47 0 Z M252 648 L29 648 L37 676 L260 676 L252 648 Z " />
<glyph glyph-name="iogonek" unicode="&#x12f;" horiz-adv-x="77" d="M-47 0 L95 532 L124 532 L-18 0 L-47 0 Z M111 591 L130 660 L159 660 L140 591 L111 591 Z M-28 -153 Q-36 -159 -46.5 -162 Q-57 -165 -70 -165 Q-87 -165 -101 -156 Q-115 -147 -121 -129 Q-127 -111 -120 -84 Q-111 -51 -89 -29 Q-67 -7 -41 7 L-34 11 L-18 0 Q-19 -1 -19.5 -1 Q-20 -1 -20 -2 Q-45 -18 -64 -37 Q-83 -56 -91 -86 Q-98 -110 -92 -123.5 Q-86 -137 -67 -137 Q-56 -137 -46.5 -133 Q-37 -129 -29 -123 L-27 -122 L-28 -153 Z " />
<glyph glyph-name="itilde" unicode="&#x129;" horiz-adv-x="77" d="M-47 0 L95 532 L124 532 L-18 0 L-47 0 Z M236 653 Q222 633 207.5 624.5 Q193 616 178 616 Q166 616 157 620.5 Q148 625 133 636 Q126 641 118.5 645.5 Q111 650 105 650 Q94 650 83.5 644.5 Q73 639 63 625 L45 641 Q60 662 75 670 Q90 678 107 678 Q118 678 128 673 Q138 668 150 659 Q158 653 166 648.5 Q174 644 181 644 Q189 644 198.5 649.5 Q208 655 219 669 L236 653 Z " />
<glyph glyph-name="jcircumflex" unicode="&#x135;" horiz-adv-x="77" d="M-116 -178 Q-127 -178 -137 -173 Q-147 -168 -152 -162 L-138 -136 Q-133 -143 -128.5 -146.5 Q-124 -150 -115 -150 Q-103 -150 -93.5 -133.5 Q-84 -117 -74 -87 Q-64 -57 -49 -1 L95 532 L124 532 L-20 -1 Q-21 -5 -22 -8.5 Q-23 -12 -24 -16 Q-40 -75 -51 -106.5 Q-62 -138 -77.5 -158 Q-93 -178 -116 -178 Z M52 591 L135 701 L172 701 L194 591 L164 591 L149 676 L87 591 L52 591 Z " />
<glyph glyph-name="uni0137" unicode="&#x137;" horiz-adv-x="179" d="M-47 0 L148 730 L177 730 L-18 0 L-47 0 Z M246 532 L114 327 L28 197 L25 238 L213 532 L246 532 Z M77 0 L89 308 L117 333 L105 0 L77 0 Z M57 300 L69 293 L61 276 L48 283 L57 300 Z M-8 -83 L3 -41 L46 -41 L39 -68 Q32 -93 19.5 -110.5 Q7 -128 -10 -143 L-22 -133 Q-6 -119 2 -108 Q10 -97 14 -83 L-8 -83 Z " />
<glyph glyph-name="kgreenlandic" unicode="&#x138;" horiz-adv-x="181" d="M-47 0 L95 532 L124 532 L-18 0 L-47 0 Z M246 533 L114 327 L28 197 L28 238 L216 533 L246 533 Z M75 0 L90 308 L117 333 L105 0 L75 0 Z M56 296 L68 289 L60 272 L47 279 L56 296 Z " />
<glyph glyph-name="lacute" unicode="&#x13a;" horiz-adv-x="77" d="M-18 0 L-47 0 L148 730 L177 730 L-18 0 Z M277 899 L193 791 L165 791 L243 899 L277 899 Z " />
<glyph glyph-name="lcaron" unicode="&#x13e;" horiz-adv-x="104" d="M-18 0 L-47 0 L148 730 L177 730 L-18 0 Z M184 608 L166 608 L199 730 L230 730 L184 608 Z " />
<glyph glyph-name="uni013C" unicode="&#x13c;" horiz-adv-x="77" d="M-18 0 L-47 0 L148 730 L177 730 L-18 0 Z M-77 -83 L-66 -41 L-23 -41 L-30 -68 Q-37 -93 -49.5 -110.5 Q-62 -128 -79 -143 L-91 -133 Q-75 -119 -67 -108 Q-59 -97 -55 -83 L-77 -83 Z " />
<glyph glyph-name="ldot" unicode="&#x140;" horiz-adv-x="142" d="M-18 0 L-47 0 L148 730 L177 730 L-18 0 Z M120 385 L162 385 L151 343 L109 343 L120 385 Z " />
<glyph glyph-name="lslash" unicode="&#x142;" horiz-adv-x="127" d="M7 0 L-22 0 L173 730 L202 730 L7 0 Z M153 400 L14 282 L26 328 L166 447 L153 400 Z " />
<glyph glyph-name="nacute" unicode="&#x144;" horiz-adv-x="191" d="M-47 0 L95 532 L124 532 L-18 0 L-47 0 Z M188 452 Q193 471 192 485 Q191 499 183.5 506 Q176 513 164 513 Q148 513 135.5 504 Q123 495 115.5 481.5 Q108 468 103 452 L59 289 L56 304 L89 428 Q102 475 114.5 499 Q127 523 140 531.5 Q153 540 171 540 Q188 540 201 529.5 Q214 519 219 499 Q224 479 217 452 L96 0 L67 0 L188 452 Z M104 513 L124 508 L106 478 L88 422 L104 513 Z M281 701 L197 593 L169 593 L247 701 L281 701 Z " />
<glyph glyph-name="napostrophe" unicode="&#x149;" horiz-adv-x="191" d="M-47 0 L95 532 L124 532 L-18 0 L-47 0 Z M188 452 Q193 471 192 485 Q191 499 183.5 506 Q176 513 164 513 Q148 513 135.5 504 Q123 495 115.5 481.5 Q108 468 103 452 L59 289 L56 304 L89 428 Q102 475 114.5 499 Q127 523 140 531.5 Q153 540 171 540 Q188 540 201 529.5 Q214 519 219 499 Q224 479 217 452 L96 0 L67 0 L188 452 Z M104 513 L124 508 L106 478 L88 422 L104 513 Z M-26 -83 L-15 -41 L28 -41 L21 -68 Q14 -93 1.5 -110.5 Q-11 -128 -28 -143 L-40 -133 Q-24 -119 -16 -108 Q-8 -97 -4 -83 L-26 -83 Z " />
<glyph glyph-name="ncaron" unicode="&#x148;" horiz-adv-x="191" d="M-47 0 L95 532 L124 532 L-18 0 L-47 0 Z M188 452 Q193 471 192 485 Q191 499 183.5 506 Q176 513 164 513 Q148 513 135.5 504 Q123 495 115.5 481.5 Q108 468 103 452 L59 289 L56 304 L89 428 Q102 475 114.5 499 Q127 523 140 531.5 Q153 540 171 540 Q188 540 201 529.5 Q214 519 219 499 Q224 479 217 452 L96 0 L67 0 L188 452 Z M104 513 L124 508 L106 478 L88 422 L104 513 Z M139 681 L169 681 L184 596 L246 681 L281 681 L198 571 L161 571 L139 681 Z " />
<glyph glyph-name="uni0146" unicode="&#x146;" horiz-adv-x="191" d="M-47 0 L95 532 L124 532 L-18 0 L-47 0 Z M188 452 Q193 471 192 485 Q191 499 183.5 506 Q176 513 164 513 Q148 513 135.5 504 Q123 495 115.5 481.5 Q108 468 103 452 L59 289 L56 304 L89 428 Q102 475 114.5 499 Q127 523 140 531.5 Q153 540 171 540 Q188 540 201 529.5 Q214 519 219 499 Q224 479 217 452 L96 0 L67 0 L188 452 Z M104 513 L124 508 L106 478 L88 422 L104 513 Z M-25 -83 L-14 -41 L29 -41 L22 -68 Q15 -93 2.5 -110.5 Q-10 -128 -27 -143 L-39 -133 Q-23 -119 -15 -108 Q-7 -97 -3 -83 L-25 -83 Z " />
<glyph glyph-name="ntilde" unicode="&#xf1;" horiz-adv-x="191" d="M-47 0 L95 532 L124 532 L-18 0 L-47 0 Z M188 452 Q193 471 192 485 Q191 499 183.5 506 Q176 513 164 513 Q148 513 135.5 504 Q123 495 115.5 481.5 Q108 468 103 452 L59 289 L56 304 L89 428 Q102 475 114.5 499 Q127 523 140 531.5 Q153 540 171 540 Q188 540 201 529.5 Q214 519 219 499 Q224 479 217 452 L96 0 L67 0 L188 452 Z M104 513 L124 508 L106 478 L88 422 L104 513 Z M293 653 Q279 633 264.5 624.5 Q250 616 235 616 Q223 616 214 620.5 Q205 625 190 636 Q183 641 175.5 645.5 Q168 650 162 650 Q151 650 140.5 644.5 Q130 639 120 625 L102 641 Q117 662 132 670 Q147 678 164 678 Q175 678 185 673 Q195 668 207 659 Q215 653 223 648.5 Q231 644 238 644 Q246 644 255.5 649.5 Q265 655 276 669 L293 653 Z " />
<glyph glyph-name="oacute" unicode="&#xf3;" horiz-adv-x="183" d="M30 -4 Q6 -4 -10 6.5 Q-26 17 -31 36.5 Q-36 56 -29 84 L70 452 Q78 482 89 501 Q100 520 116 530 Q132 540 155 540 Q174 540 190 529.5 Q206 519 213 499 Q220 479 213 452 L114 84 Q106 55 95 35.5 Q84 16 68 6 Q52 -4 30 -4 Z M28 24 Q48 24 63 39.5 Q78 55 85 84 L184 452 Q191 480 182.5 496 Q174 512 154 512 Q133 512 120 497 Q107 482 99 452 L0 84 Q-7 55 0 39.5 Q7 24 28 24 Z M277 701 L193 593 L165 593 L243 701 L277 701 Z " />
<glyph glyph-name="obreve" unicode="&#x14f;" horiz-adv-x="183" d="M30 -4 Q6 -4 -10 6.5 Q-26 17 -31 36.5 Q-36 56 -29 84 L70 452 Q78 482 89 501 Q100 520 116 530 Q132 540 155 540 Q174 540 190 529.5 Q206 519 213 499 Q220 479 213 452 L114 84 Q106 55 95 35.5 Q84 16 68 6 Q52 -4 30 -4 Z M28 24 Q48 24 63 39.5 Q78 55 85 84 L184 452 Q191 480 182.5 496 Q174 512 154 512 Q133 512 120 497 Q107 482 99 452 L0 84 Q-7 55 0 39.5 Q7 24 28 24 Z M290 697 Q277 643 251.5 617.5 Q226 592 187 592 Q160 592 143 603.5 Q126 615 121 638.5 Q116 662 123 697 L152 697 Q144 657 152 638.5 Q160 620 187 620 Q214 620 231.5 638.5 Q249 657 259 697 L290 697 Z " />
<glyph glyph-name="ocircumflex" unicode="&#xf4;" horiz-adv-x="183" d="M30 -4 Q6 -4 -10 6.5 Q-26 17 -31 36.5 Q-36 56 -29 84 L70 452 Q78 482 89 501 Q100 520 116 530 Q132 540 155 540 Q174 540 190 529.5 Q206 519 213 499 Q220 479 213 452 L114 84 Q106 55 95 35.5 Q84 16 68 6 Q52 -4 30 -4 Z M28 24 Q48 24 63 39.5 Q78 55 85 84 L184 452 Q191 480 182.5 496 Q174 512 154 512 Q133 512 120 497 Q107 482 99 452 L0 84 Q-7 55 0 39.5 Q7 24 28 24 Z M105 591 L188 701 L225 701 L247 591 L217 591 L202 676 L140 591 L105 591 Z " />
<glyph glyph-name="odieresis" unicode="&#xf6;" horiz-adv-x="183" d="M30 -4 Q6 -4 -10 6.5 Q-26 17 -31 36.5 Q-36 56 -29 84 L70 452 Q78 482 89 501 Q100 520 116 530 Q132 540 155 540 Q174 540 190 529.5 Q206 519 213 499 Q220 479 213 452 L114 84 Q106 55 95 35.5 Q84 16 68 6 Q52 -4 30 -4 Z M28 24 Q48 24 63 39.5 Q78 55 85 84 L184 452 Q191 480 182.5 496 Q174 512 154 512 Q133 512 120 497 Q107 482 99 452 L0 84 Q-7 55 0 39.5 Q7 24 28 24 Z M141 651 L183 651 L172 609 L130 609 L141 651 Z M203 651 L245 651 L234 609 L192 609 L203 651 Z " />
<glyph glyph-name="uni1ECD" unicode="&#x1ecd;" horiz-adv-x="183" d="M30 -4 Q6 -4 -10 6.5 Q-26 17 -31 36.5 Q-36 56 -29 84 L70 452 Q78 482 89 501 Q100 520 116 530 Q132 540 155 540 Q174 540 190 529.5 Q206 519 213 499 Q220 479 213 452 L114 84 Q106 55 95 35.5 Q84 16 68 6 Q52 -4 30 -4 Z M28 24 Q48 24 63 39.5 Q78 55 85 84 L184 452 Q191 480 182.5 496 Q174 512 154 512 Q133 512 120 497 Q107 482 99 452 L0 84 Q-7 55 0 39.5 Q7 24 28 24 Z M-13 -41 L29 -41 L18 -83 L-24 -83 L-13 -41 Z " />
<glyph glyph-name="ograve" unicode="&#xf2;" horiz-adv-x="183" d="M30 -4 Q6 -4 -10 6.5 Q-26 17 -31 36.5 Q-36 56 -29 84 L70 452 Q78 482 89 501 Q100 520 116 530 Q132 540 155 540 Q174 540 190 529.5 Q206 519 213 499 Q220 479 213 452 L114 84 Q106 55 95 35.5 Q84 16 68 6 Q52 -4 30 -4 Z M28 24 Q48 24 63 39.5 Q78 55 85 84 L184 452 Q191 480 182.5 496 Q174 512 154 512 Q133 512 120 497 Q107 482 99 452 L0 84 Q-7 55 0 39.5 Q7 24 28 24 Z M139 700 L173 700 L193 592 L165 592 L139 700 Z " />
<glyph glyph-name="ohungarumlaut" unicode="&#x151;" horiz-adv-x="183" d="M30 -4 Q6 -4 -10 6.5 Q-26 17 -31 36.5 Q-36 56 -29 84 L70 452 Q78 482 89 501 Q100 520 116 530 Q132 540 155 540 Q174 540 190 529.5 Q206 519 213 499 Q220 479 213 452 L114 84 Q106 55 95 35.5 Q84 16 68 6 Q52 -4 30 -4 Z M28 24 Q48 24 63 39.5 Q78 55 85 84 L184 452 Q191 480 182.5 496 Q174 512 154 512 Q133 512 120 497 Q107 482 99 452 L0 84 Q-7 55 0 39.5 Q7 24 28 24 Z M183 700 L217 700 L133 592 L105 592 L183 700 Z M247 700 L281 700 L198 592 L170 592 L247 700 Z " />
<glyph glyph-name="omacron" unicode="&#x14d;" horiz-adv-x="183" d="M30 -4 Q6 -4 -10 6.5 Q-26 17 -31 36.5 Q-36 56 -29 84 L70 452 Q78 482 89 501 Q100 520 116 530 Q132 540 155 540 Q174 540 190 529.5 Q206 519 213 499 Q220 479 213 452 L114 84 Q106 55 95 35.5 Q84 16 68 6 Q52 -4 30 -4 Z M28 24 Q48 24 63 39.5 Q78 55 85 84 L184 452 Q191 480 182.5 496 Q174 512 154 512 Q133 512 120 497 Q107 482 99 452 L0 84 Q-7 55 0 39.5 Q7 24 28 24 Z M305 648 L82 648 L90 676 L313 676 L305 648 Z " />
<glyph glyph-name="oslash" unicode="&#xf8;" horiz-adv-x="183" d="M193 496 L175 518 L221 597 L247 587 L193 496 Z M-8 47 L8 21 L-39 -61 L-65 -51 L-8 47 Z M30 -4 Q6 -4 -10 6.5 Q-26 17 -31 36.5 Q-36 56 -29 84 L70 452 Q78 482 89 501 Q100 520 116 530 Q132 540 155 540 Q174 540 190 529.5 Q206 519 213 499 Q220 479 213 452 L114 84 Q106 55 95 35.5 Q84 16 68 6 Q52 -4 30 -4 Z M28 24 Q48 24 63 39.5 Q78 55 85 84 L184 452 Q191 480 182.5 496 Q174 512 154 512 Q133 512 120 497 Q107 482 99 452 L0 84 Q-7 55 0 39.5 Q7 24 28 24 Z " />
<glyph glyph-name="oslashacute" unicode="&#x1ff;" horiz-adv-x="183" d="M193 496 L175 518 L221 597 L247 587 L193 496 Z M-8 47 L8 21 L-39 -61 L-65 -51 L-8 47 Z M30 -4 Q6 -4 -10 6.5 Q-26 17 -31 36.5 Q-36 56 -29 84 L70 452 Q78 482 89 501 Q100 520 116 530 Q132 540 155 540 Q174 540 190 529.5 Q206 519 213 499 Q220 479 213 452 L114 84 Q106 55 95 35.5 Q84 16 68 6 Q52 -4 30 -4 Z M28 24 Q48 24 63 39.5 Q78 55 85 84 L184 452 Q191 480 182.5 496 Q174 512 154 512 Q133 512 120 497 Q107 482 99 452 L0 84 Q-7 55 0 39.5 Q7 24 28 24 Z M277 701 L193 593 L165 593 L243 701 L277 701 Z " />
<glyph glyph-name="otilde" unicode="&#xf5;" horiz-adv-x="183" d="M30 -4 Q6 -4 -10 6.5 Q-26 17 -31 36.5 Q-36 56 -29 84 L70 452 Q78 482 89 501 Q100 520 116 530 Q132 540 155 540 Q174 540 190 529.5 Q206 519 213 499 Q220 479 213 452 L114 84 Q106 55 95 35.5 Q84 16 68 6 Q52 -4 30 -4 Z M28 24 Q48 24 63 39.5 Q78 55 85 84 L184 452 Q191 480 182.5 496 Q174 512 154 512 Q133 512 120 497 Q107 482 99 452 L0 84 Q-7 55 0 39.5 Q7 24 28 24 Z M289 653 Q275 633 260.5 624.5 Q246 616 231 616 Q219 616 210 620.5 Q201 625 186 636 Q179 641 171.5 645.5 Q164 650 158 650 Q147 650 136.5 644.5 Q126 639 116 625 L98 641 Q113 662 128 670 Q143 678 160 678 Q171 678 181 673 Q191 668 203 659 Q211 653 219 648.5 Q227 644 234 644 Q242 644 251.5 649.5 Q261 655 272 669 L289 653 Z " />
<glyph glyph-name="racute" unicode="&#x155;" horiz-adv-x="125" d="M-47 0 L95 532 L124 532 L112 488 L107 468 L-18 0 L-47 0 Z M180 508 Q177 509 174 510 Q171 511 167 511 Q154 511 140.5 502.5 Q127 494 116.5 479 Q106 464 101 446 L41 222 L38 278 L80 435 Q86 458 101 482.5 Q116 507 136.5 523.5 Q157 540 179 540 Q181 540 183.5 540 Q186 540 188 539 L180 508 Z M105 509 L123 505 L109 485 L93 468 L105 509 Z M255 701 L171 593 L143 593 L221 701 L255 701 Z " />
<glyph glyph-name="rcaron" unicode="&#x159;" horiz-adv-x="125" d="M-47 0 L95 532 L124 532 L112 488 L107 468 L-18 0 L-47 0 Z M180 508 Q177 509 174 510 Q171 511 167 511 Q154 511 140.5 502.5 Q127 494 116.5 479 Q106 464 101 446 L41 222 L38 278 L80 435 Q86 458 101 482.5 Q116 507 136.5 523.5 Q157 540 179 540 Q181 540 183.5 540 Q186 540 188 539 L180 508 Z M105 509 L123 505 L109 485 L93 468 L105 509 Z M113 681 L143 681 L158 596 L220 681 L255 681 L172 571 L135 571 L113 681 Z " />
<glyph glyph-name="uni0157" unicode="&#x157;" horiz-adv-x="125" d="M-47 0 L95 532 L124 532 L112 488 L107 468 L-18 0 L-47 0 Z M180 508 Q177 509 174 510 Q171 511 167 511 Q154 511 140.5 502.5 Q127 494 116.5 479 Q106 464 101 446 L41 222 L38 278 L80 435 Q86 458 101 482.5 Q116 507 136.5 523.5 Q157 540 179 540 Q181 540 183.5 540 Q186 540 188 539 L180 508 Z M105 509 L123 505 L109 485 L93 468 L105 509 Z M-77 -83 L-66 -41 L-23 -41 L-30 -68 Q-37 -93 -49.5 -110.5 Q-62 -128 -79 -143 L-91 -133 Q-75 -119 -67 -108 Q-59 -97 -55 -83 L-77 -83 Z " />
<glyph glyph-name="sacute" unicode="&#x15b;" horiz-adv-x="183" d="M28 -4 Q5 -4 -10.5 6.5 Q-26 17 -31 36.5 Q-36 56 -29 84 Q-24 100 -19.5 117.5 Q-15 135 -10 153 Q-6 167 -2.5 181 Q1 195 4 208 L33 208 Q29 192 24.5 175.5 Q20 159 16 141 Q12 126 8 111.5 Q4 97 0 84 Q-5 65 -3.5 51.5 Q-2 38 6 31 Q14 24 27 24 Q48 24 63 39 Q78 54 85 84 L90 102 L95 119 Q104 155 105.5 173.5 Q107 192 102 210.5 Q97 229 82 262 Q81 264 80.5 265.5 Q80 267 79 268 Q63 299 56.5 321.5 Q50 344 51 365 Q52 386 59 413 L70 452 Q82 497 102.5 518.5 Q123 540 157 540 Q180 540 195 529.5 Q210 519 215 499.5 Q220 480 213 452 Q209 439 206 426.5 Q203 414 199 401 Q195 386 191 371 Q187 356 183 341 L154 341 Q158 354 161 366.5 Q164 379 168 392 Q172 407 176 422 Q180 437 184 452 Q189 471 187.5 484.5 Q186 498 178.5 505 Q171 512 158 512 Q137 512 121.5 496.5 Q106 481 99 452 Q98 449 96.5 444.5 Q95 440 94 435 Q92 428 90.5 422 Q89 416 88 413 Q88 413 88 412.5 Q88 412 88 411.5 Q88 411 88 411 Q80 381 78.5 367 Q77 353 82 335.5 Q87 318 102 287 Q121 248 128 226.5 Q135 205 134 180.5 Q133 156 123 118 Q122 115 121 110.5 Q120 106 119 101 Q118 96 116.5 91.5 Q115 87 114 84 Q102 40 82 18 Q62 -4 28 -4 Z M277 701 L193 593 L165 593 L243 701 L277 701 Z " />
<glyph glyph-name="scaron" unicode="&#x161;" horiz-adv-x="183" d="M28 -4 Q5 -4 -10.5 6.5 Q-26 17 -31 36.5 Q-36 56 -29 84 Q-24 100 -19.5 117.5 Q-15 135 -10 153 Q-6 167 -2.5 181 Q1 195 4 208 L33 208 Q29 192 24.5 175.5 Q20 159 16 141 Q12 126 8 111.5 Q4 97 0 84 Q-5 65 -3.5 51.5 Q-2 38 6 31 Q14 24 27 24 Q48 24 63 39 Q78 54 85 84 L90 102 L95 119 Q104 155 105.5 173.5 Q107 192 102 210.5 Q97 229 82 262 Q81 264 80.5 265.5 Q80 267 79 268 Q63 299 56.5 321.5 Q50 344 51 365 Q52 386 59 413 L70 452 Q82 497 102.5 518.5 Q123 540 157 540 Q180 540 195 529.5 Q210 519 215 499.5 Q220 480 213 452 Q209 439 206 426.5 Q203 414 199 401 Q195 386 191 371 Q187 356 183 341 L154 341 Q158 354 161 366.5 Q164 379 168 392 Q172 407 176 422 Q180 437 184 452 Q189 471 187.5 484.5 Q186 498 178.5 505 Q171 512 158 512 Q137 512 121.5 496.5 Q106 481 99 452 Q98 449 96.5 444.5 Q95 440 94 435 Q92 428 90.5 422 Q89 416 88 413 Q88 413 88 412.5 Q88 412 88 411.5 Q88 411 88 411 Q80 381 78.5 367 Q77 353 82 335.5 Q87 318 102 287 Q121 248 128 226.5 Q135 205 134 180.5 Q133 156 123 118 Q122 115 121 110.5 Q120 106 119 101 Q118 96 116.5 91.5 Q115 87 114 84 Q102 40 82 18 Q62 -4 28 -4 Z M135 681 L165 681 L180 596 L242 681 L277 681 L194 571 L157 571 L135 681 Z " />
<glyph glyph-name="scedilla" unicode="&#x15f;" horiz-adv-x="183" d="M28 -4 Q5 -4 -10.5 6.5 Q-26 17 -31 36.5 Q-36 56 -29 84 Q-24 100 -19.5 117.5 Q-15 135 -10 153 Q-6 167 -2.5 181 Q1 195 4 208 L33 208 Q29 192 24.5 175.5 Q20 159 16 141 Q12 126 8 111.5 Q4 97 0 84 Q-5 65 -3.5 51.5 Q-2 38 6 31 Q14 24 27 24 Q48 24 63 39 Q78 54 85 84 L90 102 L95 119 Q104 155 105.5 173.5 Q107 192 102 210.5 Q97 229 82 262 Q81 264 80.5 265.5 Q80 267 79 268 Q63 299 56.5 321.5 Q50 344 51 365 Q52 386 59 413 L70 452 Q82 497 102.5 518.5 Q123 540 157 540 Q180 540 195 529.5 Q210 519 215 499.5 Q220 480 213 452 Q209 439 206 426.5 Q203 414 199 401 Q195 386 191 371 Q187 356 183 341 L154 341 Q158 354 161 366.5 Q164 379 168 392 Q172 407 176 422 Q180 437 184 452 Q189 471 187.5 484.5 Q186 498 178.5 505 Q171 512 158 512 Q137 512 121.5 496.5 Q106 481 99 452 Q98 449 96.5 444.5 Q95 440 94 435 Q92 428 90.5 422 Q89 416 88 413 Q88 413 88 412.5 Q88 412 88 411.5 Q88 411 88 411 Q80 381 78.5 367 Q77 353 82 335.5 Q87 318 102 287 Q121 248 128 226.5 Q135 205 134 180.5 Q133 156 123 118 Q122 115 121 110.5 Q120 106 119 101 Q118 96 116.5 91.5 Q115 87 114 84 Q102 40 82 18 Q62 -4 28 -4 Z M-41 -81 Q-36 -88 -26 -92 Q-16 -96 -4 -96 Q9 -96 18.5 -89 Q28 -82 31 -70 Q33 -61 29.5 -55 Q26 -49 16 -47 Q6 -45 -8 -48 L7 8 L37 8 L28 -26 Q39 -26 47.5 -32.5 Q56 -39 59 -50 Q62 -61 59 -74 Q52 -98 35 -111 Q18 -124 -7 -124 Q-23 -124 -36.5 -118.5 Q-50 -113 -58 -103 L-41 -81 Z " />
<glyph glyph-name="scircumflex" unicode="&#x15d;" horiz-adv-x="183" d="M28 -4 Q5 -4 -10.5 6.5 Q-26 17 -31 36.5 Q-36 56 -29 84 Q-24 100 -19.5 117.5 Q-15 135 -10 153 Q-6 167 -2.5 181 Q1 195 4 208 L33 208 Q29 192 24.5 175.5 Q20 159 16 141 Q12 126 8 111.5 Q4 97 0 84 Q-5 65 -3.5 51.5 Q-2 38 6 31 Q14 24 27 24 Q48 24 63 39 Q78 54 85 84 L90 102 L95 119 Q104 155 105.5 173.5 Q107 192 102 210.5 Q97 229 82 262 Q81 264 80.5 265.5 Q80 267 79 268 Q63 299 56.5 321.5 Q50 344 51 365 Q52 386 59 413 L70 452 Q82 497 102.5 518.5 Q123 540 157 540 Q180 540 195 529.5 Q210 519 215 499.5 Q220 480 213 452 Q209 439 206 426.5 Q203 414 199 401 Q195 386 191 371 Q187 356 183 341 L154 341 Q158 354 161 366.5 Q164 379 168 392 Q172 407 176 422 Q180 437 184 452 Q189 471 187.5 484.5 Q186 498 178.5 505 Q171 512 158 512 Q137 512 121.5 496.5 Q106 481 99 452 Q98 449 96.5 444.5 Q95 440 94 435 Q92 428 90.5 422 Q89 416 88 413 Q88 413 88 412.5 Q88 412 88 411.5 Q88 411 88 411 Q80 381 78.5 367 Q77 353 82 335.5 Q87 318 102 287 Q121 248 128 226.5 Q135 205 134 180.5 Q133 156 123 118 Q122 115 121 110.5 Q120 106 119 101 Q118 96 116.5 91.5 Q115 87 114 84 Q102 40 82 18 Q62 -4 28 -4 Z M105 591 L188 701 L225 701 L247 591 L217 591 L202 676 L140 591 L105 591 Z " />
<glyph glyph-name="uni0219" unicode="&#x219;" horiz-adv-x="183" d="M28 -4 Q5 -4 -10.5 6.5 Q-26 17 -31 36.5 Q-36 56 -29 84 Q-24 100 -19.5 117.5 Q-15 135 -10 153 Q-6 167 -2.5 181 Q1 195 4 208 L33 208 Q29 192 24.5 175.5 Q20 159 16 141 Q12 126 8 111.5 Q4 97 0 84 Q-5 65 -3.5 51.5 Q-2 38 6 31 Q14 24 27 24 Q48 24 63 39 Q78 54 85 84 L90 102 L95 119 Q104 155 105.5 173.5 Q107 192 102 210.5 Q97 229 82 262 Q81 264 80.5 265.5 Q80 267 79 268 Q63 299 56.5 321.5 Q50 344 51 365 Q52 386 59 413 L70 452 Q82 497 102.5 518.5 Q123 540 157 540 Q180 540 195 529.5 Q210 519 215 499.5 Q220 480 213 452 Q209 439 206 426.5 Q203 414 199 401 Q195 386 191 371 Q187 356 183 341 L154 341 Q158 354 161 366.5 Q164 379 168 392 Q172 407 176 422 Q180 437 184 452 Q189 471 187.5 484.5 Q186 498 178.5 505 Q171 512 158 512 Q137 512 121.5 496.5 Q106 481 99 452 Q98 449 96.5 444.5 Q95 440 94 435 Q92 428 90.5 422 Q89 416 88 413 Q88 413 88 412.5 Q88 412 88 411.5 Q88 411 88 411 Q80 381 78.5 367 Q77 353 82 335.5 Q87 318 102 287 Q121 248 128 226.5 Q135 205 134 180.5 Q133 156 123 118 Q122 115 121 110.5 Q120 106 119 101 Q118 96 116.5 91.5 Q115 87 114 84 Q102 40 82 18 Q62 -4 28 -4 Z M-24 -83 L-13 -41 L30 -41 L23 -68 Q16 -93 3.5 -110.5 Q-9 -128 -26 -143 L-38 -133 Q-22 -119 -14 -108 Q-6 -97 -2 -83 L-24 -83 Z " />
<glyph glyph-name="tbar" unicode="&#x167;" horiz-adv-x="146" d="M41 0 Q16 0 6 18 Q-4 36 5 70 L163 656 L192 656 L34 70 Q30 55 30 45.5 Q30 36 33 32 Q36 28 43 28 L72 28 L65 0 L41 0 Z M74 504 L81 532 L207 532 L200 504 L74 504 Z M142.141 292 L27.0338 292 L33.9059 320 L149.013 320 L142.141 292 Z " />
<glyph glyph-name="tcaron" unicode="&#x165;" horiz-adv-x="186" d="M41 0 Q16 0 6 18 Q-4 36 5 70 L163 656 L192 656 L34 70 Q30 55 30 45.5 Q30 36 33 32 Q36 28 43 28 L72 28 L65 0 L41 0 Z M74 504 L81 532 L207 532 L200 504 L74 504 Z M249 618 L231 618 L264 740 L295 740 L249 618 Z " />
<glyph glyph-name="uni0163" unicode="&#x163;" horiz-adv-x="146" d="M41 0 Q16 0 6 18 Q-4 36 5 70 L163 656 L192 656 L34 70 Q30 55 30 45.5 Q30 36 33 32 Q36 28 43 28 L72 28 L65 0 L41 0 Z M74 504 L81 532 L207 532 L200 504 L74 504 Z M-26 -81 Q-21 -88 -11 -92 Q-1 -96 11 -96 Q24 -96 33.5 -89 Q43 -82 46 -70 Q48 -61 44.5 -55 Q41 -49 31 -47 Q21 -45 7 -48 L22 8 L52 8 L43 -26 Q54 -26 62.5 -32.5 Q71 -39 74 -50 Q77 -61 74 -74 Q67 -98 50 -111 Q33 -124 8 -124 Q-8 -124 -21.5 -118.5 Q-35 -113 -43 -103 L-26 -81 Z " />
<glyph glyph-name="uni021B" unicode="&#x21b;" horiz-adv-x="146" d="M41 0 Q16 0 6 18 Q-4 36 5 70 L163 656 L192 656 L34 70 Q30 55 30 45.5 Q30 36 33 32 Q36 28 43 28 L72 28 L65 0 L41 0 Z M74 504 L81 532 L207 532 L200 504 L74 504 Z M-9 -83 L2 -41 L45 -41 L38 -68 Q31 -93 18.5 -110.5 Q6 -128 -11 -143 L-23 -133 Q-7 -119 1 -108 Q9 -97 13 -83 L-9 -83 Z " />
<glyph glyph-name="uacute" unicode="&#xfa;" horiz-adv-x="191" d="M238 532 L96 0 L67 0 L209 532 L238 532 Z M3 80 Q-2 61 -1 47 Q0 33 7.5 26 Q15 19 27 19 Q43 19 55.5 28 Q68 37 75.5 50.5 Q83 64 88 80 L132 243 L135 228 L102 104 Q89 57 76.5 33 Q64 9 51 0.5 Q38 -8 20 -8 Q3 -8 -10 2.5 Q-23 13 -28 33 Q-33 53 -26 80 L95 532 L124 532 L3 80 Z M87 19 L67 24 L85 54 L103 110 L87 19 Z M277 701 L193 593 L165 593 L243 701 L277 701 Z " />
<glyph glyph-name="ubreve" unicode="&#x16d;" horiz-adv-x="191" d="M238 532 L96 0 L67 0 L209 532 L238 532 Z M3 80 Q-2 61 -1 47 Q0 33 7.5 26 Q15 19 27 19 Q43 19 55.5 28 Q68 37 75.5 50.5 Q83 64 88 80 L132 243 L135 228 L102 104 Q89 57 76.5 33 Q64 9 51 0.5 Q38 -8 20 -8 Q3 -8 -10 2.5 Q-23 13 -28 33 Q-33 53 -26 80 L95 532 L124 532 L3 80 Z M87 19 L67 24 L85 54 L103 110 L87 19 Z M290 697 Q277 643 251.5 617.5 Q226 592 187 592 Q160 592 143 603.5 Q126 615 121 638.5 Q116 662 123 697 L152 697 Q144 657 152 638.5 Q160 620 187 620 Q214 620 231.5 638.5 Q249 657 259 697 L290 697 Z " />
<glyph glyph-name="ucircumflex" unicode="&#xfb;" horiz-adv-x="191" d="M238 532 L96 0 L67 0 L209 532 L238 532 Z M3 80 Q-2 61 -1 47 Q0 33 7.5 26 Q15 19 27 19 Q43 19 55.5 28 Q68 37 75.5 50.5 Q83 64 88 80 L132 243 L135 228 L102 104 Q89 57 76.5 33 Q64 9 51 0.5 Q38 -8 20 -8 Q3 -8 -10 2.5 Q-23 13 -28 33 Q-33 53 -26 80 L95 532 L124 532 L3 80 Z M87 19 L67 24 L85 54 L103 110 L87 19 Z M105 591 L188 701 L225 701 L247 591 L217 591 L202 676 L140 591 L105 591 Z " />
<glyph glyph-name="udieresis" unicode="&#xfc;" horiz-adv-x="191" d="M238 532 L96 0 L67 0 L209 532 L238 532 Z M3 80 Q-2 61 -1 47 Q0 33 7.5 26 Q15 19 27 19 Q43 19 55.5 28 Q68 37 75.5 50.5 Q83 64 88 80 L132 243 L135 228 L102 104 Q89 57 76.5 33 Q64 9 51 0.5 Q38 -8 20 -8 Q3 -8 -10 2.5 Q-23 13 -28 33 Q-33 53 -26 80 L95 532 L124 532 L3 80 Z M87 19 L67 24 L85 54 L103 110 L87 19 Z M141 651 L183 651 L172 609 L130 609 L141 651 Z M203 651 L245 651 L234 609 L192 609 L203 651 Z " />
<glyph glyph-name="ugrave" unicode="&#xf9;" horiz-adv-x="191" d="M238 532 L96 0 L67 0 L209 532 L238 532 Z M3 80 Q-2 61 -1 47 Q0 33 7.5 26 Q15 19 27 19 Q43 19 55.5 28 Q68 37 75.5 50.5 Q83 64 88 80 L132 243 L135 228 L102 104 Q89 57 76.5 33 Q64 9 51 0.5 Q38 -8 20 -8 Q3 -8 -10 2.5 Q-23 13 -28 33 Q-33 53 -26 80 L95 532 L124 532 L3 80 Z M87 19 L67 24 L85 54 L103 110 L87 19 Z M139 700 L173 700 L193 592 L165 592 L139 700 Z " />
<glyph glyph-name="uhungarumlaut" unicode="&#x171;" horiz-adv-x="191" d="M238 532 L96 0 L67 0 L209 532 L238 532 Z M3 80 Q-2 61 -1 47 Q0 33 7.5 26 Q15 19 27 19 Q43 19 55.5 28 Q68 37 75.5 50.5 Q83 64 88 80 L132 243 L135 228 L102 104 Q89 57 76.5 33 Q64 9 51 0.5 Q38 -8 20 -8 Q3 -8 -10 2.5 Q-23 13 -28 33 Q-33 53 -26 80 L95 532 L124 532 L3 80 Z M87 19 L67 24 L85 54 L103 110 L87 19 Z M183 700 L217 700 L133 592 L105 592 L183 700 Z M247 700 L281 700 L198 592 L170 592 L247 700 Z " />
<glyph glyph-name="umacron" unicode="&#x16b;" horiz-adv-x="191" d="M238 532 L96 0 L67 0 L209 532 L238 532 Z M3 80 Q-2 61 -1 47 Q0 33 7.5 26 Q15 19 27 19 Q43 19 55.5 28 Q68 37 75.5 50.5 Q83 64 88 80 L132 243 L135 228 L102 104 Q89 57 76.5 33 Q64 9 51 0.5 Q38 -8 20 -8 Q3 -8 -10 2.5 Q-23 13 -28 33 Q-33 53 -26 80 L95 532 L124 532 L3 80 Z M87 19 L67 24 L85 54 L103 110 L87 19 Z M305 648 L82 648 L90 676 L313 676 L305 648 Z " />
<glyph glyph-name="uogonek" unicode="&#x173;" horiz-adv-x="191" d="M238 532 L96 0 L67 0 L209 532 L238 532 Z M3 80 Q-2 61 -1 47 Q0 33 7.5 26 Q15 19 27 19 Q43 19 55.5 28 Q68 37 75.5 50.5 Q83 64 88 80 L132 243 L135 228 L102 104 Q89 57 76.5 33 Q64 9 51 0.5 Q38 -8 20 -8 Q3 -8 -10 2.5 Q-23 13 -28 33 Q-33 53 -26 80 L95 532 L124 532 L3 80 Z M87 19 L67 24 L85 54 L103 110 L87 19 Z M82 -153 Q74 -159 63.5 -162 Q53 -165 40 -165 Q23 -165 9 -156 Q-5 -147 -11 -129 Q-17 -111 -10 -84 Q-1 -51 21 -29 Q43 -7 69 7 L76 11 L92 0 Q91 -1 90.5 -1 Q90 -1 90 -2 Q65 -18 46 -37 Q27 -56 19 -86 Q12 -110 18 -123.5 Q24 -137 43 -137 Q54 -137 63.5 -133 Q73 -129 81 -123 L83 -122 L82 -153 Z " />
<glyph glyph-name="uring" unicode="&#x16f;" horiz-adv-x="191" d="M238 532 L96 0 L67 0 L209 532 L238 532 Z M3 80 Q-2 61 -1 47 Q0 33 7.5 26 Q15 19 27 19 Q43 19 55.5 28 Q68 37 75.5 50.5 Q83 64 88 80 L132 243 L135 228 L102 104 Q89 57 76.5 33 Q64 9 51 0.5 Q38 -8 20 -8 Q3 -8 -10 2.5 Q-23 13 -28 33 Q-33 53 -26 80 L95 532 L124 532 L3 80 Z M87 19 L67 24 L85 54 L103 110 L87 19 Z M133 620 Q141 648 156 662.5 Q171 677 195 677 Q212 677 223.5 669.5 Q235 662 239.5 649 Q244 636 239 618 Q232 590 217 575.5 Q202 561 178 561 Q153 561 139.5 577.5 Q126 594 133 620 Z M161 619 Q157 604 162 596.5 Q167 589 180 589 Q193 589 200 596.5 Q207 604 211 619 Q215 634 210 641.5 Q205 649 192 649 Q180 649 173 642 Q166 635 161 619 Z " />
<glyph glyph-name="utilde" unicode="&#x169;" horiz-adv-x="191" d="M238 532 L96 0 L67 0 L209 532 L238 532 Z M3 80 Q-2 61 -1 47 Q0 33 7.5 26 Q15 19 27 19 Q43 19 55.5 28 Q68 37 75.5 50.5 Q83 64 88 80 L132 243 L135 228 L102 104 Q89 57 76.5 33 Q64 9 51 0.5 Q38 -8 20 -8 Q3 -8 -10 2.5 Q-23 13 -28 33 Q-33 53 -26 80 L95 532 L124 532 L3 80 Z M87 19 L67 24 L85 54 L103 110 L87 19 Z M289 653 Q275 633 260.5 624.5 Q246 616 231 616 Q219 616 210 620.5 Q201 625 186 636 Q179 641 171.5 645.5 Q164 650 158 650 Q147 650 136.5 644.5 Q126 639 116 625 L98 641 Q113 662 128 670 Q143 678 160 678 Q171 678 181 673 Q191 668 203 659 Q211 653 219 648.5 Q227 644 234 644 Q242 644 251.5 649.5 Q261 655 272 669 L289 653 Z " />
<glyph glyph-name="wacute" unicode="&#x1e83;" horiz-adv-x="267" d="M76 532 L105 532 L12 45 L14 45 L180 532 L229 532 L135 45 L137 45 L304 532 L333 532 L149 0 L100 0 L191 477 L190 477 L26 0 L-24 0 L76 532 Z M318 701 L234 593 L206 593 L284 701 L318 701 Z " />
<glyph glyph-name="wcircumflex" unicode="&#x175;" horiz-adv-x="267" d="M76 532 L105 532 L12 45 L14 45 L180 532 L229 532 L135 45 L137 45 L304 532 L333 532 L149 0 L100 0 L191 477 L190 477 L26 0 L-24 0 L76 532 Z M146 591 L229 701 L266 701 L288 591 L258 591 L243 676 L181 591 L146 591 Z " />
<glyph glyph-name="wdieresis" unicode="&#x1e85;" horiz-adv-x="267" d="M76 532 L105 532 L12 45 L14 45 L180 532 L229 532 L135 45 L137 45 L304 532 L333 532 L149 0 L100 0 L191 477 L190 477 L26 0 L-24 0 L76 532 Z M182 651 L224 651 L213 609 L171 609 L182 651 Z M244 651 L286 651 L275 609 L233 609 L244 651 Z " />
<glyph glyph-name="wgrave" unicode="&#x1e81;" horiz-adv-x="267" d="M76 532 L105 532 L12 45 L14 45 L180 532 L229 532 L135 45 L137 45 L304 532 L333 532 L149 0 L100 0 L191 477 L190 477 L26 0 L-24 0 L76 532 Z M180 700 L214 700 L234 592 L206 592 L180 700 Z " />
<glyph glyph-name="yacute" unicode="&#xfd;" horiz-adv-x="173" d="M76 532 L104 532 L25 41 L28 41 L20 0 L-9 0 L76 532 Z M210 532 L239 532 L40 0 Q38 -6 35 -12.5 Q32 -19 30 -26 Q10 -77 -3 -105 Q-16 -133 -35.5 -153.5 Q-55 -174 -81 -174 Q-91 -174 -97.5 -170.5 Q-104 -167 -109 -160 L-96 -135 Q-96 -135 -96 -135 Q-96 -135 -96 -135 Q-95 -139 -91 -142.5 Q-87 -146 -80 -146 Q-56 -146 -35 -108 Q-14 -70 8 -11 Q9 -8 10 -5 Q11 -2 12 0 L210 532 Z M272 701 L188 593 L160 593 L238 701 L272 701 Z " />
<glyph glyph-name="ycircumflex" unicode="&#x177;" horiz-adv-x="173" d="M76 532 L104 532 L25 41 L28 41 L20 0 L-9 0 L76 532 Z M210 532 L239 532 L40 0 Q38 -6 35 -12.5 Q32 -19 30 -26 Q10 -77 -3 -105 Q-16 -133 -35.5 -153.5 Q-55 -174 -81 -174 Q-91 -174 -97.5 -170.5 Q-104 -167 -109 -160 L-96 -135 Q-96 -135 -96 -135 Q-96 -135 -96 -135 Q-95 -139 -91 -142.5 Q-87 -146 -80 -146 Q-56 -146 -35 -108 Q-14 -70 8 -11 Q9 -8 10 -5 Q11 -2 12 0 L210 532 Z M100 591 L183 701 L220 701 L242 591 L212 591 L197 676 L135 591 L100 591 Z " />
<glyph glyph-name="ydieresis" unicode="&#xff;" horiz-adv-x="173" d="M76 532 L104 532 L25 41 L28 41 L20 0 L-9 0 L76 532 Z M210 532 L239 532 L40 0 Q38 -6 35 -12.5 Q32 -19 30 -26 Q10 -77 -3 -105 Q-16 -133 -35.5 -153.5 Q-55 -174 -81 -174 Q-91 -174 -97.5 -170.5 Q-104 -167 -109 -160 L-96 -135 Q-96 -135 -96 -135 Q-96 -135 -96 -135 Q-95 -139 -91 -142.5 Q-87 -146 -80 -146 Q-56 -146 -35 -108 Q-14 -70 8 -11 Q9 -8 10 -5 Q11 -2 12 0 L210 532 Z M136 651 L178 651 L167 609 L125 609 L136 651 Z M198 651 L240 651 L229 609 L187 609 L198 651 Z " />
<glyph glyph-name="ygrave" unicode="&#x1ef3;" horiz-adv-x="173" d="M76 532 L104 532 L25 41 L28 41 L20 0 L-9 0 L76 532 Z M210 532 L239 532 L40 0 Q38 -6 35 -12.5 Q32 -19 30 -26 Q10 -77 -3 -105 Q-16 -133 -35.5 -153.5 Q-55 -174 -81 -174 Q-91 -174 -97.5 -170.5 Q-104 -167 -109 -160 L-96 -135 Q-96 -135 -96 -135 Q-96 -135 -96 -135 Q-95 -139 -91 -142.5 Q-87 -146 -80 -146 Q-56 -146 -35 -108 Q-14 -70 8 -11 Q9 -8 10 -5 Q11 -2 12 0 L210 532 Z M134 700 L168 700 L188 592 L160 592 L134 700 Z " />
<glyph glyph-name="zacute" unicode="&#x17a;" horiz-adv-x="160" d="M78 0 L-60 0 L-53 26 L182 504 L81 504 L88 532 L220 532 L213 505 L-22 28 L85 28 L78 0 Z M265 701 L181 593 L153 593 L231 701 L265 701 Z " />
<glyph glyph-name="zcaron" unicode="&#x17e;" horiz-adv-x="160" d="M78 0 L-60 0 L-53 26 L182 504 L81 504 L88 532 L220 532 L213 505 L-22 28 L85 28 L78 0 Z M123 681 L153 681 L168 596 L230 681 L265 681 L182 571 L145 571 L123 681 Z " />
<glyph glyph-name="zdotaccent" unicode="&#x17c;" horiz-adv-x="160" d="M78 0 L-60 0 L-53 26 L182 504 L81 504 L88 532 L220 532 L213 505 L-22 28 L85 28 L78 0 Z M152 591 L171 660 L200 660 L181 591 L152 591 Z " />
<glyph glyph-name="ordfeminine" unicode="&#xaa;" horiz-adv-x="251" d="M121 565 Q133 610 146 639 Q159 668 182 686.5 Q205 705 240 705 Q268 705 276 684.5 Q284 664 279.5 633 Q275 602 263 556 L253 519 Q239 468 226.5 435 Q214 402 194 378.5 Q174 355 146 355 Q116 355 101.5 368.5 Q87 382 85.5 405 Q84 428 92 457 L121 565 Z M154 383 Q181 383 199.5 402 Q218 421 227 455 L256 566 Q271 621 268.5 649.5 Q266 678 233 678 Q199 678 182 650 Q165 622 151 567 L131 495 Q117 439 118.5 411 Q120 383 154 383 Z M232 362 L202 362 L292 699 L322 699 L232 362 Z M58 301 L65 327 L220 327 L213 301 L58 301 Z " />
<glyph glyph-name="ordmasculine" unicode="&#xba;" horiz-adv-x="236" d="M143 359 Q100 359 91.5 392.5 Q83 426 102 498 L119 562 Q133 615 148.5 645.5 Q164 676 184.5 689 Q205 702 235 702 Q265 702 278 689 Q291 676 290 646 Q289 616 275 562 L259 500 Q246 453 234.5 424.5 Q223 396 201 377.5 Q179 359 143 359 Z M49 301 L56 327 L211 327 L204 301 L49 301 Z M150 385 Q178 385 196 410.5 Q214 436 231 500 L248 563 Q265 627 260.5 651.5 Q256 676 228 676 Q200 676 182.5 651.5 Q165 627 149 563 L131 499 Q130 497 129.5 494.5 Q129 492 129 490 Q115 437 116.5 411 Q118 385 150 385 Z " />
<glyph glyph-name="uni2080" unicode="&#x2080;" horiz-adv-x="200" d="M-10 -175 Q-33 -175 -50 -163 Q-67 -151 -73.5 -129.5 Q-80 -108 -73 -80 L-7 167 Q2 198 15.5 219.5 Q29 241 48 253 Q67 265 91 265 Q128 265 147 238.5 Q166 212 154 168 L87 -80 Q79 -109 65.5 -130.5 Q52 -152 33 -163.5 Q14 -175 -10 -175 Z M-11 -147 Q12 -147 30.5 -129 Q49 -111 57 -80 L124 168 Q133 202 124 219.5 Q115 237 92 237 Q69 237 50.5 218 Q32 199 24 168 L-43 -80 Q-51 -111 -42.5 -129 Q-34 -147 -11 -147 Z " />
<glyph glyph-name="uni2081" unicode="&#x2081;" horiz-adv-x="113" d="M-29 -170 L-59 -170 L38 190 L36 190 Q26 181 13 176 Q0 171 -15 171 L-8 199 Q15 199 32 216.5 Q49 234 55 260 L86 260 L-29 -170 Z " />
<glyph glyph-name="uni2082" unicode="&#x2082;" horiz-adv-x="188" d="M60 -170 L-96 -170 L-89 -143 Q-81 -113 -64.5 -86.5 Q-48 -60 -29.5 -39.5 Q-11 -19 21 13 Q47 39 64 57 Q81 75 94.5 96.5 Q108 118 114 140 L121 167 Q129 199 120 217.5 Q111 236 88 236 Q65 236 49 218 Q33 200 25 167 L15 130 L-15 130 L-6 166 Q7 214 29.5 239 Q52 264 88 264 Q112 264 129 250 Q146 236 151.5 213 Q157 190 150 162 L143 135 Q136 108 120.5 84 Q105 60 87 40.5 Q69 21 41 -6 Q-1 -47 -24 -76 Q-47 -105 -58 -142 L-57 -142 L68 -142 L60 -170 Z " />
<glyph glyph-name="uni2083" unicode="&#x2083;" horiz-adv-x="200" d="M-3 167 Q10 215 33 240 Q56 265 91 265 Q115 265 131 253.5 Q147 242 152.5 220 Q158 198 150 168 L145 150 Q135 111 121 86.5 Q107 62 83 53 L82 51 Q104 37 104.5 11 Q105 -15 93 -60 L87 -80 Q79 -111 66 -132 Q53 -153 34.5 -164 Q16 -175 -9 -175 Q-48 -175 -66 -149 Q-84 -123 -72 -79 L-65 -51 L-35 -51 L-43 -80 Q-52 -113 -44.5 -130 Q-37 -147 -11 -147 Q15 -147 31.5 -130 Q48 -113 57 -80 L68 -39 Q78 -2 73.5 20 Q69 42 40 42 L20 42 L28 71 L48 71 Q77 71 91 91 Q105 111 116 154 L120 169 Q129 201 121.5 219 Q114 237 92 237 Q70 237 53 218.5 Q36 200 27 167 L18 131 L-12 131 L-3 167 Z " />
<glyph glyph-name="uni2084" unicode="&#x2084;" horiz-adv-x="206" d="M11 -170 L31 -95 L-88 -95 L-81 -67 L103 260 L156 260 L69 -67 L109 -67 L101 -95 L61 -95 L41 -170 L11 -170 Z M-50 -67 L39 -67 L119 232 L118 232 L-50 -67 Z " />
<glyph glyph-name="uni2085" unicode="&#x2085;" horiz-adv-x="179" d="M150 261 L143 233 L38 233 L-3 104 L-1 104 Q7 112 18 117 Q29 122 41 122 Q65 122 82 109 Q99 96 105 73.5 Q111 51 103 22 L76 -79 Q64 -125 39.5 -150 Q15 -175 -21 -175 Q-46 -175 -63 -163 Q-80 -151 -86 -129.5 Q-92 -108 -85 -80 L-77 -51 L-47 -51 L-55 -80 Q-63 -111 -54.5 -129 Q-46 -147 -23 -147 Q0 -147 18.5 -129 Q37 -111 45 -80 L74 27 Q82 58 73.5 76 Q65 94 42 94 Q19 94 0.5 76 Q-18 58 -26 27 L-30 14 L-59 14 L19 261 L150 261 Z " />
<glyph glyph-name="uni2086" unicode="&#x2086;" horiz-adv-x="200" d="M-6 170 Q6 215 31 240 Q56 265 93 265 Q116 265 132 251.5 Q148 238 153.5 216 Q159 194 152 169 L142 131 L112 131 L122 170 Q130 200 121.5 218.5 Q113 237 92 237 Q69 237 50.5 219 Q32 201 24 170 L2 88 L4 88 Q15 97 26.5 101.5 Q38 106 51 106 Q74 106 90 94 Q106 82 112 60 Q118 38 111 10 L88 -79 Q76 -125 51.5 -150 Q27 -175 -9 -175 Q-34 -175 -51 -163 Q-68 -151 -74 -129.5 Q-80 -108 -73 -80 L-6 170 Z M-43 -80 Q-52 -112 -43 -129.5 Q-34 -147 -11 -147 Q12 -147 30 -129.5 Q48 -112 57 -80 L82 11 Q90 42 81.5 60 Q73 78 50 78 Q27 78 8.5 60 Q-10 42 -18 11 L-43 -80 Z " />
<glyph glyph-name="uni2087" unicode="&#x2087;" horiz-adv-x="167" d="M8 260 L165 260 L158 232 Q83 131 32 30.5 Q-19 -70 -46 -170 L-76 -170 Q-58 -103 -29.5 -36 Q-1 31 38 98 Q77 165 126 232 L1 232 L8 260 Z " />
<glyph glyph-name="uni2088" unicode="&#x2088;" horiz-adv-x="201" d="M-10 -175 Q-34 -175 -51.5 -163.5 Q-69 -152 -75 -131.5 Q-81 -111 -74 -85 L-63 -44 L-62 -42 Q-53 -8 -43.5 14 Q-34 36 -12.5 51 Q9 66 46 66 Q83 66 96 48.5 Q109 31 107 6.5 Q105 -18 95 -53 L84 -95 Q73 -135 49.5 -155 Q26 -175 -10 -175 Z M-11 -147 Q14 -147 30.5 -132 Q47 -117 55 -90 L73 -21 Q80 8 74.5 26.5 Q69 45 41 45 Q12 45 -3.5 26.5 Q-19 8 -27 -21 L-45 -90 Q-52 -117 -43 -132 Q-34 -147 -11 -147 Z M92 265 Q115 265 130.5 253.5 Q146 242 151.5 221 Q157 200 150 173 L139 130 Q129 95 110.5 73 Q92 51 47 51 Q15 51 0.5 64.5 Q-14 78 -15.5 96.5 Q-17 115 -11 135 L0 177 Q11 219 35 242 Q59 265 92 265 Z M92 237 Q71 237 54.5 222.5 Q38 208 30 178 L18 132 Q12 109 16.5 90.5 Q21 72 48 72 Q76 72 90 90 Q104 108 110 132 L123 179 Q130 206 121.5 221.5 Q113 237 92 237 Z M91 63 L88 55 L2 55 L5 63 L91 63 Z " />
<glyph glyph-name="uni2089" unicode="&#x2089;" horiz-adv-x="201" d="M372 980 Q360 935 335 910 Q310 885 273 885 Q250 885 234 898.5 Q218 912 212.5 934 Q207 956 214 981 L224 1019 L254 1019 L244 980 Q236 950 244.5 931.5 Q253 913 274 913 Q297 913 315.5 931 Q334 949 342 980 L364 1062 L362 1062 Q351 1053 339.5 1048.5 Q328 1044 315 1044 Q292 1044 276 1056 Q260 1068 254 1090 Q248 1112 255 1140 L278 1229 Q290 1275 314.5 1300 Q339 1325 375 1325 Q400 1325 417 1313 Q434 1301 440 1279.5 Q446 1258 439 1230 L372 980 Z M409 1230 Q418 1262 409 1279.5 Q400 1297 377 1297 Q354 1297 336 1279.5 Q318 1262 309 1230 L284 1139 Q276 1108 284.5 1090 Q293 1072 316 1072 Q339 1072 357.5 1090 Q376 1108 384 1139 L409 1230 Z " />
<glyph glyph-name="uni2070" unicode="&#x2070;" horiz-adv-x="200" d="M132 355 Q109 355 92 367 Q75 379 68.5 400.5 Q62 422 69 450 L135 697 Q144 728 157.5 749.5 Q171 771 190 783 Q209 795 233 795 Q270 795 289 768.5 Q308 742 296 698 L229 450 Q221 421 207.5 399.5 Q194 378 175 366.5 Q156 355 132 355 Z M131 383 Q154 383 172.5 401 Q191 419 199 450 L266 698 Q275 732 266 749.5 Q257 767 234 767 Q211 767 192.5 748 Q174 729 166 698 L99 450 Q91 419 99.5 401 Q108 383 131 383 Z " />
<glyph glyph-name="uni00B9" unicode="&#xb9;" horiz-adv-x="113" d="M113 360 L83 360 L180 720 L178 720 Q168 711 155 706 Q142 701 127 701 L134 729 Q157 729 174 746.5 Q191 764 197 790 L228 790 L113 360 Z " />
<glyph glyph-name="uni00B2" unicode="&#xb2;" horiz-adv-x="188" d="M202 361 L46 361 L53 388 Q61 418 77.5 444.5 Q94 471 112.5 491.5 Q131 512 163 544 Q189 570 206 588 Q223 606 236.5 627.5 Q250 649 256 671 L263 698 Q271 730 262 748.5 Q253 767 230 767 Q207 767 191 749 Q175 731 167 698 L157 661 L127 661 L136 697 Q149 745 171.5 770 Q194 795 230 795 Q254 795 271 781 Q288 767 293.5 744 Q299 721 292 693 L285 666 Q278 639 262.5 615 Q247 591 229 571.5 Q211 552 183 525 Q141 484 118 455 Q95 426 84 389 L85 389 L210 389 L202 361 Z " />
<glyph glyph-name="uni00B3" unicode="&#xb3;" horiz-adv-x="200" d="M139 697 Q152 745 175 770 Q198 795 233 795 Q257 795 273 783.5 Q289 772 294.5 750 Q300 728 292 698 L287 680 Q277 641 263 616.5 Q249 592 225 583 L224 581 Q246 567 246.5 541 Q247 515 235 470 L229 450 Q221 419 208 398 Q195 377 176.5 366 Q158 355 133 355 Q94 355 76 381 Q58 407 70 451 L77 479 L107 479 L99 450 Q90 417 97.5 400 Q105 383 131 383 Q157 383 173.5 400 Q190 417 199 450 L210 491 Q220 528 215.5 550 Q211 572 182 572 L162 572 L170 601 L190 601 Q219 601 233 621 Q247 641 258 684 L262 699 Q271 731 263.5 749 Q256 767 234 767 Q212 767 195 748.5 Q178 730 169 697 L160 661 L130 661 L139 697 Z " />
<glyph glyph-name="uni2074" unicode="&#x2074;" horiz-adv-x="206" d="M153 360 L173 435 L54 435 L61 463 L245 790 L298 790 L211 463 L251 463 L243 435 L203 435 L183 360 L153 360 Z M92 463 L181 463 L261 762 L260 762 L92 463 Z " />
<glyph glyph-name="uni2075" unicode="&#x2075;" horiz-adv-x="179" d="M292 790 L285 762 L180 762 L139 633 L141 633 Q149 641 160 646 Q171 651 183 651 Q207 651 224 638 Q241 625 247 602.5 Q253 580 245 551 L218 450 Q206 404 181.5 379 Q157 354 121 354 Q96 354 79 366 Q62 378 56 399.5 Q50 421 57 449 L65 478 L95 478 L87 449 Q79 418 87.5 400 Q96 382 119 382 Q142 382 160.5 400 Q179 418 187 449 L216 556 Q224 587 215.5 605 Q207 623 184 623 Q161 623 142.5 605 Q124 587 116 556 L112 543 L83 543 L161 790 L292 790 Z " />
<glyph glyph-name="uni2076" unicode="&#x2076;" horiz-adv-x="200" d="M136 700 Q148 745 173 770 Q198 795 235 795 Q258 795 274 781.5 Q290 768 295.5 746 Q301 724 294 699 L284 661 L254 661 L264 700 Q272 730 263.5 748.5 Q255 767 234 767 Q211 767 192.5 749 Q174 731 166 700 L144 618 L146 618 Q157 627 168.5 631.5 Q180 636 193 636 Q216 636 232 624 Q248 612 254 590 Q260 568 253 540 L230 451 Q218 405 193.5 380 Q169 355 133 355 Q108 355 91 367 Q74 379 68 400.5 Q62 422 69 450 L136 700 Z M99 450 Q90 418 99 400.5 Q108 383 131 383 Q154 383 172 400.5 Q190 418 199 450 L224 541 Q232 572 223.5 590 Q215 608 192 608 Q169 608 150.5 590 Q132 572 124 541 L99 450 Z " />
<glyph glyph-name="uni2077" unicode="&#x2077;" horiz-adv-x="167" d="M152 796 L309 796 L302 768 Q227 667 176 566.5 Q125 466 98 366 L68 366 Q86 433 114.5 500 Q143 567 182 634 Q221 701 270 768 L145 768 L152 796 Z " />
<glyph glyph-name="uni2078" unicode="&#x2078;" horiz-adv-x="201" d="M132 355 Q108 355 90.5 366.5 Q73 378 67 398.5 Q61 419 68 445 L79 486 L80 488 Q89 522 98.5 544 Q108 566 129.5 581 Q151 596 188 596 Q225 596 238 578.5 Q251 561 249 536.5 Q247 512 237 477 L226 435 Q215 395 191.5 375 Q168 355 132 355 Z M131 383 Q156 383 172.5 398 Q189 413 197 440 L215 509 Q222 538 216.5 556.5 Q211 575 183 575 Q154 575 138.5 556.5 Q123 538 115 509 L97 440 Q90 413 99 398 Q108 383 131 383 Z M234 795 Q257 795 272.5 783.5 Q288 772 293.5 751 Q299 730 292 703 L281 660 Q271 625 252.5 603 Q234 581 189 581 Q157 581 142.5 594.5 Q128 608 126.5 626.5 Q125 645 131 665 L142 707 Q153 749 177 772 Q201 795 234 795 Z M234 767 Q213 767 196.5 752.5 Q180 738 172 708 L160 662 Q154 639 158.5 620.5 Q163 602 190 602 Q218 602 232 620 Q246 638 252 662 L265 709 Q272 736 263.5 751.5 Q255 767 234 767 Z M233 593 L230 585 L144 585 L147 593 L233 593 Z " />
<glyph glyph-name="uni2079" unicode="&#x2079;" horiz-adv-x="201" d="M230 450 Q218 405 193 380 Q168 355 131 355 Q108 355 92 368.5 Q76 382 70.5 404 Q65 426 72 451 L82 489 L112 489 L102 450 Q94 420 102.5 401.5 Q111 383 132 383 Q155 383 173.5 401 Q192 419 200 450 L222 532 L220 532 Q209 523 197.5 518.5 Q186 514 173 514 Q150 514 134 526 Q118 538 112 560 Q106 582 113 610 L136 699 Q148 745 172.5 770 Q197 795 233 795 Q258 795 275 783 Q292 771 298 749.5 Q304 728 297 700 L230 450 Z M267 700 Q276 732 267 749.5 Q258 767 235 767 Q212 767 194 749.5 Q176 732 167 700 L142 609 Q134 578 142.5 560 Q151 542 174 542 Q197 542 215.5 560 Q234 578 242 609 L267 700 Z " />
<glyph glyph-name="fraction" unicode="&#x2044;" horiz-adv-x="163" d="M299 700 L-60 0 L-91 0 L268 700 L299 700 Z " />
<glyph glyph-name="period" unicode="&#x2e;" horiz-adv-x="102" d="M-30 42 L12 42 L1 0 L-41 0 L-30 42 Z " />
<glyph glyph-name="comma" unicode="&#x2c;" horiz-adv-x="103" d="M-41 0 L-30 42 L13 42 L6 15 Q-1 -10 -13.5 -27.5 Q-26 -45 -43 -60 L-55 -50 Q-39 -36 -31 -25 Q-23 -14 -19 0 L-41 0 Z " />
<glyph glyph-name="colon" unicode="&#x3a;" horiz-adv-x="103" d="M-30 42 L12 42 L1 0 L-41 0 L-30 42 Z M104 541 L146 541 L135 499 L93 499 L104 541 Z " />
<glyph glyph-name="semicolon" unicode="&#x3b;" horiz-adv-x="103" d="M-41 0 L-30 42 L13 42 L6 15 Q-1 -10 -13.5 -27.5 Q-26 -45 -43 -60 L-55 -50 Q-39 -36 -31 -25 Q-23 -14 -19 0 L-41 0 Z M103 540 L145 540 L134 498 L92 498 L103 540 Z " />
<glyph glyph-name="ellipsis" unicode="&#x2026;" horiz-adv-x="306" d="M-30 42 L12 42 L1 0 L-41 0 L-30 42 Z M72 42 L114 42 L103 0 L61 0 L72 42 Z M174 42 L216 42 L205 0 L163 0 L174 42 Z " />
<glyph glyph-name="exclam" unicode="&#x21;" horiz-adv-x="92" d="M33 168 L6 168 L144 700 L178 700 L33 168 Z M-35 42 L7 42 L-4 0 L-46 0 L-35 42 Z " />
<glyph glyph-name="exclamdown" unicode="&#xa1;" horiz-adv-x="92" d="M59 364 L86 364 L-52 -168 L-86 -168 L59 364 Z M127 490 L85 490 L96 532 L138 532 L127 490 Z " />
<glyph glyph-name="question" unicode="&#x3f;" horiz-adv-x="268" d="M314 514 Q306 481 291 454 Q276 427 260.5 406.5 Q245 386 218 355 Q183 316 162 285 Q141 254 130 214 L117 167 L87 167 L100 214 Q109 246 123 272.5 Q137 299 153.5 320 Q170 341 194 367 Q232 411 252.5 441.5 Q273 472 284 515 L295 556 Q312 617 296.5 646.5 Q281 676 240 676 Q214 676 192.5 662 Q171 648 154.5 621 Q138 594 128 557 L116 514 L86 514 L98 556 Q111 603 130.5 636 Q150 669 177 686.5 Q204 704 239 704 Q275 704 299 687.5 Q323 671 330.5 638 Q338 605 325 556 L314 514 Z M56 42 L98 42 L87 0 L45 0 L56 42 Z " />
<glyph glyph-name="questiondown" unicode="&#xbf;" horiz-adv-x="268" d="M-46 18 Q-38 51 -23 78 Q-8 105 7.5 125.5 Q23 146 50 177 Q85 216 106 247 Q127 278 138 318 L151 365 L181 365 L168 318 Q159 286 145 259.5 Q131 233 114.5 212 Q98 191 74 165 Q36 121 15.5 90.5 Q-5 60 -16 17 L-27 -24 Q-44 -85 -28.5 -114.5 Q-13 -144 28 -144 Q54 -144 75.5 -130 Q97 -116 113.5 -89 Q130 -62 140 -25 L152 18 L182 18 L170 -24 Q157 -71 137.5 -104 Q118 -137 91 -154.5 Q64 -172 29 -172 Q-7 -172 -31 -155.5 Q-55 -139 -62.5 -106 Q-70 -73 -57 -24 L-46 18 Z M212 490 L170 490 L181 532 L223 532 L212 490 Z " />
<glyph glyph-name="middot" unicode="&#xb7;" horiz-adv-x="102" d="M42 311 L84 311 L73 269 L31 269 L42 311 Z " />
<glyph glyph-name="bullet" unicode="&#x2022;" horiz-adv-x="164" d="M159 323 Q154 304 142 288 Q130 272 113 263 Q96 254 78 254 Q62 254 50 263 Q38 272 34 288 Q30 304 35 323 Q40 342 53 358 Q66 374 82.5 383.5 Q99 393 115 393 Q133 393 145 383.5 Q157 374 160.5 358 Q164 342 159 323 Z " />
<glyph glyph-name="asterisk" unicode="&#x2a;" horiz-adv-x="333" d="M298 699 L251 532 L225 532 L268 699 L298 699 Z M208 364 L178 364 L225 532 L251 532 L208 364 Z M407 617 L245 520 L231 541 L391 641 L407 617 Z M85 421 L68 445 L231 541 L245 520 L85 421 Z M123 621 L142 644 L247 541 L230 522 L123 621 Z M336 420 L230 522 L247 541 L355 443 L336 420 Z " />
<glyph glyph-name="numbersign" unicode="&#x23;" horiz-adv-x="300" d="M256 699 L2 0 L-28 0 L226 699 L256 699 Z M352 490 L345 462 L82 462 L89 490 L352 490 Z M372 699 L118 0 L88 0 L342 699 L372 699 Z M269 259 L262 231 L-1 231 L6 259 L269 259 Z " />
<glyph glyph-name="slash" unicode="&#x2f;" horiz-adv-x="228" d="M349 735 L-45 -37 L-76 -37 L318 735 L349 735 Z " />
<glyph glyph-name="backslash" unicode="&#x5c;" horiz-adv-x="228" d="M114 -37 L131 735 L159 735 L142 -37 L114 -37 Z " />
<glyph glyph-name="uni208D" unicode="&#x208d;" horiz-adv-x="133" d="M-7 -231 Q-53 -231 -63.5 -188 Q-74 -145 -56 -77 L-6 110 Q-6 111 -5.5 112 Q-5 113 -5 115 Q4 150 18.5 184 Q33 218 60.5 245.5 Q88 273 128 273 L138 273 L130 245 L120 245 Q81 245 59 202.5 Q37 160 23 110 L-25 -69 Q-26 -72 -26.5 -75.5 Q-27 -79 -28 -82 Q-43 -141 -38.5 -172.5 Q-34 -204 0 -204 L10 -204 L3 -231 L-7 -231 Z " />
<glyph glyph-name="uni208E" unicode="&#x208e;" horiz-adv-x="133" d="M-120 -229 L-113 -202 L-103 -202 Q-67 -202 -45.5 -168 Q-24 -134 -6 -67 L42 112 Q42 113 42.5 114 Q43 115 43 117 Q51 145 56 173 Q61 201 54.5 224 Q48 247 22 247 L7 247 L15 275 L22 275 Q63 275 75.5 246 Q88 217 84 183 Q80 149 71 112 L23 -67 L20 -77 Q8 -123 -7 -155.5 Q-22 -188 -46.5 -208.5 Q-71 -229 -108 -229 L-120 -229 Z " />
<glyph glyph-name="parenleft" unicode="&#x28;" horiz-adv-x="141" d="M23 -66 Q-8 -66 -22.5 -43.5 Q-37 -21 -37.5 15.5 Q-38 52 -26 96 L94 544 Q95 546 95 547.5 Q95 549 96 551 Q106 590 119.5 621.5 Q133 653 160.5 679.5 Q188 706 230 706 L239 706 L232 679 L223 679 Q185 679 161.5 636.5 Q138 594 125 548 L124 544 L4 96 Q3 92 2 88.5 Q1 85 0 81 Q-8 44 -8.5 18 Q-9 -8 0.5 -23 Q10 -38 31 -38 L40 -38 L32 -66 L23 -66 Z " />
<glyph glyph-name="parenright" unicode="&#x29;" horiz-adv-x="142" d="M147 705 Q178 705 192.5 682.5 Q207 660 207.5 623.5 Q208 587 196 543 L76 95 Q75 93 75 91.5 Q75 90 74 88 Q64 49 50.5 17.5 Q37 -14 9.5 -40.5 Q-18 -67 -60 -67 L-69 -67 L-62 -40 L-53 -40 Q-15 -40 8.5 2.5 Q32 45 45 91 L46 95 L166 543 Q167 547 168 550.5 Q169 554 170 558 Q178 595 178.5 621 Q179 647 169.5 662 Q160 677 139 677 L130 677 L138 705 L147 705 Z " />
<glyph glyph-name="braceleft" unicode="&#x7b;" horiz-adv-x="197" d="M30 336 Q58 342 73.5 353 Q89 364 100.5 388 Q112 412 126 461 Q128 469 130.5 477 Q133 485 135 493 Q138 503 148 540 Q149 543 149.5 546 Q150 549 151 552 Q168 613 180 642.5 Q192 672 214 689 Q236 706 276 706 L295 706 L288 679 L277 679 Q248 679 231.5 667.5 Q215 656 207 636.5 Q199 617 189 580 Q188 577 187.5 574 Q187 571 186 568 Q184 560 181.5 551.5 Q179 543 177 535 Q172 516 167 497.5 Q162 479 156 461 Q138 397 119 363 Q100 329 67 318 Q92 306 94.5 274 Q97 242 81 180 Q76 161 71 143 Q66 125 62 106 Q58 91 54 76 Q50 61 46 46 Q37 11 38 -6.5 Q39 -24 50 -31 Q61 -38 85 -38 L96 -38 L88 -66 L82 -66 Q43 -66 26.5 -50.5 Q10 -35 11.5 0 Q13 35 31 101 Q35 119 42 144 Q44 153 46.5 162 Q49 171 51 180 Q64 230 66 254.5 Q68 279 58 291.5 Q48 304 22 310 L30 336 Z " />
<glyph glyph-name="braceright" unicode="&#x7d;" horiz-adv-x="197" d="M197 306 Q169 300 153.5 289 Q138 278 126.5 254 Q115 230 101 181 Q99 173 96.5 165 Q94 157 92 149 Q89 139 79 102 Q78 99 77.5 96 Q77 93 76 90 Q59 29 47 -0.5 Q35 -30 13 -47 Q-9 -64 -49 -64 L-68 -64 L-61 -37 L-50 -37 Q-21 -37 -4.5 -25.5 Q12 -14 20 5.5 Q28 25 38 62 Q39 65 39.5 68 Q40 71 41 74 Q43 82 45.5 90.5 Q48 99 50 107 Q55 126 60 144.5 Q65 163 71 181 Q89 245 108 279 Q127 313 160 324 Q135 336 132.5 368 Q130 400 146 462 Q151 481 156 499 Q161 517 165 536 Q169 551 173 566 Q177 581 181 596 Q190 631 189 648.5 Q188 666 177 673 Q166 680 142 680 L131 680 L139 708 L145 708 Q184 708 200.5 692.5 Q217 677 215.5 642 Q214 607 196 541 Q192 523 185 498 Q183 489 180.5 480 Q178 471 176 462 Q163 412 161 387.5 Q159 363 169 350.5 Q179 338 205 332 L197 306 Z " />
<glyph glyph-name="bracketleft" unicode="&#x5b;" horiz-adv-x="146" d="M37 -66 L-64 -66 L143 706 L244 706 L237 679 L166 679 L-26 -38 L45 -38 L37 -66 Z " />
<glyph glyph-name="bracketright" unicode="&#x5d;" horiz-adv-x="146" d="M32 -66 L-69 -66 L-61 -38 L10 -38 L202 679 L131 679 L138 706 L239 706 L32 -66 Z " />
<glyph glyph-name="uni207D" unicode="&#x207d;" horiz-adv-x="133" d="M154 367 Q108 367 97.5 410 Q87 453 105 521 L155 708 Q155 709 155.5 710 Q156 711 156 713 Q165 748 179.5 782 Q194 816 221.5 843.5 Q249 871 289 871 L299 871 L291 843 L281 843 Q242 843 220 800.5 Q198 758 184 708 L136 529 Q135 526 134.5 522.5 Q134 519 133 516 Q118 457 122.5 425.5 Q127 394 161 394 L171 394 L164 367 L154 367 Z " />
<glyph glyph-name="uni207E" unicode="&#x207e;" horiz-adv-x="134" d="M184 870 Q230 870 240.5 827 Q251 784 233 716 L183 529 Q183 528 182.5 527 Q182 526 182 524 Q173 489 158.5 455 Q144 421 116.5 393.5 Q89 366 49 366 L39 366 L47 394 L57 394 Q96 394 118 436.5 Q140 479 154 529 L202 708 Q203 711 203.5 714.5 Q204 718 205 721 Q220 780 215.5 811.5 Q211 843 177 843 L167 843 L174 870 L184 870 Z " />
<glyph glyph-name="hyphen" unicode="&#x2d;" horiz-adv-x="178" d="M162 258 L7 258 L14 286 L169 286 L162 258 Z " />
<glyph glyph-name="uni00AD" unicode="&#xad;" horiz-adv-x="178" d="M162 258 L7 258 L14 286 L169 286 L162 258 Z " />
<glyph glyph-name="endash" unicode="&#x2013;" horiz-adv-x="279" d="M263 258 L7 258 L14 286 L270 286 L263 258 Z " />
<glyph glyph-name="emdash" unicode="&#x2014;" horiz-adv-x="412" d="M396 257 L7 257 L14 285 L403 285 L396 257 Z " />
<glyph glyph-name="figuredash" unicode="&#x2012;" horiz-adv-x="178" d="M162 258 L7 258 L14 286 L169 286 L162 258 Z " />
<glyph glyph-name="underscore" unicode="&#x5f;" horiz-adv-x="280" d="M198 -39 L-82 -39 L-74 -12 L206 -12 L198 -39 Z " />
<glyph glyph-name="quotesinglbase" unicode="&#x201a;" horiz-adv-x="104" d="M-39 5 L-28 47 L15 47 L8 20 Q1 -5 -11.5 -22.5 Q-24 -40 -41 -55 L-53 -45 Q-37 -31 -29 -20 Q-21 -9 -17 5 L-39 5 Z " />
<glyph glyph-name="quotedblbase" unicode="&#x201e;" horiz-adv-x="185" d="M-39 6 L-28 48 L15 48 L8 21 Q1 -4 -11.5 -21.5 Q-24 -39 -41 -54 L-53 -44 Q-37 -30 -29 -19 Q-21 -8 -17 6 L-39 6 Z M42 6 L53 48 L96 48 L89 21 Q82 -4 69.5 -21.5 Q57 -39 40 -54 L28 -44 Q44 -30 52 -19 Q60 -8 64 6 L42 6 Z " />
<glyph glyph-name="quotedblleft" unicode="&#x201c;" horiz-adv-x="184" d="M253 634 L241 592 L198 592 L206 619 Q213 644 225.5 662 Q238 680 255 694 L266 684 Q250 670 243 659 Q236 648 231 634 L253 634 Z M172 634 L160 592 L117 592 L125 619 Q132 644 144.5 662 Q157 680 174 694 L185 684 Q169 670 162 659 Q155 648 150 634 L172 634 Z " />
<glyph glyph-name="quotedblright" unicode="&#x201d;" horiz-adv-x="185" d="M137 663 L148 705 L191 705 L184 678 Q177 653 164.5 635.5 Q152 618 135 603 L123 613 Q139 627 147 638 Q155 649 159 663 L137 663 Z M218 663 L229 705 L272 705 L265 678 Q258 653 245.5 635.5 Q233 618 216 603 L204 613 Q220 627 228 638 Q236 649 240 663 L218 663 Z " />
<glyph glyph-name="quoteleft" unicode="&#x2018;" horiz-adv-x="103" d="M172 636 L161 594 L118 594 L125 621 Q132 646 144.5 663.5 Q157 681 174 696 L186 686 Q170 672 162.5 661.5 Q155 651 150 636 L172 636 Z " />
<glyph glyph-name="quoteright" unicode="&#x2019;" horiz-adv-x="104" d="M137 663 L148 705 L191 705 L184 678 Q177 653 164.5 635.5 Q152 618 135 603 L123 613 Q139 627 147 638 Q155 649 159 663 L137 663 Z " />
<glyph glyph-name="guillemotleft" unicode="&#xab;" horiz-adv-x="218" d="M62 87 L30 87 L6 271 L129 457 L161 457 L37 271 L62 87 Z M165 87 L134 87 L111 271 L233 457 L264 457 L141 271 L165 87 Z " />
<glyph glyph-name="guillemotright" unicode="&#xbb;" horiz-adv-x="218" d="M93 87 L62 87 L183 271 L161 457 L192 457 L214 271 L93 87 Z M-11 87 L-43 87 L79 271 L56 457 L88 457 L111 271 L-11 87 Z " />
<glyph glyph-name="guilsinglleft" unicode="&#x2039;" horiz-adv-x="114" d="M61 87 L29 87 L6 271 L128 457 L160 457 L37 271 L61 87 Z " />
<glyph glyph-name="guilsinglright" unicode="&#x203a;" horiz-adv-x="114" d="M-43 87 L-12 87 L110 271 L87 457 L56 457 L79 271 L-43 87 Z " />
<glyph glyph-name="quotedbl" unicode="&#x22;" horiz-adv-x="161" d="M92 532 L136 699 L168 699 L121 532 L92 532 Z M182 532 L226 699 L257 699 L211 532 L182 532 Z " />
<glyph glyph-name="quotesingle" unicode="&#x27;" horiz-adv-x="80" d="M125 532 L96 532 L140 699 L172 699 L125 532 Z " />
<glyph glyph-name="cent" unicode="&#xa2;" horiz-adv-x="343" d="M215 532 L186 532 L211 624 L240 624 L215 532 Z M44 0 L73 0 L49 -88 L20 -88 L44 0 Z M65 -4 Q41 -4 25 6.5 Q9 17 4 36.5 Q-1 56 6 84 L105 452 Q113 482 124 501 Q135 520 151 530 Q167 540 190 540 Q209 540 225 529.5 Q241 519 248 499 Q255 479 248 452 Q244 436 240.5 422.5 Q237 409 233 397 Q230 384 226 370.5 Q222 357 218 341 L189 341 Q193 357 197 370.5 Q201 384 204 397 Q208 409 211.5 422.5 Q215 436 219 452 Q226 480 217.5 496 Q209 512 189 512 Q168 512 155 497 Q142 482 134 452 L35 84 Q28 55 35 39.5 Q42 24 63 24 Q83 24 98 39.5 Q113 55 120 84 Q124 101 128.5 117 Q133 133 137 147 Q141 162 145.5 178 Q150 194 155 212 L184 212 Q179 195 174.5 179 Q170 163 166 148 L149 84 Q137 40 117.5 18 Q98 -4 65 -4 Z " />
<glyph glyph-name="currency" unicode="&#xa4;" horiz-adv-x="283" d="M138 387 L114 366 L89 410 L114 430 L138 387 Z M176 258 L199 279 L226 235 L201 216 L176 258 Z M273 410 L224 367 L210 386 L258 430 L273 410 Z M89 276 L103 258 L57 217 L43 235 L89 276 Z M69 321 Q76 349 94 371.5 Q112 394 135.5 407 Q159 420 183 420 Q207 420 223.5 407 Q240 394 246 371.5 Q252 349 245 321 Q238 294 220 272 Q202 250 178.5 237 Q155 224 131 224 Q107 224 90 237 Q73 250 67.5 272 Q62 294 69 321 Z M93 321 Q88 301 92 284.5 Q96 268 108.5 259 Q121 250 138 250 Q164 250 188 271 Q212 292 220 321 Q225 342 221 358.5 Q217 375 205 384.5 Q193 394 176 394 Q159 394 141.5 384.5 Q124 375 111 358.5 Q98 342 93 321 Z " />
<glyph glyph-name="dollar" unicode="&#x24;" horiz-adv-x="200" d="M229 690 L199 690 L215 750 L245 750 L229 690 Z M16 10 L46 10 L30 -52 L0 -52 L16 10 Z M37 -4 Q12 -4 -5 8 Q-22 20 -28 42 Q-34 64 -26 93 Q-22 108 -18.5 122.5 Q-15 137 -11 151 Q-7 165 -3.5 179.5 Q0 194 4 208 L34 208 L19 151 Q9 113 4 93 Q-5 62 3.5 43 Q12 24 35 24 Q50 24 63.5 32.5 Q77 41 87.5 56.5 Q98 72 104 93 L125 172 Q138 220 142 251.5 Q146 283 141.5 306.5 Q137 330 122 349 Q91 388 83 430 Q75 472 91 532 L111 606 Q119 637 132.5 659 Q146 681 165.5 692.5 Q185 704 209 704 Q234 704 250.5 692 Q267 680 273 658 Q279 636 271 607 Q267 594 264 580.5 Q261 567 257 554 Q253 539 249 524 Q245 509 241 494 L211 494 Q215 509 219 523 Q223 537 226 551 Q230 565 233.5 579 Q237 593 241 607 Q250 638 241.5 657 Q233 676 210 676 Q195 676 181.5 667.5 Q168 659 157.5 643.5 Q147 628 141 607 L121 532 Q110 493 109.5 465 Q109 437 117.5 414 Q126 391 146 367 Q162 348 168.5 321 Q175 294 171.5 257.5 Q168 221 155 172 L134 94 Q126 63 112.5 41 Q99 19 80 7.5 Q61 -4 37 -4 Z " />
<glyph glyph-name="Euro" unicode="&#x20ac;" horiz-adv-x="252" d="M36 381 L43 409 L208 409 L201 381 L36 381 Z M11 288 L18 316 L183 316 L176 288 L11 288 Z M91 -4 Q66 -4 48.5 8 Q31 20 24.5 41.5 Q18 63 25 92 L163 606 Q176 654 198 679 Q220 704 255 704 Q280 704 298.5 692 Q317 680 324 658 Q331 636 323 607 Q318 585 312 563.5 Q306 542 300 521 Q295 499 289 477.5 Q283 456 277 434 L247 434 Q268 513 270 521 Q276 542 282 563.5 Q288 585 293 607 Q302 640 291.5 658 Q281 676 257 676 Q234 676 218.5 659.5 Q203 643 193 607 L55 91 Q47 61 56.5 42.5 Q66 24 89 24 Q111 24 129 42 Q147 60 155 91 L180 185 Q186 208 192.5 231.5 Q199 255 205 279 L235 279 Q229 255 222.5 231.5 Q216 208 210 185 L185 91 Q173 46 150 21 Q127 -4 91 -4 Z " />
<glyph glyph-name="lira" unicode="&#x20a4;" horiz-adv-x="337" d="M181 557 Q177 542 172 521 Q167 500 161 475 Q120 299 82 172.5 Q44 46 9 29 Q36 35 61.5 34 Q87 33 119 28 Q131 26 142 25 Q153 24 164 24 Q178 24 192.5 26.5 Q207 29 221 33 Q223 33 224 33.5 Q225 34 227 34 L219 4 L214 3 Q203 0 189 -2 Q175 -4 159 -4 Q145 -4 132 -2.5 Q119 -1 106 1 Q93 3 78.5 4.5 Q64 6 51 6 Q12 6 -28 0 L-20 31 Q5 42 33 116 Q61 190 84 280 Q107 370 132 478 Q138 503 142.5 523 Q147 543 151 557 Q164 607 181.5 638 Q199 669 226 685.5 Q253 702 293 702 Q336 702 358 684.5 Q380 667 384.5 636.5 Q389 606 380 564 L376 547 L346 547 L350 563 Q357 597 357 620.5 Q357 644 343 659 Q329 674 294 674 Q262 674 240 660 Q218 646 204.5 621 Q191 596 181 557 Z M69 363 L76 391 L253 391 L246 363 L69 363 Z M38 248 L46 276 L223 276 L215 248 L38 248 Z " />
<glyph glyph-name="sterling" unicode="&#xa3;" horiz-adv-x="337" d="M53 305 L61 333 L238 333 L230 305 L53 305 Z M181 557 Q177 542 172 521 Q167 500 161 475 Q120 299 82 172.5 Q44 46 9 29 Q36 35 61.5 34 Q87 33 119 28 Q131 26 142 25 Q153 24 164 24 Q178 24 192.5 26.5 Q207 29 221 33 Q223 33 224 33.5 Q225 34 227 34 L219 4 L214 3 Q203 0 189 -2 Q175 -4 159 -4 Q145 -4 132 -2.5 Q119 -1 106 1 Q93 3 78.5 4.5 Q64 6 51 6 Q12 6 -28 0 L-20 31 Q5 42 33 116 Q61 190 84 280 Q107 370 132 478 Q138 503 142.5 523 Q147 543 151 557 Q164 607 181.5 638 Q199 669 226 685.5 Q253 702 293 702 Q336 702 358 684.5 Q380 667 384.5 636.5 Q389 606 380 564 L376 547 L346 547 L350 563 Q357 597 357 620.5 Q357 644 343 659 Q329 674 294 674 Q262 674 240 660 Q218 646 204.5 621 Q191 596 181 557 Z " />
<glyph glyph-name="yen" unicode="&#xa5;" horiz-adv-x="206" d="M201 278 L193 250 L4 250 L12 278 L201 278 Z M179 194 L171 166 L-18 166 L-10 194 L179 194 Z M306 700 L122 284 L47 0 L17 0 L94 290 L132 700 L160 700 L123 345 L276 700 L306 700 Z " />
<glyph glyph-name="plus" unicode="&#x2b;" horiz-adv-x="319" d="M123 187 L156 309 L56 309 L63 337 L163 337 L196 461 L226 461 L193 337 L294 337 L287 309 L186 309 L153 187 L123 187 Z " />
<glyph glyph-name="minus" unicode="&#x2212;" horiz-adv-x="319" d="M287 309 L56 309 L63 337 L294 337 L287 309 Z " />
<glyph glyph-name="multiply" unicode="&#xd7;" horiz-adv-x="320" d="M58 238 L157 327 L106 413 L127 432 L178 346 L275 433 L291 411 L192 322 L243 235 L221 217 L171 303 L74 216 L58 238 Z " />
<glyph glyph-name="divide" unicode="&#xf7;" horiz-adv-x="319" d="M287 309 L56 309 L63 337 L294 337 L287 309 Z M172 460 L214 460 L203 418 L161 418 L172 460 Z M111 234 L153 234 L142 192 L100 192 L111 234 Z " />
<glyph glyph-name="equal" unicode="&#x3d;" horiz-adv-x="319" d="M302 366 L71 366 L78 394 L309 394 L302 366 Z M273 255 L42 255 L49 283 L280 283 L273 255 Z " />
<glyph glyph-name="notequal" unicode="&#x2260;" horiz-adv-x="319" d="M244 420 L119 164 L91 171 L217 428 L244 420 Z M294 337 L63 337 L70 365 L301 365 L294 337 Z M265 226 L34 226 L41 254 L272 254 L265 226 Z " />
<glyph glyph-name="greater" unicode="&#x3e;" horiz-adv-x="227" d="M15 159 L221 309 L225 329 L100 479 L92 446 L194 323 L27 201 L15 159 Z " />
<glyph glyph-name="less" unicode="&#x3c;" horiz-adv-x="227" d="M156 159 L32 305 L35 322 L244 475 L233 433 L65 310 L167 189 L156 159 Z " />
<glyph glyph-name="greaterequal" unicode="&#x2265;" horiz-adv-x="239" d="M-19 125 L156 125 L164 153 L-11 153 L-19 125 Z M4 184 L210 334 L214 354 L89 504 L81 471 L183 348 L16 226 L4 184 Z " />
<glyph glyph-name="lessequal" unicode="&#x2264;" horiz-adv-x="239" d="M182 125 L190 153 L15 153 L7 125 L182 125 Z M190 184 L66 330 L69 347 L278 500 L267 458 L99 335 L201 214 L190 184 Z " />
<glyph glyph-name="plusminus" unicode="&#xb1;" horiz-adv-x="319" d="M140 252 L173 374 L73 374 L80 402 L180 402 L213 526 L243 526 L210 402 L311 402 L304 374 L203 374 L170 252 L140 252 Z M249 166 L18 166 L25 194 L256 194 L249 166 Z " />
<glyph glyph-name="approxequal" unicode="&#x2248;" horiz-adv-x="269" d="M240 398 Q226 378 211.5 369.5 Q197 361 182 361 Q170 361 161 365.5 Q152 370 137 381 Q130 386 122.5 390.5 Q115 395 109 395 Q98 395 87.5 389.5 Q77 384 67 370 L49 386 Q64 407 79 415 Q94 423 111 423 Q122 423 132 418 Q142 413 154 404 Q162 398 170 393.5 Q178 389 185 389 Q193 389 202.5 394.5 Q212 400 223 414 L240 398 Z M282 553 Q268 533 253.5 524.5 Q239 516 224 516 Q212 516 203 520.5 Q194 525 179 536 Q172 541 164.5 545.5 Q157 550 151 550 Q140 550 129.5 544.5 Q119 539 109 525 L91 541 Q106 562 121 570 Q136 578 153 578 Q164 578 174 573 Q184 568 196 559 Q204 553 212 548.5 Q220 544 227 544 Q235 544 244.5 549.5 Q254 555 265 569 L282 553 Z " />
<glyph glyph-name="asciitilde" unicode="&#x7e;" horiz-adv-x="319" d="M297 334 Q295 331 293.5 328.5 Q292 326 290 324 Q274 305 257 297.5 Q240 290 222 290 Q206 290 192 296 Q178 302 160 313 Q145 322 136 326 Q127 330 118 330 Q104 330 92.5 322.5 Q81 315 63 296 L63 296 L50 312 Q68 338 87 347.5 Q106 357 127 357 Q139 357 150.5 352 Q162 347 185 335 Q201 326 211.5 321 Q222 316 231 316 Q239 316 247 319.5 Q255 323 265 330 Q270 334 275 339 Q280 344 285 350 L297 334 Z " />
<glyph glyph-name="logicalnot" unicode="&#xac;" horiz-adv-x="319" d="M278 309 L56 309 L63 337 L294 337 L278 309 Z M227 187 L264 327 L294 337 L254 187 L227 187 Z " />
<glyph glyph-name="asciicircum" unicode="&#x5e;" horiz-adv-x="348" d="M312 735 L293 708 L290 708 L111 397 L79 397 L276 735 L312 735 Z M292 708 L288 735 L323 735 L340 397 L307 397 L294 708 L292 708 Z " />
<glyph glyph-name="uni2126" unicode="&#x2126;" horiz-adv-x="350" d="M222 0 L123 0 L161 143 L191 147 L158 28 L229 28 L222 0 Z M85 0 L-13 0 L-6 28 L64 28 L96 147 L123 143 L85 0 Z M116 504 Q132 565 151 607 Q170 649 204.5 677 Q239 705 293 705 Q348 705 367.5 676.5 Q387 648 382.5 607.5 Q378 567 362 505 L336 407 Q334 400 332.5 393 Q331 386 329 379 Q309 305 290.5 254.5 Q272 204 239 165.5 Q206 127 157 127 L164 154 Q199 154 224 186.5 Q249 219 265 264 Q281 309 299 380 L306 408 L332 504 Q348 564 351.5 600 Q355 636 340.5 657 Q326 678 285 678 Q245 678 219.5 657.5 Q194 637 178 600.5 Q162 564 146 503 L120 407 Q118 399 115.5 391 Q113 383 111 374 Q92 306 83 262 Q74 218 82 186 Q90 154 126 154 L119 127 Q69 127 56.5 167 Q44 207 53 258.5 Q62 310 83 382 Q85 389 86.5 395 Q88 401 90 406 L116 504 Z " />
<glyph glyph-name="uni2206" unicode="&#x2206;" horiz-adv-x="323" d="M225 28 L223 0 L-38 0 L-31 28 L225 28 Z M-57 0 L247 699 L308 699 L239 0 L208 0 L278 671 L265 671 L-27 0 L-57 0 Z " />
<glyph glyph-name="product" unicode="&#x220f;" horiz-adv-x="324" d="M-3 -80 L-34 -80 L175 698 L381 698 L172 -80 L141 -80 L342 670 L198 670 L-3 -80 Z " />
<glyph glyph-name="summation" unicode="&#x2211;" horiz-adv-x="333" d="M192 354 L220 349 L20 27 L221 27 L214 0 L-19 0 L-12 26 L192 354 Z M221 350 L220 349 L189 345 L161 672 L168 699 L397 699 L390 671 L194 671 L221 350 Z " />
<glyph glyph-name="partialdiff" unicode="&#x2202;" horiz-adv-x="334" d="M259 190 Q258 187 257.5 184 Q257 181 256 179 Q239 118 223.5 81.5 Q208 45 176 19.5 Q144 -6 91 -6 Q38 -6 20.5 19.5 Q3 45 7 82.5 Q11 120 28 185 Q29 187 29 188.5 Q29 190 30 192 L45 249 Q62 311 79 351.5 Q96 392 126.5 419.5 Q157 447 204 447 Q252 447 269 430.5 Q286 414 283.5 386.5 Q281 359 266 305 Q265 301 264 297 Q263 293 262 289 Q262 285 263 276.5 Q264 268 265 257 Q269 228 268 225 L259 190 Z M198 419 Q162 419 139 396.5 Q116 374 103.5 342 Q91 310 77 257 L58 188 Q42 125 37.5 93 Q33 61 45.5 41 Q58 21 98 21 Q138 21 162 40.5 Q186 60 198 89 Q210 118 223 168 Q224 171 224.5 174.5 Q225 178 226 181 L251 275 Q266 329 267.5 359 Q269 389 253.5 404 Q238 419 198 419 Z M269 705 Q273 705 276 705 Q279 705 283 705 Q336 705 352.5 673.5 Q369 642 363 599 Q357 556 338 488 L266 218 L239 227 L308 487 Q325 550 331 588.5 Q337 627 325 652.5 Q313 678 274 678 L266 678 L263 678 L269 705 Z " />
<glyph glyph-name="uni00B5" unicode="&#xb5;" horiz-adv-x="260" d="M67 -8 Q23 -8 8.5 21 Q-6 50 -2 89.5 Q2 129 16 181 L46 292 L57 297 L36 218 Q20 158 16 115 Q12 72 25 46 Q38 20 74 20 Q105 20 125 40 Q145 60 155.5 88 Q166 116 178 160 Q179 165 180 169 Q181 173 182 177 L277 532 L307 532 L211 174 Q195 112 180.5 76 Q166 40 139 16 Q112 -8 67 -8 Z M-96 -168 L-49 10 L-19 10 L-66 -168 L-96 -168 Z M-28 60 L7 146 L8 90 L6 65 L-28 60 Z M-51 0 L91 532 L121 532 L-21 0 L-51 0 Z " />
<glyph glyph-name="percent" unicode="&#x25;" horiz-adv-x="462" d="M448 700 L88 0 L58 0 L418 700 L448 700 Z M135 365 Q110 365 93.5 376.5 Q77 388 71 410 Q65 432 72 460 L112 606 Q124 652 148.5 678 Q173 704 209 704 Q234 704 251 692 Q268 680 274.5 658 Q281 636 273 607 L232 460 Q220 415 195.5 390 Q171 365 135 365 Z M134 393 Q158 393 176 411 Q194 429 202 460 L243 607 Q251 639 242.5 657.5 Q234 676 208 676 Q186 676 168.5 657.5 Q151 639 143 607 L102 460 Q94 429 102.5 411 Q111 393 134 393 Z M296 -4 Q271 -4 254.5 7.5 Q238 19 232 41 Q226 63 233 91 L273 237 Q285 283 309.5 309 Q334 335 370 335 Q395 335 412 323 Q429 311 435.5 289 Q442 267 434 238 L393 91 Q381 46 356.5 21 Q332 -4 296 -4 Z M295 24 Q319 24 337 42 Q355 60 363 91 L404 238 Q412 270 403.5 288.5 Q395 307 369 307 Q347 307 329.5 288.5 Q312 270 304 238 L263 91 Q255 60 263.5 42 Q272 24 295 24 Z " />
<glyph glyph-name="perthousand" unicode="&#x2030;" horiz-adv-x="662" d="M448 700 L88 0 L58 0 L418 700 L448 700 Z M135 365 Q110 365 93.5 376.5 Q77 388 71 410 Q65 432 72 460 L112 606 Q124 652 148.5 678 Q173 704 209 704 Q234 704 251 692 Q268 680 274.5 658 Q281 636 273 607 L232 460 Q220 415 195.5 390 Q171 365 135 365 Z M134 393 Q158 393 176 411 Q194 429 202 460 L243 607 Q251 639 242.5 657.5 Q234 676 208 676 Q186 676 168.5 657.5 Q151 639 143 607 L102 460 Q94 429 102.5 411 Q111 393 134 393 Z M296 -4 Q271 -4 254.5 7.5 Q238 19 232 41 Q226 63 233 91 L273 237 Q285 283 309.5 309 Q334 335 370 335 Q395 335 412 323 Q429 311 435.5 289 Q442 267 434 238 L393 91 Q381 46 356.5 21 Q332 -4 296 -4 Z M295 24 Q319 24 337 42 Q355 60 363 91 L404 238 Q412 270 403.5 288.5 Q395 307 369 307 Q347 307 329.5 288.5 Q312 270 304 238 L263 91 Q255 60 263.5 42 Q272 24 295 24 Z M496 -4 Q471 -4 454.5 7.5 Q438 19 432 41 Q426 63 433 91 L473 237 Q485 283 509.5 309 Q534 335 570 335 Q595 335 612 323 Q629 311 635.5 289 Q642 267 634 238 L593 91 Q581 46 556.5 21 Q532 -4 496 -4 Z M495 24 Q519 24 537 42 Q555 60 563 91 L604 238 Q612 270 603.5 288.5 Q595 307 569 307 Q547 307 529.5 288.5 Q512 270 504 238 L463 91 Q455 60 463.5 42 Q472 24 495 24 Z " />
<glyph glyph-name="arrowup" unicode="&#x2191;" horiz-adv-x="404" d="M146 0 L116 0 L274 592 L272 592 Q242 550 196.5 530.5 Q151 511 101 511 Q93 511 91 512 L99 541 Q100 540 103 540 Q106 540 108 540 Q157 540 196 558.5 Q235 577 262.5 612.5 Q290 648 303 699 L333 699 L146 0 Z M116 0 L303 699 L333 699 Q320 648 327.5 612.5 Q335 577 364 558.5 Q393 540 442 540 Q444 540 447 540 Q450 540 453 541 L445 512 Q443 511 435 511 Q385 511 349.5 530.5 Q314 550 306 592 L304 592 L146 0 L116 0 Z " />
<glyph glyph-name="uni2197" unicode="&#x2197;" horiz-adv-x="567" d="M23 183 L8 203 L541 623 L539 624 Q509 614 490 614 Q458 614 432.5 629.5 Q407 645 388 671 Q383 676 383 679 L409 700 Q412 697 414 693 Q451 642 506 642 Q535 642 568 656 Q601 670 636 698 L650 678 L23 183 Z M8 203 L636 698 L650 678 Q616 651 595.5 622 Q575 593 567 563 Q551 506 586 458 Q587 457 587.5 456.5 Q588 456 589 455 Q590 453 592 451 L565 430 Q562 432 559 437 Q540 463 532.5 493 Q525 523 534 555 Q540 578 556 601 L555 603 L23 183 L8 203 Z " />
<glyph glyph-name="arrowright" unicode="&#x2192;" horiz-adv-x="750" d="M50 359 L750 359 L742 331 Q691 331 650.5 313.5 Q610 296 582.5 262 Q555 228 542 179 Q541 177 540.5 174 Q540 171 540 169 L510 169 Q510 175 512 179 Q525 229 556 269.5 Q587 310 635 329 L635 331 L42 331 L50 359 Z M42 331 L50 359 L643 359 L643 361 Q606 380 596.5 420.5 Q587 461 601 511 Q601 513 602 516 Q603 519 604 521 L634 521 Q633 519 632 516 Q631 513 631 511 Q618 462 627.5 428 Q637 394 668 376.5 Q699 359 750 359 L742 331 L42 331 Z " />
<glyph glyph-name="uni2198" unicode="&#x2198;" horiz-adv-x="567" d="M112 517 L475 22 L449 2 Q429 30 403.5 44 Q378 58 349 58 Q296 58 231 7 Q229 5 226.5 3.5 Q224 2 222 0 L206 21 Q209 24 211 25 Q212 26 213 27 Q214 28 215 29 Q248 55 282.5 70.5 Q317 86 349 86 Q369 86 392 76 L394 77 L87 497 L112 517 Z M87 497 L112 517 L420 97 L421 99 Q419 124 425 145 Q434 177 457 207 Q480 237 512 263 Q524 271 522 270 L537 249 Q536 248 535 247.5 Q534 247 533 246 Q532 245 531 244 Q530 243 529 242 Q468 196 452 137 Q444 107 449.5 78 Q455 49 475 22 L449 2 L87 497 Z " />
<glyph glyph-name="arrowdown" unicode="&#x2193;" horiz-adv-x="404" d="M333 700 L146 1 L116 1 Q129 52 121.5 87.5 Q114 123 85 141.5 Q56 160 7 160 Q5 160 2 160 Q-1 160 -4 159 L4 188 Q6 189 14 189 Q64 189 99.5 169.5 Q135 150 143 108 L145 108 L303 700 L333 700 Z M303 700 L333 700 L175 108 L177 108 Q207 150 252.5 169.5 Q298 189 348 189 Q356 189 358 188 L350 159 Q349 160 346 160 Q343 160 341 160 Q292 160 253 141.5 Q214 123 186.5 87.5 Q159 52 146 1 L116 1 L303 700 Z " />
<glyph glyph-name="uni2199" unicode="&#x2199;" horiz-adv-x="567" d="M589 517 L604 497 L71 77 L73 76 Q103 86 122 86 Q154 86 179.5 70.5 Q205 55 224 29 Q224 29 224.5 28.5 Q225 28 225 28 Q227 26 228 24.5 Q229 23 229 21 L203 0 Q202 1 201.5 2 Q201 3 200 4 Q199 5 198.5 5.5 Q198 6 198 7 Q161 58 106 58 Q77 58 44 44 Q11 30 -24 2 L-38 22 L589 517 Z M604 497 L-24 2 L-38 22 Q-4 49 16.5 78 Q37 107 45 137 Q61 194 26 242 Q24 244 23 246 Q22 247 21.5 247.5 Q21 248 20 249 L47 270 Q50 268 53 263 Q72 237 79.5 207 Q87 177 78 145 Q72 122 56 99 L57 97 L589 517 L604 497 Z " />
<glyph glyph-name="arrowleft" unicode="&#x2190;" horiz-adv-x="750" d="M750 359 L742 331 L149 331 L149 329 Q187 310 196 269.5 Q205 229 192 179 Q192 178 191.5 177.5 Q191 177 191 176 Q189 170 188 169 L158 169 Q159 170 161 176 Q161 177 161.5 177.5 Q162 178 162 179 Q175 228 165 262 Q155 296 124 313.5 Q93 331 42 331 L50 359 L750 359 Z M742 331 L42 331 L50 359 Q101 359 141.5 376.5 Q182 394 210 428 Q238 462 251 511 Q251 512 251 512.5 Q251 513 252 514 Q252 516 252.5 518 Q253 520 252 521 L282 521 Q283 520 282.5 518 Q282 516 282 514 Q281 513 281 512.5 Q281 512 281 511 Q267 460 236 420 Q205 380 157 361 L157 359 L750 359 L742 331 Z " />
<glyph glyph-name="uni2196" unicode="&#x2196;" horiz-adv-x="567" d="M500 183 L137 678 L163 698 Q183 670 208.5 656 Q234 642 263 642 Q317 642 381 693 Q383 695 385.5 696.5 Q388 698 390 700 L406 679 Q402 675 402 675 Q400 674 399 673 Q398 672 397 671 Q364 645 329.5 629.5 Q295 614 263 614 Q243 614 220 624 L218 623 L525 203 L500 183 Z M525 203 L500 183 L192 603 L191 601 Q193 576 187 555 Q178 523 155 493 Q132 463 100 437 Q88 429 90 430 L75 451 Q76 452 77 453 Q78 454 79 455 Q80 456 81 456.5 Q82 457 83 458 Q144 504 160 563 Q168 593 162.5 622 Q157 651 137 678 L163 698 L525 203 Z " />
<glyph glyph-name="at" unicode="&#x40;" horiz-adv-x="289" d="M162 20 Q168 20 172 22.5 Q176 25 178 33 L295 470 Q303 502 298 524.5 Q293 547 275 558.5 Q257 570 227 570 Q180 570 148.5 544 Q117 518 104 470 L-6 62 Q-14 30 -9 7.5 Q-4 -15 13.5 -26.5 Q31 -38 59 -38 Q77 -38 97 -33 Q117 -28 132 -17 L124 -52 Q110 -61 94 -63.5 Q78 -66 60 -66 Q24 -66 -1.5 -51 Q-27 -36 -36.5 -7 Q-46 22 -35 62 L75 470 Q92 532 129.5 565 Q167 598 224 598 Q262 598 288.5 583 Q315 568 325 539 Q335 510 324 470 L207 33 Q201 14 190.5 3 Q180 -8 163 -8 L162 20 Z M154 33 Q152 26 154 23 Q156 20 162 20 L163 -8 Q151 -8 141 -2.5 Q131 3 126.5 12 Q122 21 125 33 L236 450 L242 467 L259 532 L287 532 L154 33 Z M202 540 Q226 540 239 527 Q252 514 252.5 485.5 Q253 457 240 410 L155 109 Q154 107 153.5 104.5 Q153 102 152 100 Q142 62 133.5 40.5 Q125 19 109.5 5.5 Q94 -8 69 -8 Q51 -8 38 3 Q25 14 20.5 34 Q16 54 23 80 L123 452 L124 454 Q131 481 142.5 500 Q154 519 169 529.5 Q184 540 202 540 Z M209 512 Q189 512 174 496.5 Q159 481 152 452 L52 80 Q45 51 51 35.5 Q57 20 77 20 Q98 20 114 35.5 Q130 51 137 80 L236 450 Q241 470 239.5 483.5 Q238 497 230.5 504.5 Q223 512 209 512 Z M261 509 L238 453 L243 479 L247 504 L261 509 Z M148 101 L133 15 L119 20 L129 45 L148 101 Z " />
<glyph glyph-name="ampersand" unicode="&#x26;" horiz-adv-x="328" d="M73 -6 Q27 -6 4.5 15.5 Q-18 37 -19 78.5 Q-20 120 -3 181 L3 203 Q11 232 21.5 256.5 Q32 281 48.5 305 Q65 329 89 349 Q91 351 93.5 353 Q96 355 99 357 L230 457 Q237 462 243.5 467.5 Q250 473 255 478 Q287 506 299 530 Q311 554 320 585 L322 591 Q330 620 326.5 639 Q323 658 309 667.5 Q295 677 271 677 Q232 677 206 651.5 Q180 626 166 576 L163 566 Q163 565 162.5 564.5 Q162 564 162 563 Q157 540 157.5 514 Q158 488 163 455 L211 128 L219 120 L237 0 L208 0 L197 78 L189 88 L136 444 Q130 482 130 516 Q130 550 136 575 L138 583 Q155 645 188.5 675 Q222 705 268 705 Q302 705 324 691 Q346 677 353.5 650.5 Q361 624 351 587 L349 581 Q343 557 331.5 534 Q320 511 299.5 485.5 Q279 460 247 435 L245 434 L117 336 Q113 333 109 329.5 Q105 326 101 323 Q75 299 59 269.5 Q43 240 33 203 L27 182 Q3 98 12 60 Q21 22 73 22 Q131 22 166.5 71 Q202 120 235 211 Q235 211 235 211.5 Q235 212 235 212 L291 371 L320 371 L265 212 Q239 139 215.5 93.5 Q192 48 157.5 21 Q123 -6 73 -6 Z " />
<glyph glyph-name="paragraph" unicode="&#xb6;" horiz-adv-x="266" d="M97 552 Q115 622 148.5 661 Q182 700 220 700 L277 700 L44 -170 L14 -170 L156 361 L130 361 Q91 361 79.5 403 Q68 445 88 521 L97 552 Z M357 700 L124 -170 L94 -170 L327 700 L357 700 Z " />
<glyph glyph-name="section" unicode="&#xa7;" horiz-adv-x="183" d="M131 441 Q113 438 100 423 Q87 408 80 382 Q78 374 75 362.5 Q72 351 70 343 Q64 321 61.5 307.5 Q59 294 60.5 281.5 Q62 269 68 253 Q76 233 84 217 L88 209 Q105 172 111 153 Q117 134 116 110.5 Q115 87 105 48 Q104 45 102.5 40 Q101 35 100 29 Q98 23 96.5 18 Q95 13 94 10 Q82 -34 61.5 -56 Q41 -78 7 -78 Q-16 -78 -31 -67.5 Q-46 -57 -51 -37.5 Q-56 -18 -49 10 Q-45 25 -40.5 41 Q-36 57 -32 74 Q-27 91 -22.5 107.5 Q-18 124 -14 138 L15 138 Q11 124 6.5 107.5 Q2 91 -3 74 Q-7 57 -11.5 41 Q-16 25 -20 10 Q-25 -10 -24 -23 Q-23 -36 -15 -43 Q-7 -50 7 -50 Q28 -50 43 -35 Q58 -20 65 10 Q66 13 67.5 18.5 Q69 24 71 30 Q72 36 73.5 41 Q75 46 76 49 Q85 84 87.5 102 Q90 120 85.5 138 Q81 156 67 185 L61 198 Q37 246 33 272.5 Q29 299 41 343 L46 362 Q47 368 48.5 373.5 Q50 379 51 382 Q61 417 79.5 438.5 Q98 460 124 467 L131 441 Z M80 185 Q97 190 109 204.5 Q121 219 128 244 Q129 247 130.5 252.5 Q132 258 134 264 L139 283 Q147 315 148.5 333 Q150 351 146 367.5 Q142 384 130 410 L120 432 Q104 464 98.5 484.5 Q93 505 94 525 Q95 545 103 577 L114 616 Q125 660 146.5 682 Q168 704 202 704 Q225 704 240 694 Q255 684 259.5 664 Q264 644 257 616 Q253 601 249 586 Q245 571 241 556 L227 505 L198 505 L213 561 Q217 575 220.5 588.5 Q224 602 228 616 Q236 647 230 661.5 Q224 676 200 676 Q179 676 165 661 Q151 646 143 616 L138 596 Q136 590 134.5 585 Q133 580 132 577 Q123 540 122 523 Q121 506 129 482 Q141 455 143 451 Q144 448 145.5 445.5 Q147 443 148 441 Q165 404 171.5 385.5 Q178 367 177.5 343.5 Q177 320 167 282 Q167 279 165.5 274 Q164 269 162 263 L157 244 Q148 210 131 189.5 Q114 169 90 161 L80 185 Z " />
<glyph glyph-name="copyright" unicode="&#xa9;" horiz-adv-x="289" d="M138 212 Q116 212 100.5 222.5 Q85 233 80 252.5 Q75 272 82 300 L154 568 Q166 612 187 634 Q208 656 242 656 Q264 656 279 645.5 Q294 635 299 615.5 Q304 596 297 568 Q293 553 289.5 541 Q286 529 284 518 Q281 507 277.5 494.5 Q274 482 270 467 L241 467 Q245 482 248.5 494.5 Q252 507 255 518 Q257 529 260.5 541 Q264 553 268 568 Q275 597 269 612.5 Q263 628 243 628 Q220 628 205.5 613 Q191 598 183 568 L111 300 Q104 271 111 255.5 Q118 240 139 240 Q159 240 174 255.5 Q189 271 196 300 L212 358 L227 416 L256 416 L241 358 L225 300 Q213 256 192 234 Q171 212 138 212 Z M129 160 Q88 160 61 175 Q34 190 24.5 219 Q15 248 26 288 L104 580 Q115 622 134.5 650 Q154 678 182 693 Q210 708 247 708 Q285 708 312.5 691.5 Q340 675 351.5 646 Q363 617 353 580 L275 288 Q264 246 244.5 217.5 Q225 189 196.5 174.5 Q168 160 129 160 Z M125 188 Q155 188 179 199.5 Q203 211 220.5 233.5 Q238 256 246 288 L324 580 Q332 611 324.5 633.5 Q317 656 296.5 668 Q276 680 246 680 Q215 680 193 668.5 Q171 657 156.5 635 Q142 613 133 580 L55 288 Q47 256 52 233.5 Q57 211 75.5 199.5 Q94 188 125 188 Z " />
<glyph glyph-name="registered" unicode="&#xae;" horiz-adv-x="289" d="M129 160 Q67 160 38.5 194 Q10 228 26 288 L104 580 Q115 622 134.5 650 Q154 678 182 693 Q210 708 247 708 Q285 708 312.5 691.5 Q340 675 351.5 646 Q363 617 353 580 L275 288 Q264 246 244.5 217.5 Q225 189 196.5 174.5 Q168 160 129 160 Z M125 188 Q155 188 179 199.5 Q203 211 220.5 233.5 Q238 256 246 288 L324 580 Q332 611 324.5 633.5 Q317 656 296.5 668 Q276 680 246 680 Q215 680 193 668.5 Q171 657 156.5 635 Q142 613 133 580 L55 288 Q47 256 52 233.5 Q57 211 75.5 199.5 Q94 188 125 188 Z M189 433 Q222 433 235 410 Q248 387 236 341 L219 278 Q216 265 222 257 L221 253 L191 253 Q186 260 190 278 L206 336 Q206 337 206.5 338.5 Q207 340 207 341 Q217 376 212.5 395.5 Q208 415 172 415 L189 433 Z M290 513 Q283 483 266.5 459.5 Q250 436 221 429 L220 425 Q217 423 211 421 Q203 418 195.5 416.5 Q188 415 180 415 L144 415 L101 253 L72 253 L168 613 L223 613 Q264 613 283.5 588 Q303 563 292 521 L290 513 Z M264 523 Q272 553 261.5 569 Q251 585 225 585 L189 585 L151 442 L187 442 Q213 442 232.5 460.5 Q252 479 261 513 L264 523 Z " />
<glyph glyph-name="trademark" unicode="&#x2122;" horiz-adv-x="458" d="M100 350 L186 672 L119 672 L126 700 L289 700 L282 672 L216 672 L130 350 L100 350 Z M231 350 L324 700 L373 700 L365 443 L357 405 L358 405 L370 443 L500 700 L549 700 L455 350 L426 350 L497 612 L507 645 L505 645 L487 612 L355 350 L332 350 L340 612 L339 645 L337 645 L329 611 L260 350 L231 350 Z " />
<glyph glyph-name="degree" unicode="&#xb0;" horiz-adv-x="183" d="M161 518 Q126 518 113 540.5 Q100 563 111 606 L114 616 Q125 659 150 681.5 Q175 704 210 704 Q244 704 256 681.5 Q268 659 257 616 L254 606 Q243 563 219 540.5 Q195 518 161 518 Z M168 546 Q188 546 203 561.5 Q218 577 225 606 L228 616 Q235 645 229 660.5 Q223 676 203 676 Q182 676 166 660.5 Q150 645 143 616 L140 606 Q133 577 140 561.5 Q147 546 168 546 Z " />
<glyph glyph-name="bar" unicode="&#x7c;" horiz-adv-x="80" d="M-54 -28 L149 728 L179 728 L-24 -28 L-54 -28 Z " />
<glyph glyph-name="brokenbar" unicode="&#xa6;" horiz-adv-x="80" d="M74 338 L-24 -28 L-54 -28 L44 338 L74 338 Z M52 366 L149 728 L179 728 L82 366 L52 366 Z " />
<glyph glyph-name="dagger" unicode="&#x2020;" horiz-adv-x="213" d="M217 732 L247 732 L44 -24 L14 -24 L217 732 Z M90 509 L253 509 L246 481 L83 481 L90 509 Z " />
<glyph glyph-name="daggerdbl" unicode="&#x2021;" horiz-adv-x="213" d="M217 732 L247 732 L44 -24 L14 -24 L217 732 Z M90 509 L253 509 L246 481 L83 481 L90 509 Z M7 199 L15 227 L178 227 L170 199 L7 199 Z " />
<glyph glyph-name="estimated" unicode="&#x212e;" horiz-adv-x="183" d="M211 513 L154 300 L111 300 L168 513 L211 513 Z M148 513 L91 300 L49 300 L106 513 L148 513 Z M129 208 L79 19 L36 19 L86 208 L129 208 Z M88 288 L16 19 L-26 19 L46 288 L88 288 Z M26 -8 Q2 -8 -13 2 Q-28 12 -32.5 32 Q-37 52 -30 80 L70 452 Q78 481 90 500.5 Q102 520 119.5 530 Q137 540 160 540 Q183 540 197.5 530 Q212 520 216 500 Q220 480 213 452 Q207 430 201 408.5 Q195 387 190 366 Q184 345 178.5 324 Q173 303 167 280 L53 280 Q47 256 40 231 Q33 206 26 180 Q19 155 12.5 129.5 Q6 104 -1 80 Q-8 51 -1 35.5 Q6 20 27 20 Q47 20 62 35.5 Q77 51 84 80 Q91 103 101 144 Q106 162 110.5 178.5 Q115 195 118 208 L147 208 Q144 193 139 175.5 Q134 158 129 139 L113 80 Q101 36 80 14 Q59 -8 26 -8 Z M145 308 Q150 327 155 345 Q160 363 165 380 Q170 397 174.5 415 Q179 433 184 452 Q191 481 185 496.5 Q179 512 159 512 Q138 512 122 496.5 Q106 481 99 452 Q94 433 89.5 415 Q85 397 80 380 Q75 363 70 345 Q65 327 60 308 L145 308 Z " />
<glyph glyph-name="uni2116" unicode="&#x2116;" horiz-adv-x="432" d="M339 264 Q314 264 297.5 275.5 Q281 287 275 309 Q269 331 276 359 L342 606 Q355 653 379 678.5 Q403 704 439 704 Q464 704 481 692 Q498 680 504.5 658 Q511 636 503 607 L436 359 Q424 314 399.5 289 Q375 264 339 264 Z M338 292 Q361 292 379.5 310 Q398 328 406 359 L473 607 Q481 638 472.5 657 Q464 676 441 676 Q418 676 399.5 657 Q381 638 373 607 L306 359 Q298 328 306.5 310 Q315 292 338 292 Z M-45 0 L141 700 L195 700 L115 30 L120 30 L146 140 L295 700 L325 700 L139 0 L84 0 L164 670 L160 670 L134 559 L-15 0 L-45 0 Z " />
<glyph glyph-name="uni0308" unicode="&#x308;" d="M-32 651 L10 651 L-1 609 L-43 609 L-32 651 Z M30 651 L72 651 L61 609 L19 609 L30 651 Z " />
<glyph glyph-name="uni0307" unicode="&#x307;" d="M35 591 L54 660 L83 660 L64 591 L35 591 Z " />
<glyph glyph-name="gravecomb" unicode="&#x300;" d="M13 700 L47 700 L67 592 L39 592 L13 700 Z " />
<glyph glyph-name="acutecomb" unicode="&#x301;" d="M98 701 L14 593 L-14 593 L64 701 L98 701 Z " />
<glyph glyph-name="uni030B" unicode="&#x30b;" d="M-1 700 L33 700 L-51 592 L-79 592 L-1 700 Z M63 700 L97 700 L14 592 L-14 592 L63 700 Z " />
<glyph glyph-name="uni0302" unicode="&#x302;" d="M-74 591 L9 701 L46 701 L68 591 L38 591 L23 676 L-39 591 L-74 591 Z " />
<glyph glyph-name="uni030C" unicode="&#x30c;" d="M-45 681 L-15 681 L0 596 L62 681 L97 681 L14 571 L-23 571 L-45 681 Z " />
<glyph glyph-name="uni0306" unicode="&#x306;" d="M95 697 Q82 643 56.5 617.5 Q31 592 -8 592 Q-35 592 -52 603.5 Q-69 615 -74 638.5 Q-79 662 -72 697 L-43 697 Q-51 657 -43 638.5 Q-35 620 -8 620 Q19 620 36.5 638.5 Q54 657 64 697 L95 697 Z " />
<glyph glyph-name="uni030A" unicode="&#x30a;" d="M-18 660 Q-10 688 5 702.5 Q20 717 44 717 Q61 717 72.5 709.5 Q84 702 88.5 689 Q93 676 88 658 Q81 630 66 615.5 Q51 601 27 601 Q2 601 -11.5 617.5 Q-25 634 -18 660 Z M10 659 Q6 644 11 636.5 Q16 629 29 629 Q42 629 49 636.5 Q56 644 60 659 Q64 674 59 681.5 Q54 689 41 689 Q29 689 22 682 Q15 675 10 659 Z " />
<glyph glyph-name="tildecomb" unicode="&#x303;" d="M89 653 Q75 633 60.5 624.5 Q46 616 31 616 Q19 616 10 620.5 Q1 625 -14 636 Q-21 641 -28.5 645.5 Q-36 650 -42 650 Q-53 650 -63.5 644.5 Q-74 639 -84 625 L-102 641 Q-87 662 -72 670 Q-57 678 -40 678 Q-29 678 -19 673 Q-9 668 3 659 Q11 653 19 648.5 Q27 644 34 644 Q42 644 51.5 649.5 Q61 655 72 669 L89 653 Z " />
<glyph glyph-name="uni0304" unicode="&#x304;" d="M83 648 L-140 648 L-132 676 L91 676 L83 648 Z " />
<glyph glyph-name="uni0312" unicode="&#x312;" d="M-13 563 L71 671 L99 671 L21 563 L-13 563 Z " />
<glyph glyph-name="dotbelowcomb" unicode="&#x323;" d="M-136 -41 L-94 -41 L-105 -83 L-147 -83 L-136 -41 Z " />
<glyph glyph-name="uni0326" unicode="&#x326;" d="M-158 -83 L-147 -41 L-104 -41 L-111 -68 Q-118 -93 -130.5 -110.5 Q-143 -128 -160 -143 L-172 -133 Q-156 -119 -148 -108 Q-140 -97 -136 -83 L-158 -83 Z " />
<glyph glyph-name="uni0327" unicode="&#x327;" d="M-212 -81 Q-207 -88 -197 -92 Q-187 -96 -175 -96 Q-162 -96 -152.5 -89 Q-143 -82 -140 -70 Q-138 -61 -141.5 -55 Q-145 -49 -155 -47 Q-165 -45 -179 -48 L-164 8 L-134 8 L-143 -26 Q-132 -26 -123.5 -32.5 Q-115 -39 -112 -50 Q-109 -61 -112 -74 Q-119 -98 -136 -111 Q-153 -124 -178 -124 Q-194 -124 -207.5 -118.5 Q-221 -113 -229 -103 L-212 -81 Z " />
<glyph glyph-name="uni0328" unicode="&#x328;" d="M-126 -153 Q-134 -159 -144.5 -162 Q-155 -165 -168 -165 Q-185 -165 -199 -156 Q-213 -147 -219 -129 Q-225 -111 -218 -84 Q-209 -51 -187 -29 Q-165 -7 -139 7 L-132 11 L-116 0 Q-117 -1 -117.5 -1 Q-118 -1 -118 -2 Q-143 -18 -162 -37 Q-181 -56 -189 -86 Q-196 -110 -190 -123.5 Q-184 -137 -165 -137 Q-154 -137 -144.5 -133 Q-135 -129 -127 -123 L-125 -122 L-126 -153 Z " />
<glyph glyph-name="uni0335" unicode="&#x335;" d="M-1 335 L-135 335 L-127 363 L7 363 L-1 335 Z " />
<glyph glyph-name="uni0336" unicode="&#x336;" d="M-56 391 L-251 391 L-243 418 L-48 418 L-56 391 Z " />
<glyph glyph-name="uni0337" unicode="&#x337;" d="M-20 337 L-159 219 L-147 265 L-7 384 L-20 337 Z " />
<glyph glyph-name="dotaccent" unicode="&#x2d9;" horiz-adv-x="82" d="M107 671 L149 671 L138 629 L96 629 L107 671 Z " />
<glyph glyph-name="ring" unicode="&#x2da;" horiz-adv-x="139" d="M121 660 Q129 688 144 702.5 Q159 717 183 717 Q200 717 211.5 709.5 Q223 702 227.5 689 Q232 676 227 658 Q220 630 205 615.5 Q190 601 166 601 Q141 601 127.5 617.5 Q114 634 121 660 Z M149 659 Q145 644 150 636.5 Q155 629 168 629 Q181 629 188 636.5 Q195 644 199 659 Q203 674 198 681.5 Q193 689 180 689 Q168 689 161 682 Q154 675 149 659 Z " />
<glyph glyph-name="tonos" unicode="&#x384;" horiz-adv-x="72" d="M135 700 L169 700 L136 592 L108 592 L135 700 Z " />
<glyph glyph-name="dieresistonos" unicode="&#x385;" horiz-adv-x="180" d="M200 735 L234 735 L201 627 L174 627 L200 735 Z M121 645 Q124 657 131 663.5 Q138 670 148 670 Q161 670 164.5 663.5 Q168 657 165 645 Q162 634 155 628 Q148 622 135 622 Q125 622 121.5 628.5 Q118 635 121 645 Z M219 645 Q222 657 228.5 663.5 Q235 670 246 670 Q259 670 262 663.5 Q265 657 262 645 Q259 634 252.5 628 Q246 622 233 622 Q222 622 219 628.5 Q216 635 219 645 Z " />
<glyph glyph-name="uni0000" d="" />
<glyph glyph-name="uniF6E1" unicode="&#xf6e1;" horiz-adv-x="123" d="M-104 -193 L-93 -151 L-50 -151 L-57 -178 Q-64 -203 -76.5 -220.5 Q-89 -238 -106 -253 L-118 -243 Q-102 -229 -94 -218 Q-86 -207 -82 -193 L-104 -193 Z " />
<glyph glyph-name="uniF6E2" unicode="&#xf6e2;" horiz-adv-x="123" d="M56 404 L67 446 L110 446 L103 419 Q96 394 83.5 376.5 Q71 359 54 344 L42 354 Q58 368 66 379 Q74 390 78 404 L56 404 Z " />
<glyph glyph-name="uniF6E5" unicode="&#xf6e5;" horiz-adv-x="152" d="M84 2 L-71 2 L-63 30 L92 30 L84 2 Z " />
<glyph glyph-name="uniF6E6" unicode="&#xf6e6;" horiz-adv-x="152" d="M244 600 L89 600 L97 628 L252 628 L244 600 Z " />
<glyph glyph-name="uniF6E7" unicode="&#xf6e7;" horiz-adv-x="130" d="M-90 -152 L-48 -152 L-59 -194 L-101 -194 L-90 -152 Z " />
<glyph glyph-name="uniF6E8" unicode="&#xf6e8;" horiz-adv-x="129" d="M69 445 L111 445 L100 403 L58 403 L69 445 Z " />
</font>
</svg>
