<?xml version="1.0" encoding="UTF-8" standalone="no"?>
<!DOCTYPE svg PUBLIC "-//W3C//DTD SVG 1.1//EN" "http://www.w3.org/Graphics/SVG/1.1/DTD/svg11.dtd">
<svg width="100%" height="100%" viewBox="0 0 512 512" version="1.1" xmlns="http://www.w3.org/2000/svg" xmlns:xlink="http://www.w3.org/1999/xlink" xml:space="preserve" xmlns:serif="http://www.serif.com/" style="fill-rule:evenodd;clip-rule:evenodd;stroke-linejoin:round;stroke-miterlimit:2;">
    <rect id="Artboard1" x="0" y="0" width="512" height="512" style="fill:none;"/>
    <g id="Artboard11" serif:id="Artboard1">
        <g transform="matrix(4.99437,0,0,4.99437,6.28145,6.28509)">
            <path d="M91.288,16.192C90.769,15.704 90.727,15.911 90.727,16.325C91.633,18.701 91.487,20.791 90.605,22.584C87.912,28.099 78.326,30.835 71.153,30.513C69.681,30.446 68.308,30.257 67.122,29.93C63.255,28.871 61.666,23.789 58.383,23.684C58.103,23.773 57.741,23.884 57.338,24.002C55.443,24.55 52.36,25.336 50,25.677C47.64,25.335 44.556,24.549 42.662,24.002C42.259,23.884 41.897,23.772 41.617,23.684C38.334,23.789 36.745,28.871 32.878,29.93C31.693,30.257 30.32,30.446 28.847,30.513C21.674,30.835 12.088,28.099 9.395,22.584C8.513,20.79 8.367,18.701 9.273,16.325C9.273,15.912 9.232,15.705 8.712,16.192C2.578,31.022 13.326,39.323 26.207,39.515C20.506,40.193 16.44,42.518 10.791,43.262C12.269,47.62 17.392,49.296 22.118,48.99C25.355,48.779 28.41,47.646 29.957,45.763C30.092,46.292 30.243,46.808 30.389,47.322C33.356,57.746 37.93,65.802 34.957,79.085C36.949,80.983 42.463,79.354 42.451,83.252C44.122,83.609 46.024,83.834 48,83.963L48,84.089C48.668,84.094 49.335,84.078 50,84.06C50.665,84.078 51.332,84.094 52,84.089L52,83.963C53.975,83.834 55.878,83.609 57.549,83.252C57.537,79.353 63.051,80.983 65.043,79.085C62.07,65.802 66.644,57.746 69.611,47.322C69.757,46.808 69.909,46.291 70.043,45.763C71.591,47.647 74.646,48.78 77.882,48.99C82.608,49.296 87.731,47.62 89.209,43.262C83.56,42.517 79.494,40.192 73.793,39.515C86.674,39.323 97.422,31.023 91.288,16.192Z" style="fill:rgb(167,141,93);fill-rule:nonzero;stroke:rgb(167,141,93);stroke-width:3.34px;"/>
        </g>
    </g>
</svg>
